<?xml version="1.0" standalone="no"?>
<!DOCTYPE svg PUBLIC "-//W3C//DTD SVG 1.1//EN" "http://www.w3.org/Graphics/SVG/1.1/DTD/svg11.dtd">
<!--Generator: Xara Designer (www.xara.com), SVG filter version: 6.2.0.0-->
<svg stroke-width="0.501" stroke-linejoin="bevel" fill-rule="evenodd" xmlns:xlink="http://www.w3.org/1999/xlink" xmlns="http://www.w3.org/2000/svg" version="1.1" overflow="visible" width="328.101pt" height="172.101pt" viewBox="0 0 328.101 172.101">
 <defs>
	</defs>
 <g id="Document" fill="none" stroke="black" font-family="Times New Roman" font-size="16" transform="scale(1 -1)">
  <g id="Spread" transform="translate(0 -172.101)">
   <g id="Layer 1">
    <path d="M 0.351,172.499 L 0.351,0.75 L 328.1,0.75 L 328.1,172.499 L 0.351,172.499 Z" stroke="none" fill="#fbe9c2" stroke-linejoin="miter" marker-start="none" marker-end="none"/>
    <g id="Group" fill-rule="evenodd" stroke-linejoin="miter" stroke="none" stroke-width="0.168" stroke-miterlimit="79.8403193612775">
     <path d="M 126.182,133.361 C 127.223,133.401 134.654,133.541 135.134,133.293 L 135.149,133.051 C 134.174,132.991 126.633,132.909 126.241,133.068 L 126.182,133.361 Z" fill="#010000" marker-start="none" marker-end="none"/>
     <path d="M 232.265,112.705 C 232.962,112.125 234.045,109.711 234.144,108.774 C 234.171,108.519 234.161,108.314 233.989,108.11 C 233.586,107.971 233.118,108.043 232.696,108.062 C 232.114,108.058 231.351,107.978 230.806,108.183 C 230.707,108.302 230.65,108.342 230.614,108.498 C 230.382,109.537 231.738,111.842 232.265,112.705 Z" fill="#010000" marker-start="none" marker-end="none"/>
     <path d="M 232.289,111.96 C 233.04,111.092 233.63,109.55 233.852,108.431 C 233.353,108.412 232.849,108.433 232.351,108.438 C 231.864,108.443 231.373,108.477 230.887,108.499 C 231.154,109.725 231.721,110.852 232.289,111.96 Z" fill="#6fd1f5" marker-start="none" marker-end="none"/>
     <path d="M 218.289,130.154 C 219.136,129.308 220.259,126.701 220.525,125.545 C 220.698,124.795 220.725,123.989 220.274,123.326 C 219.867,122.724 219.27,122.53 218.597,122.385 C 218.074,122.415 217.546,122.494 217.098,122.782 C 216.635,123.079 216.352,123.536 216.24,124.069 C 215.854,125.898 217.342,128.623 218.289,130.154 Z" fill="#010000" marker-start="none" marker-end="none"/>
     <path d="M 218.311,129.382 C 219.078,128.483 219.874,126.605 220.123,125.456 C 220.264,124.797 220.282,124.099 219.886,123.522 C 219.537,123.018 219.058,122.902 218.492,122.78 C 218.099,122.803 217.726,122.848 217.378,123.048 C 216.976,123.279 216.708,123.638 216.597,124.087 C 216.2,125.679 217.55,128.058 218.311,129.382 Z" fill="#ffffff" marker-start="none" marker-end="none"/>
     <path d="M 230.878,60.886 C 231.063,60.609 231.172,60.242 231.332,59.939 C 232.103,58.479 233.087,56.959 233.266,55.285 C 233.351,54.486 233.27,53.512 232.72,52.875 C 232.241,52.322 231.652,52.228 230.965,52.192 C 230.482,52.246 230.011,52.336 229.589,52.589 C 229.07,52.903 228.746,53.393 228.608,53.978 C 228.092,56.163 229.756,59.086 230.878,60.886 Z" fill="#010000" marker-start="none" marker-end="none"/>
     <path d="M 230.805,59.789 C 231.62,58.802 232.555,56.915 232.787,55.634 C 232.925,54.876 232.96,53.899 232.473,53.254 C 232.1,52.763 231.669,52.694 231.086,52.622 C 230.655,52.651 230.205,52.707 229.827,52.935 C 229.382,53.205 229.113,53.633 229.008,54.138 C 228.633,55.945 229.887,58.321 230.805,59.789 Z" fill="#ffffff" marker-start="none" marker-end="none"/>
     <path d="M 104.387,115.319 C 104.409,115.307 104.433,115.298 104.453,115.283 C 105.176,114.746 106.766,111.386 106.987,110.517 C 107.192,109.72 107.177,108.861 106.731,108.145 C 106.275,107.409 105.546,107.13 104.744,106.938 C 104.334,106.945 103.944,106.982 103.56,107.145 C 102.9,107.428 102.353,108.058 102.105,108.725 C 101.336,110.796 103.558,113.357 104.342,115.212 L 104.387,115.319 Z" fill="#010000" marker-start="none" marker-end="none"/>
     <path d="M 104.463,114.474 C 105.09,114.019 106.394,111.122 106.6,110.288 C 106.755,109.659 106.771,108.94 106.411,108.377 C 106.023,107.769 105.376,107.546 104.714,107.381 C 104.262,107.382 103.907,107.463 103.506,107.678 C 102.97,107.967 102.662,108.396 102.515,108.985 C 102.081,110.715 103.607,113.023 104.463,114.474 Z" fill="#0565bb" marker-start="none" marker-end="none"/>
     <path d="M 108.885,52.392 C 106.518,56.554 105.555,63.012 105.201,67.78 C 103.989,84.084 107.557,98.632 118.397,111.123 C 118.669,111.436 118.946,111.744 119.224,112.05 C 119.503,112.357 119.786,112.66 120.069,112.961 C 120.355,113.262 120.643,113.559 120.934,113.855 C 121.224,114.15 121.518,114.441 121.814,114.732 C 122.11,115.02 122.41,115.307 122.711,115.59 C 123.014,115.874 123.318,116.154 123.626,116.433 C 123.934,116.71 124.243,116.983 124.557,117.255 C 124.87,117.527 125.185,117.795 125.503,118.06 C 125.821,118.325 126.143,118.587 126.465,118.846 C 126.788,119.105 127.115,119.361 127.443,119.615 C 127.77,119.867 128.102,120.116 128.435,120.363 C 128.768,120.609 129.104,120.851 129.442,121.09 C 129.779,121.329 130.12,121.565 130.462,121.798 C 130.805,122.032 131.15,122.261 131.497,122.486 C 131.845,122.714 132.194,122.935 132.544,123.155 C 132.897,123.374 133.249,123.59 133.605,123.801 C 133.961,124.014 134.319,124.223 134.679,124.427 C 135.039,124.634 135.4,124.835 135.764,125.034 C 136.127,125.232 136.494,125.426 136.861,125.617 C 137.229,125.808 137.598,125.996 137.969,126.179 C 138.34,126.362 138.714,126.543 139.088,126.719 C 139.464,126.895 139.839,127.068 140.218,127.238 C 140.596,127.406 140.976,127.572 141.357,127.734 C 141.738,127.896 142.121,128.053 142.507,128.207 C 142.891,128.361 143.277,128.511 143.663,128.658 C 144.052,128.804 144.441,128.948 144.83,129.085 C 145.22,129.224 145.612,129.36 146.005,129.491 C 146.398,129.623 146.792,129.749 147.187,129.873 C 147.583,129.996 147.98,130.116 148.378,130.232 C 148.775,130.348 149.174,130.46 149.574,130.567 C 149.973,130.675 150.375,130.779 150.777,130.878 C 151.179,130.979 151.581,131.076 151.985,131.167 C 154.264,131.666 156.56,132.069 158.889,132.23 C 160.855,132.365 162.849,132.495 164.821,132.465 C 165.19,132.462 165.559,132.455 165.928,132.445 C 166.296,132.434 166.666,132.422 167.034,132.403 C 167.402,132.386 167.771,132.365 168.14,132.341 C 168.508,132.316 168.876,132.289 169.243,132.256 C 169.611,132.225 169.98,132.191 170.346,132.151 C 170.713,132.114 171.08,132.071 171.446,132.026 C 171.813,131.98 172.178,131.93 172.544,131.877 C 172.908,131.826 173.273,131.769 173.637,131.71 C 174.002,131.65 174.366,131.587 174.728,131.521 C 175.091,131.455 175.454,131.385 175.815,131.311 C 176.178,131.239 176.538,131.161 176.899,131.08 C 177.26,131 177.618,130.916 177.977,130.829 C 178.335,130.741 178.693,130.651 179.05,130.557 C 179.407,130.463 179.763,130.364 180.118,130.264 C 180.473,130.164 180.827,130.058 181.181,129.95 C 181.533,129.843 181.885,129.732 182.236,129.617 C 182.586,129.503 182.937,129.386 183.286,129.263 C 183.635,129.142 183.981,129.018 184.327,128.89 C 184.673,128.763 185.019,128.631 185.362,128.496 C 185.706,128.363 186.048,128.225 186.39,128.083 C 186.73,127.942 187.07,127.798 187.409,127.651 C 187.747,127.503 188.084,127.352 188.419,127.198 C 188.755,127.045 189.089,126.887 189.421,126.727 C 189.753,126.567 190.085,126.403 190.413,126.236 C 190.743,126.07 191.071,125.9 191.397,125.726 C 191.723,125.553 192.047,125.377 192.369,125.198 C 192.693,125.019 193.013,124.836 193.333,124.651 C 193.651,124.466 193.969,124.278 194.285,124.085 C 194.599,123.894 194.913,123.7 195.225,123.503 C 195.538,123.305 195.847,123.105 196.155,122.901 C 196.463,122.698 196.769,122.491 197.073,122.282 C 197.377,122.073 197.679,121.861 197.979,121.646 C 200.084,120.094 202.109,118.445 204.053,116.699 C 205.296,115.576 206.478,114.385 207.741,113.286 C 207.764,113.271 207.787,113.256 207.81,113.242 C 208.8,112.63 209.986,112.195 211.044,111.698 C 212.651,110.944 214.251,110.098 215.771,109.18 C 216.204,108.918 216.635,108.651 217.061,108.376 C 217.489,108.103 217.912,107.823 218.331,107.538 C 218.751,107.252 219.167,106.961 219.578,106.665 C 219.99,106.369 220.397,106.069 220.803,105.761 C 221.206,105.456 221.606,105.143 222.002,104.826 C 222.399,104.508 222.79,104.187 223.177,103.859 C 223.564,103.531 223.947,103.199 224.326,102.861 C 224.704,102.524 225.078,102.181 225.448,101.833 C 225.817,101.487 226.183,101.134 226.543,100.778 C 226.903,100.421 227.259,100.059 227.61,99.693 C 227.96,99.326 228.307,98.955 228.648,98.58 C 228.989,98.205 229.324,97.824 229.656,97.441 C 229.988,97.057 230.314,96.668 230.635,96.275 C 230.956,95.882 231.272,95.485 231.583,95.085 C 231.893,94.684 232.199,94.278 232.498,93.869 C 232.798,93.461 233.092,93.047 233.382,92.631 C 233.963,91.775 234.85,90.758 235.213,89.81 C 235.705,89.629 236.247,89.362 236.469,88.848 C 236.575,88.597 236.557,88.326 236.447,88.082 C 236.291,87.739 235.979,87.47 235.621,87.356 C 235.357,87.272 234.993,87.246 234.738,87.377 C 234.498,87.499 234.355,87.671 234.289,87.935 C 234.17,88.427 234.325,88.972 234.523,89.421 C 230.048,90.73 225.501,90.635 220.998,89.569 C 221.65,86.732 222.257,83.939 222.636,81.047 C 223.955,70.973 223.058,60.344 219.574,50.775 C 218.796,48.633 217.972,46.46 216.898,44.445 C 219.475,41.483 222.674,37.787 222.753,33.656 C 222.776,32.418 222.501,31.213 222.148,30.035 C 221.701,28.537 220.999,26.863 221.06,25.286 C 221.08,24.767 221.213,24.274 221.614,23.917 C 222.167,23.424 223.036,23.375 223.736,23.444 C 224.8,23.553 225.73,24.074 226.403,24.897 C 227.954,26.793 227.513,28.937 227.291,31.168 C 228.524,30.02 229.585,28.592 230.303,27.067 C 232.113,23.215 232.122,18.653 230.666,14.692 C 228.843,9.729 224.436,5.157 219.719,2.766 C 217.958,1.873 216.031,1.345 214.246,0.512 L 214.153,0.467 C 221.643,0.365 229.141,0.54 236.632,0.463 C 237.003,0.459 237.704,0.51 237.97,0.239 L 237.898,0.13 C 237.157,-0.102 231.477,0.048 230.209,0.048 L 207.406,0.07 L 116.677,0.082 L 100.47,0.08 L 95.415,0.08 C 94.656,0.078 93.843,0.008 93.091,0.061 C 92.82,0.078 92.542,0.144 92.294,0.25 C 92.105,0.333 92.157,0.272 92.097,0.431 C 93.005,0.718 98.085,0.546 99.389,0.542 C 104.988,0.526 110.59,0.456 116.188,0.518 C 108.817,3.15 102.475,5.967 97.986,12.778 C 95.752,16.17 94.049,21.219 94.881,25.297 C 95.537,23.65 96.381,22.139 98.053,21.335 C 98.827,20.963 100.036,20.585 100.86,20.92 C 101.241,21.076 101.497,21.35 101.648,21.732 C 102.414,23.652 99.624,27.069 98.599,28.628 C 97.91,29.672 97.238,30.721 96.73,31.869 C 95.204,35.319 95.29,39.423 96.634,42.907 C 98.058,46.597 101.416,51.049 105.136,52.684 C 104.737,51.903 104.131,51.241 103.781,50.434 C 102.666,47.859 101.866,44.293 102.978,41.586 C 103.378,40.613 104.068,39.765 105.064,39.368 C 105.901,39.036 106.84,39.083 107.658,39.445 C 108.918,40.001 109.709,41.192 110.157,42.448 C 111.262,45.543 110.234,49.515 108.885,52.392 Z" fill="#010000" marker-start="none" marker-end="none"/>
     <path d="M 209.334,81.266 C 209.486,81.24 209.654,81.208 209.78,81.111 C 209.947,80.982 210.004,80.813 209.982,80.606 C 209.957,80.354 209.751,80.199 209.572,80.047 C 209.405,80.088 209.215,80.141 209.085,80.26 C 208.902,80.428 208.901,80.536 208.884,80.764 C 209.006,81.039 209.099,81.088 209.334,81.266 Z" fill="#3693dd" marker-start="none" marker-end="none"/>
     <path d="M 127.408,73.632 C 127.443,73.597 127.481,73.567 127.512,73.53 C 127.729,73.263 128.044,72.282 127.985,71.963 L 127.741,71.901 C 127.435,71.91 127.224,71.856 126.992,72.069 C 126.899,72.557 127.242,73.169 127.408,73.632 Z" fill="#37b5ee" marker-start="none" marker-end="none"/>
     <path d="M 235.022,89.211 C 235.308,89.195 235.535,89.189 235.729,88.95 C 235.863,88.784 235.918,88.612 235.909,88.403 C 235.895,88.069 235.77,87.928 235.543,87.704 C 235.37,87.733 235.169,87.753 235.015,87.849 C 234.845,87.952 234.697,88.104 234.669,88.309 C 234.619,88.678 234.808,88.932 235.022,89.211 Z" fill="#3693dd" marker-start="none" marker-end="none"/>
     <path d="M 142.663,67.268 L 143.983,67.291 L 143.975,62.335 L 142.666,62.341 L 142.663,67.268 Z" fill="#ef5857" marker-start="none" marker-end="none"/>
     <path d="M 130.405,67.305 L 133.481,67.257 C 133.404,65.579 133.454,63.884 133.456,62.204 L 130.436,62.216 C 130.391,63.91 130.413,65.61 130.405,67.305 Z" fill="#ef5857" marker-start="none" marker-end="none"/>
     <path d="M 134.557,67.273 C 135.57,67.222 136.597,67.248 137.612,67.243 C 137.608,65.595 137.658,63.934 137.571,62.287 C 136.553,62.237 135.534,62.218 134.515,62.23 C 134.507,63.563 134.337,66.1 134.557,67.273 Z" fill="#ef5857" marker-start="none" marker-end="none"/>
     <path d="M 138.545,67.228 L 142.084,67.232 C 142.103,65.603 142.106,63.972 142.091,62.342 C 140.921,62.304 139.745,62.331 138.575,62.332 C 138.521,63.959 138.553,65.599 138.545,67.228 Z" fill="#a87285" marker-start="none" marker-end="none"/>
     <path d="M 125.009,67.297 L 129.374,67.306 L 129.326,62.222 C 127.894,62.177 126.457,62.206 125.025,62.212 C 125.03,63.907 125.025,65.602 125.009,67.297 Z" fill="#ef5857" marker-start="none" marker-end="none"/>
     <path d="M 181.656,34.842 C 182.165,34.907 182.676,34.987 183.187,35.031 L 183.835,24.62 C 183.971,22.627 184.409,19.696 184.131,17.782 C 183.958,16.594 183.444,15.423 182.648,14.519 C 181.527,13.25 179.856,12.406 178.16,12.312 C 177.563,12.28 176.93,12.343 176.346,12.469 C 177.163,13.222 179.52,13.267 181.067,14.798 C 181.82,15.542 182.492,16.546 182.701,17.595 C 182.958,18.885 182.7,20.335 182.618,21.637 C 182.442,24.453 182.236,27.268 181.999,30.08 C 181.874,31.62 181.641,33.215 181.655,34.752 L 181.656,34.842 Z" fill="#37b5ee" marker-start="none" marker-end="none"/>
     <path d="M 179.084,34.678 C 179.94,34.71 180.799,34.865 181.656,34.842 L 181.655,34.752 C 181.641,33.215 181.874,31.62 181.999,30.08 C 182.236,27.268 182.442,24.453 182.618,21.637 C 182.7,20.335 182.958,18.885 182.701,17.595 C 182.492,16.546 181.82,15.542 181.067,14.798 C 179.52,13.267 177.163,13.222 176.346,12.469 C 174.816,12.759 173.175,14.481 172.165,15.565 C 171.587,16.188 170.803,17.056 170.866,17.964 C 170.89,18.293 171.045,18.565 171.304,18.767 C 171.67,19.055 172.249,19.271 172.718,19.196 C 173.949,19 174.367,17.508 175.045,16.657 C 175.662,15.884 176.614,15.233 177.624,15.17 C 178.216,15.133 178.78,15.325 179.217,15.727 C 179.615,16.092 179.969,16.633 180.053,17.173 C 180.262,18.515 179.987,20.042 179.9,21.399 L 179.363,29.713 C 179.252,31.306 179.026,32.982 179.079,34.576 C 179.08,34.609 179.082,34.645 179.084,34.678 Z" fill="#0565bb" marker-start="none" marker-end="none"/>
     <path d="M 145.678,82.535 C 147.944,82.627 149.893,82.075 151.993,81.312 C 151.922,80.622 151.114,75.705 150.939,75.445 C 150.765,75.331 150.583,75.199 150.358,75.231 C 149.989,75.283 148.681,75.923 148.167,76.1 C 144.666,77.307 141.301,77.901 137.594,77.694 C 134.864,77.534 132.422,77.023 129.835,76.136 C 134.507,79.278 139.938,82.285 145.678,82.535 Z" fill="#dd1918" marker-start="none" marker-end="none"/>
     <path d="M 219.136,93.188 C 223.555,93.432 229.09,92.608 232.952,90.327 C 232.771,90.366 232.592,90.404 232.41,90.438 C 232.229,90.474 232.047,90.508 231.865,90.539 C 231.683,90.571 231.502,90.6 231.319,90.628 C 231.137,90.655 230.953,90.682 230.771,90.705 C 230.588,90.729 230.405,90.75 230.221,90.77 C 230.038,90.79 229.854,90.808 229.671,90.823 C 229.486,90.839 229.301,90.853 229.118,90.866 C 228.934,90.877 228.75,90.887 228.566,90.894 C 228.381,90.902 228.197,90.908 228.013,90.912 C 227.828,90.916 227.643,90.918 227.459,90.918 C 227.274,90.918 227.091,90.916 226.906,90.912 C 226.721,90.908 226.536,90.902 226.351,90.894 C 226.167,90.886 225.983,90.876 225.8,90.864 C 225.616,90.852 225.431,90.838 225.246,90.822 C 225.062,90.807 224.88,90.789 224.697,90.769 C 224.512,90.749 224.33,90.727 224.146,90.704 C 223.963,90.68 223.781,90.653 223.599,90.626 C 223.416,90.598 223.234,90.568 223.051,90.537 C 222.87,90.505 222.689,90.472 222.508,90.437 C 222.326,90.401 222.146,90.363 221.966,90.325 C 221.786,90.284 221.605,90.243 221.426,90.199 C 221.247,90.156 221.068,90.111 220.889,90.064 C 220.711,90.017 220.533,89.969 220.356,89.917 C 220.178,89.866 220.002,89.814 219.825,89.758 C 219.649,89.703 219.474,89.647 219.299,89.589 C 219.124,89.53 218.949,89.469 218.776,89.407 C 218.602,89.345 218.429,89.28 218.257,89.214 C 218.084,89.149 217.913,89.081 217.742,89.012 C 217.571,88.941 217.401,88.871 217.232,88.797 C 217.061,88.724 216.893,88.648 216.726,88.57 C 216.558,88.495 216.391,88.416 216.225,88.334 C 216.059,88.254 215.894,88.171 215.73,88.088 C 213.177,86.803 210.782,84.819 209.166,82.466 C 208.395,84.581 207.593,86.685 206.762,88.778 C 210.749,91.31 214.424,92.762 219.136,93.188 Z" fill="#dd1918" marker-start="none" marker-end="none"/>
     <path d="M 200.713,31.659 L 212.574,31.681 L 212.588,25.106 C 212.591,24.059 212.686,22.913 212.554,21.877 L 212.472,21.887 L 212.468,21.808 L 200.715,21.798 C 200.653,25.082 200.708,28.374 200.713,31.659 Z" fill="#bdb9b2" marker-start="none" marker-end="none"/>
     <path d="M 136.693,61.82 C 139.044,61.845 141.395,61.851 143.745,61.835 L 143.781,54.259 C 139.902,54.28 136.023,54.281 132.145,54.262 L 125.019,54.254 L 125.012,61.767 C 128.903,61.836 132.801,61.811 136.693,61.82 Z" fill="#ffffff" marker-start="none" marker-end="none"/>
     <path d="M 176.415,90.345 L 176.507,90.348 C 176.541,90.315 176.587,90.291 176.609,90.25 C 176.643,90.187 177.177,80.823 177.22,79.818 C 175.482,80.281 173.761,80.72 171.978,80.97 C 165.087,81.934 158.624,80.679 152.998,76.422 C 152.641,76.126 152.085,75.538 151.655,75.416 C 151.293,75.958 152.192,79.766 152.345,80.575 C 160.024,85.242 167.462,88.871 176.415,90.345 Z" fill="#dd1918" marker-start="none" marker-end="none"/>
     <path d="M 203.447,32.051 C 203.329,33.303 203.285,35.476 204.165,36.491 C 204.345,36.698 204.578,36.833 204.861,36.831 C 206.056,36.827 207.273,35.136 208.485,36.185 C 209.321,36.906 209.663,38.41 209.71,39.469 C 209.9,43.775 207.787,47.044 209.678,51.619 C 209.815,51.949 209.97,52.272 210.143,52.586 C 210.314,52.901 210.501,53.205 210.704,53.5 C 210.908,53.794 211.126,54.078 211.36,54.35 C 211.592,54.622 211.84,54.881 212.101,55.128 C 212.556,55.549 213.054,55.914 213.558,56.275 C 212.549,53.991 212.001,51.879 212.929,49.45 C 214.002,46.642 216.388,44.401 218.272,42.122 C 219.516,40.617 220.665,38.915 221.436,37.114 C 221.96,35.888 222.326,34.537 222.278,33.194 C 222.184,30.537 220.846,28.032 220.553,25.37 C 219.827,26.412 219.91,28.414 219.767,29.649 C 219.172,34.76 217.167,38.192 213.149,41.377 C 213.607,40.183 213.793,38.941 213.594,37.671 C 213.33,35.973 212.328,34.369 210.935,33.365 C 210.326,32.927 209.648,32.594 209.048,32.147 L 208.988,32.102 C 207.142,32.101 205.294,32.084 203.447,32.051 Z" fill="#fbc421" marker-start="none" marker-end="none"/>
     <path d="M 119.759,53.799 C 129.224,53.725 138.688,53.73 148.153,53.815 C 148.127,51.813 148.125,49.811 148.144,47.81 C 147.455,47.66 146.503,47.766 145.79,47.768 L 140.84,47.785 L 119.762,47.784 L 119.759,53.799 Z" fill="#99584c" marker-start="none" marker-end="none"/>
     <path d="M 186.371,91.51 C 191.3,91.741 196.375,91.049 201.189,90.037 C 202.843,89.688 204.518,88.963 206.195,88.811 C 207.115,86.653 207.927,84.434 208.724,82.228 C 205.579,83.904 202.242,84.687 198.718,84.991 C 193.328,85.127 188.36,84.053 183.401,81.967 C 181.97,81.366 180.474,80.727 179.203,79.829 C 179.205,83.45 178.872,87.151 178.621,90.766 C 181.203,91.129 183.767,91.363 186.371,91.51 Z" fill="#dd1918" marker-start="none" marker-end="none"/>
     <path d="M 200.71,21.35 C 204.676,21.383 208.64,21.386 212.606,21.36 L 212.645,7.152 L 212.646,3.042 C 212.647,2.246 212.709,1.414 212.616,0.624 L 212.474,0.519 L 200.711,0.52 L 200.71,21.35 Z" fill="#99584c" marker-start="none" marker-end="none"/>
     <path d="M 112.529,84.289 C 114.022,83.451 115.464,82.047 116.68,80.842 C 116.879,80.644 117.074,80.443 117.267,80.24 C 117.46,80.036 117.651,79.83 117.837,79.621 C 118.023,79.413 118.207,79.201 118.388,78.987 C 118.57,78.772 118.746,78.555 118.92,78.336 C 119.094,78.117 119.265,77.894 119.433,77.671 C 119.602,77.446 119.766,77.219 119.927,76.989 C 120.09,76.76 120.246,76.529 120.401,76.295 C 120.556,76.062 120.707,75.826 120.854,75.588 C 121.002,75.35 121.147,75.109 121.288,74.866 C 121.428,74.625 121.565,74.38 121.698,74.135 C 121.832,73.888 121.962,73.639 122.09,73.389 C 122.216,73.139 122.338,72.887 122.457,72.634 C 122.577,72.379 122.692,72.124 122.803,71.867 C 122.914,71.609 123.023,71.352 123.128,71.091 C 123.231,70.832 123.331,70.57 123.429,70.307 C 123.524,70.043 123.617,69.779 123.707,69.513 C 123.948,68.813 124.296,68.034 124.418,67.305 C 124.619,66.089 124.499,64.721 124.492,63.49 C 124.478,61.34 124.474,59.19 124.485,57.04 C 123.167,57.781 120.547,61.299 119.693,62.628 C 119.209,63.378 118.807,64.164 118.408,64.96 C 115.612,60.006 115.1,54.204 115.771,48.648 C 114.364,49.556 112.973,50.44 111.763,51.613 C 110.887,52.459 110.111,53.516 109.145,54.251 C 106.561,62.675 111.593,65.813 113.733,72.862 C 115.001,77.038 114.567,80.465 112.529,84.289 Z" fill="#fbc421" marker-start="none" marker-end="none"/>
     <path d="M 213.149,41.377 C 217.167,38.192 219.172,34.76 219.767,29.649 C 219.91,28.414 219.827,26.412 220.553,25.37 C 220.642,24.598 220.777,24.027 221.413,23.505 C 222.087,22.951 223.025,22.844 223.864,22.946 C 225.082,23.092 226.062,23.718 226.805,24.674 C 228.009,26.223 228.115,27.925 227.988,29.815 C 230.679,26.353 231.687,22.679 231.122,18.301 C 230.414,12.813 226.908,8.442 222.639,5.176 C 219.737,2.955 216.534,1.683 213.073,0.595 L 213.074,5.119 C 213.079,11.049 213.122,16.986 213.049,22.916 C 212.91,25.96 213.005,29.042 212.999,32.092 L 208.988,32.102 L 209.048,32.147 C 209.648,32.594 210.326,32.927 210.935,33.365 C 212.328,34.369 213.33,35.973 213.594,37.671 C 213.793,38.941 213.607,40.183 213.149,41.377 Z" fill="#fc8108" marker-start="none" marker-end="none"/>
     <path d="M 213.049,22.916 C 215.06,23.832 216.702,25.765 218.092,27.444 C 217.213,25.056 216.287,21.421 217.439,18.99 C 217.732,18.37 218.213,17.86 218.869,17.623 C 219.623,17.351 220.475,17.48 221.183,17.829 C 221.245,17.86 221.305,17.892 221.363,17.924 C 221.423,17.958 221.48,17.992 221.539,18.029 C 221.595,18.064 221.651,18.102 221.708,18.142 C 221.763,18.181 221.818,18.222 221.872,18.263 C 221.924,18.304 221.976,18.348 222.028,18.393 C 222.08,18.437 222.129,18.483 222.177,18.529 C 222.228,18.578 222.274,18.626 222.321,18.675 C 222.368,18.724 222.413,18.775 222.456,18.827 C 222.501,18.878 222.543,18.93 222.584,18.985 C 222.625,19.039 222.665,19.094 222.703,19.151 C 222.741,19.206 222.778,19.263 222.814,19.321 C 222.85,19.379 222.884,19.438 222.917,19.496 C 222.949,19.556 222.98,19.616 223.01,19.678 C 223.039,19.738 223.068,19.801 223.094,19.864 C 223.12,19.926 223.144,19.989 223.169,20.052 C 223.191,20.117 223.213,20.181 223.233,20.246 C 223.325,20.54 223.39,20.845 223.458,21.146 C 224.579,19.426 224.727,17.405 224.314,15.423 C 223.625,12.113 220.953,9.59 218.222,7.815 C 216.6,6.763 214.847,5.884 213.074,5.119 C 213.079,11.049 213.122,16.986 213.049,22.916 Z" fill="#dd1918" marker-start="none" marker-end="none"/>
     <path d="M 171.597,115.341 L 171.695,115.321 C 171.381,114.964 170.196,114.56 169.713,114.298 C 168.477,113.625 167.32,112.776 166.214,111.908 C 156.672,104.425 153.406,93.361 152.014,81.79 C 150.913,82.213 149.808,82.562 148.641,82.755 C 141.79,83.886 134.219,79.81 128.804,75.925 L 127.747,75.21 C 128.678,79.9 130.62,84.51 133.036,88.622 C 139.858,100.233 150.902,108.542 163.502,113.025 C 166.155,113.968 168.875,114.634 171.597,115.341 Z" fill="#ef5857" marker-start="none" marker-end="none"/>
     <path d="M 184.666,116.912 C 189.564,117.079 194.573,116.472 199.333,115.334 C 199.782,115.227 200.231,115.116 200.678,114.998 C 201.125,114.881 201.57,114.759 202.014,114.631 C 202.457,114.503 202.9,114.369 203.34,114.231 C 203.781,114.092 204.221,113.948 204.658,113.798 C 205.095,113.648 205.529,113.493 205.962,113.333 C 206.395,113.173 206.827,113.008 207.257,112.837 C 207.686,112.665 208.113,112.49 208.537,112.309 C 208.962,112.127 209.385,111.94 209.805,111.749 C 210.225,111.557 210.643,111.36 211.058,111.158 C 211.474,110.957 211.887,110.749 212.298,110.538 C 212.708,110.325 213.116,110.108 213.521,109.887 C 213.926,109.665 214.329,109.438 214.727,109.205 C 215.127,108.973 215.524,108.737 215.918,108.495 C 216.312,108.253 216.703,108.007 217.091,107.756 C 217.477,107.505 217.862,107.25 218.244,106.989 C 218.625,106.728 219.003,106.463 219.379,106.192 C 219.752,105.923 220.124,105.649 220.493,105.37 C 220.861,105.09 221.225,104.806 221.587,104.52 C 221.948,104.231 222.306,103.939 222.659,103.642 C 223.014,103.345 223.364,103.044 223.711,102.74 C 224.057,102.433 224.4,102.124 224.74,101.811 C 225.078,101.497 225.415,101.179 225.745,100.857 C 226.077,100.535 226.404,100.21 226.728,99.88 C 227.05,99.549 227.37,99.215 227.686,98.878 C 228,98.54 228.311,98.199 228.618,97.854 C 228.925,97.508 229.227,97.159 229.525,96.806 C 229.824,96.453 230.118,96.097 230.407,95.737 C 230.697,95.377 230.983,95.014 231.263,94.646 C 231.543,94.28 231.82,93.909 232.091,93.536 C 232.362,93.163 232.629,92.785 232.891,92.405 C 233.154,92.024 233.412,91.641 233.664,91.254 C 233.917,90.868 234.165,90.479 234.408,90.086 C 233.434,90.519 232.518,91.085 231.546,91.528 C 230.334,92.082 229.059,92.453 227.785,92.833 C 227.234,92.975 226.679,93.105 226.121,93.22 C 219.221,94.634 212.391,93.121 206.542,89.266 C 205.229,93.295 203.382,97.357 201.186,100.982 C 197.246,107.489 191.835,113.048 184.476,115.53 C 182.968,116.038 181.462,116.169 179.944,116.553 L 179.869,116.573 C 181.419,116.85 183.093,116.836 184.666,116.912 Z" fill="#ef5857" marker-start="none" marker-end="none"/>
     <path d="M 191.118,61.655 C 194.157,61.735 197.216,61.698 200.256,61.67 L 200.315,0.512 L 191.157,0.493 C 191.015,3.901 191.11,7.349 191.104,10.761 L 191.098,31.595 L 191.093,51.234 C 191.093,54.691 190.956,58.204 191.118,61.655 Z" fill="#ffffff" marker-start="none" marker-end="none"/>
     <path d="M 118.408,64.96 C 118.807,64.164 119.209,63.378 119.693,62.628 C 120.547,61.299 123.167,57.781 124.485,57.04 L 124.471,54.32 C 122.736,54.315 120.993,54.344 119.26,54.27 C 119.255,52.104 119.231,49.936 119.255,47.771 C 118.52,47.781 117.781,47.773 117.046,47.804 C 116.951,44.617 117.101,41.423 117.013,38.239 C 117.17,31.425 117.036,24.586 117.02,17.77 L 116.982,6.287 C 116.973,4.704 117.019,3.111 116.967,1.531 L 116.967,0.73 C 116.093,0.983 115.241,1.345 114.386,1.657 C 110.16,3.199 106.037,5.107 102.631,8.107 C 99.306,11.035 96.615,15.009 95.635,19.356 C 95.313,20.778 95.211,22.191 95.115,23.639 C 96.233,21.999 97.369,20.792 99.39,20.394 C 100.093,20.256 100.852,20.299 101.452,20.731 C 104.016,22.578 99.757,27.727 98.609,29.454 C 98.072,30.247 97.61,31.081 97.221,31.957 C 97.153,32.113 97.089,32.272 97.027,32.43 C 96.965,32.59 96.905,32.75 96.849,32.911 C 96.792,33.072 96.74,33.234 96.689,33.397 C 96.638,33.56 96.59,33.725 96.545,33.889 C 96.502,34.053 96.46,34.22 96.421,34.386 C 96.382,34.552 96.348,34.719 96.316,34.886 C 96.282,35.054 96.253,35.222 96.227,35.39 C 96.2,35.559 96.176,35.728 96.157,35.898 C 96.137,36.068 96.119,36.238 96.104,36.408 C 96.091,36.578 96.079,36.748 96.071,36.919 C 96.063,37.089 96.058,37.26 96.056,37.43 C 96.055,37.601 96.056,37.771 96.061,37.942 C 96.064,38.113 96.072,38.283 96.083,38.453 C 96.093,38.624 96.108,38.794 96.123,38.964 C 96.14,39.133 96.16,39.303 96.183,39.471 C 96.206,39.642 96.232,39.81 96.261,39.978 C 97.064,44.507 99.929,48.656 103.666,51.277 C 102.492,48.72 101.708,45.996 102.113,43.158 C 102.32,41.713 102.901,40.216 104.132,39.342 C 104.182,39.307 104.233,39.271 104.285,39.239 C 104.335,39.205 104.388,39.173 104.44,39.142 C 104.494,39.112 104.548,39.082 104.603,39.055 C 104.657,39.027 104.713,39 104.768,38.975 C 104.825,38.95 104.881,38.926 104.938,38.904 C 104.996,38.881 105.053,38.862 105.112,38.841 C 105.169,38.822 105.229,38.804 105.288,38.788 C 105.346,38.771 105.406,38.756 105.466,38.744 C 105.525,38.73 105.586,38.717 105.647,38.708 C 105.707,38.696 105.767,38.687 105.829,38.68 C 105.889,38.674 105.951,38.668 106.012,38.663 C 106.072,38.659 106.134,38.656 106.195,38.655 C 106.257,38.654 106.318,38.654 106.38,38.656 C 106.442,38.657 106.502,38.662 106.564,38.667 C 106.624,38.671 106.686,38.678 106.746,38.686 C 106.807,38.694 106.867,38.703 106.928,38.715 C 108.154,38.939 109.122,39.736 109.794,40.751 C 112.562,44.936 110.051,49.895 109.145,54.251 C 110.111,53.516 110.887,52.459 111.763,51.613 C 112.973,50.44 114.364,49.556 115.771,48.648 C 115.1,54.204 115.612,60.006 118.408,64.96 Z" fill="#fc8108" marker-start="none" marker-end="none"/>
     <path d="M 117.013,38.239 C 117.17,31.425 117.036,24.586 117.02,17.77 L 116.982,6.287 C 116.973,4.704 117.019,3.111 116.967,1.531 C 116.756,2.865 116.907,4.442 116.912,5.803 C 115.79,6.12 114.648,6.364 113.538,6.728 C 109.644,8.005 105.855,10.195 103.258,13.408 C 102.021,14.941 100.993,16.64 99.931,18.296 C 100.57,18.072 101.207,17.843 101.857,17.653 C 103.605,17.143 105.72,16.722 107.391,17.688 C 108.914,18.57 109.79,20.55 110.223,22.181 C 110.968,24.979 110.438,28.477 109.284,31.097 C 108.599,32.656 107.665,34.117 106.813,35.59 C 109.809,32.993 113.153,31.009 117.004,29.983 C 116.997,32.73 116.92,35.496 117.013,38.239 Z" fill="#dd1918" marker-start="none" marker-end="none"/>
     <path d="M 177.349,116.161 C 180.789,116.218 184.281,115.325 187.364,113.814 C 196.946,109.119 202.688,99.001 206.031,89.277 C 203.881,89.731 201.807,90.435 199.638,90.845 C 192.746,92.152 185.889,92.238 178.958,91.235 C 177.494,91.023 176.004,90.844 174.565,90.49 C 168.956,89.464 163.403,87.251 158.382,84.588 C 156.378,83.526 154.443,82.334 152.465,81.222 C 152.619,83.842 153.041,86.457 153.595,89.019 C 155.117,96.053 157.841,102.554 162.668,107.967 C 165.457,111.096 169.729,114.392 173.77,115.615 C 174.925,115.964 176.149,116.094 177.349,116.161 Z" fill="#ffffff" marker-start="none" marker-end="none"/>
     <path d="M 209.52,82.053 L 209.573,82.146 C 211.814,86.027 216.816,88.454 220.998,89.569 C 221.65,86.732 222.257,83.939 222.636,81.047 C 223.955,70.973 223.058,60.344 219.574,50.775 C 218.796,48.633 217.972,46.46 216.898,44.445 C 215.387,45.863 213.674,48.261 213.118,50.281 C 212.304,53.237 213.619,55.384 215.045,57.867 C 211.26,55.627 208.459,52.292 208.454,47.71 C 208.454,45.886 208.835,44.005 209.075,42.198 C 209.277,40.661 209.465,38.773 208.807,37.314 C 208.62,36.899 208.335,36.537 207.889,36.393 C 207.013,36.109 205.737,37.067 204.983,37.468 C 204.531,37.277 204.162,37.104 203.844,36.714 C 202.848,35.49 202.857,33.531 203.021,32.043 L 200.706,32.074 C 200.579,42.066 200.676,52.073 200.668,62.065 C 197.391,62.146 194.08,62.057 190.801,62.039 C 189.538,61.199 188.34,60.157 187.149,59.213 C 185.038,57.519 182.909,55.849 180.76,54.206 L 179.639,73.249 C 179.511,75.29 179.451,77.338 179.276,79.375 C 180.579,80.227 182.032,80.865 183.46,81.471 C 188.736,83.71 194.76,85.163 200.515,84.341 C 201.457,84.207 202.389,84.022 203.31,83.785 C 204.233,83.546 208.144,82.313 208.661,81.63 C 208.557,81.418 208.448,81.202 208.372,80.978 C 208.283,80.719 208.284,80.438 208.428,80.195 C 208.583,79.932 208.934,79.67 209.24,79.628 C 209.566,79.584 210.081,79.66 210.33,79.897 C 210.515,80.075 210.557,80.348 210.527,80.593 C 210.439,81.325 210.052,81.618 209.52,82.053 Z" fill="#18d296" marker-start="none" marker-end="none"/>
     <path d="M 190.56,61.294 C 190.595,61.257 190.636,61.226 190.661,61.183 C 190.789,60.972 190.708,50.014 190.708,48.879 L 190.75,0.486 L 167.993,0.496 C 167.863,5.234 167.979,10.007 167.972,14.748 L 155.912,14.745 C 155.89,9.997 155.899,5.246 155.94,0.498 L 151.077,0.492 L 151.017,30.739 C 153.54,32.683 156.051,34.643 158.548,36.62 L 171.121,46.341 C 173.66,48.291 176.181,50.254 178.787,52.116 C 178.863,50.248 179.862,35.611 179.626,35.235 C 179.388,35.182 179.134,35.142 178.918,35.024 C 178.756,34.934 178.68,34.838 178.653,34.646 C 178.471,33.436 178.794,31.42 178.886,30.12 L 179.481,21.257 C 179.558,20.16 179.906,18.112 179.583,17.121 C 179.398,16.551 178.988,16.01 178.429,15.767 C 178.009,15.586 177.545,15.598 177.11,15.713 C 174.893,16.304 174.949,18.851 173.145,19.527 C 172.66,19.708 172.155,19.656 171.691,19.44 C 171.2,19.21 170.686,18.82 170.526,18.278 C 170.356,17.711 170.575,17.061 170.855,16.568 C 171.779,14.945 174.383,12.526 176.241,12.051 C 176.348,12.024 176.455,12.001 176.563,11.981 C 176.672,11.959 176.78,11.941 176.889,11.925 C 176.998,11.909 177.107,11.896 177.216,11.887 C 177.326,11.876 177.437,11.869 177.546,11.865 C 177.656,11.859 177.766,11.857 177.875,11.858 C 177.986,11.859 178.097,11.862 178.206,11.869 C 178.315,11.876 178.425,11.885 178.534,11.897 C 178.644,11.909 178.753,11.924 178.861,11.942 C 178.971,11.959 179.078,11.979 179.187,12.001 C 179.294,12.024 179.402,12.05 179.506,12.08 C 179.613,12.107 179.72,12.138 179.824,12.173 C 179.929,12.206 180.032,12.243 180.136,12.281 C 180.239,12.32 180.341,12.361 180.441,12.406 C 180.542,12.449 180.641,12.495 180.74,12.546 C 180.839,12.594 180.937,12.645 181.032,12.7 C 181.129,12.753 181.222,12.809 181.315,12.867 C 182.946,13.886 184.077,15.44 184.489,17.325 C 184.873,19.078 184.477,21.404 184.361,23.214 L 183.89,30.402 C 183.796,31.741 183.797,33.115 183.642,34.447 C 183.605,34.76 183.56,35.047 183.387,35.314 C 182.872,35.6 182.366,35.49 181.805,35.428 C 181.702,38.045 181.491,40.658 181.331,43.273 L 180.781,53.705 C 182.086,54.526 183.291,55.628 184.504,56.584 L 190.56,61.294 Z" fill="#ffffff" marker-start="none" marker-end="none"/>
     <path d="M 117.488,47.336 L 137.636,47.352 C 141.926,47.356 146.235,47.447 150.521,47.315 L 150.62,15.45 L 150.629,5.527 C 150.629,3.897 150.732,2.184 150.596,0.564 L 150.447,0.489 C 139.454,0.572 128.462,0.582 117.472,0.518 C 117.34,5.182 117.487,9.863 117.468,14.529 L 117.488,47.336 Z" fill="#ffffff" marker-start="none" marker-end="none"/>
     <path d="M 123.008,12.521 C 124.557,12.521 126.105,12.511 127.652,12.495 C 127.665,11.606 127.785,7.124 127.58,6.595 C 127.53,6.467 127.443,6.479 127.323,6.437 C 125.775,6.425 124.22,6.387 122.672,6.438 C 122.601,7.35 122.472,11.728 122.711,12.328 C 122.767,12.469 122.877,12.467 123.008,12.521 Z" fill="#010000" marker-start="none" marker-end="none"/>
     <path d="M 123.228,12.106 L 127.306,12.102 C 127.291,10.405 127.43,8.62 127.259,6.938 L 127.138,6.846 L 123.029,6.832 C 123.026,8.286 122.865,10.653 123.074,12.006 L 123.228,12.106 Z" fill="#37b5ee" marker-start="none" marker-end="none"/>
     <path d="M 131.141,12.479 C 132.824,12.494 134.508,12.487 136.192,12.459 C 136.364,10.513 136.219,8.434 136.187,6.476 C 135.099,6.268 132.378,6.381 131.271,6.527 C 130.958,7.217 131.134,11.495 131.141,12.479 Z" fill="#010000" marker-start="none" marker-end="none"/>
     <path d="M 131.496,12.099 C 132.931,12.108 134.367,12.1 135.801,12.073 L 135.79,6.825 L 131.505,6.816 L 131.496,12.099 Z" fill="#37b5ee" marker-start="none" marker-end="none"/>
     <path d="M 140.079,32.571 C 141.762,32.561 143.488,32.651 145.165,32.525 C 145.292,30.554 145.232,28.484 145.177,26.506 C 143.505,26.443 141.816,26.49 140.14,26.489 C 140.068,28.514 140.076,30.546 140.079,32.571 Z" fill="#010000" marker-start="none" marker-end="none"/>
     <path d="M 140.474,32.142 C 141.924,32.183 143.382,32.159 144.833,32.166 C 144.824,30.396 144.88,28.622 144.818,26.854 L 140.489,26.855 C 140.472,28.617 140.466,30.379 140.474,32.142 Z" fill="#37b5ee" marker-start="none" marker-end="none"/>
     <path d="M 122.651,32.615 C 124.319,32.498 126.002,32.6 127.675,32.53 C 127.725,30.533 127.748,28.493 127.664,26.497 C 125.997,26.456 124.269,26.572 122.611,26.402 C 122.606,28.446 122.467,30.587 122.651,32.615 Z" fill="#010000" marker-start="none" marker-end="none"/>
     <path d="M 123.01,32.173 L 127.362,32.166 C 127.297,30.403 127.347,28.616 127.347,26.851 C 125.905,26.828 124.464,26.828 123.022,26.849 L 123.01,32.173 Z" fill="#37b5ee" marker-start="none" marker-end="none"/>
     <path d="M 135.235,32.558 L 136.265,32.552 C 136.23,30.545 136.293,28.536 136.254,26.528 C 134.896,26.437 133.506,26.496 132.145,26.496 L 131.171,26.511 C 131.066,28.499 131.091,30.531 131.133,32.521 C 132.491,32.595 133.874,32.55 135.235,32.558 Z" fill="#010000" marker-start="none" marker-end="none"/>
     <path d="M 131.763,32.14 L 135.869,32.154 C 135.877,30.699 136.041,28.283 135.85,26.944 L 135.706,26.87 L 131.504,26.88 C 131.499,27.961 131.334,31.289 131.568,32.078 L 131.763,32.14 Z" fill="#37b5ee" marker-start="none" marker-end="none"/>
     <path d="M 144.108,22.577 L 145.165,22.581 C 145.279,20.57 145.219,18.494 145.177,16.478 C 143.854,16.409 142.506,16.484 141.179,16.494 L 140.154,16.505 C 139.929,18.441 140.044,20.575 140.099,22.525 C 141.432,22.582 142.773,22.564 144.108,22.577 Z" fill="#010000" marker-start="none" marker-end="none"/>
     <path d="M 140.601,22.164 C 142.012,22.187 143.426,22.177 144.837,22.184 C 144.83,21.39 144.99,17.263 144.718,16.848 L 140.476,16.881 C 140.448,18.493 140.35,20.197 140.461,21.8 C 140.475,21.992 140.446,22.036 140.601,22.164 Z" fill="#37b5ee" marker-start="none" marker-end="none"/>
     <path d="M 140.125,42.746 L 145.217,42.745 C 145.216,40.726 145.246,38.7 145.183,36.683 C 143.532,36.586 141.816,36.597 140.163,36.674 C 140.01,38.46 139.943,40.982 140.125,42.746 Z" fill="#010000" marker-start="none" marker-end="none"/>
     <path d="M 140.463,42.345 C 141.921,42.37 143.383,42.352 144.841,42.353 L 144.829,37.055 L 140.473,37.055 L 140.463,42.345 Z" fill="#37b5ee" marker-start="none" marker-end="none"/>
     <path d="M 126.657,42.784 C 126.976,42.807 127.283,42.833 127.602,42.809 C 127.874,42.113 127.696,37.728 127.695,36.712 C 126.215,36.673 124.737,36.652 123.257,36.649 C 122.991,36.647 122.842,36.66 122.634,36.819 C 122.459,37.929 122.522,41.493 122.6,42.748 C 123.952,42.749 125.304,42.762 126.657,42.784 Z" fill="#010000" marker-start="none" marker-end="none"/>
     <path d="M 123.015,42.326 C 124.448,42.329 125.88,42.342 127.313,42.365 L 127.304,37.071 L 123.024,37.062 L 123.015,42.326 Z" fill="#37b5ee" marker-start="none" marker-end="none"/>
     <path d="M 123.917,22.58 L 127.688,22.58 C 127.722,20.56 127.817,18.456 127.669,16.443 L 126.622,16.408 C 125.301,16.393 123.979,16.398 122.657,16.422 C 122.486,18.426 122.59,20.538 122.611,22.55 C 123.044,22.574 123.483,22.57 123.917,22.58 Z" fill="#010000" marker-start="none" marker-end="none"/>
     <path d="M 123.026,22.168 C 124.464,22.207 125.912,22.173 127.352,22.173 C 127.291,20.39 127.328,18.593 127.322,16.808 C 125.892,16.795 124.46,16.792 123.028,16.801 L 123.026,22.168 Z" fill="#37b5ee" marker-start="none" marker-end="none"/>
     <path d="M 131.164,42.739 C 132.874,42.752 134.585,42.754 136.295,42.745 C 136.367,41.945 136.474,37.065 136.195,36.68 C 134.516,36.65 132.835,36.656 131.157,36.702 C 131.009,38.273 131.015,41.154 131.164,42.739 Z" fill="#010000" marker-start="none" marker-end="none"/>
     <path d="M 131.527,42.296 C 132.991,42.307 134.456,42.303 135.921,42.285 L 135.919,37.096 C 134.456,37.09 132.991,37.094 131.528,37.11 C 131.491,38.837 131.548,40.569 131.527,42.296 Z" fill="#37b5ee" marker-start="none" marker-end="none"/>
     <path d="M 131.319,22.582 C 132.968,22.586 134.624,22.623 136.272,22.556 C 136.324,21.33 136.434,17.495 136.231,16.507 L 136.101,16.439 C 134.444,16.399 132.784,16.419 131.127,16.419 C 131.026,18.055 131.023,20.437 131.113,22.066 C 131.127,22.31 131.135,22.42 131.319,22.582 Z" fill="#010000" marker-start="none" marker-end="none"/>
     <path d="M 131.523,22.185 L 135.94,22.192 L 135.937,16.82 L 131.508,16.818 L 131.523,22.185 Z" fill="#37b5ee" marker-start="none" marker-end="none"/>
     <path d="M 108.885,52.392 C 106.518,56.554 105.555,63.012 105.201,67.78 C 103.989,84.084 107.557,98.632 118.397,111.123 C 118.669,111.436 118.946,111.744 119.224,112.05 C 119.503,112.357 119.786,112.66 120.069,112.961 C 120.355,113.262 120.643,113.559 120.934,113.855 C 121.224,114.15 121.518,114.441 121.814,114.732 C 122.11,115.02 122.41,115.307 122.711,115.59 C 123.014,115.874 123.318,116.154 123.626,116.433 C 123.934,116.71 124.243,116.983 124.557,117.255 C 124.87,117.527 125.185,117.795 125.503,118.06 C 125.821,118.325 126.143,118.587 126.465,118.846 C 126.788,119.105 127.115,119.361 127.443,119.615 C 127.77,119.867 128.102,120.116 128.435,120.363 C 128.768,120.609 129.104,120.851 129.442,121.09 C 129.779,121.329 130.12,121.565 130.462,121.798 C 130.805,122.032 131.15,122.261 131.497,122.486 C 131.845,122.714 132.194,122.935 132.544,123.155 C 132.897,123.374 133.249,123.59 133.605,123.801 C 133.961,124.014 134.319,124.223 134.679,124.427 C 135.039,124.634 135.4,124.835 135.764,125.034 C 136.127,125.232 136.494,125.426 136.861,125.617 C 137.229,125.808 137.598,125.996 137.969,126.179 C 138.34,126.362 138.714,126.543 139.088,126.719 C 139.464,126.895 139.839,127.068 140.218,127.238 C 140.596,127.406 140.976,127.572 141.357,127.734 C 141.738,127.896 142.121,128.053 142.507,128.207 C 142.891,128.361 143.277,128.511 143.663,128.658 C 144.052,128.804 144.441,128.948 144.83,129.085 C 145.22,129.224 145.612,129.36 146.005,129.491 C 146.398,129.623 146.792,129.749 147.187,129.873 C 147.583,129.996 147.98,130.116 148.378,130.232 C 148.775,130.348 149.174,130.46 149.574,130.567 C 149.973,130.675 150.375,130.779 150.777,130.878 C 151.179,130.979 151.581,131.076 151.985,131.167 C 154.264,131.666 156.56,132.069 158.889,132.23 C 160.855,132.365 162.849,132.495 164.821,132.465 C 165.19,132.462 165.559,132.455 165.928,132.445 C 166.296,132.434 166.666,132.422 167.034,132.403 C 167.402,132.386 167.771,132.365 168.14,132.341 C 168.508,132.316 168.876,132.289 169.243,132.256 C 169.611,132.225 169.98,132.191 170.346,132.151 C 170.713,132.114 171.08,132.071 171.446,132.026 C 171.813,131.98 172.178,131.93 172.544,131.877 C 172.908,131.826 173.273,131.769 173.637,131.71 C 174.002,131.65 174.366,131.587 174.728,131.521 C 175.091,131.455 175.454,131.385 175.815,131.311 C 176.178,131.239 176.538,131.161 176.899,131.08 C 177.26,131 177.618,130.916 177.977,130.829 C 178.335,130.741 178.693,130.651 179.05,130.557 C 179.407,130.463 179.763,130.364 180.118,130.264 C 180.473,130.164 180.827,130.058 181.181,129.95 C 181.533,129.843 181.885,129.732 182.236,129.617 C 182.586,129.503 182.937,129.386 183.286,129.263 C 183.635,129.142 183.981,129.018 184.327,128.89 C 184.673,128.763 185.019,128.631 185.362,128.496 C 185.706,128.363 186.048,128.225 186.39,128.083 C 186.73,127.942 187.07,127.798 187.409,127.651 C 187.747,127.503 188.084,127.352 188.419,127.198 C 188.755,127.045 189.089,126.887 189.421,126.727 C 189.753,126.567 190.085,126.403 190.413,126.236 C 190.743,126.07 191.071,125.9 191.397,125.726 C 191.723,125.553 192.047,125.377 192.369,125.198 C 192.693,125.019 193.013,124.836 193.333,124.651 C 193.651,124.466 193.969,124.278 194.285,124.085 C 194.599,123.894 194.913,123.7 195.225,123.503 C 195.538,123.305 195.847,123.105 196.155,122.901 C 196.463,122.698 196.769,122.491 197.073,122.282 C 197.377,122.073 197.679,121.861 197.979,121.646 C 200.084,120.094 202.109,118.445 204.053,116.699 C 205.296,115.576 206.478,114.385 207.741,113.286 C 207.277,113.288 202.896,114.967 201.81,115.261 C 200.957,115.5 200.098,115.72 199.235,115.918 C 198.372,116.118 197.505,116.298 196.632,116.458 C 195.761,116.618 194.886,116.758 194.009,116.878 C 193.13,116.998 192.25,117.097 191.368,117.176 C 190.485,117.256 189.601,117.316 188.716,117.354 C 187.831,117.392 186.945,117.412 186.059,117.41 C 185.173,117.409 184.287,117.386 183.402,117.345 C 182.516,117.302 181.634,117.24 180.751,117.156 C 179.211,117.015 177.621,116.883 176.107,116.568 C 176.004,117.643 175.759,122.388 175.35,123.003 C 175.175,123.095 175.036,123.144 174.836,123.088 C 174.606,123.023 174.575,122.942 174.467,122.747 C 174.495,120.645 174.902,118.525 174.947,116.417 C 171.652,115.82 168.369,115.141 165.173,114.127 C 153.29,110.356 142.112,102.841 134.964,92.517 C 132.321,88.7 129.991,84.529 128.582,80.088 C 127.682,77.257 127.057,74.369 126.251,71.514 C 127.108,71.469 127.958,71.411 128.815,71.494 C 128.384,72.536 127.985,73.565 127.733,74.669 C 133.099,77.633 140.003,78.035 145.825,76.359 C 147.586,75.851 149.311,75.236 150.995,74.515 L 150.955,74.424 C 150.674,73.804 150.034,73.194 150.102,72.489 C 150.227,72.233 150.375,72.115 150.642,72.032 C 150.847,71.968 150.992,71.963 151.206,72.012 C 151.43,72.166 151.517,72.321 151.556,72.586 C 151.606,72.929 151.239,74.395 151.373,74.499 C 151.491,74.59 151.452,74.557 151.61,74.645 C 152.016,74.869 152.396,75.284 152.747,75.591 C 153.465,76.22 154.262,76.891 155.095,77.36 C 160.865,80.605 166.364,81.473 172.834,80.348 C 174.343,80.085 175.806,79.606 177.309,79.347 C 177.398,75.953 177.631,72.572 177.822,69.184 C 178.094,63.646 178.405,58.108 178.757,52.572 C 177.764,51.992 176.872,51.24 175.96,50.543 L 171.886,47.433 C 167.277,43.965 162.716,40.436 158.202,36.847 C 156.614,35.565 155.008,34.309 153.384,33.075 C 152.621,32.489 151.841,31.806 151.014,31.319 C 151.018,33.325 151.11,47.135 150.814,47.682 C 150.141,47.878 149.29,47.783 148.593,47.774 C 148.59,48.59 148.715,53.944 148.453,54.206 C 147.132,54.46 145.591,54.249 144.241,54.244 C 144.234,56.336 144.187,58.442 144.238,60.532 C 144.26,61.388 144.365,62.237 144.393,63.091 C 144.445,64.633 144.423,66.184 144.434,67.727 L 130.781,67.726 C 128.792,67.733 126.772,67.664 124.787,67.76 C 123.007,73.851 119.901,78.802 115.097,82.96 C 114.031,83.882 112.982,84.868 111.735,85.544 C 111.544,85.646 111.39,85.762 111.179,85.706 C 111.113,85.534 111.09,85.498 111.165,85.318 C 111.324,84.946 112.244,83.849 112.587,83.161 C 114.283,79.755 114.324,75.998 113.099,72.447 C 111.677,68.325 108.69,64.875 108.014,60.485 C 107.851,59.426 107.886,58.228 108.014,57.167 C 108.199,55.636 108.78,54.209 108.969,52.825 C 108.992,52.656 108.959,52.541 108.885,52.392 Z" fill="#18d296" marker-start="none" marker-end="none"/>
    </g>
   </g>
  </g>
 </g>
</svg>
