<?xml version="1.0" standalone="no"?>
<!DOCTYPE svg PUBLIC "-//W3C//DTD SVG 1.1//EN" "http://www.w3.org/Graphics/SVG/1.1/DTD/svg11.dtd">
<!--Generator: Xara Designer (www.xara.com), SVG filter version: 6.2.0.0-->
<svg stroke-width="0.501" stroke-linejoin="bevel" fill-rule="evenodd" xmlns:xlink="http://www.w3.org/1999/xlink" xmlns="http://www.w3.org/2000/svg" version="1.1" overflow="visible" width="328.101pt" height="172.101pt" viewBox="0 0 328.101 172.101">
 <defs>
  <linearGradient id="LinearGradient" gradientUnits="userSpaceOnUse" x1="0" y1="0" x2="0.169" y2="-1.824" gradientTransform="translate(216.656 1.465)">
   <stop offset="0" stop-color="#2f727d"/>
   <stop offset="1" stop-color="#3f9485"/>
  </linearGradient>
  <linearGradient id="LinearGradient_1" gradientUnits="userSpaceOnUse" x1="0" y1="0" x2="54.725" y2="5.228" gradientTransform="translate(103.477 90.106)">
   <stop offset="0" stop-color="#010004"/>
   <stop offset="1" stop-color="#01012a"/>
  </linearGradient>
  <linearGradient id="LinearGradient_2" gradientUnits="userSpaceOnUse" x1="0" y1="0" x2="-22.693" y2="-2.053" gradientTransform="translate(229.736 16.58)">
   <stop offset="0" stop-color="#00334d"/>
   <stop offset="1" stop-color="#127186"/>
  </linearGradient>
  <linearGradient id="LinearGradient_3" gradientUnits="userSpaceOnUse" x1="0" y1="0" x2="-7.293" y2="0.529" gradientTransform="translate(222.929 18.723)">
   <stop offset="0" stop-color="#e88808"/>
   <stop offset="1" stop-color="#fbd62d"/>
  </linearGradient>
 </defs>
 <g id="Document" fill="none" stroke="black" font-family="Times New Roman" font-size="16" transform="scale(1 -1)">
  <g id="Spread" transform="translate(0 -172.101)">
   <g id="Layer 1">
    <path d="M -0.399,172.5 L 328.101,172.5 L 328.101,0 L -0.399,0 L -0.399,172.5 Z" stroke="none" fill="#8edae3" stroke-width="0.22" fill-rule="evenodd" stroke-linejoin="miter" marker-start="none" marker-end="none" stroke-miterlimit="79.8403193612775"/>
    <g id="Group" fill-rule="evenodd" stroke-linejoin="miter" stroke="none" stroke-width="0.22" stroke-miterlimit="79.8403193612775">
     <path d="M 95.179,88.85 C 95.721,89.335 97.702,91.4 98.267,91.431 L 98.35,91.24 L 98.248,91.001 C 97.226,90.064 96.214,89.118 95.211,88.162 C 94.239,88.851 93.253,89.915 92.467,90.813 C 92.228,91.087 92.244,91.087 92.268,91.439 C 93.009,91.251 94.538,89.48 95.179,88.85 Z" fill="#000001" marker-start="none" marker-end="none"/>
     <path d="M 207.428,0.75 C 214.566,0.87 221.762,0.868 228.897,0.712 L 227.233,0.469 C 227.657,0.276 228.15,0.341 228.6,0.209 C 224.591,0.093 220.556,0.206 216.545,0.205 C 211.947,0.204 207.329,0.102 202.734,0.28 C 204.266,0.587 205.987,0.142 207.428,0.75 Z" marker-start="none" marker-end="none" fill="url(#LinearGradient)"/>
     <path d="M 89.161,85.91 C 89.468,85.926 89.785,85.939 90.083,85.851 C 90.716,85.662 91.311,85.207 91.622,84.621 C 91.853,84.185 91.938,83.658 91.77,83.185 C 91.538,82.533 91.071,82.267 90.476,81.98 C 90.068,81.939 89.633,81.897 89.235,82.025 C 88.691,82.2 88.194,82.668 87.951,83.18 C 87.719,83.666 87.681,84.197 87.864,84.706 C 88.097,85.357 88.567,85.623 89.161,85.91 Z" fill="#000001" marker-start="none" marker-end="none"/>
     <path d="M 89.264,85.369 C 89.556,85.378 89.878,85.401 90.158,85.312 C 90.635,85.162 91.07,84.765 91.28,84.315 C 91.446,83.961 91.459,83.548 91.294,83.19 C 91.086,82.741 90.727,82.565 90.293,82.383 C 90.041,82.378 89.761,82.357 89.514,82.414 C 89.079,82.514 88.632,82.89 88.402,83.265 C 88.378,83.304 88.356,83.344 88.336,83.386 C 88.316,83.427 88.298,83.469 88.282,83.513 C 88.267,83.556 88.253,83.599 88.242,83.644 C 88.23,83.688 88.221,83.733 88.214,83.779 C 88.207,83.824 88.202,83.87 88.2,83.916 C 88.197,83.961 88.197,84.007 88.199,84.053 C 88.201,84.099 88.206,84.145 88.212,84.19 C 88.219,84.236 88.228,84.28 88.239,84.325 C 88.379,84.892 88.79,85.106 89.264,85.369 Z" fill="#f9c219" marker-start="none" marker-end="none"/>
     <path d="M 233.845,85.356 C 234.201,85.367 234.535,85.37 234.874,85.246 C 235.419,85.047 235.887,84.612 236.115,84.077 C 236.145,84.009 236.171,83.94 236.193,83.87 C 236.216,83.799 236.234,83.728 236.25,83.656 C 236.265,83.584 236.276,83.511 236.284,83.437 C 236.292,83.364 236.296,83.29 236.297,83.216 C 236.297,83.142 236.294,83.069 236.286,82.995 C 236.279,82.922 236.268,82.849 236.254,82.776 C 236.24,82.704 236.221,82.632 236.2,82.562 C 236.178,82.491 236.153,82.422 236.124,82.354 C 235.842,81.674 235.278,81.341 234.636,81.051 C 234.252,81.051 233.823,81.038 233.455,81.161 C 232.881,81.354 232.371,81.836 232.137,82.391 C 232.109,82.456 232.085,82.521 232.065,82.587 C 232.044,82.654 232.027,82.721 232.013,82.79 C 232,82.858 231.99,82.927 231.984,82.996 C 231.977,83.066 231.975,83.135 231.975,83.205 C 231.976,83.275 231.981,83.344 231.989,83.413 C 231.997,83.482 232.009,83.551 232.024,83.619 C 232.039,83.687 232.058,83.754 232.08,83.82 C 232.102,83.886 232.128,83.951 232.157,84.014 C 232.494,84.749 233.118,85.095 233.845,85.356 Z" fill="#000001" marker-start="none" marker-end="none"/>
     <path d="M 232.513,83.486 C 232.679,84.024 233.015,84.548 233.519,84.832 C 233.837,85.012 234.191,85.014 234.527,84.888 C 235.049,84.693 235.466,84.254 235.679,83.743 C 235.855,83.321 235.937,82.776 235.724,82.351 C 235.551,82.005 235.263,81.831 234.903,81.742 C 234.29,81.59 233.878,81.591 233.283,81.783 L 233.088,81.844 C 232.659,82.365 232.489,82.811 232.513,83.486 Z" fill="#f9c219" marker-start="none" marker-end="none"/>
     <path d="M 233.243,83.844 L 233.639,83.988 C 233.921,83.828 233.918,83.802 234.049,83.501 C 234.023,83.205 234.051,83.171 233.843,82.965 C 233.549,83.045 233.562,83.124 233.39,83.363 L 233.243,83.844 Z" fill="#ffffff" marker-start="none" marker-end="none"/>
     <path d="M 232.513,83.486 C 232.824,83.573 232.998,83.621 233.243,83.844 L 233.39,83.363 C 233.269,83.01 233.328,82.783 233.405,82.433 C 233.326,82.183 233.264,82.04 233.088,81.844 C 232.659,82.365 232.489,82.811 232.513,83.486 Z" fill="#faf8a7" marker-start="none" marker-end="none"/>
     <path d="M 228.897,0.712 C 239.461,0.63 250.025,0.628 260.589,0.705 C 260.39,0.429 260.301,0.212 259.934,0.158 C 258.218,-0.091 256.256,0.111 254.506,0.115 L 243.185,0.149 L 233.314,0.187 C 231.762,0.192 230.144,0.103 228.6,0.209 C 228.15,0.341 227.657,0.276 227.233,0.469 L 228.897,0.712 Z" fill="#068f91" marker-start="none" marker-end="none"/>
     <path d="M 184.209,151.419 C 185.146,153.695 189.415,157.056 191.506,158.373 C 192.351,158.906 193.266,159.334 194.186,159.721 C 200.482,162.37 207.087,162.617 213.458,160.022 C 218.876,157.815 223.709,153.389 225.994,147.949 C 228.204,142.687 228.315,136.386 226.104,131.112 C 224.779,127.949 222.54,125.233 220.023,122.932 C 218.533,125.213 217.015,127.496 215.327,129.636 C 207.173,139.979 196.517,146.968 184.209,151.419 Z" fill="#ffffff" marker-start="none" marker-end="none"/>
     <path d="M 163.223,164.132 C 163.87,163.928 164.497,163.678 164.871,163.077 C 165.24,162.485 165.048,161.875 164.893,161.246 C 164.677,159.203 164.651,156.951 164.774,154.895 C 165.889,154.467 168.391,154.517 169.675,154.391 C 171.353,154.218 173.026,154.005 174.694,153.751 C 176.95,153.396 179.185,152.805 181.385,152.202 C 182.293,151.954 183.287,151.561 184.209,151.419 C 196.517,146.968 207.173,139.979 215.327,129.636 C 217.015,127.496 218.533,125.213 220.023,122.932 C 221.728,120.104 225.111,113.648 225.658,110.522 L 225.593,110.419 C 224.577,110.65 223.644,111.215 222.656,111.547 C 220.473,112.28 218.184,112.486 215.897,112.547 L 215.811,81.627 C 218.852,81.236 221.787,80.455 224.692,79.491 C 225.026,79.383 225.359,79.271 225.691,79.157 C 226.023,79.042 226.354,78.924 226.684,78.803 C 227.014,78.682 227.343,78.558 227.67,78.431 C 227.998,78.304 228.324,78.174 228.65,78.041 C 228.975,77.908 229.299,77.772 229.621,77.633 C 229.944,77.493 230.265,77.351 230.585,77.206 C 230.905,77.061 231.224,76.913 231.541,76.762 C 231.858,76.611 232.174,76.457 232.488,76.3 C 232.803,76.143 233.116,75.984 233.427,75.821 C 233.739,75.658 234.049,75.492 234.357,75.324 C 234.665,75.155 234.972,74.984 235.277,74.81 C 235.582,74.636 235.886,74.459 236.187,74.279 C 236.489,74.099 236.79,73.916 237.088,73.731 C 237.386,73.545 237.683,73.357 237.978,73.166 C 238.273,72.975 238.566,72.782 238.857,72.585 C 239.149,72.389 239.438,72.19 239.726,71.988 C 240.014,71.786 240.299,71.582 240.583,71.375 C 240.867,71.168 241.149,70.958 241.429,70.745 C 241.709,70.533 241.987,70.318 242.262,70.101 C 242.538,69.883 242.812,69.663 243.084,69.44 C 243.356,69.218 243.626,68.993 243.893,68.765 C 244.161,68.538 244.427,68.307 244.69,68.075 C 244.953,67.842 245.214,67.607 245.474,67.37 C 245.733,67.132 245.989,66.893 246.244,66.65 C 246.498,66.408 246.751,66.164 247.001,65.917 C 247.251,65.67 247.498,65.421 247.744,65.169 C 247.989,64.918 248.232,64.664 248.472,64.408 C 248.713,64.152 248.951,63.894 249.187,63.633 C 249.423,63.373 249.657,63.11 249.887,62.845 C 250.118,62.58 250.347,62.314 250.573,62.044 C 250.799,61.775 251.022,61.504 251.243,61.231 C 251.464,60.958 251.682,60.683 251.898,60.405 C 252.149,60.075 252.395,59.741 252.637,59.405 C 252.879,59.068 253.117,58.729 253.351,58.386 C 253.585,58.044 253.815,57.699 254.041,57.351 C 254.267,57.003 254.488,56.653 254.705,56.299 C 254.922,55.946 255.135,55.59 255.343,55.232 C 255.552,54.873 255.756,54.513 255.956,54.149 C 256.155,53.786 256.351,53.42 256.542,53.052 C 256.732,52.684 256.919,52.313 257.101,51.941 C 257.283,51.568 257.46,51.193 257.633,50.816 C 257.805,50.439 257.974,50.06 258.137,49.68 C 258.301,49.298 258.46,48.915 258.614,48.531 C 258.768,48.146 258.918,47.759 259.063,47.37 C 259.208,46.982 259.348,46.592 259.483,46.2 C 259.619,45.808 259.749,45.414 259.875,45.019 C 260.001,44.624 260.122,44.228 260.238,43.83 C 260.354,43.432 260.466,43.032 260.572,42.631 C 260.679,42.231 260.781,41.829 260.877,41.426 C 260.974,41.022 261.066,40.618 261.153,40.213 C 261.24,39.807 261.322,39.401 261.399,38.993 C 261.476,38.586 261.548,38.178 261.616,37.769 C 261.683,37.359 261.745,36.949 261.802,36.539 C 261.86,36.128 261.912,35.717 261.959,35.305 C 262.007,34.893 262.049,34.48 262.086,34.067 C 262.123,33.654 262.156,33.241 262.183,32.827 C 262.21,32.414 262.232,32 262.25,31.585 C 262.267,31.171 262.279,30.756 262.286,30.342 C 262.293,29.927 262.295,29.513 262.292,29.098 C 262.289,28.683 262.281,28.269 262.268,27.854 C 262.255,27.44 262.237,27.026 262.214,26.612 C 262.191,26.198 262.163,25.784 262.13,25.371 C 262.097,24.957 262.059,24.544 262.016,24.132 C 261.973,23.72 261.925,23.308 261.872,22.897 C 261.085,17.016 259.17,11.82 256.354,6.628 C 255.36,4.797 254.385,3.042 253.017,1.458 C 255.171,1.406 258.433,1.665 260.392,1.386 C 260.469,1.16 260.537,0.939 260.589,0.705 C 250.025,0.628 239.461,0.63 228.897,0.712 C 221.762,0.868 214.566,0.87 207.428,0.75 C 205.987,0.142 204.266,0.587 202.734,0.28 C 200.249,0.136 197.733,0.205 195.243,0.202 L 182.711,0.184 C 178.32,-0.181 173.739,0.104 169.329,0.133 L 157.258,0.194 C 155.46,0.189 153.652,0.094 151.856,0.114 C 149.255,0.081 146.654,0.103 144.054,0.181 C 141.051,-0.051 137.893,0.048 134.881,0.117 C 132.811,-0.009 130.671,0.095 128.593,0.095 L 116.073,0.095 C 105.701,0.086 95.334,-0.099 84.962,0.092 C 79.748,0.085 74.529,0.022 69.315,0.084 C 68.66,0.055 67.795,-0.109 67.174,0.127 C 66.948,0.214 66.916,0.411 66.813,0.62 C 66.691,0.75 66.726,0.687 66.664,0.859 C 66.598,1.038 66.658,1.066 66.731,1.232 C 67.549,1.629 72.703,1.389 74.051,1.388 C 73.005,3.442 71.764,5.386 70.759,7.464 C 67.686,13.819 66.033,21.085 65.882,28.139 C 65.584,42.07 70.213,55.476 79.953,65.6 C 86.746,72.661 94.937,77.848 104.469,80.298 C 106.842,80.908 109.299,81.439 111.755,81.486 C 111.593,91.786 111.771,102.105 111.708,112.408 C 108.68,112.46 105.826,112.076 103.133,110.625 C 102.662,110.371 101.977,109.875 101.426,110.041 L 101.361,110.188 C 101.886,112.812 103.944,116.78 105.279,119.172 C 107.511,123.819 110.717,128.134 114.044,132.049 C 114.344,132.395 114.647,132.739 114.954,133.079 C 115.261,133.42 115.572,133.757 115.886,134.091 C 116.2,134.424 116.517,134.755 116.838,135.082 C 117.159,135.41 117.483,135.734 117.811,136.054 C 118.139,136.375 118.47,136.692 118.804,137.005 C 119.138,137.319 119.475,137.629 119.816,137.936 C 120.157,138.242 120.501,138.546 120.848,138.845 C 121.195,139.144 121.545,139.44 121.898,139.732 C 122.251,140.025 122.607,140.313 122.967,140.598 C 123.326,140.883 123.688,141.164 124.053,141.441 C 124.418,141.718 124.786,141.991 125.156,142.261 C 125.527,142.531 125.901,142.796 126.277,143.058 C 126.653,143.32 127.032,143.577 127.414,143.831 C 127.795,144.085 128.18,144.335 128.566,144.581 C 128.953,144.827 129.343,145.069 129.734,145.307 C 130.126,145.544 130.521,145.778 130.917,146.008 C 131.314,146.237 131.713,146.463 132.115,146.684 C 132.516,146.905 132.92,147.122 133.326,147.335 C 133.732,147.548 134.14,147.757 134.55,147.961 C 134.96,148.165 135.373,148.365 135.787,148.561 C 136.201,148.757 136.618,148.949 137.036,149.136 C 137.455,149.323 137.875,149.505 138.297,149.684 C 138.72,149.862 139.144,150.036 139.569,150.206 C 139.995,150.375 140.423,150.54 140.852,150.701 C 141.281,150.861 141.712,151.018 142.145,151.169 C 142.577,151.321 143.011,151.468 143.447,151.611 C 143.883,151.753 144.32,151.891 144.758,152.025 C 145.197,152.158 145.637,152.287 146.078,152.412 C 146.519,152.536 146.961,152.656 147.405,152.771 C 147.849,152.886 148.293,152.997 148.739,153.102 C 149.185,153.208 149.632,153.31 150.08,153.406 C 150.528,153.503 150.977,153.595 151.427,153.682 C 154.76,154.325 158.171,154.552 161.549,154.829 C 161.53,156.302 161.199,162.296 161.606,163.139 C 161.901,163.751 162.633,163.935 163.223,164.132 Z" fill="#000001" marker-start="none" marker-end="none"/>
     <path d="M 66.813,0.62 C 68.505,0.32 70.374,0.604 72.094,0.522 C 71.038,0.17 69.795,0.65 68.8,0.296 L 68.841,0.203 L 69.315,0.084 C 68.66,0.055 67.795,-0.109 67.174,0.127 C 66.948,0.214 66.916,0.411 66.813,0.62 Z" fill="#23bcb3" marker-start="none" marker-end="none"/>
     <path d="M 207.036,49.554 L 207.3,49.825 C 207.168,48.639 206.965,47.421 207.763,46.409 C 208.038,46.061 208.395,45.843 208.768,45.612 C 208.745,45.419 208.723,45.283 208.759,45.089 C 208.631,45.02 208.485,44.933 208.339,44.91 C 208.089,44.87 208.018,44.876 207.824,45.028 C 207.718,45.345 207.76,45.537 207.829,45.851 C 207.863,46.005 207.874,45.93 207.809,46.064 C 207.676,45.928 207.639,45.88 207.452,45.821 C 207.366,45.941 207.32,45.997 207.25,46.116 C 206.676,47.079 206.795,48.517 207.036,49.554 Z" fill="#d54910" marker-start="none" marker-end="none"/>
     <path d="M 225.947,33.323 L 226.168,32.893 C 226.038,31.937 226.06,30.914 226.016,29.947 L 224.084,29.952 C 224.767,31.076 225.565,32.04 225.947,33.323 Z" fill="#23bcb3" marker-start="none" marker-end="none"/>
     <path d="M 225.947,33.323 C 225.976,33.928 226.167,34.592 226.255,35.198 C 226.403,36.23 226.48,37.269 226.561,38.308 C 226.695,37.161 226.825,36.036 226.854,34.88 C 226.9,33.951 227.145,30.545 226.72,29.925 C 226.491,30.028 226.471,30.039 226.389,30.272 C 226.225,30.738 226.385,32.05 226.516,32.526 C 226.466,33.034 226.422,33.542 226.386,34.051 C 226.293,33.665 226.218,33.287 226.168,32.893 L 225.947,33.323 Z" fill="#2b7176" marker-start="none" marker-end="none"/>
     <path d="M 229.939,44.121 C 230.265,44.074 230.774,44.083 230.986,43.839 C 231.064,43.113 231.074,41.86 230.613,41.264 L 230.371,41.283 L 228.938,41.823 C 229.342,42.565 229.639,43.333 229.939,44.121 Z" fill="#ffffff" marker-start="none" marker-end="none"/>
     <path d="M 223.131,48.634 C 223.407,48.621 223.685,48.613 223.931,48.465 C 224.294,48.247 224.52,47.59 224.579,47.195 C 224.631,46.843 224.662,46.26 224.449,45.964 L 224.04,45.944 C 223.465,46.02 222.883,46.05 222.304,46.093 C 222.552,46.951 222.793,47.805 223.131,48.634 Z" fill="#8edae3" marker-start="none" marker-end="none"/>
     <path d="M 221.965,45.559 C 222.899,45.59 223.845,45.541 224.779,45.523 C 224.861,44.943 225.042,44.19 224.86,43.632 L 224.612,43.552 C 223.539,43.626 222.462,43.633 221.386,43.65 C 221.569,44.289 221.771,44.923 221.965,45.559 Z" fill="#ffffff" marker-start="none" marker-end="none"/>
     <path d="M 72.094,0.522 C 76.899,0.771 81.969,0.6 86.793,0.537 C 86.205,0.288 85.587,0.201 84.962,0.092 C 79.748,0.085 74.529,0.022 69.315,0.084 L 68.841,0.203 L 68.8,0.296 C 69.795,0.65 71.038,0.17 72.094,0.522 Z" fill="#068f91" marker-start="none" marker-end="none"/>
     <path d="M 142.826,73.081 C 143.1,73.071 143.314,73.087 143.541,72.911 C 143.818,71.342 143.599,69.222 143.586,67.587 L 141.202,67.582 C 141.188,69.175 140.962,71.55 141.27,73.074 L 142.826,73.081 Z" fill="#ffffff" marker-start="none" marker-end="none"/>
     <path d="M 169.031,0.651 C 170.216,0.793 171.485,0.715 172.68,0.718 C 175.12,0.706 177.559,0.707 179.999,0.72 C 185.646,0.789 191.294,0.811 196.942,0.786 C 200.431,0.793 203.942,0.91 207.428,0.75 C 205.987,0.142 204.266,0.587 202.734,0.28 C 200.249,0.136 197.733,0.205 195.243,0.202 L 182.711,0.184 C 181.216,0.228 179.759,0.561 178.264,0.592 C 175.208,0.654 172.071,0.402 169.031,0.651 Z" fill="#2b7176" marker-start="none" marker-end="none"/>
     <path d="M 208.759,45.089 C 208.723,45.283 208.745,45.419 208.768,45.612 C 209.547,45.361 210.213,45.338 211.022,45.424 C 211.033,45.389 211.042,45.353 211.053,45.317 C 211.425,44.108 212.191,43.119 212.371,41.834 C 212.591,40.259 211.784,38.735 212.055,37.194 C 212.299,35.8 213.101,34.419 213.115,32.996 C 212.106,35.092 211.488,37.511 210.837,39.739 C 210.59,40.586 210.388,41.538 210.022,42.338 C 209.67,43.108 209.063,43.842 208.573,44.533 C 208.752,44.622 208.66,44.56 208.835,44.744 L 208.759,45.089 Z" fill="#e7821f" marker-start="none" marker-end="none"/>
     <path d="M 150.532,0.607 C 156.698,0.659 162.865,0.674 169.031,0.651 C 172.071,0.402 175.208,0.654 178.264,0.592 C 179.759,0.561 181.216,0.228 182.711,0.184 C 178.32,-0.181 173.739,0.104 169.329,0.133 L 157.258,0.194 C 155.46,0.189 153.652,0.094 151.856,0.114 C 149.255,0.081 146.654,0.103 144.054,0.181 C 142.324,0.396 140.548,0.478 138.809,0.623 C 142.716,0.652 146.624,0.647 150.532,0.607 Z" fill="#068f91" marker-start="none" marker-end="none"/>
     <path d="M 181.257,10.386 C 181.688,10.438 182.169,10.492 182.596,10.383 C 183.158,10.239 183.656,9.804 183.935,9.303 C 184.352,8.556 184.354,7.576 184.082,6.782 C 183.784,5.914 183.26,5.417 182.448,5.035 C 182.044,5.01 181.61,4.992 181.223,5.129 C 180.536,5.371 179.983,5.944 179.706,6.61 C 179.404,7.335 179.38,8.182 179.682,8.91 C 180.004,9.686 180.501,10.069 181.257,10.386 Z" fill="#e7821f" marker-start="none" marker-end="none"/>
     <path d="M 209.467,51.003 C 209.828,51.034 210.222,51.051 210.576,50.959 C 211.374,50.752 212.104,50.176 212.496,49.453 C 212.81,48.874 212.921,48.186 212.697,47.557 C 212.389,46.691 211.701,46.279 210.9,45.922 C 210.339,45.834 209.748,45.783 209.2,45.968 C 208.564,46.182 208.041,46.641 207.77,47.257 C 207.467,47.947 207.478,48.763 207.769,49.454 C 208.116,50.279 208.669,50.664 209.467,51.003 Z" fill="#e7821f" marker-start="none" marker-end="none"/>
     <path d="M 172.153,17.077 L 175.522,17.098 C 175.539,15.992 175.799,11.316 175.435,10.59 L 175.113,10.556 L 171.665,10.51 C 172.457,12.629 172.218,14.859 172.153,17.077 Z" fill="#23bcb3" marker-start="none" marker-end="none"/>
     <path d="M 181.956,50.662 C 182.586,50.695 183.163,50.675 183.729,50.365 C 183.811,50.321 183.89,50.273 183.966,50.221 C 184.043,50.168 184.116,50.112 184.187,50.052 C 184.257,49.992 184.325,49.929 184.389,49.862 C 184.453,49.795 184.513,49.725 184.57,49.652 C 184.627,49.579 184.679,49.503 184.728,49.424 C 184.777,49.346 184.822,49.265 184.862,49.181 C 184.903,49.098 184.939,49.013 184.97,48.926 C 185.002,48.839 185.029,48.75 185.051,48.661 C 185.241,47.922 185.141,47.097 184.724,46.452 C 184.217,45.672 183.526,45.392 182.646,45.215 C 181.989,45.216 181.35,45.357 180.788,45.708 C 180.205,46.071 179.766,46.666 179.618,47.34 C 179.598,47.432 179.582,47.524 179.572,47.618 C 179.561,47.712 179.555,47.805 179.554,47.9 C 179.553,47.994 179.556,48.088 179.565,48.182 C 179.573,48.275 179.586,48.369 179.604,48.461 C 179.622,48.554 179.645,48.645 179.672,48.735 C 179.699,48.825 179.731,48.914 179.767,49.001 C 179.803,49.088 179.843,49.173 179.888,49.256 C 179.933,49.339 179.982,49.419 180.035,49.497 C 180.518,50.203 181.143,50.494 181.956,50.662 Z" fill="#e7821f" marker-start="none" marker-end="none"/>
     <path d="M 161.693,154.82 C 161.71,156.51 161.257,161.926 162.26,163.042 C 162.512,163.322 162.849,163.465 163.224,163.469 C 163.582,163.474 163.956,163.336 164.207,163.075 C 164.578,162.69 164.907,161.779 164.893,161.246 C 164.677,159.203 164.651,156.951 164.774,154.895 C 163.864,154.683 162.64,154.825 161.693,154.82 Z" fill="#ffffff" marker-start="none" marker-end="none"/>
     <path d="M 228.452,41.3 C 229.415,41.119 230.395,40.862 231.323,40.551 C 230.705,37.651 229.422,34.09 228.547,31.175 C 228.448,30.823 228.436,30.459 228.356,30.101 C 228.039,29.939 227.69,30.009 227.338,30.021 C 227.422,32.962 227.253,35.876 227.096,38.811 C 227.575,39.627 227.951,40.493 228.452,41.3 Z" fill="#e7821f" marker-start="none" marker-end="none"/>
     <path d="M 86.793,0.537 C 95.065,0.709 103.322,0.551 111.592,0.548 C 117.02,0.546 122.462,0.743 127.888,0.622 C 130.216,0.65 132.545,0.66 134.873,0.652 C 136.17,0.652 137.517,0.716 138.809,0.623 C 140.548,0.478 142.324,0.396 144.054,0.181 C 141.051,-0.051 137.893,0.048 134.881,0.117 C 132.811,-0.009 130.671,0.095 128.593,0.095 L 116.073,0.095 C 105.701,0.086 95.334,-0.099 84.962,0.092 C 85.587,0.201 86.205,0.288 86.793,0.537 Z" fill="#23bcb3" marker-start="none" marker-end="none"/>
     <path d="M 191.117,58.87 L 197.709,58.888 C 198.832,58.889 199.99,58.948 201.11,58.879 C 201.54,58.853 202.035,58.831 202.331,58.486 C 202.895,57.829 202.691,56.85 202.608,56.064 L 201.411,56.044 L 189.866,56.017 C 189.866,56.72 189.753,57.645 190.109,58.277 C 190.344,58.694 190.684,58.772 191.117,58.87 Z" fill="#ffffff" marker-start="none" marker-end="none"/>
     <path d="M 190.761,61.515 L 190.974,61.523 C 193.145,61.595 195.34,61.526 197.513,61.524 C 199.056,61.521 200.813,61.688 202.32,61.399 C 203.03,61.263 203.696,60.966 204.215,60.454 C 205.44,59.246 205.383,57.657 205.371,56.073 L 203.067,56.063 C 203.12,56.607 203.214,57.202 203.129,57.744 C 203.018,58.454 202.682,58.834 202.112,59.24 C 201.852,59.289 201.586,59.327 201.322,59.331 C 199.345,59.358 197.362,59.283 195.384,59.279 C 193.935,59.277 192.384,59.412 190.952,59.214 C 190.608,59.167 190.289,59.137 190.04,58.872 C 189.363,58.153 189.468,56.959 189.464,56.047 L 187.386,56.048 C 187.352,57.344 187.187,58.808 187.939,59.944 C 188.592,60.929 189.65,61.315 190.761,61.515 Z" fill="#f6a875" marker-start="none" marker-end="none"/>
     <path d="M 207.074,44.206 C 207.594,44.238 207.959,44.217 208.399,43.916 C 208.794,43.644 209.099,43.227 209.308,42.8 C 210.317,40.726 210.816,38.212 211.519,36.009 C 212.171,33.967 213.102,31.919 213.488,29.808 L 212.43,29.797 L 209.45,29.786 C 208.907,31.625 205.613,41.472 205.786,42.661 C 205.899,43.431 206.475,43.805 207.074,44.206 Z" fill="#ffffff" marker-start="none" marker-end="none"/>
     <path d="M 183.762,50.813 L 208.147,50.792 L 207.3,49.825 L 207.036,49.554 C 206.422,48.771 206.436,48.234 206.475,47.284 L 185.514,47.194 C 185.526,47.726 185.542,48.305 185.427,48.827 C 185.212,49.809 184.545,50.289 183.762,50.813 Z" fill="#e7821f" marker-start="none" marker-end="none"/>
     <path d="M 184.773,8.514 L 184.941,8.447 L 185.058,8.443 L 184.993,8.314 C 185.686,8.013 205.071,8.231 207.348,8.237 L 207.36,4.846 L 191.985,4.809 C 188.963,4.804 185.838,4.954 182.828,4.711 C 183.177,4.924 183.515,5.141 183.808,5.429 C 184.682,6.287 184.762,7.361 184.773,8.514 Z" fill="#e7821f" marker-start="none" marker-end="none"/>
     <path d="M 219.745,43.138 C 221.947,43.146 224.134,43.061 226.333,42.999 C 226.422,39.697 226.417,34.252 224.728,31.417 C 224.423,30.937 224.091,30.507 223.729,30.069 C 222.894,30.016 220.556,29.807 219.956,30.353 C 219.494,30.774 219.68,41.707 219.745,43.138 Z" fill="#085267" marker-start="none" marker-end="none"/>
     <path d="M 98.653,1.409 C 99.08,1.536 99.503,1.67 99.918,1.835 C 103.24,3.151 108.183,7.015 109.618,10.334 C 110.778,9.08 111.734,8.218 113.263,7.444 C 113.574,7.6 113.736,7.821 113.949,8.086 C 114.391,8.281 115.022,8.222 115.502,8.23 C 115.856,7.968 116.25,7.847 116.691,7.898 C 117.089,7.67 117.571,7.456 117.932,7.179 C 118.012,6.751 118.373,6.454 118.702,6.199 L 118.637,6.015 C 118.878,5.02 119.114,4.151 118.551,3.211 C 118.061,2.392 117.36,1.892 116.572,1.401 L 116.364,1.283 C 115.807,1.284 114.8,1.14 114.33,1.384 C 109.108,1.361 103.873,1.273 98.653,1.409 Z" fill="#ffffff" marker-start="none" marker-end="none"/>
     <path d="M 115.502,8.23 C 115.856,7.968 116.25,7.847 116.691,7.898 C 117.089,7.67 117.571,7.456 117.932,7.179 C 118.012,6.751 118.373,6.454 118.702,6.199 L 118.637,6.015 C 118.878,5.02 119.114,4.151 118.551,3.211 C 118.061,2.392 117.36,1.892 116.572,1.401 L 116.364,1.283 C 115.807,1.284 114.8,1.14 114.33,1.384 C 114.223,1.533 114.118,1.582 113.962,1.684 C 113.821,1.776 113.68,1.865 113.546,1.967 C 112.848,2.495 111.941,3.434 111.859,4.338 C 111.75,5.541 112.553,6.568 113.263,7.444 C 113.574,7.6 113.736,7.821 113.949,8.086 C 114.391,8.281 115.022,8.222 115.502,8.23 Z" fill="#01011b" marker-start="none" marker-end="none"/>
     <path d="M 180.259,45.459 C 181.402,44.853 182.209,44.752 183.49,44.907 L 183.42,10.564 C 183.389,10.577 183.359,10.591 183.328,10.603 C 182.268,11.013 181.397,10.909 180.363,10.488 C 180.188,15.449 180.255,20.424 180.251,25.388 L 180.259,45.459 Z" fill="#e7821f" marker-start="none" marker-end="none"/>
     <path d="M 162.353,109.855 L 164.794,109.845 L 164.78,62.942 L 163.753,63.579 C 163.476,64.641 163.003,65.373 162.295,66.197 L 162.304,71.078 C 162.305,71.96 162.374,72.933 162.26,73.803 C 162.395,75.181 162.321,76.641 162.325,78.027 L 162.311,86.339 L 162.353,109.855 Z" fill="#ffffff" marker-start="none" marker-end="none"/>
     <path d="M 81.724,17.712 C 82.465,17.744 83.21,17.74 83.951,17.752 C 83.852,16.255 84.117,14.751 84.591,13.335 C 85.699,10.026 87.979,7.341 91.131,5.806 C 93.793,4.509 96.694,4.461 99.465,5.453 C 103.272,6.815 106.037,10.08 107.738,13.645 C 108.169,12.643 108.676,11.703 109.228,10.764 C 109.129,10.443 108.979,10.148 108.832,9.847 C 106.769,6.679 103.054,3.401 99.444,2.15 C 96.164,1.014 92.533,1.607 89.463,3.104 C 89.225,3.221 88.99,3.345 88.759,3.473 C 88.527,3.602 88.299,3.737 88.074,3.877 C 87.849,4.017 87.627,4.163 87.409,4.314 C 87.192,4.465 86.978,4.621 86.768,4.783 C 86.557,4.944 86.351,5.111 86.149,5.283 C 85.947,5.455 85.75,5.631 85.557,5.813 C 85.364,5.995 85.175,6.181 84.991,6.372 C 84.807,6.562 84.628,6.758 84.453,6.957 C 84.279,7.157 84.11,7.361 83.945,7.569 C 83.781,7.777 83.622,7.989 83.468,8.205 C 83.314,8.421 83.166,8.64 83.023,8.864 C 82.88,9.087 82.742,9.313 82.61,9.543 C 82.479,9.774 82.352,10.007 82.232,10.243 C 82.112,10.479 81.997,10.718 81.889,10.96 C 81.78,11.202 81.678,11.446 81.581,11.693 C 81.485,11.94 81.394,12.189 81.31,12.441 C 80.92,13.587 80.156,15.938 80.771,17.067 C 80.989,17.467 81.311,17.597 81.724,17.712 Z" fill="#f9c219" marker-start="none" marker-end="none"/>
     <path d="M 155.961,8.385 C 157.963,8.168 160.339,8.071 161.997,9.419 C 162.934,10.18 163.652,11.601 163.747,12.805 C 163.865,14.315 163.778,15.88 163.771,17.397 L 163.756,25.662 L 163.785,52.973 C 163.78,54.5 163.541,61.73 163.868,62.662 L 164.063,62.779 C 164.654,62.574 165.156,61.884 165.431,61.343 C 165.739,60.74 165.857,60.09 165.884,59.419 C 165.973,57.22 165.848,54.98 165.857,52.776 L 165.89,35.668 L 165.923,20.833 C 165.94,17.782 166.053,14.697 165.935,11.65 C 165.898,10.712 165.852,9.775 165.544,8.88 C 165.113,7.626 164.301,6.619 163.083,6.064 C 161.369,5.283 159.627,5.728 157.888,5.299 C 157.822,5.416 157.841,5.365 157.808,5.491 C 157.797,5.531 157.788,5.572 157.777,5.612 C 157.411,6.994 156.89,7.423 155.702,8.103 L 155.68,8.267 L 155.961,8.385 Z" fill="#ffffff" marker-start="none" marker-end="none"/>
     <path d="M 102.137,17.812 C 103.012,17.812 106.127,18.145 106.697,17.772 C 107.401,17.312 107.418,14.852 107.576,14.022 C 107.571,14.01 107.565,13.997 107.56,13.984 C 105.91,10.414 103.294,7.211 99.492,5.868 C 96.521,4.817 93.768,5.075 90.956,6.421 C 90.411,6.713 89.889,7.041 89.388,7.403 C 88.888,7.766 88.414,8.16 87.966,8.587 C 85.428,11.03 84.268,14.285 84.185,17.76 L 102.137,17.812 Z" fill="#f9c219" marker-start="none" marker-end="none"/>
     <path d="M 107.525,18.231 C 110.818,18.502 114.237,18.299 117.547,18.289 L 134.48,18.335 C 134.092,14.47 132.94,11.153 129.834,8.596 C 127.573,6.735 124.764,5.715 121.83,6.002 C 120.443,6.138 119.187,6.598 117.932,7.179 C 117.571,7.456 117.089,7.67 116.691,7.898 C 116.25,7.847 115.856,7.968 115.502,8.23 C 115.022,8.222 114.391,8.281 113.949,8.086 C 112.018,8.46 110.569,9.788 109.497,11.384 C 108.015,13.59 107.93,15.693 107.525,18.231 Z" fill="#f9c219" marker-start="none" marker-end="none"/>
     <path d="M 111.053,16.35 L 111.124,16.209 C 113.063,12.341 112.798,10.671 116.691,7.898 C 116.25,7.847 115.856,7.968 115.502,8.23 C 113.109,9.77 111.777,12.913 111.194,15.593 C 111.142,15.844 111.095,16.097 111.053,16.35 Z" fill="#000001" marker-start="none" marker-end="none"/>
     <path d="M 111.708,112.408 C 108.68,112.46 105.826,112.076 103.133,110.625 C 102.662,110.371 101.977,109.875 101.426,110.041 L 101.361,110.188 C 101.886,112.812 103.944,116.78 105.279,119.172 L 105.458,119.003 C 105.21,118.021 103.945,116.617 104.097,115.666 C 103.39,114.077 102.7,112.506 102.185,110.841 C 105.315,112.376 108.555,113.208 112.064,112.928 C 112.208,112.844 112.318,112.778 112.482,112.739 C 113.213,112.566 114.051,112.574 114.804,112.447 C 115.664,112.303 116.502,112.035 117.359,111.899 L 117.496,111.586 L 117.508,111.681 L 117.144,111.726 L 117.123,111.604 C 115.524,112.009 113.943,112.293 112.296,112.406 L 112.305,67.527 C 115.967,67.581 119.629,67.602 123.291,67.591 C 123.279,69.617 122.992,74.557 123.43,76.298 C 123.629,77.092 124.006,77.82 124.578,78.408 C 125.873,79.738 127.496,79.999 129.257,79.985 C 131.017,79.972 132.775,79.931 134.534,79.937 C 136.401,79.944 138.589,80.174 140.402,79.739 C 140.521,79.711 140.639,79.679 140.756,79.643 C 140.874,79.607 140.989,79.567 141.104,79.522 C 141.218,79.478 141.331,79.43 141.442,79.378 C 141.553,79.327 141.663,79.271 141.77,79.212 C 141.877,79.152 141.982,79.089 142.085,79.023 C 142.188,78.956 142.289,78.886 142.387,78.813 C 142.485,78.74 142.581,78.663 142.674,78.583 C 142.767,78.503 142.857,78.42 142.944,78.334 C 143.817,77.457 144.235,76.261 144.208,75.032 C 144.202,74.786 144.191,74.541 144.155,74.298 C 143.893,73.829 143.705,73.333 143.151,73.162 C 142.957,73.102 142.983,73.11 142.826,73.081 L 141.27,73.074 L 141.467,73.225 C 141.335,73.467 141.255,73.694 141.018,73.846 C 140.957,73.613 140.96,73.74 141.005,73.54 C 141.236,72.506 141.106,70.519 141.046,69.438 C 141.021,68.998 140.913,68.461 140.98,68.034 C 141.019,67.783 141.106,67.708 141.272,67.531 C 142.058,67.237 142.976,67.353 143.805,67.368 C 143.801,68.173 143.676,73.028 143.936,73.328 C 143.913,71.342 143.906,69.355 143.915,67.368 L 153.683,67.374 C 155.533,67.393 157.446,67.607 159.291,67.395 C 159.809,67.335 160.595,67.1 161.02,66.785 L 160.938,66.745 C 160.051,67.042 159.291,67.376 158.343,67.292 C 157.275,67.197 156.139,67.272 155.063,67.261 C 152.28,67.244 149.498,67.244 146.715,67.259 L 122.741,67.263 L 116.296,67.263 C 115.261,67.263 114.152,67.347 113.126,67.248 C 112.883,67.224 112.811,67.192 112.614,67.053 C 111.54,67.016 110.458,67.005 109.39,66.879 C 109.201,66.904 109.055,66.902 108.89,67.004 C 109.312,67.104 109.733,67.213 110.151,67.33 L 109.913,67.437 C 110.498,67.55 111.147,67.515 111.743,67.532 L 111.755,81.486 C 111.593,91.786 111.771,102.105 111.708,112.408 Z" marker-start="none" marker-end="none" fill="url(#LinearGradient_1)"/>
     <path d="M 123.824,72.968 C 124.619,72.996 125.419,72.982 126.214,72.984 L 126.233,67.604 L 123.812,67.595 L 123.824,72.968 Z" fill="#ffffff" marker-start="none" marker-end="none"/>
     <path d="M 128.226,76.235 C 128.266,76.238 128.306,76.241 128.347,76.244 C 130.338,76.353 137.252,76.53 139.011,76.183 C 139.411,76.104 139.732,75.936 140.025,75.653 C 140.306,75.38 140.519,75.04 140.612,74.658 C 140.971,73.187 140.708,69.352 140.721,67.602 L 139.25,67.601 L 126.684,67.586 C 126.692,69.256 126.388,73.809 126.875,75.158 C 127.088,75.748 127.701,75.995 128.226,76.235 Z" fill="#ffffff" marker-start="none" marker-end="none"/>
     <path d="M 171.468,10.06 C 172.837,10.128 174.199,10.195 175.57,10.174 C 175.557,7.718 175.14,4.783 177.066,2.906 C 177.857,2.135 178.809,1.689 179.835,1.318 C 171.13,1.204 162.426,1.223 153.722,1.375 L 132.717,1.377 L 122.187,1.39 C 120.324,1.397 118.431,1.482 116.572,1.401 C 117.36,1.892 118.061,2.392 118.551,3.211 C 119.114,4.151 118.878,5.02 118.637,6.015 L 118.702,6.199 C 119.267,5.97 119.882,5.814 120.478,5.692 C 124.312,4.909 127.269,6.251 130.402,8.304 L 132.203,8.351 C 136.857,8.238 141.527,8.318 146.182,8.312 C 148.262,8.309 150.366,8.372 152.442,8.248 C 151.588,7.392 151.005,6.54 150.979,5.275 C 150.959,4.334 151.288,3.435 151.955,2.765 C 152.04,2.678 152.13,2.597 152.223,2.52 C 152.316,2.443 152.413,2.371 152.514,2.304 C 152.615,2.237 152.718,2.175 152.825,2.118 C 152.932,2.061 153.042,2.01 153.154,1.965 C 153.266,1.919 153.38,1.88 153.496,1.846 C 153.612,1.812 153.73,1.784 153.849,1.762 C 153.968,1.739 154.088,1.723 154.208,1.713 C 154.329,1.704 154.45,1.7 154.571,1.702 C 155.438,1.723 156.26,2.082 156.839,2.732 C 157.448,3.417 157.664,4.183 157.903,5.041 C 158.613,5.063 159.349,5.045 160.054,5.121 C 163.442,5.067 166.87,4.769 169.513,7.293 C 170.36,8.102 170.927,9.032 171.468,10.06 Z" fill="#ffffff" marker-start="none" marker-end="none"/>
     <path d="M 208.925,1.363 L 189.764,1.383 C 187.231,1.386 182.942,1.107 180.637,1.551 C 179.392,1.792 178.187,2.366 177.299,3.285 C 176.668,3.938 176.156,4.775 176.047,5.691 C 175.838,7.445 175.952,9.322 175.948,11.093 L 175.938,21.27 L 175.961,39.296 C 175.963,42.709 175.856,46.158 175.985,49.568 C 176.054,51.376 176.512,52.908 177.887,54.171 C 178.548,54.777 179.407,55.352 180.302,55.503 C 181.676,55.735 183.194,55.627 184.584,55.627 L 191.842,55.622 L 203.976,55.631 C 206.47,55.632 209.019,55.701 211.509,55.54 C 212.885,55.45 214.157,54.758 215.067,53.725 C 215.706,53 216.258,52.016 216.43,51.065 C 216.809,48.959 216.476,46.56 216.472,44.414 C 216.46,39.553 216.49,34.691 216.561,29.831 L 214.028,29.812 C 213.743,30.877 213.479,31.954 213.115,32.996 C 213.101,34.419 212.299,35.8 212.055,37.194 C 211.784,38.735 212.591,40.259 212.371,41.834 C 212.191,43.119 211.425,44.108 211.053,45.317 C 211.042,45.353 211.033,45.389 211.022,45.424 C 211.929,45.825 212.638,46.353 213.01,47.306 C 213.297,48.04 213.261,48.843 212.93,49.556 C 212.567,50.34 211.957,50.831 211.187,51.187 C 211.148,51.204 211.111,51.224 211.072,51.241 C 210.607,51.44 205.802,51.141 204.804,51.14 L 189.393,51.133 C 187.057,51.133 184.675,51.245 182.346,51.152 C 182.084,51.141 181.824,51.106 181.568,51.047 C 181.312,50.987 181.063,50.904 180.823,50.798 C 180.1,50.472 179.605,49.928 179.337,49.183 C 179.034,48.34 179.052,47.282 179.466,46.477 C 179.59,46.236 179.755,46.015 179.916,45.797 C 179.891,33.917 179.732,21.995 179.947,10.118 C 179.268,9.19 178.89,8.362 179.093,7.172 C 179.239,6.318 179.694,5.563 180.409,5.068 C 180.906,4.725 181.352,4.618 181.943,4.553 C 184.61,4.262 187.716,4.476 190.421,4.477 L 207.341,4.491 C 207.547,3.08 207.783,2.3 208.925,1.363 Z" fill="#f9c219" marker-start="none" marker-end="none"/>
     <path d="M 207.802,29.297 L 220.815,29.396 C 222.959,29.4 225.201,29.535 227.335,29.368 C 227.818,29.331 228.263,29.266 228.707,29.061 C 229.162,28.141 228.874,23.894 229.493,21.931 L 229.532,21.809 L 229.543,9.704 C 229.542,7.732 229.718,5.559 229.487,3.606 C 229.441,3.214 229.347,2.892 229.088,2.588 C 229.077,2.575 229.062,2.567 229.049,2.557 C 228.323,2.493 227.796,1.606 226.992,1.534 C 224,1.265 220.819,1.433 217.811,1.429 C 215.061,1.425 212.137,1.213 209.416,1.545 C 209.141,1.744 208.863,1.965 208.631,2.214 C 208.239,2.635 208.011,3.111 207.917,3.677 C 207.548,5.9 207.791,9.689 207.79,12.107 L 207.802,29.297 Z" marker-start="none" marker-end="none" fill="url(#LinearGradient_2)"/>
     <path d="M 214.292,20.674 C 215.921,20.755 220.456,20.838 221.917,20.555 C 222.383,20.465 222.867,20.274 223.235,19.967 C 223.522,19.727 223.68,19.458 223.697,19.075 C 223.722,18.534 223.343,17.923 222.985,17.552 C 222.661,17.38 222.332,17.235 221.963,17.191 C 221.147,17.093 220.277,17.184 219.455,17.197 C 217.716,17.213 215.976,17.243 214.237,17.287 C 214.187,18.274 213.97,19.742 214.292,20.674 Z" fill="#000001" marker-start="none" marker-end="none"/>
     <path d="M 214.886,20.242 C 216.584,20.332 220.472,20.449 222.028,20.137 C 222.349,20.073 222.611,19.941 222.846,19.714 C 223.058,19.511 223.195,19.259 223.215,18.961 C 223.235,18.667 223.12,18.414 222.911,18.213 C 222.583,17.896 222.103,17.742 221.663,17.673 C 220.298,17.458 216.531,17.572 215.073,17.679 C 214.978,17.686 214.883,17.698 214.789,17.709 C 214.668,17.742 214.741,17.708 214.626,17.884 C 214.593,18.581 214.487,19.513 214.698,20.176 L 214.886,20.242 Z" marker-start="none" marker-end="none" fill="url(#LinearGradient_3)"/>
     <path d="M 214.789,17.709 C 214.668,17.742 214.741,17.708 214.626,17.884 C 214.593,18.581 214.487,19.513 214.698,20.176 L 214.886,20.242 C 215.32,20.145 215.44,20.146 215.769,19.828 C 215.981,19.359 215.584,18.007 216,17.868 C 216.043,17.854 216.195,17.832 216.245,17.824 C 215.764,17.816 215.252,17.851 214.789,17.709 Z" fill="#f9c219" marker-start="none" marker-end="none"/>
     <path d="M 163.281,47.429 C 163.54,46.499 163.34,39.263 163.338,37.74 L 163.358,14.016 C 163.345,12.526 163.144,11.073 162,9.993 C 161.307,9.339 160.439,8.939 159.5,8.796 C 158.145,8.59 156.73,8.692 155.364,8.711 L 150.094,8.741 L 130.988,8.76 L 130.922,8.826 L 130.936,8.962 C 133.489,11.642 134.66,14.517 134.953,18.184 C 136.085,19.309 137.391,20.291 138.622,21.305 C 140.524,22.856 142.392,24.446 144.226,26.077 C 150.885,32.039 158.194,40.091 163.281,47.429 Z" fill="#068f91" marker-start="none" marker-end="none"/>
     <path d="M 151.202,25.604 C 153.948,25.67 156.704,25.633 159.451,25.642 C 159.575,21.102 159.48,16.538 159.48,11.996 C 158.226,12.029 156.968,12.019 155.713,12.029 C 152.989,12.044 150.264,12.038 147.539,12.013 C 147.538,16.525 147.563,21.037 147.615,25.549 L 151.202,25.604 Z" fill="#000001" marker-start="none" marker-end="none"/>
     <path d="M 148.071,25.109 C 151.717,25.152 155.381,25.233 159.026,25.127 L 159.047,12.455 L 148.002,12.458 L 148.071,25.109 Z" fill="#068f91" marker-start="none" marker-end="none"/>
     <path d="M 104.097,115.666 C 106.211,119.996 108.519,124.077 111.399,127.959 C 111.646,128.288 111.897,128.615 112.15,128.94 C 112.403,129.265 112.66,129.587 112.919,129.907 C 113.179,130.227 113.441,130.544 113.706,130.86 C 113.971,131.175 114.24,131.487 114.511,131.797 C 114.782,132.107 115.056,132.415 115.333,132.72 C 115.609,133.025 115.889,133.327 116.172,133.627 C 116.454,133.927 116.739,134.224 117.027,134.519 C 117.315,134.813 117.606,135.105 117.9,135.394 C 118.193,135.683 118.489,135.969 118.788,136.253 C 119.087,136.536 119.388,136.817 119.692,137.095 C 119.996,137.373 120.303,137.648 120.612,137.92 C 120.921,138.192 121.233,138.462 121.547,138.728 C 121.861,138.995 122.178,139.258 122.497,139.519 C 122.816,139.779 123.137,140.037 123.461,140.291 C 123.785,140.546 124.111,140.797 124.44,141.046 C 124.768,141.294 125.099,141.539 125.432,141.782 C 125.765,142.024 126.1,142.263 126.438,142.499 C 126.775,142.735 127.115,142.968 127.457,143.198 C 127.799,143.428 128.143,143.654 128.489,143.877 C 128.835,144.101 129.183,144.321 129.534,144.538 C 129.884,144.755 130.236,144.968 130.59,145.178 C 130.944,145.389 131.301,145.596 131.659,145.799 C 132.017,146.003 132.376,146.203 132.738,146.4 C 133.1,146.597 133.464,146.791 133.829,146.981 C 134.194,147.171 134.561,147.358 134.93,147.541 C 135.299,147.725 135.67,147.904 136.042,148.081 C 136.414,148.257 136.788,148.43 137.163,148.6 C 137.539,148.769 137.916,148.935 138.294,149.097 C 138.673,149.26 139.053,149.419 139.434,149.574 C 139.816,149.73 140.199,149.882 140.583,150.03 C 140.967,150.178 141.353,150.323 141.74,150.464 C 142.127,150.605 142.515,150.742 142.905,150.876 C 147.755,152.542 152.919,153.752 158.045,154.104 C 155.784,153.118 153.536,152.133 151.432,150.836 C 148.933,149.296 146.692,147.445 144.546,145.451 C 137.495,138.896 132.652,131.049 129.149,122.132 C 127.317,117.468 125.789,112.518 124.978,107.568 C 121.13,110.82 117.248,112.887 112.064,112.928 C 108.555,113.208 105.315,112.376 102.185,110.841 C 102.7,112.506 103.39,114.077 104.097,115.666 Z" fill="#f45c54" marker-start="none" marker-end="none"/>
     <path d="M 168.554,154.051 C 169.906,154.071 171.412,153.75 172.75,153.555 C 173.793,153.396 174.832,153.213 175.867,153.006 C 176.901,152.798 177.93,152.566 178.954,152.31 C 179.977,152.053 180.994,151.772 182.004,151.468 C 183.014,151.163 184.017,150.835 185.011,150.482 C 186.006,150.13 186.991,149.754 187.968,149.355 C 188.945,148.956 189.912,148.534 190.868,148.089 C 191.825,147.644 192.771,147.177 193.705,146.687 C 194.64,146.197 195.562,145.685 196.472,145.152 C 207.403,138.887 216.841,128.906 222.333,117.564 C 223.312,115.544 224.315,113.438 224.904,111.267 C 223.383,111.941 221.793,112.397 220.177,112.775 C 218.876,112.972 217.56,113.105 216.242,113.091 C 212.32,113.05 208.058,111.94 204.848,109.622 C 203.768,108.842 202.831,107.906 201.899,106.96 C 201.564,111.399 200.047,116.045 198.557,120.22 C 194.249,132.297 186.816,144.138 175.583,150.852 C 174.392,151.564 173.126,152.219 171.839,152.739 C 170.781,153.167 169.671,153.514 168.643,154.008 L 168.554,154.051 Z" fill="#f45c54" marker-start="none" marker-end="none"/>
     <path d="M 164.757,154.206 C 166.675,154.167 168.482,153.51 170.239,152.795 C 174.155,151.203 177.38,149.282 180.645,146.605 C 190.187,138.782 196.431,126.681 199.721,114.977 C 200.417,112.5 201.153,109.853 201.404,107.289 C 200.528,107.802 199.636,108.288 198.73,108.745 C 197.994,109.093 197.241,109.396 196.469,109.653 C 195.697,109.91 194.912,110.119 194.115,110.28 C 187.764,111.549 182.359,110.085 177.073,106.528 C 177.02,111.198 176.708,115.851 176.136,120.486 C 175.203,128.433 171.053,149.234 164.757,154.206 Z" fill="#ffffff" marker-start="none" marker-end="none"/>
     <path d="M 161.097,154.146 L 162.213,154.198 C 161.911,153.965 161.612,153.727 161.331,153.467 C 157.248,149.693 154.086,136.64 152.99,131.213 C 152.057,126.566 151.351,121.884 150.874,117.169 C 150.505,113.641 150.414,110.069 150.296,106.526 C 149.295,107.099 148.379,107.784 147.348,108.314 C 141.652,111.246 135.44,111.29 129.433,109.376 C 128.03,108.922 126.794,108.382 125.506,107.663 C 127.417,118.635 132.269,130.198 139.2,138.945 C 143.617,144.52 149.19,149.54 155.714,152.475 C 157.433,153.248 159.215,153.929 161.097,154.146 Z" fill="#ffffff" marker-start="none" marker-end="none"/>
     <path d="M 162.912,154.065 C 163.865,154.106 164.418,153.867 165.118,153.213 C 166.974,151.479 168.216,148.548 169.191,146.221 C 174.273,134.091 176.355,119.847 176.655,106.744 C 173.065,109.213 168.996,110.311 164.675,110.398 C 161.008,110.404 157.548,110.035 154.16,108.517 C 153.027,108.009 151.94,107.384 150.828,106.832 C 150.698,117.353 152.584,128.733 155.382,138.861 C 156.511,142.946 159.117,151.918 162.912,154.065 Z" fill="#068f91" marker-start="none" marker-end="none"/>
     <path d="M 185.382,46.842 C 192.485,46.856 199.635,47.043 206.733,46.856 C 206.898,46.347 206.974,45.418 207.286,45.05 C 207.321,45.053 207.357,45.058 207.393,45.059 C 207.549,45.061 207.612,45.021 207.742,44.944 L 207.864,44.733 C 207.704,44.612 207.793,44.64 207.632,44.635 C 206.992,44.615 206.468,44.41 206.02,43.941 C 205.61,43.512 205.37,42.949 205.399,42.352 C 205.468,40.902 206.196,39.189 206.618,37.79 C 207.413,35.128 208.225,32.472 209.054,29.82 C 208.486,29.803 207.907,29.809 207.341,29.754 C 207.169,27.09 207.256,24.373 207.263,21.703 L 207.306,8.558 C 204.584,8.559 185.802,8.751 184.941,8.447 L 184.773,8.514 C 184.524,9.198 184.256,9.722 183.759,10.265 C 183.92,14.999 183.864,19.746 183.864,24.482 L 183.862,44.963 C 184.416,45.234 184.996,45.482 185.211,46.113 C 185.291,46.347 185.335,46.6 185.382,46.842 Z" fill="#f9c219" marker-start="none" marker-end="none"/>
     <path d="M 194.699,34.842 C 194.811,34.855 194.924,34.865 195.036,34.873 C 195.149,34.881 195.261,34.886 195.374,34.889 C 195.487,34.892 195.6,34.893 195.713,34.891 C 195.825,34.889 195.938,34.885 196.051,34.878 C 196.163,34.871 196.275,34.862 196.388,34.85 C 196.5,34.838 196.612,34.824 196.723,34.807 C 196.835,34.791 196.946,34.772 197.057,34.75 C 197.168,34.729 197.278,34.705 197.387,34.678 C 197.497,34.652 197.606,34.623 197.715,34.592 C 197.823,34.561 197.931,34.528 198.038,34.492 C 198.145,34.456 198.251,34.418 198.356,34.378 C 198.461,34.337 198.566,34.294 198.669,34.249 C 198.773,34.204 198.875,34.157 198.977,34.108 C 199.078,34.058 199.178,34.007 199.277,33.953 C 199.376,33.899 199.474,33.843 199.571,33.785 C 199.668,33.727 199.763,33.667 199.857,33.604 C 201.558,32.46 202.704,30.603 203.08,28.599 C 203.465,26.552 203.076,24.427 201.886,22.709 C 200.571,20.811 198.71,19.903 196.483,19.513 C 194.306,19.459 192.485,19.83 190.711,21.17 C 189.069,22.41 187.906,24.222 187.631,26.276 C 187.615,26.396 187.602,26.516 187.592,26.636 C 187.582,26.757 187.575,26.877 187.571,26.998 C 187.566,27.119 187.565,27.239 187.567,27.36 C 187.568,27.481 187.573,27.602 187.58,27.722 C 187.588,27.843 187.598,27.963 187.612,28.083 C 187.625,28.203 187.642,28.322 187.661,28.442 C 187.68,28.561 187.702,28.68 187.727,28.798 C 187.752,28.916 187.78,29.033 187.811,29.15 C 187.842,29.267 187.875,29.383 187.912,29.498 C 187.948,29.613 187.987,29.727 188.029,29.84 C 188.071,29.954 188.116,30.066 188.163,30.177 C 188.211,30.288 188.261,30.398 188.314,30.506 C 188.367,30.615 188.422,30.722 188.48,30.828 C 188.538,30.934 188.599,31.038 188.662,31.141 C 188.725,31.244 188.791,31.345 188.859,31.445 C 188.927,31.545 188.997,31.643 189.07,31.739 C 190.44,33.514 192.503,34.562 194.699,34.842 Z" fill="#f45c54" marker-start="none" marker-end="none"/>
     <path d="M 194.867,34.403 C 196.751,34.519 198.591,34.121 200.091,32.929 C 201.6,31.731 202.551,29.838 202.77,27.938 C 202.784,27.819 202.795,27.701 202.803,27.582 C 202.81,27.463 202.815,27.344 202.817,27.225 C 202.819,27.106 202.818,26.987 202.814,26.868 C 202.81,26.749 202.803,26.63 202.793,26.511 C 202.783,26.392 202.771,26.274 202.755,26.156 C 202.739,26.038 202.72,25.92 202.699,25.803 C 202.677,25.686 202.653,25.569 202.625,25.453 C 202.598,25.337 202.568,25.222 202.535,25.108 C 202.501,24.993 202.466,24.88 202.427,24.767 C 202.388,24.655 202.346,24.543 202.302,24.432 C 202.258,24.322 202.211,24.212 202.161,24.104 C 202.112,23.996 202.059,23.889 202.004,23.783 C 201.949,23.678 201.891,23.573 201.831,23.471 C 201.771,23.368 201.708,23.266 201.643,23.167 C 201.578,23.067 201.51,22.969 201.44,22.873 C 201.37,22.777 201.297,22.682 201.223,22.589 C 199.871,20.91 197.963,20.109 195.86,19.886 C 194.018,19.807 192.33,20.442 190.888,21.57 C 189.317,22.798 188.237,24.535 188.016,26.534 C 188.004,26.646 187.994,26.757 187.988,26.869 C 187.981,26.98 187.977,27.092 187.976,27.204 C 187.975,27.316 187.977,27.428 187.981,27.539 C 187.985,27.651 187.993,27.763 188.003,27.874 C 188.013,27.985 188.025,28.096 188.041,28.207 C 188.056,28.318 188.074,28.428 188.095,28.538 C 188.116,28.648 188.139,28.758 188.165,28.866 C 188.192,28.975 188.221,29.083 188.252,29.19 C 188.284,29.298 188.318,29.404 188.355,29.51 C 188.392,29.615 188.431,29.72 188.473,29.824 C 188.515,29.927 188.559,30.03 188.606,30.132 C 188.653,30.233 188.703,30.333 188.755,30.432 C 188.807,30.531 188.861,30.629 188.918,30.725 C 188.975,30.822 189.034,30.917 189.095,31.01 C 189.157,31.104 189.221,31.195 189.287,31.286 C 189.353,31.376 189.421,31.465 189.491,31.552 C 190.849,33.238 192.734,34.185 194.867,34.403 Z" fill="#ffffff" marker-start="none" marker-end="none"/>
     <path d="M 191.945,23.528 C 190.922,24.6 190.243,26.283 190.234,27.761 C 190.224,29.262 190.828,30.555 191.848,31.628 C 192.041,31.402 192.145,31.322 192.429,31.23 C 191.591,30.58 191.11,29.437 190.989,28.405 C 190.872,27.402 191.066,26.632 191.552,25.761 L 191.604,25.674 C 191.749,25.431 192.015,24.62 192.209,24.568 L 192.301,24.696 L 192.391,24.687 C 192.379,24.48 192.359,24.399 192.452,24.208 C 192.744,23.939 193.016,23.628 193.414,23.534 L 193.613,23.671 C 194.139,23.116 194.631,22.861 195.41,22.826 C 196.098,22.795 196.799,22.955 197.426,23.228 C 197.799,23.48 198.2,23.791 198.609,23.977 C 198.899,24.108 199.066,24.135 199.359,24.022 C 198.702,22.971 197.653,22.299 196.447,22.035 C 195.162,21.753 193.859,22.082 192.778,22.812 C 192.469,23.021 192.206,23.263 191.945,23.528 Z" fill="#f9c219" marker-start="none" marker-end="none"/>
     <path d="M 191.848,31.628 C 192.984,32.581 194.687,33.157 196.181,33.019 C 197.215,32.924 199.312,32.236 199.932,31.404 C 200.625,30.473 200.859,28.166 200.677,27.047 C 200.497,25.933 199.873,25.493 199.979,24.218 L 199.831,24 C 199.632,23.974 199.559,23.968 199.359,24.022 C 199.066,24.135 198.899,24.108 198.609,23.977 C 198.2,23.791 197.799,23.48 197.426,23.228 C 196.799,22.955 196.098,22.795 195.41,22.826 C 194.631,22.861 194.139,23.116 193.613,23.671 L 193.414,23.534 C 193.016,23.628 192.744,23.939 192.452,24.208 C 192.359,24.399 192.379,24.48 192.391,24.687 L 192.301,24.696 L 192.209,24.568 C 192.015,24.62 191.749,25.431 191.604,25.674 L 191.552,25.761 C 191.066,26.632 190.872,27.402 190.989,28.405 C 191.11,29.437 191.591,30.58 192.429,31.23 C 192.145,31.322 192.041,31.402 191.848,31.628 Z" fill="#f6ab10" marker-start="none" marker-end="none"/>
     <path d="M 191.552,25.761 L 193.031,26.617 L 193.387,26.356 C 192.868,25.941 192.396,25.639 192.236,24.953 L 192.301,24.696 L 192.209,24.568 C 192.015,24.62 191.749,25.431 191.604,25.674 L 191.552,25.761 Z" fill="#e7821f" marker-start="none" marker-end="none"/>
     <path d="M 195.363,32.098 C 195.635,32.098 195.721,32.114 195.962,31.974 L 195.883,31.83 C 194.909,31.681 195.279,31.309 194.734,30.666 L 194.451,30.967 C 193.99,31.331 193.485,31.557 192.957,31.804 C 193.759,31.928 194.553,32.045 195.363,32.098 Z" fill="#f9c219" marker-start="none" marker-end="none"/>
     <path d="M 197.474,26.726 C 197.92,27.696 198.915,28.541 199.472,29.507 C 199.457,29.073 199.447,28.637 199.418,28.204 C 197.909,26.09 198.624,25.651 197.84,23.956 L 197.405,23.969 C 197.768,24.532 197.831,25.02 197.905,25.668 C 197.932,26.056 197.722,26.436 197.474,26.726 Z" fill="#e7821f" marker-start="none" marker-end="none"/>
     <path d="M 194.856,25.3 L 195.848,26.513 C 196.656,26.353 197.225,26.141 197.905,25.668 C 197.831,25.02 197.768,24.532 197.405,23.969 C 196.786,23.438 196.27,23.256 195.446,23.336 C 194.832,23.395 194.216,23.547 193.613,23.671 L 193.414,23.534 C 193.016,23.628 192.744,23.939 192.452,24.208 C 192.359,24.399 192.379,24.48 192.391,24.687 C 192.632,24.637 192.845,24.601 193.092,24.603 C 193.589,24.999 194.251,25.144 194.856,25.3 Z" fill="#ffffff" marker-start="none" marker-end="none"/>
     <path d="M 196.104,32.052 C 197.091,31.724 198.393,31.377 199.115,30.585 C 199.429,30.241 199.502,29.962 199.472,29.507 C 198.915,28.541 197.92,27.696 197.474,26.726 C 197.262,26.69 196.21,27.368 195.91,27.516 C 195.88,29.017 196.024,30.552 196.104,32.052 Z" fill="#f45c54" marker-start="none" marker-end="none"/>
     <path d="M 191.552,25.761 C 191.066,26.632 190.872,27.402 190.989,28.405 C 191.11,29.437 191.591,30.58 192.429,31.23 C 193.016,31.048 193.776,30.927 194.069,30.32 C 194.277,29.891 194.349,29.345 194.506,28.886 C 194.453,28.198 194.311,27.623 193.998,27.007 L 193.031,26.617 L 191.552,25.761 Z" fill="#f45c54" marker-start="none" marker-end="none"/>
     <path d="M 153.508,67.13 C 156.104,67.158 160.13,67.723 162.127,65.696 C 162.754,65.059 163.111,64.24 163.276,63.371 C 163.606,61.639 163.402,59.713 163.393,57.953 L 163.353,48.366 C 162.571,47.465 161.909,46.381 161.206,45.413 C 160.028,43.797 158.796,42.223 157.508,40.693 C 150.445,32.346 143.433,25.688 134.905,18.867 C 128.534,18.819 122.162,18.81 115.79,18.84 L 106.009,18.853 C 106.02,20.702 106.02,22.551 106.01,24.401 C 107.169,24.733 108.319,25.096 109.458,25.489 C 110.598,25.883 111.727,26.307 112.844,26.761 C 113.961,27.216 115.065,27.7 116.156,28.214 C 117.247,28.727 118.323,29.27 119.385,29.842 C 119.777,30.053 120.167,30.267 120.556,30.484 C 120.944,30.702 121.331,30.923 121.715,31.147 C 122.1,31.371 122.482,31.598 122.863,31.829 C 123.244,32.06 123.623,32.294 123.999,32.531 C 124.376,32.768 124.751,33.008 125.123,33.252 C 125.496,33.496 125.866,33.743 126.234,33.993 C 126.603,34.242 126.969,34.496 127.333,34.752 C 127.697,35.008 128.059,35.267 128.418,35.53 C 128.778,35.792 129.135,36.058 129.49,36.327 C 129.845,36.595 130.198,36.867 130.548,37.141 C 130.898,37.416 131.246,37.694 131.592,37.974 C 131.938,38.255 132.281,38.539 132.621,38.825 C 132.962,39.112 133.3,39.401 133.636,39.693 C 133.972,39.986 134.305,40.281 134.636,40.579 C 134.966,40.877 135.294,41.178 135.62,41.481 C 135.945,41.785 136.268,42.091 136.588,42.401 C 136.909,42.71 137.226,43.022 137.541,43.336 C 137.856,43.651 138.168,43.968 138.478,44.288 C 138.787,44.608 139.094,44.931 139.398,45.256 C 139.702,45.581 140.003,45.909 140.301,46.24 C 140.6,46.57 140.895,46.903 141.188,47.238 C 141.48,47.574 141.77,47.912 142.057,48.252 C 142.344,48.593 142.627,48.936 142.908,49.281 C 143.189,49.626 143.467,49.974 143.742,50.324 C 144.017,50.674 144.289,51.027 144.558,51.381 C 144.827,51.736 145.092,52.093 145.355,52.453 C 145.618,52.812 145.878,53.173 146.134,53.537 C 146.391,53.901 146.644,54.267 146.895,54.635 C 147.145,55.003 147.392,55.373 147.636,55.746 C 147.88,56.118 148.121,56.492 148.358,56.869 C 148.596,57.246 148.83,57.624 149.061,58.005 C 149.292,58.385 149.52,58.767 149.744,59.152 C 151.171,61.649 152.672,64.37 153.508,67.13 Z" fill="#23bcb3" marker-start="none" marker-end="none"/>
     <path d="M 112.614,67.053 L 153.136,67.086 C 151.747,64.058 150.363,61.045 148.638,58.189 C 148.363,57.736 148.084,57.287 147.799,56.841 C 147.515,56.394 147.226,55.951 146.933,55.51 C 146.639,55.07 146.341,54.633 146.039,54.198 C 145.736,53.764 145.429,53.333 145.118,52.905 C 144.806,52.477 144.491,52.053 144.17,51.631 C 143.85,51.21 143.526,50.792 143.197,50.377 C 142.868,49.962 142.535,49.551 142.198,49.143 C 141.86,48.736 141.519,48.331 141.173,47.93 C 140.827,47.53 140.478,47.133 140.124,46.739 C 139.77,46.346 139.412,45.956 139.05,45.57 C 138.688,45.184 138.322,44.801 137.952,44.423 C 137.582,44.044 137.208,43.67 136.831,43.299 C 136.453,42.928 136.072,42.561 135.686,42.198 C 135.301,41.835 134.912,41.476 134.52,41.121 C 134.127,40.767 133.731,40.416 133.331,40.069 C 132.931,39.722 132.528,39.38 132.121,39.041 C 131.714,38.703 131.303,38.369 130.889,38.039 C 130.476,37.709 130.058,37.384 129.638,37.062 C 129.217,36.741 128.793,36.424 128.366,36.112 C 127.939,35.799 127.509,35.491 127.075,35.188 C 126.642,34.884 126.205,34.585 125.765,34.29 C 125.326,33.996 124.883,33.706 124.437,33.42 C 123.992,33.135 123.543,32.854 123.092,32.578 C 122.64,32.302 122.186,32.031 121.729,31.764 C 121.271,31.497 120.812,31.235 120.349,30.978 C 119.887,30.721 119.421,30.468 118.954,30.221 C 118.486,29.973 118.016,29.73 117.543,29.492 C 117.07,29.254 116.595,29.022 116.117,28.793 C 115.64,28.565 115.16,28.342 114.678,28.124 C 114.195,27.906 113.711,27.693 113.224,27.485 C 112.738,27.277 112.249,27.073 111.758,26.875 C 111.267,26.678 110.775,26.485 110.28,26.297 C 108.861,25.772 107.435,25.329 105.956,25.001 L 106.024,51.401 L 106.013,59.281 C 106.011,60.658 105.875,62.231 106.109,63.588 C 106.235,64.316 106.667,65.027 107.183,65.548 C 107.803,66.173 108.569,66.586 109.39,66.879 C 110.458,67.005 111.54,67.016 112.614,67.053 Z" fill="#f9c219" marker-start="none" marker-end="none"/>
     <path d="M 112.296,112.406 C 113.943,112.293 115.524,112.009 117.123,111.604 C 120.25,110.505 122.907,108.995 125.201,106.567 C 128.111,109.312 133.995,110.334 137.879,110.21 C 141.176,110.105 144.425,109.344 147.295,107.681 C 148.39,107.046 149.403,106.283 150.498,105.648 C 152.116,107.729 157.534,109.332 160.111,109.658 C 160.703,109.733 161.329,109.83 161.924,109.834 L 161.908,86.435 L 161.902,78.687 C 161.901,77.358 161.843,76.001 161.918,74.676 C 161.823,71.935 161.88,69.177 161.889,66.434 C 161.098,67.025 160.381,67.339 159.404,67.501 C 157.676,67.787 155.729,67.604 153.972,67.597 L 144.103,67.581 L 144.155,74.298 C 144.191,74.541 144.202,74.786 144.208,75.032 C 144.235,76.261 143.817,77.457 142.944,78.334 C 142.857,78.42 142.767,78.503 142.674,78.583 C 142.581,78.663 142.485,78.74 142.387,78.813 C 142.289,78.886 142.188,78.956 142.085,79.023 C 141.982,79.089 141.877,79.152 141.77,79.212 C 141.663,79.271 141.553,79.327 141.442,79.378 C 141.331,79.43 141.218,79.478 141.104,79.522 C 140.989,79.567 140.874,79.607 140.756,79.643 C 140.639,79.679 140.521,79.711 140.402,79.739 C 138.589,80.174 136.401,79.944 134.534,79.937 C 132.775,79.931 131.017,79.972 129.257,79.985 C 127.496,79.999 125.873,79.738 124.578,78.408 C 124.006,77.82 123.629,77.092 123.43,76.298 C 122.992,74.557 123.279,69.617 123.291,67.591 C 119.629,67.602 115.967,67.581 112.305,67.527 L 112.296,112.406 Z" fill="#ffffff" marker-start="none" marker-end="none"/>
     <path d="M 74.051,1.388 C 73.005,3.442 71.764,5.386 70.759,7.464 C 67.686,13.819 66.033,21.085 65.882,28.139 C 65.584,42.07 70.213,55.476 79.953,65.6 C 86.746,72.661 94.937,77.848 104.469,80.298 C 106.842,80.908 109.299,81.439 111.755,81.486 L 111.743,67.532 C 111.147,67.515 110.498,67.55 109.913,67.437 C 108.519,67.214 107.268,66.592 106.411,65.434 C 105.839,64.662 105.617,63.689 105.518,62.748 C 105.355,61.192 105.456,59.551 105.46,57.985 L 105.477,49.557 L 105.421,28.233 C 105.414,24.879 105.496,21.528 105.437,18.174 C 100.373,18.211 95.309,18.213 90.245,18.182 C 87.723,18.187 84.721,18.432 82.246,18.198 C 81.668,18.144 81.041,18.052 80.606,17.63 C 80.173,17.209 80.055,16.606 80.061,16.023 C 80.1,12.31 82.611,7.969 85.248,5.48 C 87.49,3.363 89.81,2.233 92.744,1.386 C 90.527,1.275 88.29,1.341 86.07,1.35 L 74.051,1.388 Z" fill="#ffffff" marker-start="none" marker-end="none"/>
     <path d="M 215.811,81.627 C 218.852,81.236 221.787,80.455 224.692,79.491 C 225.026,79.383 225.359,79.271 225.691,79.157 C 226.023,79.042 226.354,78.924 226.684,78.803 C 227.014,78.682 227.343,78.558 227.67,78.431 C 227.998,78.304 228.324,78.174 228.65,78.041 C 228.975,77.908 229.299,77.772 229.621,77.633 C 229.944,77.493 230.265,77.351 230.585,77.206 C 230.905,77.061 231.224,76.913 231.541,76.762 C 231.858,76.611 232.174,76.457 232.488,76.3 C 232.803,76.143 233.116,75.984 233.427,75.821 C 233.739,75.658 234.049,75.492 234.357,75.324 C 234.665,75.155 234.972,74.984 235.277,74.81 C 235.582,74.636 235.886,74.459 236.187,74.279 C 236.489,74.099 236.79,73.916 237.088,73.731 C 237.386,73.545 237.683,73.357 237.978,73.166 C 238.273,72.975 238.566,72.782 238.857,72.585 C 239.149,72.389 239.438,72.19 239.726,71.988 C 240.014,71.786 240.299,71.582 240.583,71.375 C 240.867,71.168 241.149,70.958 241.429,70.745 C 241.709,70.533 241.987,70.318 242.262,70.101 C 242.538,69.883 242.812,69.663 243.084,69.44 C 243.356,69.218 243.626,68.993 243.893,68.765 C 244.161,68.538 244.427,68.307 244.69,68.075 C 244.953,67.842 245.214,67.607 245.474,67.37 C 245.733,67.132 245.989,66.893 246.244,66.65 C 246.498,66.408 246.751,66.164 247.001,65.917 C 247.251,65.67 247.498,65.421 247.744,65.169 C 247.989,64.918 248.232,64.664 248.472,64.408 C 248.713,64.152 248.951,63.894 249.187,63.633 C 249.423,63.373 249.657,63.11 249.887,62.845 C 250.118,62.58 250.347,62.314 250.573,62.044 C 250.799,61.775 251.022,61.504 251.243,61.231 C 251.464,60.958 251.682,60.683 251.898,60.405 C 252.149,60.075 252.395,59.741 252.637,59.405 C 252.879,59.068 253.117,58.729 253.351,58.386 C 253.585,58.044 253.815,57.699 254.041,57.351 C 254.267,57.003 254.488,56.653 254.705,56.299 C 254.922,55.946 255.135,55.59 255.343,55.232 C 255.552,54.873 255.756,54.513 255.956,54.149 C 256.155,53.786 256.351,53.42 256.542,53.052 C 256.732,52.684 256.919,52.313 257.101,51.941 C 257.283,51.568 257.46,51.193 257.633,50.816 C 257.805,50.439 257.974,50.06 258.137,49.68 C 258.301,49.298 258.46,48.915 258.614,48.531 C 258.768,48.146 258.918,47.759 259.063,47.37 C 259.208,46.982 259.348,46.592 259.483,46.2 C 259.619,45.808 259.749,45.414 259.875,45.019 C 260.001,44.624 260.122,44.228 260.238,43.83 C 260.354,43.432 260.466,43.032 260.572,42.631 C 260.679,42.231 260.781,41.829 260.877,41.426 C 260.974,41.022 261.066,40.618 261.153,40.213 C 261.24,39.807 261.322,39.401 261.399,38.993 C 261.476,38.586 261.548,38.178 261.616,37.769 C 261.683,37.359 261.745,36.949 261.802,36.539 C 261.86,36.128 261.912,35.717 261.959,35.305 C 262.007,34.893 262.049,34.48 262.086,34.067 C 262.123,33.654 262.156,33.241 262.183,32.827 C 262.21,32.414 262.232,32 262.25,31.585 C 262.267,31.171 262.279,30.756 262.286,30.342 C 262.293,29.927 262.295,29.513 262.292,29.098 C 262.289,28.683 262.281,28.269 262.268,27.854 C 262.255,27.44 262.237,27.026 262.214,26.612 C 262.191,26.198 262.163,25.784 262.13,25.371 C 262.097,24.957 262.059,24.544 262.016,24.132 C 261.973,23.72 261.925,23.308 261.872,22.897 C 261.085,17.016 259.17,11.82 256.354,6.628 C 255.36,4.797 254.385,3.042 253.017,1.458 C 252.2,1.349 251.26,1.429 250.431,1.433 L 245.729,1.445 L 228.029,1.413 C 228.412,1.775 228.762,2.109 229.049,2.557 C 229.062,2.567 229.077,2.575 229.088,2.588 C 229.347,2.892 229.441,3.214 229.487,3.606 C 229.718,5.559 229.542,7.732 229.543,9.704 L 229.532,21.809 C 229.508,24.115 229.622,26.421 229.623,28.727 C 229.339,29.169 229.028,29.531 228.672,29.914 C 229.37,33.226 230.774,36.392 231.538,39.682 C 231.652,40.172 231.755,40.463 231.471,40.914 C 231.371,41.073 231.258,41.194 231.263,41.392 C 231.278,41.961 231.402,42.542 231.439,43.113 C 231.522,44.398 231.453,45.867 231.245,47.135 C 230.306,45.649 229.631,44.063 228.785,42.539 C 228.191,41.467 227.518,40.531 227.009,39.399 C 226.972,40.467 227.196,42.322 226.562,43.181 C 226.348,43.471 225.882,43.484 225.551,43.536 C 225.25,44.822 225.141,46.166 224.925,47.469 C 224.825,48.071 224.743,48.605 224.2,48.96 C 223.947,49.125 223.652,49.258 223.353,49.131 C 222.477,48.76 221.262,44.672 220.983,43.649 L 219.247,43.625 C 219.026,39.065 219.196,34.399 219.221,29.831 L 216.93,29.827 C 216.915,34.469 216.838,39.116 216.868,43.756 C 216.882,46.067 217.192,49.05 216.866,51.266 C 216.734,52.171 216.241,52.967 215.801,53.75 C 216.155,56.21 215.918,60.241 215.908,62.856 L 215.811,81.627 Z" fill="#ffffff" marker-start="none" marker-end="none"/>
     <path d="M 214.658,111.313 L 215.777,111.384 L 215.711,90.17 C 215.819,77.952 215.837,65.733 215.765,53.515 C 215.12,53.895 214.465,54.316 213.755,54.563 C 211.879,55.218 208.557,54.919 206.501,54.951 C 206.488,56.599 206.566,58.224 205.367,59.536 C 204.51,60.473 203.556,60.788 202.32,60.828 C 200.196,60.896 198.046,60.822 195.919,60.822 C 194.278,60.822 192.301,61.061 190.706,60.693 C 190.524,60.65 190.345,60.595 190.171,60.528 C 189.996,60.461 189.827,60.382 189.663,60.291 C 189.5,60.201 189.343,60.1 189.193,59.988 C 189.043,59.876 188.901,59.755 188.768,59.624 C 187.445,58.338 187.69,56.603 187.701,54.919 C 184.68,54.876 180.594,55.628 178.277,53.317 C 177.429,52.47 176.722,51.355 176.502,50.169 C 176.236,48.738 176.336,47.214 176.341,45.762 L 176.346,39.916 L 176.261,17 C 174.984,16.952 173.711,16.998 172.434,16.89 C 172.44,14.503 172.853,11.981 172.064,9.671 C 171.381,7.676 170.07,6.059 168.149,5.148 C 167.159,4.678 164.744,4.076 163.735,4.433 L 163.928,4.555 C 164.086,4.644 164.243,4.734 164.397,4.827 C 165.613,5.561 166.444,6.725 166.774,8.105 C 167.383,10.652 167.058,16.05 167.052,18.888 L 166.998,39.69 L 166.974,52.595 C 166.973,54.805 167.116,57.137 166.912,59.335 C 166.845,60.067 166.311,60.779 165.931,61.388 C 166.017,66.051 165.948,70.728 165.945,75.393 L 165.945,108.725 C 169.805,108.735 174.848,107.271 177.716,104.604 C 180.52,106.978 184.026,108.397 187.649,108.895 C 193.132,109.649 198.229,108.333 202.628,105.015 L 202.722,105.139 C 205.601,108.855 210.088,110.714 214.658,111.313 Z" fill="#ffffff" marker-start="none" marker-end="none"/>
     <path d="M 159.423,67.416 C 157.708,67.702 155.776,67.519 154.032,67.512 L 153.291,67.51 L 153.268,67.51 L 153.29,67.51 C 150.527,70.287 147.518,72.677 144.332,74.677 C 144.336,74.767 144.339,74.857 144.342,74.947 C 144.369,76.176 143.954,77.372 143.087,78.249 C 143.001,78.335 142.912,78.418 142.819,78.498 C 142.727,78.578 142.632,78.655 142.535,78.728 C 142.437,78.801 142.337,78.871 142.235,78.938 C 142.133,79.004 142.028,79.067 141.922,79.127 C 141.816,79.186 141.707,79.242 141.597,79.293 C 141.487,79.345 141.374,79.393 141.261,79.437 C 141.147,79.482 141.033,79.522 140.916,79.558 C 140.8,79.594 140.683,79.626 140.565,79.654 C 138.765,80.089 136.594,79.859 134.741,79.852 C 134.257,79.85 133.773,79.852 133.289,79.856 C 126.629,82.036 119.598,82.792 112.677,82.112 L 112.677,82.097 L 112.671,112.321 C 114.306,112.208 115.875,111.924 117.462,111.519 C 120.565,110.42 123.202,108.91 125.478,106.482 C 128.366,109.227 134.206,110.249 138.061,110.125 C 141.333,110.02 144.557,109.259 147.406,107.596 C 148.492,106.961 149.498,106.198 150.584,105.563 C 152.19,107.644 157.567,109.247 160.125,109.573 C 160.712,109.648 161.333,109.745 161.924,109.749 L 161.908,86.35 L 161.902,78.602 C 161.901,77.273 161.844,75.916 161.918,74.591 C 161.824,71.85 161.88,69.092 161.889,66.349 C 161.104,66.94 160.393,67.254 159.423,67.416 Z" fill="#8edae3" marker-start="none" marker-end="none"/>
     <path d="M 166.912,60.375 C 166.845,61.107 166.311,61.819 165.931,62.428 C 166.017,67.091 165.948,71.768 165.945,76.433 L 165.945,109.765 C 169.805,109.775 174.848,108.311 177.716,105.644 C 180.52,108.018 184.026,109.437 187.649,109.935 C 193.132,110.689 198.229,109.373 202.628,106.055 L 202.722,106.179 C 205.601,109.895 210.088,111.754 214.658,112.353 L 215.777,112.424 L 215.711,91.21 C 215.742,87.697 215.765,84.185 215.781,80.673 C 201.803,81.768 187.437,77.126 176.531,66.665 C 172.613,62.907 169.427,58.672 166.976,54.137 C 166.992,56.196 167.1,58.343 166.912,60.375 Z" fill="#8edae3" marker-start="none" marker-end="none"/>
    </g>
   </g>
   <g id="Layer_1"/>
  </g>
 </g>
</svg>
