<?xml version="1.0" standalone="no"?>
<!DOCTYPE svg PUBLIC "-//W3C//DTD SVG 1.1//EN" "http://www.w3.org/Graphics/SVG/1.1/DTD/svg11.dtd">
<!--Generator: Xara Designer (www.xara.com), SVG filter version: 6.2.0.0-->
<svg stroke-width="0.501" stroke-linejoin="bevel" fill-rule="evenodd" xmlns:xlink="http://www.w3.org/1999/xlink" xmlns="http://www.w3.org/2000/svg" version="1.1" overflow="visible" width="328.101pt" height="172.101pt" viewBox="0 0 328.101 172.101">
 <defs>
	</defs>
 <g id="Document" fill="none" stroke="black" font-family="Times New Roman" font-size="16" transform="scale(1 -1)">
  <g id="Spread" transform="translate(0 -172.101)">
   <g id="Layer 1">
    <path d="M -0.399,172.5 L 327.992,172.5 L 328.101,172.5 L 328.101,0 L 327.873,0 L -0.399,0 L -0.399,172.5 Z" stroke="none" fill="#7ef1f7" stroke-width="0.188" fill-rule="evenodd" stroke-linejoin="miter" marker-start="none" marker-end="none" stroke-miterlimit="79.8403193612775"/>
    <path d="M 211.991,41.71 C 211.979,41.737 211.966,41.761 211.957,41.788 C 211.756,42.433 211.817,47.445 212.111,47.918 C 212.293,48.216 212.716,48.39 213.04,48.463 C 213.782,48.628 214.308,48.46 214.915,48.035 C 215.231,47.814 215.311,47.588 215.382,47.221 C 215.387,45.454 215.318,43.651 215.419,41.887 C 215.457,41.641 215.476,41.393 215.572,41.164 C 215.024,41.18 214.504,41.191 213.959,41.107 C 213.627,41.288 213.305,41.263 212.936,41.263 L 212.761,41.321 C 212.641,41.561 212.542,41.769 212.346,41.959 C 212.115,41.921 212.131,41.901 211.991,41.71 Z" stroke="none" fill="#0262c9" stroke-width="0.188" fill-rule="evenodd" stroke-linejoin="miter" marker-start="none" marker-end="none" stroke-miterlimit="79.8403193612775"/>
    <path d="M 215.419,41.887 C 215.457,41.641 215.476,41.393 215.572,41.164 C 215.024,41.18 214.504,41.191 213.959,41.107 C 213.627,41.288 213.305,41.263 212.936,41.263 C 213.729,41.824 214.504,41.405 215.348,41.666 L 215.419,41.887 Z" stroke="none" fill="#8ffdff" stroke-width="0.188" fill-rule="evenodd" stroke-linejoin="miter" marker-start="none" marker-end="none" stroke-miterlimit="79.8403193612775"/>
    <path d="M 206.268,38.861 C 206.458,39.509 206.317,40.412 206.299,41.091 C 206.26,42.576 206.046,45.59 206.325,46.968 C 206.415,47.407 206.579,47.847 206.905,48.164 C 207.227,48.479 207.637,48.587 208.076,48.58 C 208.592,48.575 209.134,48.431 209.499,48.043 C 209.819,47.702 209.986,47.213 210.069,46.762 C 210.249,45.79 210.158,44.694 210.154,43.704 L 210.124,38.852 C 208.867,38.811 207.517,38.716 206.268,38.861 Z" stroke="none" fill="#0262c9" stroke-width="0.188" fill-rule="evenodd" stroke-linejoin="miter" marker-start="none" marker-end="none" stroke-miterlimit="79.8403193612775"/>
    <path d="M 162.526,146.429 C 162.558,148.145 162.567,149.862 162.557,151.579 C 162.557,152.328 162.459,153.205 162.585,153.937 C 162.641,154.271 162.835,154.597 163.085,154.822 C 163.126,154.859 163.168,154.892 163.212,154.924 C 163.256,154.955 163.3,154.985 163.347,155.012 C 163.393,155.039 163.442,155.064 163.491,155.087 C 163.539,155.109 163.589,155.128 163.641,155.146 C 163.691,155.164 163.744,155.178 163.796,155.191 C 163.848,155.203 163.901,155.212 163.956,155.22 C 164.009,155.228 164.063,155.232 164.117,155.233 C 164.17,155.235 164.224,155.234 164.278,155.23 C 164.638,155.206 164.996,155.036 165.226,154.756 C 166.043,153.766 165.51,148.132 165.697,146.469 C 170.403,146.281 175.036,145.925 179.668,145.022 C 193.921,142.247 207.871,134.897 217.754,124.199 C 219.663,122.134 221.553,119.997 223.227,117.735 C 224.07,116.593 224.795,115.369 225.538,114.162 C 227.437,111.075 229.141,107.986 230.427,104.584 C 228.539,105.537 226.734,106.57 224.758,107.343 C 216.639,110.519 207.049,111.231 198.696,108.495 C 195.505,107.45 191.784,105.921 189.375,103.558 C 182.353,108.276 174.088,110.505 165.677,110.633 L 165.72,47.822 C 169.682,47.835 175.104,48.178 178.877,47.339 C 182.667,46.497 186.862,43.589 190.345,41.767 C 193.929,39.896 197.492,37.987 201.035,36.043 C 202.699,35.15 204.43,34.363 206.057,33.407 C 206.049,34.258 205.846,38.295 206.138,38.789 L 206.268,38.861 C 207.517,38.716 208.867,38.811 210.124,38.852 C 210.702,38.875 211.286,38.864 211.864,38.87 C 211.868,39.536 211.887,40.202 211.916,40.867 C 211.904,41.099 211.938,41.307 211.97,41.535 L 211.991,41.71 C 212.131,41.901 212.115,41.921 212.346,41.959 C 212.542,41.769 212.641,41.561 212.761,41.321 L 212.936,41.263 C 213.305,41.263 213.627,41.288 213.959,41.107 C 214.504,41.191 215.024,41.18 215.572,41.164 C 215.476,41.393 215.457,41.641 215.419,41.887 C 215.318,43.651 215.387,45.454 215.382,47.221 C 215.377,47.569 215.326,47.968 215.469,48.291 C 215.315,49.094 215.295,49.912 215.125,50.713 C 215.478,51.528 215.83,52.245 216.704,52.6 C 216.974,52.709 217.26,52.759 217.547,52.798 L 217.583,56.598 L 199.812,56.569 L 194.671,56.577 C 193.723,56.58 192.723,56.52 191.784,56.643 C 191.218,56.716 190.725,56.932 190.311,57.331 C 189.564,58.045 189.552,58.965 189.553,59.93 C 189.594,63.384 189.602,66.836 189.581,70.289 C 189.58,71.977 189.733,73.814 189.473,75.473 C 187.251,75.581 184.999,75.505 182.774,75.499 C 181.789,75.499 180.688,75.395 179.723,75.586 C 179.363,75.656 179.069,75.8 178.828,76.082 C 178.677,76.258 178.55,76.457 178.422,76.65 C 178.293,77.855 178.342,79.09 178.34,80.302 L 178.332,85.567 C 178.324,89.835 178.178,94.154 178.326,98.418 C 178.342,98.843 178.349,99.643 178.55,100.015 C 178.755,100.394 179.403,100.567 179.79,100.61 C 180.654,100.709 181.573,100.651 182.443,100.648 L 187.232,100.632 L 203.314,100.612 L 228.462,100.65 L 235.999,100.668 C 237.281,100.673 238.594,100.748 239.874,100.681 C 240.587,100.644 241.131,100.474 241.682,100.006 C 242.49,99.318 242.782,98.48 242.841,97.44 C 242.916,96.091 242.856,94.711 242.855,93.36 L 242.844,85.589 C 242.838,84.152 242.841,82.716 242.85,81.279 C 242.856,80.356 242.928,79.369 242.802,78.455 C 242.709,77.772 242.51,77.157 242.034,76.64 C 241.343,75.889 240.427,75.689 239.446,75.677 C 237.102,75.646 234.685,75.834 232.353,75.617 C 232.323,71.815 232.316,68.009 232.335,64.204 C 232.335,62.848 232.518,60.758 232.257,59.467 C 232.111,58.741 231.676,58.19 231.199,57.65 C 231.223,56.051 231.232,54.454 231.225,52.857 C 232.101,52.853 232.797,52.657 233.408,51.999 C 233.606,51.787 233.771,51.541 233.918,51.293 C 234.037,49.791 233.989,48.267 233.985,46.762 C 233.976,44.14 233.941,41.517 233.966,38.895 L 235.627,38.872 C 235.622,35.732 235.648,32.593 235.709,29.455 C 236.735,29.398 237.759,29.41 238.787,29.418 L 238.842,0.555 C 239.641,0.559 242.112,0.778 242.673,0.3 L 242.629,0.172 C 241.661,-0.125 236.438,0.054 235.069,0.053 L 214.577,0.074 L 118.923,0.078 L 96.849,0.103 C 95.372,0.102 87.3,-0.088 86.661,0.143 C 86.583,0.252 86.621,0.179 86.594,0.38 C 86.638,0.422 86.671,0.479 86.726,0.504 C 87.205,0.719 104.317,0.56 106.674,0.507 C 100.164,4.336 95.031,10.145 93.122,17.579 C 92.129,21.443 92.473,25.682 92.475,29.651 C 92.477,31.795 92.388,33.97 92.494,36.108 C 97.982,34.398 103.497,35.963 108.735,37.773 C 110.851,36.895 112.929,36.173 115.152,35.619 C 112.735,38.17 110.636,41.033 108.471,43.795 C 105.024,48.141 101.627,52.524 98.278,56.946 C 96.179,59.64 94.097,62.344 92.029,65.058 C 91.036,66.378 89.949,67.701 89.115,69.127 C 88.701,69.839 88.538,70.463 88.575,71.295 C 88.626,72.471 89.172,73.634 90.073,74.4 C 90.894,75.098 91.943,75.549 93.033,75.417 C 94.198,75.275 95.147,74.555 95.864,73.668 C 96.306,75.081 96.869,76.431 98.275,77.147 C 99.231,77.634 100.391,77.705 101.406,77.367 C 102.013,77.165 102.475,76.886 102.928,76.437 C 103.787,75.585 104.496,74.547 105.243,73.599 L 108.985,68.878 C 110.703,66.676 112.587,64.552 114.223,62.294 C 116.075,66.583 118.766,70.075 123.236,71.828 C 123.583,71.964 123.938,72.073 124.296,72.178 C 124.304,72.903 124.453,73.819 124.279,74.514 C 124.119,75.147 123.81,75.75 123.535,76.339 C 122.227,79.137 120.589,81.4 121.51,84.612 C 121.82,85.7 122.367,86.737 123.176,87.537 C 126.467,90.794 129.633,88.023 133.436,92.429 C 134.461,91.174 134.991,89.606 134.828,87.98 C 134.71,86.812 134.244,85.897 133.634,84.914 C 134.295,82.625 135.232,78.083 134.078,75.934 C 133.506,74.866 132.557,74.135 131.39,73.82 C 131.158,73.759 130.919,73.715 130.684,73.672 L 130.687,72.189 C 131.731,71.777 132.77,71.371 133.759,70.833 C 137.678,68.698 141.033,65.361 144.398,62.478 C 145.13,61.851 146.76,60.735 147.267,60.061 L 147.178,59.756 C 147.794,59.054 148.607,58.462 149.336,57.874 C 150.398,57.017 151.455,56.097 152.599,55.352 C 153.987,54.449 155.545,53.749 157.024,53.006 C 158.769,52.13 160.495,51.222 162.251,50.368 L 162.298,77.125 L 162.311,110.691 C 156.367,110.601 149.893,109.417 144.49,106.874 C 142.534,105.952 140.717,104.804 138.911,103.624 C 137.297,104.601 135.745,105.678 134.047,106.51 C 125.954,110.475 117.13,110.932 108.465,108.79 C 105.996,108.181 103.582,107.258 101.263,106.224 C 100.252,105.772 99.254,105.218 98.225,104.816 C 98.706,106.493 99.482,108.106 100.226,109.68 C 105.466,120.748 115.553,130.958 126.227,136.881 C 137.593,143.189 149.548,146.229 162.526,146.429 Z" stroke="none" fill="#000000" stroke-width="0.188" fill-rule="evenodd" stroke-linejoin="miter" marker-start="none" marker-end="none" stroke-miterlimit="79.8403193612775"/>
    <path d="M 125.425,78.145 C 125.07,78.058 124.664,77.912 124.302,78.006 C 124.258,78.017 124.216,78.03 124.175,78.045 C 124.133,78.062 124.092,78.079 124.052,78.098 C 124.013,78.12 123.974,78.14 123.936,78.165 C 123.898,78.188 123.863,78.214 123.827,78.242 C 123.792,78.269 123.759,78.298 123.728,78.33 C 123.694,78.36 123.665,78.393 123.636,78.427 C 123.608,78.462 123.581,78.497 123.556,78.534 C 123.531,78.571 123.508,78.609 123.486,78.648 C 123.252,79.085 123.235,79.637 123.4,80.098 C 123.529,80.457 123.779,80.795 124.136,80.952 C 124.438,81.083 124.826,81.062 125.123,80.921 C 125.359,80.81 125.559,80.576 125.655,80.338 C 125.67,80.298 125.673,80.253 125.696,80.217 C 125.728,80.168 125.775,80.13 125.816,80.085 C 125.576,79.45 125.588,78.792 125.425,78.145 Z" stroke="none" fill="#efa59f" stroke-width="0.188" fill-rule="evenodd" stroke-linejoin="miter" marker-start="none" marker-end="none" stroke-miterlimit="79.8403193612775"/>
    <path d="M 125.816,80.085 C 126.503,80.223 127.655,79.605 128.29,79.347 C 127.64,77.892 127.451,76.572 127.484,74.989 C 127.274,75.223 127.073,75.467 126.881,75.719 C 126.691,75.968 126.508,76.225 126.335,76.49 C 126.165,76.753 126.001,77.024 125.85,77.3 C 125.697,77.576 125.556,77.858 125.425,78.145 C 125.588,78.792 125.576,79.45 125.816,80.085 Z" stroke="none" fill="#ffffff" stroke-width="0.188" fill-rule="evenodd" stroke-linejoin="miter" marker-start="none" marker-end="none" stroke-miterlimit="79.8403193612775"/>
    <path d="M 211.991,41.71 C 212.131,41.901 212.115,41.921 212.346,41.959 C 212.542,41.769 212.641,41.561 212.761,41.321 L 212.936,41.263 C 213.305,41.263 213.627,41.288 213.959,41.107 C 214.504,41.191 215.024,41.18 215.572,41.164 C 215.651,40.692 215.675,40.038 215.532,39.58 C 215.46,39.369 215.41,39.208 215.27,39.03 C 214.432,38.636 213.036,38.872 212.098,38.896 C 212.107,39.487 212.213,40.348 211.916,40.867 C 211.904,41.099 211.938,41.307 211.97,41.535 L 211.991,41.71 Z" stroke="none" fill="#003492" stroke-width="0.188" fill-rule="evenodd" stroke-linejoin="miter" marker-start="none" marker-end="none" stroke-miterlimit="79.8403193612775"/>
    <path d="M 211.991,41.71 C 212.131,41.901 212.115,41.921 212.346,41.959 C 212.542,41.769 212.641,41.561 212.761,41.321 L 212.936,41.263 C 213.305,41.263 213.627,41.288 213.959,41.107 C 213.821,41.014 213.682,40.92 213.536,40.838 C 213.25,40.676 212.901,40.545 212.579,40.689 C 212.228,40.846 212.098,41.206 211.97,41.535 L 211.991,41.71 Z" stroke="none" fill="#ffffff" stroke-width="0.188" fill-rule="evenodd" stroke-linejoin="miter" marker-start="none" marker-end="none" stroke-miterlimit="79.8403193612775"/>
    <path d="M 199.62,7.553 C 199.978,7.567 200.315,7.562 200.659,7.446 C 201.195,7.266 201.651,6.833 201.878,6.319 C 201.907,6.254 201.931,6.19 201.952,6.123 C 201.974,6.057 201.992,5.99 202.006,5.922 C 202.021,5.854 202.031,5.786 202.037,5.715 C 202.045,5.646 202.049,5.577 202.048,5.509 C 202.048,5.439 202.045,5.368 202.037,5.299 C 202.03,5.231 202.018,5.162 202.004,5.094 C 201.989,5.026 201.971,4.959 201.95,4.893 C 201.927,4.826 201.902,4.761 201.874,4.698 C 201.584,4.059 201.072,3.759 200.444,3.515 C 200.019,3.493 199.626,3.449 199.233,3.635 C 199.167,3.668 199.103,3.701 199.041,3.739 C 198.98,3.776 198.92,3.817 198.862,3.86 C 198.805,3.903 198.748,3.95 198.696,3.999 C 198.643,4.047 198.592,4.099 198.543,4.153 C 198.495,4.207 198.451,4.263 198.409,4.322 C 198.366,4.381 198.327,4.442 198.29,4.504 C 198.254,4.567 198.222,4.631 198.192,4.696 C 198.162,4.763 198.137,4.83 198.114,4.899 C 197.934,5.434 197.96,6.04 198.232,6.54 C 198.547,7.125 199.012,7.353 199.62,7.553 Z" stroke="none" fill="#ffffff" stroke-width="0.188" fill-rule="evenodd" stroke-linejoin="miter" marker-start="none" marker-end="none" stroke-miterlimit="79.8403193612775"/>
    <path d="M 125.052,25.867 C 125.958,25.249 129.115,21.132 129.715,20.058 C 128.144,20.029 126.573,20.021 125.001,20.034 C 125.029,21.978 125.046,23.922 125.052,25.867 Z" stroke="none" fill="#ffffff" stroke-width="0.188" fill-rule="evenodd" stroke-linejoin="miter" marker-start="none" marker-end="none" stroke-miterlimit="79.8403193612775"/>
    <path d="M 160.574,7.46 C 160.942,7.473 161.315,7.446 161.659,7.301 C 161.726,7.274 161.791,7.242 161.855,7.21 C 161.918,7.172 161.979,7.135 162.039,7.094 C 162.098,7.053 162.155,7.01 162.211,6.962 C 162.265,6.915 162.318,6.866 162.367,6.814 C 162.417,6.761 162.464,6.707 162.509,6.648 C 162.552,6.591 162.593,6.533 162.631,6.47 C 162.67,6.41 162.705,6.346 162.736,6.281 C 162.766,6.216 162.795,6.15 162.82,6.081 C 162.846,6.007 162.87,5.932 162.89,5.855 C 162.908,5.777 162.924,5.7 162.935,5.622 C 162.946,5.546 162.953,5.466 162.957,5.387 C 162.96,5.307 162.958,5.228 162.953,5.149 C 162.948,5.07 162.938,4.992 162.925,4.914 C 162.911,4.836 162.895,4.759 162.873,4.683 C 162.852,4.606 162.827,4.532 162.797,4.458 C 162.767,4.386 162.735,4.313 162.698,4.243 C 162.36,3.602 161.874,3.333 161.208,3.108 C 160.761,3.109 160.335,3.131 159.92,3.317 C 159.392,3.557 158.962,3.997 158.77,4.548 C 158.746,4.616 158.727,4.684 158.711,4.754 C 158.695,4.824 158.682,4.894 158.672,4.965 C 158.663,5.036 158.658,5.107 158.656,5.177 C 158.653,5.252 158.655,5.322 158.66,5.392 C 158.666,5.465 158.675,5.535 158.687,5.607 C 158.7,5.677 158.716,5.746 158.736,5.815 C 158.754,5.884 158.778,5.952 158.804,6.018 C 158.831,6.085 158.861,6.15 158.894,6.214 C 159.261,6.919 159.843,7.23 160.574,7.46 Z" stroke="none" fill="#ffffff" stroke-width="0.188" fill-rule="evenodd" stroke-linejoin="miter" marker-start="none" marker-end="none" stroke-miterlimit="79.8403193612775"/>
    <path d="M 125.735,7.652 C 126.107,7.669 126.461,7.654 126.81,7.514 C 127.425,7.268 127.913,6.805 128.157,6.188 C 128.367,5.656 128.374,5.061 128.142,4.535 C 127.814,3.794 127.247,3.473 126.522,3.196 C 126.044,3.133 125.661,3.166 125.215,3.362 C 125.148,3.392 125.083,3.422 125.02,3.458 C 124.956,3.494 124.895,3.531 124.835,3.574 C 124.776,3.616 124.718,3.661 124.664,3.71 C 124.609,3.755 124.557,3.806 124.507,3.859 C 124.457,3.912 124.411,3.967 124.365,4.024 C 124.322,4.083 124.281,4.142 124.243,4.205 C 124.205,4.267 124.171,4.33 124.138,4.394 C 124.108,4.461 124.08,4.528 124.055,4.596 C 124.029,4.665 124.007,4.734 123.988,4.805 C 123.97,4.875 123.955,4.947 123.943,5.018 C 123.931,5.091 123.922,5.164 123.918,5.236 C 123.912,5.31 123.911,5.382 123.914,5.455 C 123.917,5.528 123.922,5.601 123.932,5.673 C 123.942,5.746 123.955,5.817 123.971,5.887 C 123.987,5.96 124.008,6.03 124.03,6.098 C 124.054,6.167 124.08,6.235 124.11,6.303 C 124.452,7.044 124.996,7.375 125.735,7.652 Z" stroke="none" fill="#ffffff" stroke-width="0.188" fill-rule="evenodd" stroke-linejoin="miter" marker-start="none" marker-end="none" stroke-miterlimit="79.8403193612775"/>
    <path d="M 223.473,59.972 C 223.879,60.003 224.309,60.023 224.716,59.994 C 225.784,59.921 226.919,59.453 227.604,58.608 C 227.897,58.247 228.216,57.736 228.169,57.252 C 227.709,56.863 226.026,57.058 225.412,57.065 C 224.094,57.058 222.764,57.017 221.45,57.063 C 221.145,57.074 220.833,57.07 220.618,57.299 C 220.622,57.629 220.689,57.953 220.846,58.246 C 221.355,59.184 222.495,59.689 223.473,59.972 Z" stroke="none" fill="#ffffff" stroke-width="0.188" fill-rule="evenodd" stroke-linejoin="miter" marker-start="none" marker-end="none" stroke-miterlimit="79.8403193612775"/>
    <path d="M 163.799,154.763 C 164.215,154.745 164.616,154.729 164.908,154.391 C 165.348,153.88 165.179,147.423 165.126,146.321 C 164.823,146.226 164.482,146.27 164.165,146.281 L 162.967,146.282 C 162.98,147.926 162.764,152.765 163.088,154.046 C 163.189,154.443 163.47,154.572 163.799,154.763 Z" stroke="none" fill="#ffffff" stroke-width="0.188" fill-rule="evenodd" stroke-linejoin="miter" marker-start="none" marker-end="none" stroke-miterlimit="79.8403193612775"/>
    <path d="M 200.192,19.561 C 200.405,19.571 200.588,19.552 200.798,19.518 C 201.085,19.055 200.922,11.643 200.918,10.473 L 199.389,10.466 C 199.121,10.441 198.941,10.384 198.693,10.496 C 198.498,11.426 198.626,12.573 198.628,13.534 L 198.64,19.54 L 200.192,19.561 Z" stroke="none" fill="#ffffff" stroke-width="0.188" fill-rule="evenodd" stroke-linejoin="miter" marker-start="none" marker-end="none" stroke-miterlimit="79.8403193612775"/>
    <path d="M 137.972,67.343 C 139.301,66.471 140.495,65.248 141.695,64.204 C 143.346,62.767 145.06,61.389 146.654,59.888 L 145.365,58.326 L 144.221,56.815 C 142.93,58.832 141.92,61.054 140.726,63.132 C 139.887,64.589 138.869,65.923 137.972,67.343 Z" stroke="none" fill="#f5d552" stroke-width="0.188" fill-rule="evenodd" stroke-linejoin="miter" marker-start="none" marker-end="none" stroke-miterlimit="79.8403193612775"/>
    <path d="M 159.491,19.532 C 160.361,19.557 161.225,19.547 162.094,19.529 C 162.174,17.655 162.126,15.755 162.137,13.877 C 162.145,12.746 162.294,11.415 162.095,10.309 C 161.166,10.47 160.443,10.437 159.516,10.265 C 159.401,13.342 159.486,16.451 159.491,19.532 Z" stroke="none" fill="#ffffff" stroke-width="0.188" fill-rule="evenodd" stroke-linejoin="miter" marker-start="none" marker-end="none" stroke-miterlimit="79.8403193612775"/>
    <path d="M 162.609,19.531 L 165.201,19.532 L 165.144,8.389 L 165.035,8.403 C 164.353,9.139 163.602,9.823 162.657,10.193 C 162.622,13.305 162.607,16.418 162.609,19.531 Z" stroke="none" fill="#ffffff" stroke-width="0.188" fill-rule="evenodd" stroke-linejoin="miter" marker-start="none" marker-end="none" stroke-miterlimit="79.8403193612775"/>
    <path d="M 125.34,77.14 C 125.435,77.056 125.408,77.093 125.469,76.992 C 125.91,76.279 126.373,75.472 126.944,74.856 C 127.766,73.969 129.039,73.588 130.215,73.529 C 130.224,72.872 130.244,72.21 130.228,71.554 C 130.207,70.638 129.953,70.004 129.293,69.372 C 128.795,69.066 128.325,68.849 127.731,68.821 C 126.962,68.784 126.091,69.093 125.546,69.643 C 123.914,71.289 125.3,74.959 125.337,77.004 L 125.34,77.14 Z" stroke="none" fill="#efa59f" stroke-width="0.188" fill-rule="evenodd" stroke-linejoin="miter" marker-start="none" marker-end="none" stroke-miterlimit="79.8403193612775"/>
    <path d="M 220.551,56.603 L 228.21,56.594 C 228.207,55.357 228.217,54.119 228.237,52.883 C 227.404,52.63 221.854,52.814 220.547,52.819 L 220.551,56.603 Z" stroke="none" fill="#3fc2c9" stroke-width="0.188" fill-rule="evenodd" stroke-linejoin="miter" marker-start="none" marker-end="none" stroke-miterlimit="79.8403193612775"/>
    <path d="M 133.288,79.993 C 133.444,80.004 133.799,80.05 133.91,79.941 C 134.273,79.578 134.267,78.822 134.227,78.351 C 134.115,77.063 133.64,75.819 132.599,74.994 C 131.594,74.199 130.377,74.009 129.137,74.162 C 128.929,74.242 128.696,74.32 128.512,74.447 C 128.133,74.711 128.032,75.293 127.983,75.717 C 127.872,76.698 128.022,78.17 128.676,78.934 C 129.474,79.866 132.091,79.897 133.288,79.993 Z" stroke="none" fill="#ffffff" stroke-width="0.188" fill-rule="evenodd" stroke-linejoin="miter" marker-start="none" marker-end="none" stroke-miterlimit="79.8403193612775"/>
    <path d="M 146.338,48.967 L 147.851,48.965 L 147.798,26.975 L 146.481,26.985 C 146.47,34.313 146.422,41.64 146.338,48.967 Z" stroke="none" fill="#ffffff" stroke-width="0.188" fill-rule="evenodd" stroke-linejoin="miter" marker-start="none" marker-end="none" stroke-miterlimit="79.8403193612775"/>
    <path d="M 126.791,84.702 C 128.9,84.8 131.049,84.757 133.161,84.717 C 133.535,83.351 133.743,81.926 133.943,80.526 L 132.871,80.429 C 131.414,80.279 130.024,80.047 128.606,79.677 C 127.889,79.96 127.184,80.268 126.49,80.602 C 126.58,81.969 126.679,83.335 126.791,84.702 Z" stroke="none" fill="#efa59f" stroke-width="0.188" fill-rule="evenodd" stroke-linejoin="miter" marker-start="none" marker-end="none" stroke-miterlimit="79.8403193612775"/>
    <path d="M 148.766,50.002 C 150.338,50.024 152.708,50.334 154.036,49.309 C 154.638,48.845 154.946,48.163 155.013,47.416 C 155.132,46.081 154.969,44.821 154.073,43.779 C 152.692,42.674 150.054,43.114 148.361,43.164 C 148.351,44.622 148.142,47.881 148.425,49.164 C 148.488,49.452 148.639,49.736 148.766,50.002 Z" stroke="none" fill="#efa59f" stroke-width="0.188" fill-rule="evenodd" stroke-linejoin="miter" marker-start="none" marker-end="none" stroke-miterlimit="79.8403193612775"/>
    <path d="M 224.394,62.017 C 226.12,61.909 228.13,61.247 229.354,59.981 C 231.162,58.111 230.757,55.231 230.748,52.848 L 228.704,52.783 C 228.585,54.625 229.123,57.179 227.996,58.762 C 227.186,59.899 225.893,60.271 224.59,60.49 C 223.302,60.475 221.984,60.13 221.065,59.173 C 219.643,57.689 220.073,54.745 220.082,52.826 L 218.017,52.829 C 218.007,54.945 217.579,57.959 219.034,59.671 C 220.348,61.217 222.451,61.829 224.394,62.017 Z" stroke="none" fill="#ffffff" stroke-width="0.188" fill-rule="evenodd" stroke-linejoin="miter" marker-start="none" marker-end="none" stroke-miterlimit="79.8403193612775"/>
    <path d="M 124.079,15.289 C 124.31,15.029 124.208,10.995 124.209,10.43 C 122.997,9.852 122.12,9.269 121.464,8.041 C 120.76,6.724 120.554,5.191 121.025,3.759 C 121.546,2.171 122.63,1.258 124.059,0.502 C 120.848,0.555 117.637,0.574 114.425,0.562 C 113.154,0.566 111.883,0.546 110.613,0.505 C 116.469,3.539 121.725,9.099 124.079,15.289 Z" stroke="none" fill="#7ef1f7" stroke-width="0.188" fill-rule="evenodd" stroke-linejoin="miter" marker-start="none" marker-end="none" stroke-miterlimit="79.8403193612775"/>
    <path d="M 125.676,19.561 L 146.726,19.552 C 150.825,19.573 154.923,19.569 159.021,19.54 C 159.036,18.927 159.023,18.312 159.022,17.698 C 156.295,17.658 153.569,17.642 150.842,17.648 L 126.957,17.637 C 126.569,15.63 126.745,12.649 126.742,10.555 L 124.658,10.468 C 124.658,12.739 124.405,17.408 124.967,19.424 C 125.198,19.58 125.399,19.546 125.676,19.561 Z" stroke="none" fill="#ffffff" stroke-width="0.188" fill-rule="evenodd" stroke-linejoin="miter" marker-start="none" marker-end="none" stroke-miterlimit="79.8403193612775"/>
    <path d="M 146.753,59.369 C 148.597,58.239 150.327,56.291 152.184,55.051 C 153.477,54.186 154.936,53.561 156.325,52.864 L 162.238,49.866 L 162.229,47.845 L 159.96,47.835 L 155.533,47.787 C 155.301,48.416 155.008,49.008 154.518,49.477 C 152.997,50.935 149.804,50.484 147.827,50.478 C 146.538,52.315 145.521,54.513 144.449,56.488 C 145.264,57.402 145.983,58.415 146.753,59.369 Z" stroke="none" fill="#efa59f" stroke-width="0.188" fill-rule="evenodd" stroke-linejoin="miter" marker-start="none" marker-end="none" stroke-miterlimit="79.8403193612775"/>
    <path d="M 231.861,74.394 L 231.852,64.379 C 231.853,63.02 232.042,60.696 231.761,59.421 C 231.653,58.927 231.312,58.464 231.013,58.065 C 230.271,59.908 229.254,61.021 227.423,61.79 C 226.516,62.173 225.494,62.424 224.508,62.442 C 224.454,64.705 224.504,66.977 224.514,69.239 C 224.521,70.919 224.452,72.638 224.587,74.313 C 226.992,74.462 229.45,74.373 231.861,74.394 Z" stroke="none" fill="#ffffff" stroke-width="0.188" fill-rule="evenodd" stroke-linejoin="miter" marker-start="none" marker-end="none" stroke-miterlimit="79.8403193612775"/>
    <path d="M 129.739,42.658 C 135.146,42.537 140.581,42.658 145.99,42.676 L 146.017,33.741 C 142.943,33.848 139.844,33.799 136.767,33.779 C 135.634,35.341 134.351,36.814 133.15,38.328 C 132.009,39.767 130.938,41.266 129.739,42.658 Z" stroke="none" fill="#0262c9" stroke-width="0.188" fill-rule="evenodd" stroke-linejoin="miter" marker-start="none" marker-end="none" stroke-miterlimit="79.8403193612775"/>
    <path d="M 127.242,51.519 C 127.25,51.519 127.258,51.52 127.263,51.519 C 127.265,51.519 127.53,51.465 127.532,51.463 C 127.807,51.343 129.306,49.236 129.626,48.863 C 135.031,49.045 140.483,48.916 145.894,48.916 C 145.929,46.981 145.914,45.043 145.924,43.108 L 142.684,43.112 L 129.406,43.07 C 127.578,45.165 125.256,47.967 123.761,50.272 C 124.906,50.725 126.078,51.123 127.242,51.519 Z" stroke="none" fill="#efa59f" stroke-width="0.188" fill-rule="evenodd" stroke-linejoin="miter" marker-start="none" marker-end="none" stroke-miterlimit="79.8403193612775"/>
    <path d="M 162.775,110.674 C 163.589,110.675 164.404,110.666 165.217,110.649 L 165.239,47.819 L 162.725,47.816 L 162.775,110.674 Z" stroke="none" fill="#ffffff" stroke-width="0.188" fill-rule="evenodd" stroke-linejoin="miter" marker-start="none" marker-end="none" stroke-miterlimit="79.8403193612775"/>
    <path d="M 215.469,48.291 C 215.485,48.346 215.501,48.402 215.515,48.457 C 215.869,49.83 215.139,51.168 216.655,52.136 C 216.874,52.275 217.089,52.328 217.348,52.345 C 218.412,52.416 219.519,52.357 220.587,52.355 L 227.161,52.349 C 228.285,52.348 231.014,52.542 231.969,52.332 C 232.654,52.183 233.101,51.678 233.446,51.103 C 233.59,49.584 233.521,48.026 233.517,46.499 L 233.483,38.893 C 229.329,38.87 225.173,38.87 221.018,38.89 L 217.526,38.888 C 216.936,38.897 216.314,38.748 215.745,38.947 C 215.53,39.172 215.564,39.275 215.532,39.58 C 215.675,40.038 215.651,40.692 215.572,41.164 C 215.476,41.393 215.457,41.641 215.419,41.887 C 215.318,43.651 215.387,45.454 215.382,47.221 C 215.377,47.569 215.326,47.968 215.469,48.291 Z" stroke="none" fill="#ffffff" stroke-width="0.188" fill-rule="evenodd" stroke-linejoin="miter" marker-start="none" marker-end="none" stroke-miterlimit="79.8403193612775"/>
    <path d="M 217.526,38.888 C 217.506,40.115 217.314,46.228 217.644,46.856 C 218.204,47.205 219.873,47.161 220.534,47.031 C 220.667,47.005 220.77,46.953 220.881,46.878 C 221.265,45.621 220.972,40.581 221.018,38.89 L 217.526,38.888 Z" stroke="none" fill="#3fc2c9" stroke-width="0.188" fill-rule="evenodd" stroke-linejoin="miter" marker-start="none" marker-end="none" stroke-miterlimit="79.8403193612775"/>
    <path d="M 207.928,38.386 L 235.208,38.422 C 235.186,36.778 235.18,35.136 235.19,33.494 C 235.2,32.347 235.402,30.602 235.13,29.539 C 234.863,29.402 234.491,29.448 234.191,29.45 L 206.596,29.41 L 206.6,38.344 L 207.928,38.386 Z" stroke="none" fill="#f5d552" stroke-width="0.188" fill-rule="evenodd" stroke-linejoin="miter" marker-start="none" marker-end="none" stroke-miterlimit="79.8403193612775"/>
    <path d="M 162.708,33.302 L 187.978,33.276 C 190.098,33.265 192.217,33.267 194.336,33.287 C 195.673,33.305 197.13,33.439 198.453,33.282 C 199.314,33.18 200.084,32.813 200.711,32.215 C 201.303,31.651 201.808,30.803 201.792,29.963 C 201.777,29.183 201.396,28.485 200.843,27.954 C 200.395,27.524 199.809,27.167 199.194,27.046 C 197.925,26.794 196.448,26.959 195.148,26.964 L 187.671,26.985 L 148.331,26.971 C 148.203,29.048 148.304,31.201 148.304,33.284 L 162.708,33.302 Z" stroke="none" fill="#ffffff" stroke-width="0.188" fill-rule="evenodd" stroke-linejoin="miter" marker-start="none" marker-end="none" stroke-miterlimit="79.8403193612775"/>
    <path d="M 92.627,74.918 C 92.811,74.91 92.99,74.899 93.172,74.87 C 93.972,74.74 94.562,74.334 95.102,73.746 C 97.184,71.476 98.989,68.818 100.867,66.374 L 109.744,55.027 L 119.399,42.869 C 121.219,40.597 123.143,38.372 124.833,36.001 C 123.69,35.713 122.562,35.466 121.389,35.337 C 119.529,35.205 117.696,35.31 115.852,35.566 C 113.871,37.652 112.109,39.967 110.325,42.221 C 107.714,45.487 105.136,48.778 102.591,52.094 L 96.022,60.675 C 93.916,63.387 91.687,66.098 89.803,68.971 C 89.505,69.423 89.162,69.967 89.072,70.503 C 88.899,71.538 89.198,72.623 89.843,73.443 C 90.559,74.352 91.5,74.787 92.627,74.918 Z" stroke="none" fill="#ffffff" stroke-width="0.188" fill-rule="evenodd" stroke-linejoin="miter" marker-start="none" marker-end="none" stroke-miterlimit="79.8403193612775"/>
    <path d="M 204.535,121.214 C 208.662,121.696 214.017,120.581 217.834,119.051 C 219.395,118.425 222.295,117.179 223.519,116.122 C 225.166,114.701 228.424,107.957 229.407,105.664 C 224.476,108.647 218.345,110.089 212.659,110.601 C 206.54,110.771 200.857,110.096 195.191,107.669 C 193.229,106.829 191.321,105.833 189.701,104.427 C 189.694,108.123 189.354,111.832 188.911,115.499 C 192.926,119.26 199.165,120.841 204.535,121.214 Z" stroke="none" fill="#e64556" stroke-width="0.188" fill-rule="evenodd" stroke-linejoin="miter" marker-start="none" marker-end="none" stroke-miterlimit="79.8403193612775"/>
    <path d="M 119.159,121.026 C 120.208,121.13 121.321,121.084 122.376,121.068 C 128.581,120.964 134.653,119.351 139.575,115.447 C 139.049,111.712 138.784,108.041 138.692,104.274 C 133.288,107.965 127.414,109.9 120.918,110.486 C 113.288,110.982 105.863,109.036 99.039,105.72 C 100.233,108.603 102.35,113.533 104.377,115.811 C 106.853,118.593 115.352,120.786 119.159,121.026 Z" stroke="none" fill="#e64556" stroke-width="0.188" fill-rule="evenodd" stroke-linejoin="miter" marker-start="none" marker-end="none" stroke-miterlimit="79.8403193612775"/>
    <path d="M 216.065,28.97 C 223.489,28.999 230.911,28.985 238.334,28.927 L 238.352,17.628 L 218.933,17.617 L 208.665,17.582 C 206.251,17.568 203.807,17.495 201.399,17.7 L 201.41,19.581 C 202.77,19.647 203.989,19.697 205.068,20.656 C 205.805,21.313 206.318,22.255 206.336,23.256 C 206.352,24.228 205.914,25.159 205.225,25.833 C 204.222,26.808 203.085,26.991 201.752,26.987 C 201.843,27.634 201.955,28.279 202.087,28.919 C 206.74,28.844 211.41,28.954 216.065,28.97 Z" stroke="none" fill="#ffffff" stroke-width="0.188" fill-rule="evenodd" stroke-linejoin="miter" marker-start="none" marker-end="none" stroke-miterlimit="79.8403193612775"/>
    <path d="M 124.117,71.657 C 124.162,71.635 124.218,71.629 124.252,71.591 C 124.291,71.546 124.349,71.087 124.368,71.003 C 124.474,70.538 124.657,70.144 124.93,69.751 C 125.426,69.038 126.213,68.456 127.089,68.342 C 127.997,68.224 129.059,68.598 129.754,69.182 C 130.499,69.806 130.642,70.65 130.726,71.564 C 137.029,69.592 139.532,64.429 142.435,59.003 C 143.425,57.151 144.499,55.339 145.556,53.523 C 146.073,52.635 146.673,51.085 147.294,50.352 C 147.572,50.024 147.912,50.242 148.164,49.965 C 148.08,49.73 148.041,49.579 147.862,49.393 L 130.095,49.325 C 128.831,49.613 125.471,56.275 124.742,57.698 C 124.465,58.236 124.365,58.823 123.864,59.21 L 123.747,59.188 C 123.771,58.234 126.496,53.491 127.165,52.208 C 125.936,51.651 124.591,51.281 123.321,50.812 C 120.274,54.357 117.487,58.152 114.548,61.792 C 114.75,62.351 114.963,62.901 115.214,63.441 C 117.063,67.4 120.03,70.165 124.117,71.657 Z" stroke="none" fill="#f5d552" stroke-width="0.188" fill-rule="evenodd" stroke-linejoin="miter" marker-start="none" marker-end="none" stroke-miterlimit="79.8403193612775"/>
    <path d="M 129.221,17.206 C 139.146,17.341 149.075,17.125 159.002,17.241 C 158.988,14.886 158.995,12.531 159.024,10.177 C 158.078,9.681 157.306,9.124 156.685,8.24 C 155.917,7.149 155.568,5.726 155.812,4.406 C 156.144,2.623 157.224,1.513 158.664,0.522 C 158.042,0.559 157.413,0.56 156.79,0.577 L 138.938,0.573 C 135.339,0.569 131.721,0.652 128.126,0.514 C 128.319,0.609 128.511,0.71 128.701,0.813 C 129.911,1.474 130.756,2.503 131.13,3.837 C 131.155,3.925 131.176,4.014 131.196,4.102 C 131.216,4.191 131.233,4.281 131.248,4.371 C 131.263,4.46 131.276,4.55 131.288,4.641 C 131.299,4.73 131.308,4.821 131.313,4.912 C 131.321,5.003 131.325,5.094 131.326,5.186 C 131.329,5.275 131.328,5.367 131.326,5.458 C 131.324,5.549 131.318,5.64 131.312,5.731 C 131.304,5.821 131.296,5.911 131.284,6.002 C 131.273,6.093 131.259,6.182 131.244,6.272 C 131.228,6.362 131.209,6.45 131.19,6.54 C 131.169,6.628 131.148,6.717 131.123,6.804 C 131.098,6.893 131.072,6.979 131.044,7.066 C 131.015,7.151 130.983,7.238 130.951,7.322 C 130.917,7.407 130.882,7.49 130.845,7.574 C 130.808,7.657 130.769,7.739 130.728,7.822 C 130.687,7.902 130.644,7.983 130.599,8.062 C 129.817,9.424 128.698,10.184 127.206,10.579 C 127.2,12.728 127.021,15.062 127.326,17.187 L 129.221,17.206 Z" stroke="none" fill="#7ef1f7" stroke-width="0.188" fill-rule="evenodd" stroke-linejoin="miter" marker-start="none" marker-end="none" stroke-miterlimit="79.8403193612775"/>
    <path d="M 99.814,77.079 C 100.058,77.078 100.301,77.065 100.543,77.041 C 101.328,76.968 101.957,76.659 102.521,76.113 C 103.536,75.13 104.393,73.83 105.296,72.73 C 108.236,69.147 111.049,65.453 113.893,61.795 C 116.675,58.217 119.59,54.732 122.392,51.168 C 127.046,45.139 131.775,39.171 136.582,33.265 C 139.706,33.294 142.831,33.298 145.955,33.276 L 145.941,27.014 L 142.588,26.982 C 139.351,26.956 136.114,26.947 132.877,26.96 C 131.13,28.966 129.583,31.145 127.911,33.213 L 117.39,46.213 C 112.647,52.107 107.958,58.044 103.322,64.022 C 100.968,67.053 98.513,70.02 96.304,73.16 C 96.515,74.057 96.755,74.941 97.31,75.696 C 97.96,76.578 98.769,76.919 99.814,77.079 Z" stroke="none" fill="#ffffff" stroke-width="0.188" fill-rule="evenodd" stroke-linejoin="miter" marker-start="none" marker-end="none" stroke-miterlimit="79.8403193612775"/>
    <path d="M 160.819,47.377 C 163.86,47.313 166.903,47.287 169.945,47.294 C 172.466,47.295 175.085,47.429 177.578,47.025 C 181.348,46.415 184.711,44.142 188.038,42.384 L 196.665,37.826 C 198.409,36.896 200.131,35.912 201.914,35.056 C 201.155,34.616 200.428,34.193 199.744,33.639 C 198.194,33.893 196.566,33.79 194.999,33.789 L 188.449,33.8 L 163.286,33.808 C 158.296,33.805 153.268,33.924 148.283,33.759 L 148.325,42.61 C 149.893,42.592 151.956,42.32 153.431,42.86 C 153.829,43.004 154.21,43.291 154.561,43.525 C 156.134,43.621 160.009,43.173 161.13,44.142 C 161.488,44.451 161.643,44.85 161.655,45.316 C 161.678,46.272 161.457,46.708 160.819,47.377 Z" stroke="none" fill="#0262c9" stroke-width="0.188" fill-rule="evenodd" stroke-linejoin="miter" marker-start="none" marker-end="none" stroke-miterlimit="79.8403193612775"/>
    <path d="M 183.81,43.012 C 183.966,42.95 184.089,42.879 184.232,42.792 C 184.531,41.874 184.295,35.336 184.261,33.806 C 184.091,33.839 183.944,33.886 183.784,33.949 C 183.605,34.661 183.655,42.143 183.81,43.012 Z" stroke="none" fill="#ffffff" stroke-width="0.188" fill-rule="evenodd" stroke-linejoin="miter" marker-start="none" marker-end="none" stroke-miterlimit="79.8403193612775"/>
    <path d="M 125.042,35.815 C 126.263,34.352 127.527,32.935 128.71,31.438 C 129.931,29.892 131.229,27.879 132.682,26.58 C 135.101,26.518 137.532,26.564 139.953,26.557 C 144.325,26.531 148.695,26.526 153.067,26.545 L 183.291,26.571 C 188.098,26.587 192.904,26.575 197.711,26.534 C 199.399,26.514 201.184,26.664 202.857,26.52 C 203.437,26.469 203.953,26.243 204.43,25.912 C 205.16,25.405 205.698,24.642 205.828,23.754 C 205.974,22.751 205.602,22.011 205.029,21.236 C 205.002,21.207 204.974,21.178 204.947,21.15 C 204.405,20.605 203.716,20.207 202.948,20.111 C 200.687,19.831 198.228,20.075 195.942,20.058 C 189.866,20.02 183.788,20.017 177.712,20.048 L 145.652,20.015 C 140.613,19.991 135.574,19.994 130.536,20.026 C 128.699,22.248 126.944,24.522 125.03,26.681 L 125.042,35.815 Z" stroke="none" fill="#ffffff" stroke-width="0.188" fill-rule="evenodd" stroke-linejoin="miter" marker-start="none" marker-end="none" stroke-miterlimit="79.8403193612775"/>
    <path d="M 160.553,122.147 L 160.699,122.154 C 168.279,122.45 175.778,121.748 182.753,118.58 C 184.79,117.654 186.728,116.599 188.381,115.07 C 188.645,113.282 188.84,111.485 188.968,109.681 C 189.097,107.879 189.159,106.073 189.152,104.266 C 182.734,108.295 175.419,110.779 167.811,111.006 C 166.17,111.081 164.518,111.204 162.874,111.181 C 156.566,111.09 149.883,109.9 144.145,107.213 C 142.417,106.404 140.784,105.406 139.148,104.426 C 139.173,106.242 139.264,108.055 139.421,109.864 C 139.577,111.673 139.799,113.475 140.087,115.269 C 145.707,119.695 153.457,121.849 160.553,122.147 Z" stroke="none" fill="#e64556" stroke-width="0.188" fill-rule="evenodd" stroke-linejoin="miter" marker-start="none" marker-end="none" stroke-miterlimit="79.8403193612775"/>
    <path d="M 163.56,118.4 C 164.237,118.461 164.913,118.364 165.525,118.058 C 165.618,118.014 165.709,117.962 165.798,117.907 C 165.886,117.851 165.972,117.792 166.054,117.728 C 166.136,117.665 166.215,117.596 166.292,117.525 C 166.368,117.453 166.439,117.378 166.508,117.299 C 166.576,117.22 166.64,117.138 166.701,117.054 C 166.761,116.968 166.816,116.881 166.868,116.79 C 166.92,116.699 166.965,116.605 167.008,116.511 C 167.051,116.416 167.088,116.319 167.12,116.219 C 167.38,115.414 167.261,114.543 166.856,113.808 C 166.375,112.932 165.643,112.41 164.706,112.119 C 164.052,112.008 163.47,112.04 162.858,112.321 C 162.031,112.701 161.441,113.46 161.163,114.315 C 160.886,115.165 160.959,116.075 161.404,116.856 C 161.905,117.735 162.622,118.135 163.56,118.4 Z" stroke="none" fill="#000000" stroke-width="0.188" fill-rule="evenodd" stroke-linejoin="miter" marker-start="none" marker-end="none" stroke-miterlimit="79.8403193612775"/>
    <path d="M 163.682,117.941 C 164.114,117.967 164.532,117.946 164.948,117.814 C 165.653,117.589 166.235,117.121 166.547,116.444 C 166.849,115.791 166.854,115.059 166.583,114.396 C 166.199,113.46 165.502,112.93 164.613,112.532 C 164.043,112.453 163.549,112.471 163.025,112.734 C 162.305,113.098 161.799,113.757 161.577,114.528 C 161.552,114.616 161.532,114.704 161.515,114.794 C 161.498,114.883 161.486,114.974 161.479,115.063 C 161.472,115.154 161.469,115.245 161.47,115.336 C 161.471,115.427 161.478,115.516 161.487,115.608 C 161.498,115.699 161.512,115.788 161.532,115.877 C 161.551,115.965 161.575,116.054 161.602,116.139 C 161.631,116.227 161.662,116.313 161.699,116.395 C 161.735,116.479 161.776,116.56 161.82,116.639 C 162.251,117.399 162.866,117.723 163.682,117.941 Z" stroke="none" fill="#84cdf7" stroke-width="0.188" fill-rule="evenodd" stroke-linejoin="miter" marker-start="none" marker-end="none" stroke-miterlimit="79.8403193612775"/>
    <path d="M 163.535,116.809 C 163.831,116.852 164.13,116.889 164.427,116.836 C 164.896,116.752 165.361,116.437 165.614,116.035 C 165.643,115.99 165.67,115.943 165.694,115.895 C 165.718,115.846 165.739,115.796 165.759,115.746 C 165.777,115.695 165.794,115.643 165.806,115.591 C 165.821,115.538 165.831,115.486 165.84,115.432 C 165.848,115.379 165.854,115.325 165.856,115.271 C 165.858,115.217 165.858,115.163 165.855,115.109 C 165.853,115.055 165.846,115.002 165.839,114.948 C 165.83,114.895 165.819,114.842 165.805,114.789 C 165.651,114.18 165.241,113.87 164.729,113.556 C 164.429,113.524 164.108,113.492 163.808,113.542 C 163.37,113.615 162.944,113.891 162.684,114.249 C 162.429,114.601 162.345,115.036 162.431,115.459 C 162.567,116.13 162.982,116.462 163.535,116.809 Z" stroke="none" fill="#000000" stroke-width="0.188" fill-rule="evenodd" stroke-linejoin="miter" marker-start="none" marker-end="none" stroke-miterlimit="79.8403193612775"/>
    <path d="M 163.723,116.448 C 163.943,116.458 164.186,116.484 164.4,116.43 C 164.797,116.333 165.148,116.017 165.33,115.658 C 165.467,115.387 165.484,115.048 165.386,114.761 C 165.229,114.31 164.887,114.103 164.476,113.914 C 164.302,113.911 164.132,113.921 163.96,113.949 C 163.589,114.009 163.231,114.199 163.017,114.516 C 162.833,114.789 162.776,115.102 162.853,115.422 C 162.974,115.928 163.303,116.181 163.723,116.448 Z" stroke="none" fill="#efa59f" stroke-width="0.188" fill-rule="evenodd" stroke-linejoin="miter" marker-start="none" marker-end="none" stroke-miterlimit="79.8403193612775"/>
    <path d="M 201.421,17.155 L 238.352,17.144 L 238.301,0.595 C 236.891,0.571 235.48,0.588 234.07,0.585 L 214.175,0.549 C 209.753,0.546 205.284,0.654 200.871,0.432 C 201.126,0.526 201.378,0.626 201.628,0.733 C 202.999,1.322 204.143,2.37 204.682,3.784 C 205.18,5.094 205.074,6.586 204.458,7.838 C 203.826,9.125 202.774,9.981 201.432,10.446 L 201.421,17.155 Z" stroke="none" fill="#e64556" stroke-width="0.188" fill-rule="evenodd" stroke-linejoin="miter" marker-start="none" marker-end="none" stroke-miterlimit="79.8403193612775"/>
    <path d="M 165.695,19.595 L 198.077,19.598 C 198.199,16.489 198.091,13.364 198.156,10.251 C 197.885,10.083 197.608,9.915 197.353,9.72 C 196.169,8.827 195.353,7.607 195.159,6.114 C 194.924,4.307 195.66,2.294 197.241,1.29 C 197.601,1.062 198.22,0.871 198.473,0.537 L 198.188,0.498 C 190.298,0.597 182.393,0.567 174.501,0.53 L 167.29,0.505 C 165.781,0.5 164.247,0.546 162.745,0.406 C 163.419,0.792 164.064,1.177 164.622,1.725 C 165.439,2.53 166.057,3.723 166.2,4.871 C 166.351,6.093 165.75,7.21 165.706,8.424 C 165.569,12.13 165.692,15.884 165.695,19.595 Z" stroke="none" fill="#7ef1f7" stroke-width="0.188" fill-rule="evenodd" stroke-linejoin="miter" marker-start="none" marker-end="none" stroke-miterlimit="79.8403193612775"/>
    <path d="M 166.52,145.884 C 169.13,146.056 173.125,145.556 175.777,145.175 C 176.36,145.094 176.942,145.007 177.523,144.913 C 178.104,144.818 178.683,144.715 179.26,144.606 C 179.84,144.497 180.416,144.381 180.991,144.258 C 181.567,144.135 182.141,144.003 182.713,143.866 C 183.285,143.728 183.854,143.583 184.423,143.431 C 184.992,143.278 185.558,143.12 186.123,142.953 C 186.687,142.787 187.249,142.614 187.809,142.433 C 188.369,142.252 188.927,142.065 189.482,141.871 C 190.038,141.677 190.591,141.475 191.141,141.265 C 191.692,141.06 192.24,140.844 192.785,140.622 C 193.33,140.4 193.871,140.172 194.411,139.937 C 194.95,139.701 195.487,139.46 196.02,139.209 C 196.554,138.961 197.083,138.705 197.611,138.444 C 198.138,138.181 198.661,137.914 199.181,137.638 C 199.701,137.361 200.218,137.081 200.731,136.794 C 201.244,136.504 201.753,136.212 202.259,135.91 C 202.765,135.609 203.267,135.302 203.765,134.989 C 204.264,134.676 204.757,134.357 205.247,134.03 C 205.737,133.705 206.224,133.373 206.705,133.034 C 207.187,132.697 207.664,132.353 208.137,132.004 C 208.611,131.654 209.08,131.298 209.544,130.936 C 210.009,130.576 210.468,130.207 210.923,129.836 C 211.378,129.462 211.828,129.084 212.274,128.699 C 212.719,128.315 213.16,127.925 213.597,127.53 C 214.033,127.135 214.463,126.733 214.889,126.328 C 215.315,125.921 215.736,125.511 216.152,125.094 C 216.567,124.678 216.977,124.254 217.383,123.829 C 217.788,123.402 218.188,122.969 218.581,122.534 C 218.976,122.096 219.364,121.655 219.748,121.209 C 220.132,120.762 220.509,120.311 220.881,119.855 C 221.253,119.399 221.619,118.938 221.979,118.473 C 222.341,118.008 222.694,117.539 223.043,117.065 C 221.866,117.735 220.658,118.347 219.423,118.9 C 216.381,120.254 213.297,121.107 209.996,121.497 C 202.711,122.359 194.602,120.75 188.756,116.147 C 187.818,120.037 186.7,123.709 185.018,127.35 C 181.381,135.223 174.804,142.833 166.52,145.884 Z" stroke="none" fill="#ffffff" stroke-width="0.188" fill-rule="evenodd" stroke-linejoin="miter" marker-start="none" marker-end="none" stroke-miterlimit="79.8403193612775"/>
    <path d="M 158.484,145.778 C 159.509,145.853 160.57,145.814 161.6,145.822 C 159.85,145.363 158.202,144.528 156.679,143.556 C 147.029,137.394 142.09,126.963 139.716,116.117 C 138.392,116.841 137.226,117.792 135.861,118.481 C 128.57,122.158 119.068,122.439 111.393,119.912 C 109.275,119.243 107.434,118.275 105.448,117.327 C 106.609,119.291 108.187,121.096 109.699,122.797 C 122.161,136.82 139.852,144.69 158.484,145.778 Z" stroke="none" fill="#ffffff" stroke-width="0.188" fill-rule="evenodd" stroke-linejoin="miter" marker-start="none" marker-end="none" stroke-miterlimit="79.8403193612775"/>
    <path d="M 163.513,145.78 C 166.733,145.919 169.704,144.147 172.274,142.376 C 180.805,136.497 186.457,125.759 188.295,115.755 C 187.177,116.902 185.685,117.656 184.265,118.366 C 178.263,121.369 172.034,122.414 165.385,122.733 C 157.084,123.044 146.879,121.142 140.203,115.989 C 141.33,123.176 144.876,131.288 149.626,136.815 C 152.75,140.453 158.632,145.396 163.513,145.78 Z" stroke="none" fill="#ffffff" stroke-width="0.188" fill-rule="evenodd" stroke-linejoin="miter" marker-start="none" marker-end="none" stroke-miterlimit="79.8403193612775"/>
    <path d="M 108.738,37.195 C 114.678,34.818 118.227,34.269 124.54,35.37 L 124.557,25.849 C 124.577,19.927 124.59,16.197 121.253,10.997 C 120.258,9.447 119.122,7.913 117.865,6.564 C 116.464,5.06 111.004,0.48 109.049,0.41 C 106.242,0.577 102.249,4.037 100.27,6.039 C 96.809,9.536 94.041,14.541 93.238,19.406 C 92.864,21.669 92.965,24.013 92.962,26.299 L 92.97,35.391 C 98.685,34.155 103.353,35.412 108.738,37.195 Z" stroke="none" fill="#ffffff" stroke-width="0.188" fill-rule="evenodd" stroke-linejoin="miter" marker-start="none" marker-end="none" stroke-miterlimit="79.8403193612775"/>
    <path d="M 117.933,12.333 C 118.077,12.356 118.121,12.34 118.257,12.298 C 118.253,12.265 118.251,12.232 118.244,12.199 C 118.133,11.743 117.55,11.133 117.258,10.769 C 114.937,7.865 112.022,5.234 108.76,3.411 C 106.795,4.804 105.086,5.848 103.269,7.494 C 101.929,8.737 100.37,10.37 99.582,12.032 C 100.454,11.975 101.341,11.788 102.208,11.662 C 104.023,11.399 105.861,11.151 107.694,11.057 C 110.592,10.91 114.981,11.828 117.933,12.333 Z" stroke="none" fill="#f5d552" stroke-width="0.188" fill-rule="evenodd" stroke-linejoin="miter" marker-start="none" marker-end="none" stroke-miterlimit="79.8403193612775"/>
    <path d="M 105.621,31.37 L 111.487,31.381 L 111.492,25.648 L 117.094,25.674 C 117.124,23.709 117.126,21.745 117.101,19.781 C 115.291,19.772 113.48,19.739 111.669,19.684 C 111.673,18.084 111.835,15.843 111.601,14.304 L 111.413,14.217 L 105.674,14.209 L 105.65,19.629 C 103.714,19.678 101.775,19.644 99.839,19.64 C 99.867,21.61 99.871,23.581 99.847,25.55 L 105.658,25.6 C 105.662,27.524 105.65,29.447 105.621,31.37 Z" stroke="none" fill="#e64556" stroke-width="0.188" fill-rule="evenodd" stroke-linejoin="miter" marker-start="none" marker-end="none" stroke-miterlimit="79.8403193612775"/>
    <path d="M 178.876,76.801 C 178.771,81.527 178.863,86.275 178.855,91.003 L 178.838,96.253 C 178.836,97.206 178.777,98.199 178.871,99.148 C 178.899,99.424 178.948,99.599 179.151,99.802 C 179.731,100.38 185.341,100.166 186.406,100.167 L 221.017,100.18 L 233.168,100.209 C 235.227,100.215 237.298,100.281 239.356,100.225 C 240.293,100.201 240.978,100.114 241.639,99.383 C 241.924,99.068 242.196,98.667 242.275,98.245 C 242.596,96.491 242.392,92.482 242.391,90.53 C 242.389,86.744 242.553,82.46 242.338,78.732 C 242.287,77.829 241.889,76.922 241.044,76.481 C 239.467,75.655 232.711,76.638 232.043,75.842 C 231.758,75.502 231.853,74.812 231.861,74.394 C 229.45,74.373 226.992,74.462 224.587,74.313 C 224.452,72.638 224.521,70.919 224.514,69.239 C 224.504,66.977 224.454,64.705 224.508,62.442 C 222.822,62.434 220.976,61.813 219.64,60.783 C 218.352,59.79 217.776,58.667 217.559,57.071 L 199.712,57.052 L 195.094,57.087 C 194.181,57.09 193.237,57.042 192.327,57.125 C 191.848,57.169 190.855,57.303 190.537,57.687 C 190.231,58.057 190.103,58.694 190.045,59.155 C 189.872,60.505 190.008,62.001 190.014,63.369 L 190.033,71.604 C 190.032,72.74 190.139,74.016 189.963,75.135 C 189.922,75.391 189.866,75.566 189.697,75.769 C 188.717,76.312 182.377,75.889 180.721,75.985 C 179.836,76.035 179.467,76.135 178.876,76.801 Z" stroke="none" fill="#ffffff" stroke-width="0.188" fill-rule="evenodd" stroke-linejoin="miter" marker-start="none" marker-end="none" stroke-miterlimit="79.8403193612775"/>
    <path d="M 213.435,94.587 C 214.149,94.597 214.892,94.462 215.578,94.269 C 215.703,94.233 215.828,94.194 215.952,94.15 C 216.075,94.107 216.197,94.062 216.318,94.013 C 216.441,93.964 216.561,93.913 216.679,93.858 C 216.799,93.803 216.915,93.746 217.031,93.683 C 217.147,93.624 217.262,93.562 217.375,93.495 C 217.487,93.429 217.599,93.36 217.708,93.289 C 217.818,93.216 217.925,93.143 218.031,93.066 C 218.137,92.988 218.241,92.909 218.342,92.828 C 218.444,92.746 218.545,92.661 218.643,92.574 C 218.74,92.486 218.835,92.398 218.929,92.307 C 219.022,92.216 219.113,92.121 219.203,92.025 C 219.291,91.929 219.377,91.831 219.461,91.731 C 219.546,91.63 219.627,91.529 219.706,91.424 C 219.785,91.319 219.861,91.214 219.934,91.106 C 220.009,90.998 220.079,90.887 220.148,90.775 C 220.216,90.664 220.281,90.55 220.344,90.435 C 221.411,88.5 221.553,86.136 220.933,84.035 C 219.452,79.013 214.576,76.101 210.265,73.738 C 209.381,74.186 208.522,74.679 207.69,75.216 C 206.871,75.791 206.091,76.413 205.347,77.081 C 204.603,77.749 203.901,78.459 203.244,79.213 C 201.404,81.347 199.584,84.666 199.823,87.578 C 199.834,87.702 199.848,87.826 199.865,87.949 C 199.883,88.072 199.903,88.195 199.926,88.316 C 199.949,88.44 199.976,88.561 200.005,88.682 C 200.034,88.803 200.066,88.924 200.102,89.042 C 200.137,89.162 200.176,89.281 200.217,89.399 C 200.258,89.515 200.302,89.631 200.349,89.747 C 200.396,89.862 200.446,89.975 200.499,90.088 C 200.551,90.202 200.607,90.313 200.665,90.423 C 200.724,90.533 200.784,90.642 200.848,90.748 C 200.912,90.855 200.978,90.961 201.047,91.064 C 201.116,91.169 201.188,91.269 201.262,91.37 C 201.336,91.47 201.411,91.566 201.49,91.664 C 201.569,91.761 201.651,91.855 201.735,91.947 C 201.818,92.039 201.904,92.129 201.992,92.217 C 202.081,92.305 202.17,92.391 202.263,92.475 C 202.355,92.557 202.45,92.639 202.547,92.718 C 203.932,93.863 205.949,94.642 207.765,94.442 C 208.885,94.319 209.602,93.809 210.281,92.956 C 211.197,94.066 212.015,94.422 213.435,94.587 Z" stroke="none" fill="#000000" stroke-width="0.188" fill-rule="evenodd" stroke-linejoin="miter" marker-start="none" marker-end="none" stroke-miterlimit="79.8403193612775"/>
    <path d="M 212.832,94.037 C 213.931,94.16 214.969,94.038 215.997,93.627 C 217.875,92.879 219.536,91.211 220.326,89.356 C 221.162,87.396 221.018,85.323 220.238,83.374 C 218.625,79.347 214.138,76.02 210.261,74.339 C 209.389,74.753 208.577,75.284 207.771,75.811 C 205.525,77.294 203.289,79.516 202.017,81.904 C 200.854,84.09 199.786,86.428 200.565,88.925 C 201.123,90.713 202.418,92.347 204.092,93.208 C 205.328,93.842 207.057,94.284 208.405,93.813 C 209.478,93.44 209.724,92.8 210.186,91.839 C 211.128,92.984 211.319,93.599 212.832,94.037 Z" stroke="none" fill="#e64556" stroke-width="0.188" fill-rule="evenodd" stroke-linejoin="miter" marker-start="none" marker-end="none" stroke-miterlimit="79.8403193612775"/>
    <path d="M 210.026,90.044 C 210.215,90.021 210.399,89.985 210.586,89.948 C 210.916,89.478 210.747,85.751 210.749,85.005 C 211.828,84.965 216.627,85.229 217.305,84.696 L 217.305,84.52 C 216.658,84.053 211.762,84.278 210.701,84.279 C 210.679,83.152 210.912,79.788 210.57,78.936 L 210.226,78.791 C 209.78,79.389 210.013,83.249 210.019,84.279 L 205.601,84.279 C 204.889,84.279 204.122,84.221 203.415,84.288 C 203.165,84.312 203.086,84.422 202.948,84.611 L 202.991,84.822 C 203.5,85.141 208.984,84.985 210.019,84.985 L 210.026,90.044 Z" stroke="none" fill="#ffffff" stroke-width="0.188" fill-rule="evenodd" stroke-linejoin="miter" marker-start="none" marker-end="none" stroke-miterlimit="79.8403193612775"/>
   </g>
   <g id="Layer_1"/>
  </g>
 </g>
</svg>
