<?xml version="1.0" standalone="no"?>
<!DOCTYPE svg PUBLIC "-//W3C//DTD SVG 1.1//EN" "http://www.w3.org/Graphics/SVG/1.1/DTD/svg11.dtd">
<!--Generator: Xara Designer (www.xara.com), SVG filter version: 6.2.0.0-->
<svg stroke-width="0.501" stroke-linejoin="bevel" fill-rule="evenodd" xmlns:xlink="http://www.w3.org/1999/xlink" xmlns="http://www.w3.org/2000/svg" version="1.1" overflow="visible" width="328.101pt" height="172.101pt" viewBox="0 0 328.101 172.101">
 <defs>
	</defs>
 <g id="Document" fill="none" stroke="black" font-family="Times New Roman" font-size="16" transform="scale(1 -1)">
  <g id="Spread" transform="translate(0 -172.101)">
   <g id="Layer 1">
    <path d="M -0.399,29.273 L -0.399,0 L 328.1,0 L 328.1,29.273 L -0.399,29.273 Z" stroke="none" fill="#fcc246" stroke-width="0.172" stroke-linejoin="miter" marker-start="none" marker-end="none" stroke-miterlimit="79.8403193612775"/>
    <path d="M 93.176,110.873 C 93.041,110.801 92.962,110.775 92.816,110.742 C 92.473,110.856 92.141,111.199 91.892,111.456 C 91.571,111.79 91.313,112.155 91.318,112.63 C 91.492,113.075 97.037,117.234 97.772,117.685 C 98,117.826 98.036,117.89 98.294,117.831 C 98.633,117.522 99.194,116.971 99.371,116.546 C 99.477,116.291 99.4,116.181 99.308,115.939 C 98.837,116.323 98.467,116.847 98.086,117.321 C 96.189,115.926 93.373,114.069 91.794,112.449 C 92.202,111.886 92.654,111.331 93.176,110.873 Z" stroke="none" fill="#000000" stroke-width="0.172" fill-rule="evenodd" stroke-linejoin="miter" marker-start="none" marker-end="none" stroke-miterlimit="79.8403193612775"/>
    <path d="M 91.794,112.449 C 93.373,114.069 96.189,115.926 98.086,117.321 C 98.467,116.847 98.837,116.323 99.308,115.939 C 98.468,115.453 93.777,111.607 93.176,110.873 C 92.654,111.331 92.202,111.886 91.794,112.449 Z" stroke="none" fill="#147eb9" stroke-width="0.172" fill-rule="evenodd" stroke-linejoin="miter" marker-start="none" marker-end="none" stroke-miterlimit="79.8403193612775"/>
    <path d="M 93.983,137.836 C 94.675,137.477 99.68,132.221 100.548,131.353 L 96.368,127.253 C 95.608,126.497 94.842,125.587 93.978,124.959 C 93.386,125.187 88.321,130.43 87.461,131.312 C 88.219,131.933 88.908,132.695 89.601,133.389 L 93.983,137.836 Z" stroke="none" fill="#000000" stroke-width="0.172" fill-rule="evenodd" stroke-linejoin="miter" marker-start="none" marker-end="none" stroke-miterlimit="79.8403193612775"/>
    <path d="M 94.08,137.149 C 94.41,136.899 94.699,136.575 94.991,136.284 L 89.287,130.189 C 88.904,130.549 88.545,130.915 88.194,131.304 C 90.003,133.128 92.136,135.576 94.08,137.149 Z" stroke="none" fill="#ffffff" stroke-width="0.172" fill-rule="evenodd" stroke-linejoin="miter" marker-start="none" marker-end="none" stroke-miterlimit="79.8403193612775"/>
    <path d="M 94.991,136.284 C 96.57,134.601 98.235,132.994 99.796,131.297 C 97.848,129.385 95.843,127.524 93.977,125.534 C 93.005,126.522 92.022,127.498 91.027,128.462 C 90.449,129.024 89.808,129.576 89.287,130.189 L 94.991,136.284 Z" stroke="none" fill="#fcc246" stroke-width="0.172" fill-rule="evenodd" stroke-linejoin="miter" marker-start="none" marker-end="none" stroke-miterlimit="79.8403193612775"/>
    <path d="M 83.678,58.72 C 83.807,58.741 83.74,58.717 83.868,58.812 C 83.729,59.477 83.307,60.099 83.042,60.723 C 82.339,62.351 81.656,63.986 80.992,65.63 C 79.548,69.25 78.456,72.995 78.196,76.9 C 77.609,85.762 81.6,95.384 89.019,100.479 C 91.483,102.173 93.91,102.958 96.561,104.18 C 100.396,105.947 104.124,109.281 106.68,112.607 C 106.896,112.889 107.106,113.176 107.308,113.469 C 107.511,113.761 107.706,114.058 107.893,114.359 C 108.08,114.661 108.261,114.968 108.433,115.278 C 108.606,115.59 108.77,115.905 108.926,116.224 C 109.084,116.542 109.233,116.865 109.374,117.192 C 109.514,117.517 109.647,117.847 109.772,118.181 C 109.896,118.513 110.013,118.849 110.121,119.187 C 110.229,119.526 110.329,119.868 110.42,120.21 C 110.736,121.429 110.85,122.683 111.109,123.911 C 111.495,125.742 112.128,127.472 112.866,129.185 C 117.077,138.958 124.848,146.021 134.688,149.915 C 145.323,154.124 157.668,153.819 167.356,147.387 C 170.92,145.02 173.896,142.023 178.233,141.038 C 182.024,140.178 184.942,141.109 188.612,141.438 C 193.571,141.883 199.899,140.269 204.433,138.301 C 205.95,138.973 209.193,140.613 210.647,140.938 C 210.796,138.779 211.032,136.568 211.028,134.406 C 212.764,133.315 214.417,131.889 215.901,130.476 C 222.801,123.905 226.935,115.293 229.03,106.09 C 231.067,97.137 230.365,88.008 227.367,79.354 C 226.268,76.178 224.957,73.218 223.16,70.368 C 220.841,66.687 216.132,61.336 212.717,58.66 C 210.502,56.925 207.094,54.964 204.411,54.087 C 203.161,53 202.074,51.53 200.991,50.276 C 199.836,48.94 198.553,47.61 197.509,46.19 C 200.019,46.798 203.15,48.068 205.628,48.995 C 209.829,50.609 214.049,52.175 218.288,53.69 C 220.059,54.325 221.841,55.021 223.642,55.566 C 223.484,46.786 222.502,38.028 222.371,29.252 C 224.003,29.237 225.633,29.234 227.264,29.241 C 228.191,29.244 229.203,29.335 230.114,29.185 C 230.248,28.992 230.234,28.928 230.258,28.698 C 230.06,27.856 230.169,26.741 230.171,25.869 L 230.19,20.634 L 230.232,0.785 C 225.301,0.869 220.355,0.793 215.422,0.79 L 184.179,0.77 L 78.155,0.774 L 78.156,19.408 C 78.159,22.523 78.306,25.708 78.122,28.815 C 78.131,28.994 78.15,29.133 78.206,29.302 C 78.967,29.535 88.264,29.342 89.85,29.338 C 89.82,32.72 89.909,36.11 89.803,39.491 C 87.677,40.691 85.323,41.555 83.255,42.846 C 83.187,44.114 82.983,45.392 82.817,46.651 C 82.28,50.724 81.446,54.83 81.139,58.922 C 81.982,58.91 82.837,58.794 83.678,58.72 Z" stroke="none" fill="#000000" stroke-width="0.172" fill-rule="evenodd" stroke-linejoin="miter" marker-start="none" marker-end="none" stroke-miterlimit="79.8403193612775"/>
    <path d="M 116.701,32.004 C 117.134,32.01 117.568,31.988 118,31.974 C 118.03,31.18 118.049,30.391 118.032,29.595 L 117.864,29.591 C 117.395,29.877 116.932,31.464 116.701,32.004 Z" stroke="none" fill="#147eb9" stroke-width="0.172" fill-rule="evenodd" stroke-linejoin="miter" marker-start="none" marker-end="none" stroke-miterlimit="79.8403193612775"/>
    <path d="M 133.805,12.446 C 134.621,13.364 135.534,13.977 136.796,14.06 C 137.877,14.13 139.006,13.82 139.812,13.078 C 141.352,11.662 140.722,11.105 143.104,9.784 C 142.706,9.712 142.323,9.643 141.917,9.63 C 140.196,10.581 139.927,12.563 138.228,13.38 C 137.096,13.922 135.853,13.647 134.825,13.027 C 134.542,12.857 134.23,12.567 133.913,12.474 C 133.877,12.464 133.841,12.455 133.805,12.446 Z" stroke="none" fill="#ffffff" stroke-width="0.172" fill-rule="evenodd" stroke-linejoin="miter" marker-start="none" marker-end="none" stroke-miterlimit="79.8403193612775"/>
    <path d="M 185.764,31.494 C 186.781,31.994 187.747,32.25 188.868,31.878 C 188.927,31.858 188.986,31.836 189.043,31.813 C 189.1,31.79 189.158,31.766 189.215,31.74 C 189.27,31.714 189.327,31.686 189.382,31.657 C 189.438,31.628 189.492,31.598 189.546,31.566 C 189.599,31.535 189.651,31.501 189.704,31.467 C 189.756,31.433 189.807,31.397 189.857,31.361 C 189.907,31.324 189.955,31.285 190.005,31.246 C 190.052,31.206 190.099,31.166 190.145,31.124 C 190.191,31.081 190.236,31.038 190.28,30.995 C 190.324,30.951 190.367,30.905 190.409,30.859 C 190.45,30.812 190.49,30.765 190.53,30.717 C 190.569,30.667 190.606,30.618 190.643,30.568 C 190.679,30.518 190.715,30.467 190.749,30.415 C 190.783,30.362 190.815,30.309 190.847,30.256 C 190.878,30.202 190.908,30.147 190.937,30.091 C 190.965,30.036 190.993,29.981 191.018,29.923 C 191.266,29.372 191.403,28.743 191.333,28.139 C 191.072,28.322 190.857,28.595 190.627,28.817 C 189.91,29.508 189.078,30.297 188.131,30.664 C 187.57,30.881 186.213,30.899 185.874,31.349 L 185.764,31.494 Z" stroke="none" fill="#ffffff" stroke-width="0.172" fill-rule="evenodd" stroke-linejoin="miter" marker-start="none" marker-end="none" stroke-miterlimit="79.8403193612775"/>
    <path d="M 211.172,21.034 C 212.947,23.251 214.599,24.247 217.38,24.82 C 219.328,23.762 220.622,22.025 221.565,20.055 C 221.156,20.053 220.677,20.099 220.281,20.002 C 219.911,21.301 219.047,22.564 217.852,23.231 C 215.774,24.391 213.81,23.416 212.251,21.956 C 211.947,21.671 211.567,21.142 211.172,21.034 Z" stroke="none" fill="#ffffff" stroke-width="0.172" fill-rule="evenodd" stroke-linejoin="miter" marker-start="none" marker-end="none" stroke-miterlimit="79.8403193612775"/>
    <path d="M 113.685,63.653 C 114.318,62.823 115.683,62.045 116.551,61.387 C 115.758,60.756 114.875,60.202 114.057,59.594 C 113.878,59.45 113.688,59.243 113.447,59.239 C 112.473,59.745 111.834,61.137 111.415,62.096 C 112.19,62.571 112.937,63.135 113.685,63.653 Z" stroke="none" fill="#d32f57" stroke-width="0.172" fill-rule="evenodd" stroke-linejoin="miter" marker-start="none" marker-end="none" stroke-miterlimit="79.8403193612775"/>
    <path d="M 197.293,45.886 L 197.345,45.81 C 197.558,45.505 197.187,44.763 197.157,44.378 C 197.017,42.54 197.114,40.652 197.13,38.81 C 196.381,39.311 195.604,39.774 194.839,40.25 C 194.344,40.549 193.858,40.866 193.369,41.177 C 194.66,42.753 195.912,44.387 197.293,45.886 Z" stroke="none" fill="#29a8c2" stroke-width="0.172" fill-rule="evenodd" stroke-linejoin="miter" marker-start="none" marker-end="none" stroke-miterlimit="79.8403193612775"/>
    <path d="M 116.161,79.78 C 119.024,79.798 121.892,79.747 124.756,79.739 L 124.746,78.032 L 116.159,77.999 L 116.161,79.78 Z" stroke="none" fill="#ffffff" stroke-width="0.172" fill-rule="evenodd" stroke-linejoin="miter" marker-start="none" marker-end="none" stroke-miterlimit="79.8403193612775"/>
    <path d="M 133.805,12.446 C 133.841,12.455 133.877,12.464 133.913,12.474 C 134.23,12.567 134.542,12.857 134.825,13.027 C 135.853,13.647 137.096,13.922 138.228,13.38 C 139.927,12.563 140.196,10.581 141.917,9.63 C 139.532,9.251 138.831,10.869 136.913,11.323 C 135.756,11.595 134.236,11.347 133.026,11.37 C 133.256,11.756 133.47,12.141 133.805,12.446 Z" stroke="none" fill="#24bcb8" stroke-width="0.172" fill-rule="evenodd" stroke-linejoin="miter" marker-start="none" marker-end="none" stroke-miterlimit="79.8403193612775"/>
    <path d="M 211.172,21.034 C 211.567,21.142 211.947,21.671 212.251,21.956 C 213.81,23.416 215.774,24.391 217.852,23.231 C 219.047,22.564 219.911,21.301 220.281,20.002 C 219.629,20.054 219.114,20.572 218.528,20.835 C 218.036,21.057 217.453,21.147 216.917,21.191 C 215.849,21.277 214.671,21.222 213.608,21.079 C 212.781,20.968 211.87,20.656 211.039,20.733 L 210.997,20.837 L 211.172,21.034 Z" stroke="none" fill="#147eb9" stroke-width="0.172" fill-rule="evenodd" stroke-linejoin="miter" marker-start="none" marker-end="none" stroke-miterlimit="79.8403193612775"/>
    <path d="M 97.274,66.543 C 99.008,67.703 101.081,68.579 102.94,69.543 C 104.329,70.262 105.738,71.161 107.186,71.739 C 107.384,71.556 107.436,71.346 107.533,71.1 C 104.46,69.424 101.372,67.618 98.187,66.174 L 98.174,57.493 L 97.258,57.568 C 97.198,60.552 97.227,63.558 97.274,66.543 Z" stroke="none" fill="#ffffff" stroke-width="0.172" fill-rule="evenodd" stroke-linejoin="miter" marker-start="none" marker-end="none" stroke-miterlimit="79.8403193612775"/>
    <path d="M 108.05,71.163 C 108.659,70.763 109.221,70.204 109.775,69.728 C 111.509,68.239 113.168,66.603 114.96,65.191 L 113.369,64.04 C 112.644,63.54 111.914,63.051 111.233,62.491 C 110.085,65.334 109.132,68.289 108.05,71.163 Z" stroke="none" fill="#147eb9" stroke-width="0.172" fill-rule="evenodd" stroke-linejoin="miter" marker-start="none" marker-end="none" stroke-miterlimit="79.8403193612775"/>
    <path d="M 206.039,48.575 C 211.675,50.688 217.331,52.749 223.007,54.755 C 222.895,48.885 222.492,43.048 222.171,37.187 C 222.082,35.512 222.004,33.837 221.935,32.16 C 221.896,31.237 221.914,30.27 221.771,29.357 C 221.505,29.203 221.11,29.255 220.809,29.255 C 220.919,33.203 221.251,37.155 221.477,41.099 C 221.689,45.207 221.867,49.318 222.013,53.428 C 219.776,52.527 217.403,51.899 215.11,51.156 C 212.416,50.282 209.651,49.222 206.884,48.628 C 206.587,48.565 206.339,48.544 206.039,48.575 Z" stroke="none" fill="#ffffff" stroke-width="0.172" fill-rule="evenodd" stroke-linejoin="miter" marker-start="none" marker-end="none" stroke-miterlimit="79.8403193612775"/>
    <path d="M 114.877,59.626 C 115.322,59.209 114.622,56.643 115.012,55.956 C 115.077,55.842 115.165,55.847 115.281,55.81 C 115.982,55.964 117.301,57.233 117.974,57.728 C 117.965,52.843 118.11,47.97 118.01,43.082 L 117.62,44.395 C 117.042,46.236 116.336,48.045 115.697,49.867 C 115.033,51.768 114.431,53.69 113.752,55.586 C 113.253,56.977 112.68,58.339 112.225,59.748 C 112.585,59.292 112.957,58.846 113.34,58.411 C 113.829,58.838 114.365,59.226 114.877,59.626 Z" stroke="none" fill="#147eb9" stroke-width="0.172" fill-rule="evenodd" stroke-linejoin="miter" marker-start="none" marker-end="none" stroke-miterlimit="79.8403193612775"/>
    <path d="M 113.662,111.837 C 115.197,115.849 117.733,119.655 120.696,122.759 C 128.435,130.866 140.072,135.659 151.239,135.93 C 150.306,135.467 149.287,135.123 148.336,134.687 C 146.702,134.661 144.969,134.187 143.383,133.827 C 135.345,132.005 127.029,128.397 121.217,122.387 C 119.03,120.127 115.238,115.199 114.374,112.262 L 113.662,111.837 Z" stroke="none" fill="#ffffff" stroke-width="0.172" fill-rule="evenodd" stroke-linejoin="miter" marker-start="none" marker-end="none" stroke-miterlimit="79.8403193612775"/>
    <path d="M 192.461,40.174 C 192.624,40.359 192.783,40.556 192.957,40.73 C 199.37,36.838 205.667,32.769 211.851,28.521 C 213.472,27.425 215.144,26.41 216.747,25.286 C 215.537,25.01 214.61,24.608 213.518,24.036 C 212.577,24.699 211.121,26.13 210.151,26.958 C 208.289,28.544 206.401,30.086 204.52,31.648 C 203.379,32.595 202.267,33.586 201.096,34.495 C 198.368,36.613 195.197,38.051 192.461,40.174 Z" stroke="none" fill="#ffffff" stroke-width="0.172" fill-rule="evenodd" stroke-linejoin="miter" marker-start="none" marker-end="none" stroke-miterlimit="79.8403193612775"/>
    <path d="M 81.789,58.344 C 83.13,58.291 84.489,58.107 85.826,57.989 L 92.926,57.414 C 93.05,54.425 92.954,51.389 92.973,48.396 C 90.224,50.594 87.666,52.982 85.084,55.369 C 83.996,56.372 82.847,57.31 81.789,58.344 Z" stroke="none" fill="#ffffff" stroke-width="0.172" fill-rule="evenodd" stroke-linejoin="miter" marker-start="none" marker-end="none" stroke-miterlimit="79.8403193612775"/>
    <path d="M 152.444,135.73 C 155.107,135.982 160.097,132.674 162.162,130.964 C 168.464,125.744 171.274,119.303 173.416,111.601 C 172.516,111.996 171.606,112.37 170.689,112.725 C 170.317,114.739 169.548,116.542 168.735,118.409 C 166.312,123.973 163.312,128.656 158.325,132.271 C 157.32,132.99 156.271,133.636 155.177,134.208 C 154.384,134.63 153.228,135.052 152.569,135.619 C 152.527,135.655 152.485,135.693 152.444,135.73 Z" stroke="none" fill="#ffffff" stroke-width="0.172" fill-rule="evenodd" stroke-linejoin="miter" marker-start="none" marker-end="none" stroke-miterlimit="79.8403193612775"/>
    <path d="M 81.842,57.422 C 83.137,56.74 86.756,53.149 88.033,51.982 C 89.676,50.482 91.381,49.05 93.012,47.542 C 92.536,47.474 92.061,47.391 91.587,47.315 C 88.878,46.874 86.162,46.374 83.436,46.057 C 83.007,48.082 82.841,50.194 82.554,52.246 C 82.316,53.953 81.937,55.703 81.842,57.422 Z" stroke="none" fill="#ffffff" stroke-width="0.172" fill-rule="evenodd" stroke-linejoin="miter" marker-start="none" marker-end="none" stroke-miterlimit="79.8403193612775"/>
    <path d="M 116.159,77.999 L 124.746,78.032 C 124.733,76.052 124.731,74.072 124.74,72.091 L 118.982,68.043 C 118.04,67.371 117.126,66.594 116.144,65.988 C 116.06,69.985 116.12,74.002 116.159,77.999 Z" stroke="none" fill="#fcc246" stroke-width="0.172" fill-rule="evenodd" stroke-linejoin="miter" marker-start="none" marker-end="none" stroke-miterlimit="79.8403193612775"/>
    <path d="M 154.517,135.895 C 156.764,135.831 158.99,135.729 161.213,135.379 C 170.732,133.879 180.052,129.125 186.677,122.104 C 189.452,119.16 191.881,115.824 193.606,112.15 C 192.194,112.851 190.801,113.385 189.288,113.834 C 188.593,114.858 187.998,115.948 187.304,116.973 C 185.388,119.803 183.129,122.248 180.531,124.459 C 175.342,128.875 169.817,131.507 163.332,133.424 C 161.638,133.926 159.926,134.541 158.133,134.395 C 156.943,134.969 155.782,135.497 154.517,135.895 Z" stroke="none" fill="#ffffff" stroke-width="0.172" fill-rule="evenodd" stroke-linejoin="miter" marker-start="none" marker-end="none" stroke-miterlimit="79.8403193612775"/>
    <path d="M 99.821,56.578 C 101.568,55.983 103.294,55.287 105.023,54.638 C 106.056,54.25 107.211,53.915 108.186,53.406 C 108.514,53.235 108.593,53.059 108.736,52.735 C 109.2,51.691 109.56,50.571 109.95,49.498 C 110.91,46.858 111.794,44.187 112.734,41.539 L 115.477,33.943 C 116.054,32.362 116.671,30.805 117.151,29.19 C 116.97,29.188 117.017,29.174 116.874,29.214 C 116.724,29.256 116.604,29.427 116.519,29.552 C 116.234,29.973 116.016,30.465 115.757,30.906 C 115.225,31.809 114.672,32.697 114.099,33.574 C 110.532,38.994 107.042,44.466 103.632,49.987 C 102.288,52.141 101.017,54.337 99.821,56.578 Z" stroke="none" fill="#ffffff" stroke-width="0.172" fill-rule="evenodd" stroke-linejoin="miter" marker-start="none" marker-end="none" stroke-miterlimit="79.8403193612775"/>
    <path d="M 147.537,22.882 L 147.57,22.851 C 147.644,22.432 146.546,18.183 146.381,17.408 C 145.02,16.803 143.664,16.185 142.315,15.557 C 141.334,15.09 140.331,14.506 139.296,14.183 C 138.123,14.612 137.053,14.821 135.818,14.465 C 134.09,13.967 133.205,12.727 132.375,11.25 C 130.022,10.027 127.555,8.953 125.132,7.87 L 124.852,7.756 L 124.752,7.856 C 124.617,9.358 124.747,10.953 124.764,12.465 C 125.651,12.973 126.633,13.344 127.559,13.779 C 129.635,14.776 131.725,15.745 133.828,16.684 C 138.401,18.774 142.87,20.993 147.537,22.882 Z" stroke="none" fill="#ffffff" stroke-width="0.172" fill-rule="evenodd" stroke-linejoin="miter" marker-start="none" marker-end="none" stroke-miterlimit="79.8403193612775"/>
    <path d="M 90.349,39.3 C 94.297,37.332 98.284,35.449 102.312,33.652 C 104.646,32.619 106.951,31.546 109.265,30.47 C 109.974,30.141 110.93,29.862 111.551,29.404 L 111.491,29.331 C 104.449,29.284 97.406,29.276 90.363,29.307 L 90.349,39.3 Z" stroke="none" fill="#147eb9" stroke-width="0.172" fill-rule="evenodd" stroke-linejoin="miter" marker-start="none" marker-end="none" stroke-miterlimit="79.8403193612775"/>
    <path d="M 100.347,19.905 C 102.02,19.655 104.736,18.557 106.481,18.025 C 112.405,16.22 118.309,14.348 124.192,12.412 C 124.229,10.809 124.221,9.207 124.168,7.606 C 123.392,7.564 114.657,10.645 113.315,11.074 C 110.336,12.027 107.154,12.747 104.284,13.991 C 103.66,14.856 103.105,15.778 102.496,16.655 C 101.779,17.689 100.879,18.764 100.347,19.905 Z" stroke="none" fill="#ffffff" stroke-width="0.172" fill-rule="evenodd" stroke-linejoin="miter" marker-start="none" marker-end="none" stroke-miterlimit="79.8403193612775"/>
    <path d="M 153.862,85.402 C 155.224,84.762 156.807,83.406 158.07,82.499 L 166.875,76.124 L 185.162,62.916 C 186.903,61.649 188.69,60.438 190.41,59.144 C 190.194,58.687 189.985,58.301 189.668,57.904 C 189.405,57.67 189.116,57.39 188.747,57.35 C 188.454,57.318 188.137,57.435 187.891,57.587 C 186.858,58.229 185.723,59.244 184.698,59.977 C 181.532,62.211 178.389,64.474 175.267,66.767 L 153.769,82.302 C 153.767,83.338 153.761,84.368 153.862,85.402 Z" stroke="none" fill="#ffffff" stroke-width="0.172" fill-rule="evenodd" stroke-linejoin="miter" marker-start="none" marker-end="none" stroke-miterlimit="79.8403193612775"/>
    <path d="M 152.608,86.035 C 152.891,85.705 152.728,83.299 152.726,82.744 C 150.569,81.451 148.545,79.82 146.481,78.371 C 142.498,75.628 138.542,72.846 134.61,70.028 L 124.895,63.146 C 121.786,60.982 118.642,58.856 115.616,56.578 C 115.372,56.886 115.474,59.423 115.474,59.98 C 117.261,61.177 118.977,62.49 120.747,63.716 L 139.299,76.73 C 143.711,79.853 148.116,83.025 152.608,86.035 Z" stroke="none" fill="#ffffff" stroke-width="0.172" fill-rule="evenodd" stroke-linejoin="miter" marker-start="none" marker-end="none" stroke-miterlimit="79.8403193612775"/>
    <path d="M 184.31,28.615 C 184.319,28.931 184.334,29.247 184.396,29.558 C 184.563,30.406 185.046,31.036 185.764,31.494 L 185.874,31.349 C 186.213,30.899 187.57,30.881 188.131,30.664 C 189.078,30.297 189.91,29.508 190.627,28.817 C 190.857,28.595 191.072,28.322 191.333,28.139 C 191.284,27.938 191.256,27.837 191.331,27.642 C 191.951,27.917 192.384,28.128 193.058,27.861 C 193.532,27.674 193.949,27.281 194.127,26.8 C 194.323,26.273 194.345,25.806 194.138,25.288 C 194.007,25.087 193.9,24.953 193.915,24.7 C 194.057,24.556 194.055,24.565 194.247,24.562 C 195.61,24.544 196.68,25.125 197.88,24.015 C 198.432,23.505 198.628,22.871 198.67,22.143 L 198.677,22.032 C 197.523,22.014 195.937,21.851 194.842,22.089 L 194.775,22.226 C 194.746,22.39 194.702,22.535 194.646,22.691 C 193.731,22.927 192.135,22.761 191.16,22.758 L 182.05,22.733 C 180.592,22.73 178.948,22.58 177.51,22.804 C 176.434,22.972 175.861,23.739 175.25,24.557 C 175.572,24.845 175.883,25.096 176.247,25.332 L 177.516,25.349 C 177.454,26.173 177.385,26.975 177.496,27.799 C 177.62,28.247 177.776,28.673 178.044,29.059 C 178.075,29.105 178.108,29.15 178.142,29.194 C 178.176,29.238 178.21,29.282 178.246,29.325 C 178.282,29.367 178.318,29.408 178.357,29.449 C 178.394,29.49 178.433,29.529 178.473,29.568 C 178.513,29.607 178.555,29.644 178.597,29.681 C 178.639,29.717 178.681,29.752 178.725,29.786 C 178.769,29.822 178.813,29.854 178.859,29.887 C 178.904,29.918 178.951,29.949 178.997,29.979 C 179.045,30.009 179.092,30.036 179.141,30.064 C 179.19,30.091 179.239,30.117 179.288,30.141 C 179.338,30.167 179.389,30.191 179.44,30.212 C 179.491,30.234 179.542,30.255 179.595,30.274 C 179.647,30.294 179.699,30.312 179.752,30.329 C 179.806,30.346 179.859,30.362 179.912,30.375 C 179.967,30.389 180.021,30.402 180.075,30.413 C 180.129,30.424 180.184,30.434 180.239,30.442 C 181.097,30.569 182.45,30.245 183.06,29.574 C 183.334,29.273 183.611,28.769 183.948,28.557 C 184.066,28.483 184.187,28.573 184.31,28.615 Z" stroke="none" fill="#afe8ec" stroke-width="0.172" fill-rule="evenodd" stroke-linejoin="miter" marker-start="none" marker-end="none" stroke-miterlimit="79.8403193612775"/>
    <path d="M 191.331,27.642 C 191.951,27.917 192.384,28.128 193.058,27.861 C 193.532,27.674 193.949,27.281 194.127,26.8 C 194.323,26.273 194.345,25.806 194.138,25.288 C 193.074,26.011 192.841,26.642 191.456,26.168 C 191.089,26.041 190.757,25.908 190.368,25.871 C 190.152,25.954 190.156,25.946 190.05,26.15 C 190.058,26.373 190.112,26.522 190.227,26.708 C 190.47,27.102 190.862,27.543 191.331,27.642 Z" stroke="none" fill="#ffffff" stroke-width="0.172" fill-rule="evenodd" stroke-linejoin="miter" marker-start="none" marker-end="none" stroke-miterlimit="79.8403193612775"/>
    <path d="M 177.496,27.799 C 177.62,28.247 177.776,28.673 178.044,29.059 C 178.075,29.105 178.108,29.15 178.142,29.194 C 178.176,29.238 178.21,29.282 178.246,29.325 C 178.282,29.367 178.318,29.408 178.357,29.449 C 178.394,29.49 178.433,29.529 178.473,29.568 C 178.513,29.607 178.555,29.644 178.597,29.681 C 178.639,29.717 178.681,29.752 178.725,29.786 C 178.769,29.822 178.813,29.854 178.859,29.887 C 178.904,29.918 178.951,29.949 178.997,29.979 C 179.045,30.009 179.092,30.036 179.141,30.064 C 179.19,30.091 179.239,30.117 179.288,30.141 C 179.338,30.167 179.389,30.191 179.44,30.212 C 179.491,30.234 179.542,30.255 179.595,30.274 C 179.647,30.294 179.699,30.312 179.752,30.329 C 179.806,30.346 179.859,30.362 179.912,30.375 C 179.967,30.389 180.021,30.402 180.075,30.413 C 180.129,30.424 180.184,30.434 180.239,30.442 C 181.097,30.569 182.45,30.245 183.06,29.574 C 183.334,29.273 183.611,28.769 183.948,28.557 C 184.066,28.483 184.187,28.573 184.31,28.615 C 184.596,28.554 184.769,28.497 184.942,28.236 C 185.345,27.624 185.299,26.633 185.116,25.949 C 185.057,25.728 184.98,25.569 184.828,25.393 C 184.608,25.307 184.602,25.314 184.374,25.382 C 183.956,25.745 183.888,26.336 183.509,26.707 C 182.415,27.783 179.871,28.113 178.407,28.01 C 178.093,27.988 177.794,27.893 177.496,27.799 Z" stroke="none" fill="#ffffff" stroke-width="0.172" fill-rule="evenodd" stroke-linejoin="miter" marker-start="none" marker-end="none" stroke-miterlimit="79.8403193612775"/>
    <path d="M 93.004,47.031 C 93.055,47.043 93.106,47.059 93.158,47.066 C 93.521,47.113 93.953,46.67 94.23,46.45 C 95.41,45.512 96.528,44.493 97.683,43.526 L 107.128,35.555 C 108.532,34.354 109.943,33.161 111.36,31.976 C 112.556,30.991 113.79,30.051 114.93,29 C 112.558,29.252 110.343,30.565 108.214,31.586 C 105.792,32.718 103.325,33.742 100.892,34.849 C 97.069,36.617 93.268,38.428 89.486,40.283 C 87.604,41.216 85.526,42.014 83.77,43.153 C 83.664,43.954 83.576,44.757 83.509,45.562 L 93.004,47.031 Z" stroke="none" fill="#ffffff" stroke-width="0.172" fill-rule="evenodd" stroke-linejoin="miter" marker-start="none" marker-end="none" stroke-miterlimit="79.8403193612775"/>
    <path d="M 152.52,91.109 L 152.579,91.054 C 152.78,90.418 152.619,87.549 152.613,86.681 C 151.68,85.911 150.611,85.232 149.62,84.538 L 142.87,79.917 C 137.412,76.109 131.981,72.265 126.575,68.384 L 120.655,64.241 C 119.446,63.398 118.196,62.581 117.054,61.651 C 116.545,62.12 115.984,62.531 115.433,62.951 C 114.987,63.281 114.506,63.567 114.036,63.863 C 115.696,64.852 117.256,66.149 118.822,67.289 C 121.169,69 123.562,70.655 125.931,72.336 L 152.52,91.109 Z" stroke="none" fill="#d32f57" stroke-width="0.172" fill-rule="evenodd" stroke-linejoin="miter" marker-start="none" marker-end="none" stroke-miterlimit="79.8403193612775"/>
    <path d="M 153.977,90.686 C 157.067,88.561 160.056,86.268 163.097,84.073 L 180.632,71.449 C 184.664,68.466 188.727,65.527 192.822,62.632 L 191.6,61.015 L 190.627,59.648 C 189.519,60.468 188.358,61.226 187.242,62.041 L 164.199,78.736 C 160.798,81.203 157.241,83.536 153.959,86.154 L 153.977,90.686 Z" stroke="none" fill="#d32f57" stroke-width="0.172" fill-rule="evenodd" stroke-linejoin="miter" marker-start="none" marker-end="none" stroke-miterlimit="79.8403193612775"/>
    <path d="M 93.451,57.33 C 95.309,57.278 97.183,57.06 99.036,56.91 C 101.149,51.999 115.989,30.547 116.167,28.706 C 116.091,28.707 116.012,28.685 115.942,28.713 C 115.814,28.764 114.592,30.058 114.345,30.267 C 113.266,31.172 112.144,32.026 111.061,32.93 C 105.186,37.829 99.344,42.768 93.535,47.746 C 93.43,48.9 93.464,50.089 93.455,51.249 C 93.439,53.276 93.439,55.303 93.451,57.33 Z" stroke="none" fill="#ffffff" stroke-width="0.172" fill-rule="evenodd" stroke-linejoin="miter" marker-start="none" marker-end="none" stroke-miterlimit="79.8403193612775"/>
    <path d="M 197.822,45.291 C 199.374,45.266 201,45.38 202.541,45.198 C 204.28,45.125 212.757,45.386 213.549,45.111 C 213.597,44.963 213.631,44.831 213.648,44.675 C 213.407,43.995 213.6,30.852 213.603,29.181 C 213.015,29.179 212.431,29.214 211.845,29.243 C 209.8,30.672 207.633,31.96 205.545,33.334 C 202.952,35.039 200.388,36.855 197.702,38.411 C 197.696,40.538 197.496,43.216 197.822,45.291 Z" stroke="none" fill="#147eb9" stroke-width="0.172" fill-rule="evenodd" stroke-linejoin="miter" marker-start="none" marker-end="none" stroke-miterlimit="79.8403193612775"/>
    <path d="M 202.541,45.198 C 204.28,45.125 212.757,45.386 213.549,45.111 C 213.597,44.963 213.631,44.831 213.648,44.675 C 213.566,44.637 213.544,44.623 213.441,44.606 C 212.506,44.451 202.585,44.92 202.265,45.113 L 202.541,45.198 Z" stroke="none" fill="#ffffff" stroke-width="0.172" fill-rule="evenodd" stroke-linejoin="miter" marker-start="none" marker-end="none" stroke-miterlimit="79.8403193612775"/>
    <path d="M 206.039,48.575 C 206.339,48.544 206.587,48.565 206.884,48.628 C 209.651,49.222 212.416,50.282 215.11,51.156 C 217.403,51.899 219.776,52.527 222.013,53.428 C 221.867,49.318 221.689,45.207 221.477,41.099 C 221.251,37.155 220.919,33.203 220.809,29.255 L 214.245,29.23 L 214.216,45.769 C 210.611,45.821 207.004,45.764 203.399,45.81 C 201.843,45.831 200.161,45.729 198.629,45.984 C 200.243,46.517 201.847,47.081 203.441,47.673 C 204.293,47.982 205.158,48.358 206.039,48.575 Z" stroke="none" fill="#147eb9" stroke-width="0.172" fill-rule="evenodd" stroke-linejoin="miter" marker-start="none" marker-end="none" stroke-miterlimit="79.8403193612775"/>
    <path d="M 158.133,134.395 C 159.926,134.541 161.638,133.926 163.332,133.424 C 169.817,131.507 175.342,128.875 180.531,124.459 C 183.129,122.248 185.388,119.803 187.304,116.973 C 187.998,115.948 188.593,114.858 189.288,113.834 C 183.773,115.174 178.866,114.054 173.922,111.504 C 171.203,121.782 167.42,128.727 158.133,134.395 Z" stroke="none" fill="#f4beb5" stroke-width="0.172" fill-rule="evenodd" stroke-linejoin="miter" marker-start="none" marker-end="none" stroke-miterlimit="79.8403193612775"/>
    <path d="M 215.365,75.721 C 215.54,74.972 215.424,73.963 215.423,73.181 L 215.398,67.678 C 212.489,64.063 209.266,60.558 206.216,57.05 C 199.284,49.192 192.514,41.197 185.908,33.063 C 185.625,34.089 185.844,40.459 185.856,42.09 C 187.432,44.23 189.372,46.191 191.118,48.199 L 200.731,59.222 C 205.606,64.71 210.253,70.451 215.365,75.721 Z" stroke="none" fill="#ffffff" stroke-width="0.172" fill-rule="evenodd" stroke-linejoin="miter" marker-start="none" marker-end="none" stroke-miterlimit="79.8403193612775"/>
    <path d="M 107.533,71.1 C 108.954,67.744 110.115,64.197 111.315,60.757 L 115.187,49.805 C 115.724,48.257 116.251,46.706 116.806,45.165 C 117.21,44.045 117.746,42.895 117.937,41.715 C 118.086,40.796 118.015,39.781 118.019,38.852 C 118.027,36.692 117.972,34.521 118.035,32.364 C 117.546,32.41 117.068,32.45 116.577,32.444 C 114.973,36.776 113.413,41.124 111.893,45.486 C 111.225,47.411 110.56,49.329 109.844,51.236 C 109.537,52.053 109.261,52.923 108.881,53.708 C 107.184,54.6 105.188,55.144 103.389,55.82 C 102.017,56.335 100.611,57.035 99.2,57.416 C 98.845,57.512 98.538,57.537 98.174,57.493 L 98.187,66.174 C 101.372,67.618 104.46,69.424 107.533,71.1 Z" stroke="none" fill="#147eb9" stroke-width="0.172" fill-rule="evenodd" stroke-linejoin="miter" marker-start="none" marker-end="none" stroke-miterlimit="79.8403193612775"/>
    <path d="M 114.374,112.262 C 115.238,115.199 119.03,120.127 121.217,122.387 C 127.029,128.397 135.345,132.005 143.383,133.827 C 144.969,134.187 146.702,134.661 148.336,134.687 C 146.52,133.59 144.869,132.409 143.373,130.892 C 138.962,126.423 136.034,119.515 134.553,113.471 C 134.429,112.957 134.318,112.44 134.217,111.922 C 134.034,112.007 133.849,112.091 133.663,112.171 C 133.477,112.251 133.291,112.33 133.102,112.406 C 132.916,112.482 132.726,112.555 132.537,112.627 C 132.348,112.699 132.157,112.767 131.967,112.834 C 131.775,112.9 131.583,112.965 131.39,113.027 C 131.197,113.089 131.003,113.148 130.809,113.205 C 130.614,113.262 130.42,113.317 130.224,113.37 C 130.028,113.421 129.833,113.471 129.635,113.518 C 129.438,113.566 129.241,113.61 129.043,113.653 C 128.845,113.695 128.646,113.735 128.447,113.773 C 128.248,113.81 128.048,113.844 127.849,113.878 C 127.649,113.909 127.449,113.94 127.248,113.968 C 127.048,113.995 126.847,114.02 126.645,114.043 C 126.444,114.066 126.243,114.085 126.04,114.104 C 125.839,114.12 125.637,114.135 125.435,114.148 C 125.233,114.16 125.031,114.171 124.828,114.178 C 124.626,114.186 124.423,114.19 124.221,114.193 C 124.019,114.195 123.816,114.195 123.614,114.193 C 123.411,114.19 123.208,114.185 123.007,114.177 C 122.803,114.17 122.602,114.159 122.399,114.147 C 122.197,114.134 121.996,114.12 121.793,114.102 C 121.592,114.084 121.391,114.064 121.189,114.041 C 120.988,114.019 120.787,113.993 120.587,113.965 C 120.386,113.938 120.185,113.908 119.985,113.874 C 119.786,113.843 119.587,113.807 119.387,113.769 C 119.189,113.732 118.989,113.692 118.792,113.649 C 118.594,113.607 118.396,113.562 118.2,113.515 C 118.002,113.467 117.806,113.417 117.61,113.365 C 117.416,113.313 117.221,113.258 117.025,113.2 C 116.831,113.144 116.638,113.084 116.446,113.022 C 116.252,112.96 116.061,112.895 115.869,112.829 C 115.678,112.762 115.487,112.693 115.298,112.62 C 114.988,112.506 114.681,112.386 114.374,112.262 Z" stroke="none" fill="#ef795c" stroke-width="0.172" fill-rule="evenodd" stroke-linejoin="miter" marker-start="none" marker-end="none" stroke-miterlimit="79.8403193612775"/>
    <path d="M 126.847,33.576 C 127.439,33.515 141.117,26.279 143.016,25.326 C 144.427,24.619 145.918,23.964 147.391,23.398 C 143.797,21.967 140.336,20.323 136.838,18.679 C 132.681,16.723 128.52,14.756 124.33,12.873 L 122.337,13.567 C 119.244,14.606 116.103,15.492 113,16.5 C 110.405,17.361 107.8,18.189 105.184,18.984 C 103.722,19.442 102.269,19.942 100.786,20.328 C 109.426,24.837 118.113,29.252 126.847,33.576 Z" stroke="none" fill="#ffffff" stroke-width="0.172" fill-rule="evenodd" stroke-linejoin="miter" marker-start="none" marker-end="none" stroke-miterlimit="79.8403193612775"/>
    <path d="M 134.705,112.021 C 135.873,116.699 137.388,121.045 139.771,125.25 C 142.575,130.196 146.865,134.193 152.444,135.73 C 152.485,135.693 152.527,135.655 152.569,135.619 C 153.228,135.052 154.384,134.63 155.177,134.208 C 156.271,133.636 157.32,132.99 158.325,132.271 C 163.312,128.656 166.312,123.973 168.735,118.409 C 169.548,116.542 170.317,114.739 170.689,112.725 C 169.923,112.896 169.163,113.19 168.404,113.401 C 167.21,113.732 165.961,113.917 164.726,114.023 C 160.95,114.347 156.414,113.976 153.39,111.448 C 152.287,112.151 151.165,112.794 149.936,113.253 C 145.076,115.067 139.302,114.145 134.705,112.021 Z" stroke="none" fill="#ef795c" stroke-width="0.172" fill-rule="evenodd" stroke-linejoin="miter" marker-start="none" marker-end="none" stroke-miterlimit="79.8403193612775"/>
    <path d="M 205.48,103.573 C 206.297,103.226 208.883,100.967 209.81,100.262 C 213.508,97.445 217.352,94.769 220.921,91.793 C 219.464,90.187 218.145,88.401 216.752,86.734 C 215.536,85.28 214.19,83.891 213.06,82.371 C 214.415,81.087 215.784,79.817 217.029,78.425 C 216.164,77.339 215.182,76.345 214.263,75.304 L 207.325,67.515 L 200.61,59.798 C 195.639,54.235 190.736,48.61 185.902,42.925 C 185.854,45.047 185.865,47.176 185.853,49.3 C 185.832,52.358 185.832,55.414 185.851,58.471 C 186.592,58.045 187.733,56.92 188.621,56.964 C 189.084,56.987 189.58,57.463 189.879,57.772 C 190.475,58.391 190.937,59.169 191.432,59.869 C 192.124,60.857 192.848,61.821 193.606,62.76 C 192.598,63.231 191.619,64.026 190.723,64.687 C 189.326,65.719 187.946,66.776 186.537,67.79 C 180.751,71.912 174.998,76.079 169.278,80.291 C 170.724,81.484 172.413,82.449 173.992,83.455 L 182.285,88.68 L 205.48,103.573 Z" stroke="none" fill="#ffffff" stroke-width="0.172" fill-rule="evenodd" stroke-linejoin="miter" marker-start="none" marker-end="none" stroke-miterlimit="79.8403193612775"/>
    <path d="M 205.295,92.783 C 205.548,92.738 205.7,92.717 205.89,92.527 C 205.984,92.263 205.945,92.152 205.874,91.893 C 205.603,91.882 205.537,91.915 205.331,92.074 C 205.222,92.336 205.255,92.514 205.295,92.783 Z" stroke="none" fill="#000000" stroke-width="0.172" fill-rule="evenodd" stroke-linejoin="miter" marker-start="none" marker-end="none" stroke-miterlimit="79.8403193612775"/>
    <path d="M 212.598,90.107 C 212.876,90.077 212.995,90.042 213.21,89.862 C 213.283,89.592 213.231,89.486 213.134,89.236 C 212.876,89.289 212.753,89.305 212.561,89.499 C 212.479,89.757 212.519,89.86 212.598,90.107 Z" stroke="none" fill="#000000" stroke-width="0.172" fill-rule="evenodd" stroke-linejoin="miter" marker-start="none" marker-end="none" stroke-miterlimit="79.8403193612775"/>
    <path d="M 198.191,95.027 C 198.257,95.018 198.333,95.008 198.395,94.986 C 198.606,94.91 198.643,94.86 198.749,94.677 C 198.744,94.413 198.674,94.305 198.543,94.086 C 198.301,94.173 198.162,94.224 197.997,94.435 C 197.996,94.721 198.052,94.785 198.191,95.027 Z" stroke="none" fill="#000000" stroke-width="0.172" fill-rule="evenodd" stroke-linejoin="miter" marker-start="none" marker-end="none" stroke-miterlimit="79.8403193612775"/>
    <path d="M 184.3,84.515 C 184.56,84.504 184.759,84.519 184.969,84.343 C 185.078,84.094 185.038,83.936 184.99,83.681 C 184.718,83.688 184.643,83.68 184.403,83.823 C 184.267,84.075 184.283,84.243 184.3,84.515 Z" stroke="none" fill="#000000" stroke-width="0.172" fill-rule="evenodd" stroke-linejoin="miter" marker-start="none" marker-end="none" stroke-miterlimit="79.8403193612775"/>
    <path d="M 201.349,71.796 C 201.635,71.765 201.764,71.727 201.96,71.52 C 201.989,71.244 201.927,71.116 201.806,70.881 C 201.545,70.898 201.458,70.935 201.273,71.106 C 201.207,71.387 201.257,71.536 201.349,71.796 Z" stroke="none" fill="#000000" stroke-width="0.172" fill-rule="evenodd" stroke-linejoin="miter" marker-start="none" marker-end="none" stroke-miterlimit="79.8403193612775"/>
    <path d="M 207.912,77.471 C 208.161,77.353 208.263,77.282 208.376,77.036 C 208.351,76.752 208.234,76.637 208.054,76.434 C 207.839,76.577 207.708,76.655 207.611,76.907 C 207.66,77.196 207.729,77.252 207.912,77.471 Z" stroke="none" fill="#000000" stroke-width="0.172" fill-rule="evenodd" stroke-linejoin="miter" marker-start="none" marker-end="none" stroke-miterlimit="79.8403193612775"/>
    <path d="M 199.889,79.872 C 200.123,79.846 200.287,79.841 200.474,79.68 C 200.596,79.433 200.524,79.195 200.484,78.936 C 200.245,78.956 200.128,78.966 199.921,79.101 C 199.78,79.36 199.848,79.596 199.889,79.872 Z" stroke="none" fill="#000000" stroke-width="0.172" fill-rule="evenodd" stroke-linejoin="miter" marker-start="none" marker-end="none" stroke-miterlimit="79.8403193612775"/>
    <path d="M 192.165,82.296 C 192.44,82.237 192.55,82.183 192.734,81.982 C 192.796,81.72 192.726,81.579 192.627,81.344 C 192.558,81.349 192.468,81.353 192.401,81.371 C 192.181,81.432 192.139,81.494 192.017,81.671 C 191.996,81.927 192.063,82.071 192.165,82.296 Z" stroke="none" fill="#000000" stroke-width="0.172" fill-rule="evenodd" stroke-linejoin="miter" marker-start="none" marker-end="none" stroke-miterlimit="79.8403193612775"/>
    <path d="M 206.567,84.977 C 206.85,84.931 206.954,84.888 207.147,84.682 C 207.196,84.392 207.122,84.246 207.004,83.992 C 206.78,84.069 206.591,84.114 206.439,84.309 C 206.375,84.568 206.471,84.743 206.567,84.977 Z" stroke="none" fill="#000000" stroke-width="0.172" fill-rule="evenodd" stroke-linejoin="miter" marker-start="none" marker-end="none" stroke-miterlimit="79.8403193612775"/>
    <path d="M 204.382,99.37 C 204.616,99.317 204.729,99.295 204.909,99.124 C 205.007,98.875 204.941,98.675 204.886,98.426 C 204.802,98.429 204.654,98.432 204.576,98.454 C 204.371,98.514 204.316,98.613 204.216,98.78 C 204.205,99.044 204.261,99.147 204.382,99.37 Z" stroke="none" fill="#000000" stroke-width="0.172" fill-rule="evenodd" stroke-linejoin="miter" marker-start="none" marker-end="none" stroke-miterlimit="79.8403193612775"/>
    <path d="M 195.941,60.703 C 196.237,60.662 196.339,60.643 196.536,60.423 C 196.586,60.14 196.516,59.976 196.414,59.719 C 196.136,59.759 196.063,59.805 195.872,59.998 C 195.807,60.282 195.847,60.431 195.941,60.703 Z" stroke="none" fill="#000000" stroke-width="0.172" fill-rule="evenodd" stroke-linejoin="miter" marker-start="none" marker-end="none" stroke-miterlimit="79.8403193612775"/>
    <path d="M 198.788,87.626 C 199.044,87.574 199.167,87.553 199.365,87.371 C 199.459,87.091 199.37,86.912 199.276,86.65 C 198.988,86.686 198.886,86.709 198.68,86.907 C 198.62,87.185 198.699,87.367 198.788,87.626 Z" stroke="none" fill="#000000" stroke-width="0.172" fill-rule="evenodd" stroke-linejoin="miter" marker-start="none" marker-end="none" stroke-miterlimit="79.8403193612775"/>
    <path d="M 191.115,90.116 C 191.404,90.082 191.565,90.028 191.755,89.811 C 191.795,89.549 191.721,89.408 191.614,89.179 C 191.329,89.218 191.196,89.249 191.007,89.46 C 190.959,89.718 191.029,89.88 191.115,90.116 Z" stroke="none" fill="#000000" stroke-width="0.172" fill-rule="evenodd" stroke-linejoin="miter" marker-start="none" marker-end="none" stroke-miterlimit="79.8403193612775"/>
    <path d="M 194.891,67.156 C 194.972,67.133 195.103,67.103 195.176,67.067 C 195.383,66.967 195.42,66.878 195.508,66.683 C 195.474,66.412 195.4,66.336 195.223,66.144 C 195.172,66.157 195.12,66.165 195.071,66.184 C 194.836,66.268 194.805,66.329 194.69,66.534 C 194.702,66.812 194.755,66.924 194.891,67.156 Z" stroke="none" fill="#000000" stroke-width="0.172" fill-rule="evenodd" stroke-linejoin="miter" marker-start="none" marker-end="none" stroke-miterlimit="79.8403193612775"/>
    <path d="M 185.444,76.616 C 185.737,76.579 185.885,76.562 186.105,76.351 C 186.161,76.098 186.109,75.935 186.038,75.695 C 185.738,75.723 185.569,75.748 185.347,75.961 C 185.283,76.219 185.356,76.379 185.444,76.616 Z" stroke="none" fill="#000000" stroke-width="0.172" fill-rule="evenodd" stroke-linejoin="miter" marker-start="none" marker-end="none" stroke-miterlimit="79.8403193612775"/>
    <path d="M 186.916,69.302 C 187.202,69.256 187.383,69.236 187.575,69.004 C 187.635,68.738 187.571,68.609 187.465,68.373 C 187.177,68.368 187.037,68.389 186.824,68.581 C 186.757,68.862 186.827,69.039 186.916,69.302 Z" stroke="none" fill="#000000" stroke-width="0.172" fill-rule="evenodd" stroke-linejoin="miter" marker-start="none" marker-end="none" stroke-miterlimit="79.8403193612775"/>
    <path d="M 177.45,79.211 C 177.487,79.21 177.523,79.209 177.561,79.206 C 177.848,79.18 177.95,79.118 178.124,78.906 C 178.17,78.638 178.114,78.481 178.026,78.234 C 177.731,78.271 177.613,78.296 177.399,78.497 C 177.319,78.758 177.387,78.957 177.45,79.211 Z" stroke="none" fill="#000000" stroke-width="0.172" fill-rule="evenodd" stroke-linejoin="miter" marker-start="none" marker-end="none" stroke-miterlimit="79.8403193612775"/>
    <path d="M 193.611,74.462 C 193.904,74.363 194.035,74.307 194.199,74.034 C 194.189,73.757 194.124,73.619 193.981,73.384 C 193.693,73.453 193.56,73.509 193.402,73.758 C 193.398,74.049 193.477,74.209 193.611,74.462 Z" stroke="none" fill="#000000" stroke-width="0.172" fill-rule="evenodd" stroke-linejoin="miter" marker-start="none" marker-end="none" stroke-miterlimit="79.8403193612775"/>
    <path d="M 188.74,55.632 C 188.822,55.621 188.978,55.61 189.057,55.57 C 189.279,55.461 189.3,55.372 189.387,55.157 C 189.352,54.858 189.29,54.719 189.112,54.477 C 188.811,54.58 188.704,54.651 188.543,54.917 C 188.531,55.214 188.606,55.371 188.74,55.632 Z" stroke="none" fill="#000000" stroke-width="0.172" fill-rule="evenodd" stroke-linejoin="miter" marker-start="none" marker-end="none" stroke-miterlimit="79.8403193612775"/>
    <path d="M 152.634,82.138 C 152.795,81.859 152.595,74.679 152.602,73.621 C 152.61,72.078 152.693,70.537 152.713,68.993 C 152.315,69.124 151.919,69.252 151.551,69.46 C 150.568,70.012 150.544,70.623 150.239,71.598 C 150.14,71.909 149.977,72.271 149.666,72.416 C 149.53,72.479 149.48,72.43 149.346,72.39 C 149.062,72.119 148.965,71.805 148.951,71.419 C 148.917,70.524 149.382,69.561 149.98,68.918 C 150.766,68.072 151.943,67.646 153.085,67.648 C 154.207,67.648 155.197,68.097 155.966,68.908 C 156.626,69.606 157.12,70.641 157.074,71.617 C 157.061,71.887 157.015,72.196 156.791,72.373 C 156.682,72.459 156.606,72.421 156.477,72.415 C 155.646,71.9 155.733,70.737 155.162,69.977 C 154.733,69.407 154.231,69.237 153.542,69.157 L 153.473,69.238 L 153.588,69.311 L 153.467,69.303 C 153.425,70.486 153.558,71.716 153.588,72.904 L 153.81,81.573 C 159.675,77.634 165.336,73.342 171.045,69.18 C 175.769,65.736 180.604,62.42 185.268,58.898 C 185.382,53.203 185.321,47.496 185.318,41.8 C 185.317,38.573 185.489,34.958 185.266,31.775 C 184.471,31.296 183.987,30.453 183.732,29.583 C 183.012,30.347 182.153,30.898 181.085,30.996 C 181.022,31.002 180.959,31.006 180.896,31.008 C 180.834,31.01 180.772,31.011 180.709,31.01 C 180.646,31.009 180.584,31.007 180.521,31.003 C 180.458,30.999 180.396,30.994 180.334,30.986 C 180.272,30.98 180.209,30.971 180.147,30.961 C 180.086,30.951 180.024,30.939 179.963,30.926 C 179.902,30.912 179.841,30.897 179.781,30.881 C 179.72,30.865 179.66,30.847 179.6,30.827 C 179.54,30.809 179.482,30.787 179.422,30.766 C 179.364,30.744 179.306,30.72 179.248,30.695 C 179.191,30.67 179.134,30.643 179.077,30.615 C 179.022,30.588 178.967,30.558 178.912,30.527 C 178.857,30.496 178.803,30.465 178.75,30.431 C 178.697,30.398 178.645,30.364 178.593,30.327 C 178.542,30.292 178.492,30.255 178.443,30.217 C 178.392,30.178 178.344,30.138 178.297,30.097 C 177.128,29.101 176.933,27.813 176.809,26.376 C 174.396,26.495 171.972,26.436 169.557,26.434 L 158.385,26.416 L 158.358,32.891 L 158.355,40.651 C 158.353,42.349 158.51,44.228 158.141,45.883 C 157.88,47.059 157.331,48.163 156.499,49.039 C 156.421,49.12 156.341,49.2 156.258,49.277 C 156.176,49.355 156.092,49.429 156.006,49.503 C 155.921,49.575 155.832,49.647 155.743,49.715 C 155.654,49.784 155.563,49.851 155.471,49.916 C 155.377,49.98 155.283,50.043 155.187,50.103 C 155.092,50.162 154.995,50.22 154.897,50.275 C 154.798,50.33 154.699,50.384 154.597,50.434 C 154.497,50.484 154.394,50.531 154.291,50.577 C 154.187,50.622 154.082,50.664 153.977,50.704 C 153.872,50.744 153.766,50.782 153.658,50.818 C 153.551,50.853 153.443,50.885 153.333,50.914 C 153.225,50.944 153.116,50.971 153.005,50.995 C 152.895,51.019 152.784,51.041 152.674,51.06 C 152.562,51.079 152.45,51.095 152.339,51.109 C 152.227,51.123 152.114,51.133 152.002,51.14 C 151.889,51.149 151.776,51.153 151.663,51.156 C 149.939,51.179 148.301,50.357 147.1,49.151 C 146.272,48.321 145.653,47.271 145.388,46.124 C 144.923,44.122 145.163,41.409 145.162,39.335 L 145.181,26.558 C 144.074,26.563 142.961,26.591 141.855,26.534 L 130.856,32.145 C 129.558,32.8 128.272,33.585 126.943,34.163 C 126.018,33.797 125.108,33.277 124.216,32.833 L 118.585,29.988 C 118.467,39.327 118.429,48.666 118.471,58.005 C 120.017,59.173 121.642,60.245 123.225,61.361 L 132.853,68.114 L 152.634,82.138 Z" stroke="none" fill="#ffffff" stroke-width="0.172" fill-rule="evenodd" stroke-linejoin="miter" marker-start="none" marker-end="none" stroke-miterlimit="79.8403193612775"/>
    <path d="M 168.608,52.885 C 172.176,53.001 175.811,52.975 179.379,52.887 L 179.403,43.968 C 179.404,42.534 179.531,40.992 179.369,39.575 C 175.783,39.51 172.153,39.422 168.568,39.529 C 168.56,43.978 168.512,48.438 168.608,52.885 Z" stroke="none" fill="#000000" stroke-width="0.172" fill-rule="evenodd" stroke-linejoin="miter" marker-start="none" marker-end="none" stroke-miterlimit="79.8403193612775"/>
    <path d="M 169.042,52.464 C 172.391,52.477 175.75,52.524 179.099,52.467 C 179.161,48.31 179.197,44.122 179.089,39.966 L 177.575,40.001 C 177.54,43.767 177.746,47.558 177.52,51.318 C 175.104,51.284 172.689,51.273 170.273,51.282 C 170.205,47.522 170.27,43.756 170.236,39.995 C 169.834,39.995 169.433,39.988 169.031,39.972 C 168.988,44.125 168.968,48.311 169.042,52.464 Z" stroke="none" fill="#ffffff" stroke-width="0.172" fill-rule="evenodd" stroke-linejoin="miter" marker-start="none" marker-end="none" stroke-miterlimit="79.8403193612775"/>
    <path d="M 170.273,51.282 C 172.689,51.273 175.104,51.284 177.52,51.318 C 177.746,47.558 177.54,43.767 177.575,40.001 L 179.089,39.966 C 177.88,39.792 176.463,39.943 175.227,39.941 C 173.224,39.936 171.011,39.773 169.031,39.972 C 169.433,39.988 169.834,39.995 170.236,39.995 C 170.27,43.756 170.205,47.522 170.273,51.282 Z" stroke="none" fill="#24bcb8" stroke-width="0.172" fill-rule="evenodd" stroke-linejoin="miter" marker-start="none" marker-end="none" stroke-miterlimit="79.8403193612775"/>
    <path d="M 124.902,52.994 C 126.625,53.045 128.363,53.004 130.087,53.003 C 131.947,53.001 133.816,53.031 135.676,52.966 C 135.756,50.328 135.685,47.665 135.687,45.024 C 135.688,43.131 135.809,41.154 135.647,39.271 C 132.063,39.131 128.443,39.231 124.856,39.21 C 124.863,43.799 124.792,48.406 124.902,52.994 Z" stroke="none" fill="#000000" stroke-width="0.172" fill-rule="evenodd" stroke-linejoin="miter" marker-start="none" marker-end="none" stroke-miterlimit="79.8403193612775"/>
    <path d="M 125.369,52.55 C 128.651,52.553 131.96,52.648 135.238,52.522 C 135.375,48.283 135.274,43.994 135.234,39.753 L 133.71,39.737 C 133.661,43.548 133.759,47.363 133.67,51.174 L 126.726,51.118 C 126.671,47.295 126.698,43.471 126.806,39.649 L 125.361,39.649 C 125.29,43.943 125.365,48.253 125.369,52.55 Z" stroke="none" fill="#ffffff" stroke-width="0.172" fill-rule="evenodd" stroke-linejoin="miter" marker-start="none" marker-end="none" stroke-miterlimit="79.8403193612775"/>
    <path d="M 126.726,51.118 L 133.67,51.174 C 133.759,47.363 133.661,43.548 133.71,39.737 C 131.431,39.573 129.093,39.661 126.806,39.649 C 126.698,43.471 126.671,47.295 126.726,51.118 Z" stroke="none" fill="#24bcb8" stroke-width="0.172" fill-rule="evenodd" stroke-linejoin="miter" marker-start="none" marker-end="none" stroke-miterlimit="79.8403193612775"/>
    <path d="M 185.816,32.167 C 187.979,34.871 190.259,37.498 192.461,40.174 C 195.197,38.051 198.368,36.613 201.096,34.495 C 202.267,33.586 203.379,32.595 204.52,31.648 C 206.401,30.086 208.289,28.544 210.151,26.958 C 211.121,26.13 212.577,24.699 213.518,24.036 C 211.997,22.849 210.843,21.562 209.81,19.942 C 210.945,20.143 212.084,20.317 213.227,20.464 C 215.57,20.756 217.707,21.008 219.675,19.473 C 220.815,19.545 225.821,19.324 226.409,19.755 L 226.422,19.908 C 225.984,20.272 222.909,20.112 222.168,20.111 C 221.558,21.29 220.895,22.406 219.995,23.39 C 218.292,25.25 214.804,27.238 212.617,28.642 C 216.63,28.747 220.661,28.702 224.675,28.689 C 226.528,28.683 228.408,28.608 230.258,28.698 C 230.06,27.856 230.169,26.741 230.171,25.869 L 230.19,20.634 L 230.232,0.785 C 225.301,0.869 220.355,0.793 215.422,0.79 L 184.179,0.77 L 78.155,0.774 L 78.156,19.408 C 78.159,22.523 78.306,25.708 78.122,28.815 C 79.243,28.72 80.39,28.764 81.515,28.765 L 86.937,28.767 L 104.016,28.773 L 109.435,28.775 C 110.539,28.777 111.69,28.848 112.786,28.712 C 113.603,28.61 114.394,28.359 115.191,28.154 C 113.087,27.26 111.079,26.144 109.046,25.104 C 107.282,24.203 105.486,23.366 103.724,22.463 C 102.305,21.735 100.908,20.954 99.447,20.314 C 100.147,18.743 101.428,17.216 102.405,15.792 C 102.924,15.036 103.394,14.214 103.956,13.493 C 107.332,12.212 110.867,11.314 114.298,10.192 L 120.277,8.217 C 121.622,7.77 122.978,7.262 124.362,6.956 C 126.812,7.698 131.188,10.663 133.409,10.762 C 134.482,10.809 135.954,10.825 136.986,10.536 C 139.203,9.914 139.741,8.591 142.472,9.085 C 142.958,9.173 143.43,9.262 143.832,9.567 L 143.904,9.729 C 143.629,10.345 142.587,10.659 142.088,11.093 C 141.164,11.897 140.867,13.067 139.825,13.806 C 142.125,14.888 144.457,16.105 146.826,17.011 C 147.252,19.194 147.961,21.372 148.293,23.561 C 146.504,24.355 144.666,25.035 142.917,25.924 C 146.57,26.125 150.306,25.942 153.967,25.933 L 176.922,25.934 C 175.956,25.695 175.354,25.416 174.595,24.771 C 175.018,23.775 175.647,22.878 176.681,22.447 C 177.988,21.905 192.174,22.392 194.775,22.226 L 194.842,22.089 C 195.937,21.851 197.523,22.014 198.677,22.032 C 198.834,22.066 198.939,22.098 199.074,22.188 C 199.146,22.393 199.202,22.593 199.17,22.812 C 199.066,23.536 198.455,24.218 197.878,24.62 C 196.86,25.331 195.807,25.345 194.64,25.121 C 194.705,25.31 194.776,25.506 194.808,25.704 C 194.9,26.284 194.742,27.03 194.398,27.505 C 193.804,28.323 192.913,28.489 191.981,28.65 C 191.771,28.958 191.719,29.457 191.614,29.817 C 191.349,30.734 190.458,31.68 189.639,32.115 C 188.352,32.801 187.131,32.588 185.816,32.167 Z" stroke="none" fill="#fcc246" stroke-width="0.172" fill-rule="evenodd" stroke-linejoin="miter" marker-start="none" marker-end="none" stroke-miterlimit="79.8403193612775"/>
    <path d="M 181.044,15.088 L 181.2,14.982 C 181.231,14.727 181.165,14.533 181.086,14.295 C 180.551,12.693 179.816,11.107 179.188,9.536 C 178.762,8.473 178.437,7.359 177.934,6.33 L 177.915,6.357 L 177.784,6.071 C 176.944,6.261 175.949,7.274 175.272,7.811 C 174.602,8.27 173.687,8.75 173.156,9.362 C 173.511,10.162 179.891,14.287 181.044,15.088 Z" stroke="none" fill="#000000" stroke-width="0.172" fill-rule="evenodd" stroke-linejoin="miter" marker-start="none" marker-end="none" stroke-miterlimit="79.8403193612775"/>
    <path d="M 180.232,13.852 L 180.285,13.747 C 179.346,11.417 178.432,9.078 177.543,6.728 L 175.464,8.336 C 174.907,8.711 174.35,9.08 173.835,9.512 C 175.892,11.052 178.073,12.458 180.232,13.852 Z" stroke="none" fill="#ffffff" stroke-width="0.172" fill-rule="evenodd" stroke-linejoin="miter" marker-start="none" marker-end="none" stroke-miterlimit="79.8403193612775"/>
    <path d="M 201.942,21.324 C 202.774,21.372 203.559,21.094 204.24,20.625 C 205.048,20.07 205.779,19.127 205.973,18.149 C 206.574,17.914 207.116,17.719 207.474,17.14 C 207.681,16.804 207.666,16.375 207.586,16.004 C 207.182,15.675 203.018,15.866 202.149,15.867 C 200.615,15.872 199.017,15.731 197.491,15.841 C 197.163,15.866 196.794,15.9 196.591,16.197 C 196.395,16.484 196.396,16.894 196.441,17.224 C 196.527,17.857 196.855,18.524 197.386,18.898 C 197.86,19.23 198.367,19.238 198.917,19.158 C 199.016,19.311 199.118,19.46 199.223,19.608 C 199.931,20.589 200.746,21.125 201.942,21.324 Z" stroke="none" fill="#000000" stroke-width="0.172" fill-rule="evenodd" stroke-linejoin="miter" marker-start="none" marker-end="none" stroke-miterlimit="79.8403193612775"/>
    <path d="M 205.542,17.236 C 205.742,17.39 205.85,17.533 206.121,17.51 C 206.418,17.485 206.868,17.205 207.014,16.947 C 207.093,16.806 207.067,16.753 207.059,16.599 C 206.919,16.44 206.839,16.367 206.617,16.356 C 206.422,16.346 206.215,16.372 206.02,16.388 C 205.745,16.549 205.401,16.342 205.184,16.565 C 205.246,16.812 205.408,17.024 205.542,17.236 Z" stroke="none" fill="#ffffff" stroke-width="0.172" fill-rule="evenodd" stroke-linejoin="miter" marker-start="none" marker-end="none" stroke-miterlimit="79.8403193612775"/>
    <path d="M 199.143,18.041 C 199.265,18.394 199.384,18.766 199.562,19.095 C 199.953,19.817 200.635,20.443 201.434,20.671 C 202.2,20.89 203.06,20.723 203.73,20.309 C 205.058,19.487 205.184,18.707 205.511,17.364 L 205.542,17.236 C 205.408,17.024 205.246,16.812 205.184,16.565 C 205.401,16.342 205.745,16.549 206.02,16.388 C 204.179,16.399 202.338,16.398 200.498,16.384 C 199.403,16.374 198.251,16.288 197.163,16.395 C 197.008,16.536 196.944,16.621 196.922,16.838 C 196.872,17.334 197.125,17.921 197.465,18.275 C 197.669,18.489 197.937,18.638 198.239,18.639 C 198.638,18.639 198.807,18.411 199.059,18.134 L 199.143,18.041 Z" stroke="none" fill="#afe8ec" stroke-width="0.172" fill-rule="evenodd" stroke-linejoin="miter" marker-start="none" marker-end="none" stroke-miterlimit="79.8403193612775"/>
    <path d="M 163.679,21.397 C 164.43,21.42 165.271,21.248 165.92,20.872 C 166.907,20.302 167.192,19.478 167.48,18.445 C 167.716,18.229 168.086,18.234 168.389,18.132 C 168.841,17.981 169.201,17.463 169.4,17.054 C 169.663,16.513 169.805,15.827 169.617,15.244 C 169.563,15.195 169.518,15.131 169.453,15.095 C 169.183,14.949 163.522,15.046 162.729,15.041 C 160.75,15.021 158.739,14.933 156.764,15.037 C 156.709,15.723 156.745,16.399 156.943,17.061 C 157.175,17.837 157.646,18.605 158.385,18.988 C 158.943,19.277 159.512,19.316 160.106,19.143 C 160.307,19.446 160.518,19.753 160.749,20.034 C 161.537,20.996 162.491,21.288 163.679,21.397 Z" stroke="none" fill="#000000" stroke-width="0.172" fill-rule="evenodd" stroke-linejoin="miter" marker-start="none" marker-end="none" stroke-miterlimit="79.8403193612775"/>
    <path d="M 157.319,15.993 C 157.396,16.742 157.545,17.369 158.014,17.982 C 158.294,18.349 158.659,18.656 159.133,18.709 C 159.56,18.755 159.843,18.635 160.173,18.378 C 159.608,17.761 158.195,15.981 157.481,15.796 C 157.331,15.895 157.383,15.829 157.319,15.993 Z" stroke="none" fill="#ffffff" stroke-width="0.172" fill-rule="evenodd" stroke-linejoin="miter" marker-start="none" marker-end="none" stroke-miterlimit="79.8403193612775"/>
    <path d="M 161.504,20.083 C 162.311,20.705 163.198,20.957 164.216,20.842 C 165.109,20.743 165.949,20.348 166.504,19.628 C 166.813,19.227 166.914,18.781 167.009,18.295 C 166.79,18.079 166.563,17.886 166.439,17.6 L 166.514,17.502 C 167.124,17.628 167.881,17.834 168.446,17.464 C 168.897,17.17 169.075,16.655 169.163,16.145 C 169.177,16.068 169.185,15.99 169.195,15.911 C 168.638,15.603 167.056,15.99 166.439,16.146 C 165.302,17.856 164.895,19.194 162.862,20.088 C 162.41,20.012 161.935,19.876 161.504,20.083 Z" stroke="none" fill="#ffffff" stroke-width="0.172" fill-rule="evenodd" stroke-linejoin="miter" marker-start="none" marker-end="none" stroke-miterlimit="79.8403193612775"/>
    <path d="M 161.504,20.083 C 161.935,19.876 162.41,20.012 162.862,20.088 C 164.895,19.194 165.302,17.856 166.439,16.146 C 167.056,15.99 168.638,15.603 169.195,15.911 C 169.213,15.75 169.209,15.71 169.165,15.565 C 169.074,15.516 169.003,15.492 168.899,15.49 C 167.723,15.465 157.61,15.411 157.413,15.513 C 157.365,15.539 157.332,15.588 157.291,15.625 L 157.319,15.993 C 157.383,15.829 157.331,15.895 157.481,15.796 C 158.195,15.981 159.608,17.761 160.173,18.378 C 160.234,18.374 160.312,18.399 160.371,18.41 C 160.675,19.045 160.974,19.611 161.504,20.083 Z" stroke="none" fill="#afe8ec" stroke-width="0.172" fill-rule="evenodd" stroke-linejoin="miter" marker-start="none" marker-end="none" stroke-miterlimit="79.8403193612775"/>
    <path d="M 83.678,58.72 C 83.807,58.741 83.74,58.717 83.868,58.812 C 83.729,59.477 83.307,60.099 83.042,60.723 C 82.339,62.351 81.656,63.986 80.992,65.63 C 79.548,69.25 78.456,72.995 78.196,76.9 C 77.609,85.762 81.6,95.384 89.019,100.479 C 91.483,102.173 93.91,102.958 96.561,104.18 C 100.396,105.947 104.124,109.281 106.68,112.607 C 106.896,112.889 107.106,113.176 107.308,113.469 C 107.511,113.761 107.706,114.058 107.893,114.359 C 108.08,114.661 108.261,114.968 108.433,115.278 C 108.606,115.59 108.77,115.905 108.926,116.224 C 109.084,116.542 109.233,116.865 109.374,117.192 C 109.514,117.517 109.647,117.847 109.772,118.181 C 109.896,118.513 110.013,118.849 110.121,119.187 C 110.229,119.526 110.329,119.868 110.42,120.21 C 110.736,121.429 110.85,122.683 111.109,123.911 C 111.495,125.742 112.128,127.472 112.866,129.185 C 117.077,138.958 124.848,146.021 134.688,149.915 C 145.323,154.124 157.668,153.819 167.356,147.387 C 170.92,145.02 173.896,142.023 178.233,141.038 C 182.024,140.178 184.942,141.109 188.612,141.438 C 193.571,141.883 199.899,140.269 204.433,138.301 C 205.95,138.973 209.193,140.613 210.647,140.938 C 210.796,138.779 211.032,136.568 211.028,134.406 C 212.764,133.315 214.417,131.889 215.901,130.476 C 222.801,123.905 226.935,115.293 229.03,106.09 C 231.067,97.137 230.365,88.008 227.367,79.354 C 226.268,76.178 224.957,73.218 223.16,70.368 C 220.841,66.687 216.132,61.336 212.717,58.66 C 210.502,56.925 207.094,54.964 204.411,54.087 C 205.247,55.271 206.335,56.367 207.29,57.461 L 212.47,63.44 C 213.656,64.805 214.905,66.149 215.964,67.615 C 216.014,69.019 215.969,70.44 215.973,71.846 C 215.975,73.341 216.026,74.853 215.948,76.348 C 216.585,77.018 217.192,77.722 217.808,78.412 C 216.641,79.861 215.09,81.14 213.734,82.422 C 214.495,83.371 215.344,84.266 216.139,85.189 C 217.987,87.335 219.881,89.573 221.558,91.852 C 220.639,92.866 219.315,93.724 218.23,94.561 C 215.768,96.455 213.291,98.33 210.802,100.188 C 209.024,101.512 207.284,103.034 205.397,104.188 C 193.333,96.096 180.911,88.57 168.717,80.681 C 166.018,82.568 163.377,84.545 160.707,86.471 C 158.478,88.079 156.186,89.638 154.028,91.338 L 154.017,111.331 C 154.874,112.017 155.872,112.455 156.909,112.802 C 162.492,114.673 168.628,113.365 173.758,110.805 C 179.31,114.292 185.864,114.896 191.924,112.388 C 192.424,112.181 192.931,111.961 193.403,111.693 C 193.632,111.563 194.028,111.196 194.265,111.151 C 194.327,111.139 194.391,111.16 194.453,111.165 L 194.498,111.345 C 194.316,112.146 193.849,112.919 193.46,113.638 C 193.028,114.443 192.569,115.231 192.083,116.004 C 191.597,116.777 191.085,117.534 190.547,118.273 C 190.01,119.011 189.449,119.731 188.862,120.432 C 188.276,121.132 187.667,121.812 187.035,122.472 C 186.771,122.744 186.504,123.013 186.233,123.278 C 185.963,123.544 185.689,123.807 185.412,124.066 C 185.135,124.326 184.854,124.581 184.571,124.833 C 184.288,125.086 184.001,125.334 183.711,125.579 C 183.422,125.824 183.129,126.065 182.834,126.303 C 182.538,126.541 182.24,126.775 181.939,127.006 C 181.637,127.236 181.333,127.463 181.026,127.686 C 180.719,127.909 180.409,128.128 180.097,128.343 C 179.785,128.559 179.47,128.77 179.152,128.977 C 178.834,129.185 178.514,129.389 178.192,129.589 C 177.868,129.787 177.543,129.984 177.216,130.174 C 176.889,130.366 176.559,130.554 176.227,130.737 C 175.894,130.92 175.56,131.1 175.224,131.274 C 174.887,131.45 174.549,131.621 174.208,131.788 C 173.866,131.954 173.524,132.117 173.18,132.275 C 172.835,132.433 172.487,132.588 172.14,132.737 C 171.791,132.887 171.44,133.033 171.088,133.173 C 170.736,133.313 170.382,133.451 170.026,133.583 C 169.67,133.715 169.314,133.842 168.955,133.967 C 168.596,134.089 168.236,134.208 167.874,134.323 C 167.512,134.438 167.149,134.548 166.785,134.654 C 166.42,134.759 166.055,134.86 165.688,134.957 C 165.32,135.052 164.953,135.145 164.584,135.232 C 164.215,135.32 163.844,135.402 163.474,135.481 C 163.102,135.559 162.73,135.632 162.357,135.701 C 161.984,135.771 161.61,135.835 161.235,135.895 C 160.86,135.955 160.485,136.009 160.109,136.061 C 159.734,136.111 159.356,136.156 158.979,136.197 C 158.602,136.239 158.225,136.275 157.846,136.307 C 157.469,136.339 157.091,136.365 156.712,136.389 C 156.332,136.411 155.954,136.429 155.575,136.442 C 155.196,136.456 154.817,136.464 154.437,136.467 C 154.448,137.837 154.561,139.298 154.41,140.657 C 154.303,140.798 154.265,140.844 154.085,140.898 C 153.721,141.006 152.761,141.087 152.447,140.92 C 152.098,140.023 152.309,137.601 152.322,136.536 C 147.376,136.441 142.584,135.55 137.898,133.996 C 127.983,130.71 119.004,124.075 114.281,114.583 C 113.942,113.901 112.807,111.648 113.02,111.016 C 113.426,111.056 113.966,111.485 114.347,111.663 C 115.331,112.125 116.393,112.494 117.433,112.81 C 122.797,114.444 129.359,113.919 134.311,111.29 C 136.481,112.465 138.775,113.176 141.22,113.511 C 144.936,114.019 149.458,113.677 152.554,111.334 L 152.587,91.855 C 149.85,89.742 146.928,87.861 144.114,85.852 C 137.862,81.329 131.568,76.868 125.229,72.47 C 125.155,75.061 125.242,77.667 125.221,80.26 C 122.036,80.26 118.849,80.278 115.662,80.317 C 115.598,76.808 115.648,73.288 115.639,69.777 C 115.637,68.863 115.776,66.707 115.557,65.955 C 115.499,65.76 115.478,65.735 115.312,65.639 C 114.328,66.262 113.396,67.237 112.518,68.006 C 110.81,69.517 109.084,71.006 107.34,72.473 C 105.403,71.321 103.294,70.355 101.296,69.3 C 99.964,68.595 98.08,67.416 96.747,66.942 L 96.729,57.62 C 94.132,57.79 91.531,58.038 88.934,58.243 C 87.2,58.38 85.389,58.423 83.678,58.72 Z" stroke="none" fill="#24bcb8" stroke-width="0.172" fill-rule="evenodd" stroke-linejoin="miter" marker-start="none" marker-end="none" stroke-miterlimit="79.8403193612775"/>
    <path d="M 166.052,99.831 C 166.64,99.772 174.087,96.228 175.289,95.685 C 174.654,94.887 173.774,94.245 172.993,93.592 C 172.187,92.883 171.38,92.105 170.479,91.522 C 169.538,92.821 168.828,94.438 168.038,95.841 C 167.506,96.789 166.434,98.402 166.079,99.35 C 166.021,99.506 166.04,99.669 166.052,99.831 Z" stroke="none" fill="#000000" stroke-width="0.172" fill-rule="evenodd" stroke-linejoin="miter" marker-start="none" marker-end="none" stroke-miterlimit="79.8403193612775"/>
    <path d="M 166.831,98.974 C 167.811,98.635 168.77,98.13 169.712,97.697 C 171.305,96.977 172.888,96.235 174.462,95.476 C 173.885,94.961 173.286,94.471 172.692,93.977 C 172.029,93.377 171.341,92.801 170.666,92.216 C 169.331,94.122 168.084,96.878 166.831,98.974 Z" stroke="none" fill="#ffffff" stroke-width="0.172" fill-rule="evenodd" stroke-linejoin="miter" marker-start="none" marker-end="none" stroke-miterlimit="79.8403193612775"/>
    <path d="M 204.433,138.301 C 205.95,138.973 209.193,140.613 210.647,140.938 C 210.796,138.779 211.032,136.568 211.028,134.406 C 211.032,133.315 211.151,132.223 211.056,131.133 C 208.873,131.971 206.647,132.639 204.415,133.327 C 203.34,133.658 202.171,133.931 201.147,134.385 C 200.894,134.496 200.719,134.597 200.569,134.832 C 200.366,135.146 200.27,135.68 200.403,136.037 C 200.715,136.883 203.507,137.817 204.354,138.259 L 204.433,138.301 Z" stroke="none" fill="#000000" stroke-width="0.172" fill-rule="evenodd" stroke-linejoin="miter" marker-start="none" marker-end="none" stroke-miterlimit="79.8403193612775"/>
    <path d="M 201.822,134.644 C 201.475,134.774 201.148,134.873 200.956,135.218 C 200.943,135.24 200.933,135.262 200.924,135.286 C 200.913,135.308 200.905,135.332 200.899,135.356 C 200.891,135.38 200.885,135.404 200.882,135.429 C 200.878,135.454 200.874,135.479 200.873,135.503 C 200.872,135.528 200.872,135.553 200.873,135.578 C 200.875,135.603 200.878,135.628 200.883,135.653 C 200.887,135.678 200.893,135.702 200.899,135.726 C 200.907,135.75 200.915,135.773 200.925,135.796 C 201.231,136.532 209.117,139.858 210.158,140.214 C 210.241,139.706 210.257,139.188 210.288,138.673 C 208.724,138.031 207.21,137.259 205.678,136.545 C 204.395,135.946 203.017,135.411 201.822,134.644 Z" stroke="none" fill="#ffffff" stroke-width="0.172" fill-rule="evenodd" stroke-linejoin="miter" marker-start="none" marker-end="none" stroke-miterlimit="79.8403193612775"/>
    <path d="M 210.288,138.673 C 210.433,136.405 210.534,134.136 210.592,131.864 C 207.709,132.917 204.743,133.712 201.822,134.644 C 203.017,135.411 204.395,135.946 205.678,136.545 C 207.21,137.259 208.724,138.031 210.288,138.673 Z" stroke="none" fill="#fcc246" stroke-width="0.172" fill-rule="evenodd" stroke-linejoin="miter" marker-start="none" marker-end="none" stroke-miterlimit="79.8403193612775"/>
   </g>
   <g id="Layer_1"/>
  </g>
 </g>
</svg>
