<?xml version="1.0" standalone="no"?>
<!DOCTYPE svg PUBLIC "-//W3C//DTD SVG 1.1//EN" "http://www.w3.org/Graphics/SVG/1.1/DTD/svg11.dtd">
<!--Generator: Xara Designer (www.xara.com), SVG filter version: 6.2.0.0-->
<svg stroke-width="0.501" stroke-linejoin="bevel" fill-rule="evenodd" xmlns:xlink="http://www.w3.org/1999/xlink" xmlns="http://www.w3.org/2000/svg" version="1.1" overflow="visible" width="328.101pt" height="172.101pt" viewBox="0 0 328.101 172.101">
 <defs>
	</defs>
 <g id="Document" fill="none" stroke="black" font-family="Times New Roman" font-size="16" transform="scale(1 -1)">
  <g id="Spread" transform="translate(0 -172.101)">
   <g id="Layer 1">
    <path d="M -0.399,172.499 L -0.399,0 L 328.1,0 L 328.1,172.499 L -0.399,172.499 Z" stroke="none" fill="#ffffff" stroke-width="0.144" stroke-linejoin="miter" marker-start="none" marker-end="none" stroke-miterlimit="79.8403193612775"/>
    <path d="M 188.01,172.435 C 188.666,172.489 189.328,172.484 189.986,172.492 L 190.081,171.806 C 189.408,172.048 188.697,172.228 188.01,172.435 Z" stroke="none" fill="#2ea4bd" stroke-width="0.21" fill-rule="evenodd" stroke-linejoin="miter" marker-start="none" marker-end="none" stroke-miterlimit="79.8403193612775"/>
    <path d="M 137.218,172.491 C 137.97,172.492 138.723,172.505 139.475,172.485 C 138.759,172.231 138.021,172.037 137.311,171.776 L 137.218,172.491 Z" stroke="none" fill="#2ea4bd" stroke-width="0.21" fill-rule="evenodd" stroke-linejoin="miter" marker-start="none" marker-end="none" stroke-miterlimit="79.8403193612775"/>
    <path d="M 245.935,109.79 C 246.956,109.818 247.907,109.603 248.814,109.124 C 250.426,108.271 251.761,106.726 252.27,104.965 C 253.003,102.428 252.161,99.302 250.875,97.08 C 249.411,94.551 243.903,88.96 240.987,88.175 C 238.888,88.634 236.988,89.995 235.357,91.328 C 233.905,92.624 232.598,94.064 231.518,95.687 C 229.854,98.184 228.241,101.299 228.894,104.397 C 229.255,106.11 230.274,107.717 231.752,108.674 C 233.178,109.597 235.034,109.933 236.686,109.536 C 238.618,109.071 239.767,107.725 240.762,106.116 C 241.035,106.519 241.307,106.929 241.607,107.314 C 242.744,108.772 244.104,109.566 245.935,109.79 Z" stroke="none" fill="#000000" stroke-width="0.21" fill-rule="evenodd" stroke-linejoin="miter" marker-start="none" marker-end="none" stroke-miterlimit="79.8403193612775"/>
    <path d="M 245.698,109.267 C 246.614,109.316 247.422,109.218 248.274,108.839 C 249.767,108.174 251.089,106.827 251.647,105.283 C 252.411,103.168 251.867,100.39 250.949,98.399 C 249.46,95.165 244.245,89.844 240.869,88.618 C 238.777,89.461 237.033,90.601 235.3,92.026 C 234.838,92.452 234.382,92.896 233.955,93.358 C 231.625,95.877 229.092,99.719 229.24,103.3 C 229.244,103.401 229.25,103.502 229.258,103.604 C 229.267,103.705 229.278,103.805 229.292,103.906 C 229.305,104.006 229.321,104.107 229.339,104.207 C 229.359,104.307 229.38,104.406 229.402,104.504 C 229.426,104.603 229.452,104.701 229.481,104.798 C 229.508,104.896 229.539,104.993 229.572,105.088 C 229.605,105.184 229.641,105.28 229.678,105.373 C 229.716,105.467 229.756,105.561 229.798,105.653 C 229.841,105.746 229.885,105.836 229.932,105.927 C 229.979,106.016 230.027,106.105 230.079,106.192 C 230.13,106.28 230.184,106.366 230.239,106.452 C 230.294,106.536 230.351,106.619 230.411,106.701 C 230.471,106.784 230.532,106.864 230.596,106.943 C 230.659,107.022 230.725,107.1 230.793,107.176 C 230.86,107.251 230.929,107.325 231,107.398 C 231.071,107.47 231.144,107.541 231.219,107.609 C 231.294,107.678 231.371,107.744 231.449,107.809 C 231.527,107.873 231.607,107.935 231.689,107.996 C 231.771,108.056 231.854,108.114 231.939,108.171 C 232.023,108.227 232.11,108.281 232.196,108.334 C 232.284,108.385 232.373,108.435 232.462,108.482 C 232.552,108.53 232.642,108.575 232.735,108.618 C 232.827,108.66 232.919,108.701 233.014,108.739 C 233.108,108.778 233.203,108.814 233.299,108.847 C 233.395,108.881 233.491,108.911 233.588,108.94 C 233.687,108.968 233.785,108.995 233.884,109.018 C 233.982,109.042 234.081,109.063 234.181,109.082 C 234.281,109.101 234.381,109.116 234.482,109.13 C 234.582,109.144 234.683,109.155 234.784,109.164 C 234.886,109.171 234.987,109.178 235.088,109.181 C 235.19,109.184 235.291,109.185 235.393,109.184 C 235.495,109.182 235.596,109.178 235.697,109.171 C 238.41,108.988 239.224,107.128 240.763,105.328 L 240.915,105.32 C 241.385,105.761 241.609,106.451 241.983,106.98 C 242.908,108.284 244.137,109.009 245.698,109.267 Z" stroke="none" fill="#f55656" stroke-width="0.21" fill-rule="evenodd" stroke-linejoin="miter" marker-start="none" marker-end="none" stroke-miterlimit="79.8403193612775"/>
    <path d="M 189.986,172.492 L 228.216,172.486 C 234.841,172.477 241.511,172.305 248.132,172.456 L 248.153,141.215 L 248.166,129.99 C 248.167,127.872 248.229,125.731 248.128,123.617 L 238.851,123.621 C 237.752,126.81 236.689,129.934 235.199,132.969 C 227.801,148.029 214.513,160.505 199.494,167.821 C 196.523,169.269 193.297,171.009 190.081,171.806 L 189.986,172.492 Z" stroke="none" fill="#ffffff" stroke-width="0.21" fill-rule="evenodd" stroke-linejoin="miter" marker-start="none" marker-end="none" stroke-miterlimit="79.8403193612775"/>
    <path d="M 225.816,165.761 C 226.203,165.791 226.567,165.795 226.945,165.689 C 227.614,165.501 228.191,165.086 228.519,164.466 C 228.559,164.389 228.595,164.31 228.628,164.228 C 228.66,164.147 228.688,164.064 228.711,163.979 C 228.734,163.895 228.753,163.811 228.767,163.724 C 228.782,163.638 228.792,163.551 228.796,163.464 C 228.802,163.376 228.803,163.289 228.799,163.202 C 228.795,163.114 228.787,163.027 228.773,162.941 C 228.76,162.855 228.743,162.769 228.721,162.684 C 228.699,162.6 228.672,162.517 228.642,162.435 C 228.304,161.526 227.667,161.071 226.806,160.702 C 226.383,160.649 226.004,160.685 225.597,160.819 C 224.898,161.048 224.343,161.513 224.039,162.19 C 224.002,162.269 223.97,162.35 223.942,162.433 C 223.914,162.516 223.891,162.6 223.872,162.684 C 223.853,162.769 223.838,162.856 223.827,162.942 C 223.818,163.028 223.812,163.116 223.811,163.203 C 223.81,163.29 223.814,163.377 223.821,163.465 C 223.83,163.551 223.842,163.637 223.859,163.723 C 223.877,163.809 223.898,163.894 223.923,163.976 C 223.95,164.059 223.979,164.141 224.015,164.221 C 224.374,165.047 225.014,165.433 225.816,165.761 Z" stroke="none" fill="#000000" stroke-width="0.21" fill-rule="evenodd" stroke-linejoin="miter" marker-start="none" marker-end="none" stroke-miterlimit="79.8403193612775"/>
    <path d="M 225.69,165.229 C 225.973,165.266 226.274,165.316 226.558,165.271 C 227.14,165.18 227.71,164.836 228.023,164.331 C 228.058,164.272 228.091,164.211 228.121,164.149 C 228.15,164.086 228.177,164.022 228.2,163.957 C 228.223,163.893 228.242,163.826 228.258,163.759 C 228.274,163.692 228.287,163.624 228.296,163.555 C 228.306,163.487 228.311,163.418 228.313,163.348 C 228.315,163.28 228.314,163.211 228.309,163.142 C 228.304,163.073 228.296,163.004 228.284,162.937 C 228.271,162.868 228.256,162.802 228.237,162.735 C 228.025,161.968 227.517,161.568 226.842,161.207 C 226.55,161.187 226.269,161.176 225.982,161.239 C 225.368,161.372 224.827,161.723 224.509,162.271 C 224.229,162.752 224.183,163.314 224.346,163.842 C 224.566,164.557 225.066,164.884 225.69,165.229 Z" stroke="none" fill="#ffffff" stroke-width="0.21" fill-rule="evenodd" stroke-linejoin="miter" marker-start="none" marker-end="none" stroke-miterlimit="79.8403193612775"/>
    <path d="M 237.625,152.262 C 237.774,152.271 237.925,152.272 238.076,152.264 C 238.225,152.257 238.375,152.242 238.523,152.217 C 238.671,152.193 238.818,152.161 238.963,152.12 C 239.108,152.08 239.25,152.031 239.39,151.975 C 239.447,151.951 239.504,151.926 239.561,151.9 C 239.617,151.874 239.674,151.845 239.729,151.816 C 239.784,151.787 239.838,151.756 239.892,151.724 C 239.945,151.692 239.998,151.658 240.05,151.623 C 240.101,151.588 240.152,151.552 240.202,151.515 C 240.252,151.476 240.301,151.438 240.348,151.397 C 240.396,151.357 240.443,151.316 240.489,151.273 C 240.534,151.231 240.579,151.187 240.623,151.142 C 240.665,151.097 240.707,151.051 240.748,151.004 C 240.789,150.957 240.829,150.909 240.868,150.859 C 240.906,150.81 240.943,150.76 240.979,150.708 C 241.014,150.657 241.049,150.606 241.082,150.552 C 241.115,150.499 241.147,150.445 241.177,150.391 C 241.207,150.336 241.235,150.281 241.263,150.224 C 241.291,150.168 241.316,150.112 241.34,150.054 C 241.365,149.997 241.388,149.938 241.409,149.879 C 241.762,148.913 241.724,147.809 241.251,146.89 C 240.677,145.778 239.741,145.29 238.597,144.952 C 237.679,144.901 236.887,144.955 236.076,145.433 C 236.022,145.467 235.969,145.501 235.916,145.536 C 235.863,145.571 235.811,145.609 235.761,145.647 C 235.71,145.685 235.66,145.724 235.611,145.765 C 235.563,145.806 235.515,145.848 235.468,145.891 C 235.422,145.934 235.376,145.978 235.332,146.023 C 235.287,146.069 235.245,146.116 235.203,146.163 C 235.161,146.211 235.12,146.259 235.081,146.31 C 235.041,146.359 235.002,146.41 234.966,146.462 C 234.929,146.514 234.894,146.566 234.86,146.62 C 234.825,146.674 234.793,146.728 234.761,146.783 C 234.73,146.839 234.7,146.894 234.672,146.951 C 234.643,147.008 234.616,147.066 234.591,147.124 C 234.565,147.182 234.541,147.241 234.518,147.3 C 234.496,147.359 234.475,147.419 234.456,147.48 C 234.436,147.54 234.418,147.601 234.402,147.663 C 234.386,147.724 234.371,147.786 234.358,147.848 C 234.334,147.97 234.315,148.094 234.302,148.218 C 234.291,148.341 234.284,148.465 234.284,148.59 C 234.284,148.715 234.291,148.839 234.303,148.963 C 234.315,149.087 234.335,149.21 234.359,149.332 C 234.384,149.454 234.415,149.574 234.452,149.694 C 234.489,149.813 234.532,149.93 234.58,150.044 C 234.629,150.16 234.683,150.271 234.742,150.381 C 234.802,150.49 234.867,150.596 234.938,150.699 C 235.593,151.645 236.522,152.066 237.625,152.262 Z" stroke="none" fill="#000000" stroke-width="0.21" fill-rule="evenodd" stroke-linejoin="miter" marker-start="none" marker-end="none" stroke-miterlimit="79.8403193612775"/>
    <path d="M 237.374,151.751 C 238.011,151.802 238.588,151.771 239.183,151.516 C 239.287,151.471 239.389,151.42 239.488,151.365 C 239.588,151.31 239.683,151.25 239.776,151.184 C 239.87,151.119 239.959,151.05 240.045,150.975 C 240.131,150.9 240.212,150.822 240.29,150.739 C 240.367,150.656 240.441,150.569 240.509,150.479 C 240.579,150.387 240.643,150.294 240.702,150.197 C 240.76,150.1 240.814,149.999 240.863,149.898 C 240.911,149.795 240.955,149.69 240.992,149.582 C 241.282,148.772 241.247,147.829 240.841,147.064 C 240.38,146.194 239.647,145.777 238.742,145.479 C 237.996,145.395 237.374,145.37 236.665,145.68 C 236.57,145.721 236.477,145.768 236.386,145.818 C 236.295,145.869 236.207,145.924 236.121,145.983 C 236.035,146.042 235.953,146.106 235.874,146.173 C 235.795,146.24 235.719,146.312 235.647,146.387 C 235.575,146.461 235.507,146.54 235.442,146.622 C 235.378,146.703 235.317,146.788 235.261,146.876 C 235.205,146.964 235.153,147.053 235.106,147.146 C 235.059,147.239 235.016,147.333 234.978,147.431 C 234.939,147.532 234.904,147.635 234.876,147.741 C 234.847,147.846 234.823,147.953 234.805,148.06 C 234.787,148.168 234.775,148.277 234.768,148.385 C 234.76,148.494 234.76,148.604 234.763,148.712 C 234.767,148.822 234.777,148.93 234.792,149.038 C 234.807,149.147 234.827,149.253 234.853,149.359 C 234.88,149.466 234.911,149.57 234.947,149.673 C 234.983,149.776 235.025,149.877 235.072,149.975 C 235.552,150.981 236.371,151.415 237.374,151.751 Z" stroke="none" fill="#ffffff" stroke-width="0.21" fill-rule="evenodd" stroke-linejoin="miter" marker-start="none" marker-end="none" stroke-miterlimit="79.8403193612775"/>
    <path d="M 78.851,172.5 L 137.218,172.491 L 137.311,171.776 C 134.183,171.074 129.351,168.756 126.401,167.31 C 123.071,165.676 120.008,163.667 116.983,161.537 C 103.432,151.995 93.649,139.308 88.269,123.598 C 85.137,123.627 82.005,123.629 78.873,123.605 C 78.791,128.021 78.865,132.454 78.864,136.873 L 78.851,172.5 Z" stroke="none" fill="#ffffff" stroke-width="0.21" fill-rule="evenodd" stroke-linejoin="miter" marker-start="none" marker-end="none" stroke-miterlimit="79.8403193612775"/>
    <path d="M 88.193,158.54 C 88.735,158.564 89.245,158.511 89.728,158.243 C 90.312,157.918 90.725,157.372 90.904,156.731 C 91.1,156.029 91.025,155.263 90.647,154.636 C 90.206,153.906 89.605,153.638 88.81,153.426 C 88.413,153.426 88.034,153.457 87.656,153.584 C 86.999,153.806 86.429,154.307 86.161,154.951 C 85.897,155.583 85.936,156.31 86.225,156.927 C 86.633,157.8 87.317,158.229 88.193,158.54 Z" stroke="none" fill="#000000" stroke-width="0.21" fill-rule="evenodd" stroke-linejoin="miter" marker-start="none" marker-end="none" stroke-miterlimit="79.8403193612775"/>
    <path d="M 88.087,158.025 C 88.506,158.067 88.918,158.076 89.312,157.905 C 89.374,157.878 89.435,157.847 89.494,157.815 C 89.554,157.782 89.611,157.746 89.667,157.707 C 89.723,157.668 89.776,157.626 89.827,157.583 C 89.879,157.538 89.928,157.491 89.975,157.442 C 90.022,157.392 90.066,157.341 90.107,157.287 C 90.148,157.233 90.187,157.177 90.222,157.119 C 90.258,157.061 90.29,157.002 90.32,156.941 C 90.35,156.88 90.376,156.817 90.399,156.754 C 90.424,156.686 90.445,156.618 90.462,156.549 C 90.479,156.479 90.493,156.409 90.504,156.338 C 90.514,156.267 90.521,156.196 90.525,156.124 C 90.528,156.052 90.528,155.981 90.524,155.909 C 90.521,155.838 90.513,155.767 90.503,155.696 C 90.492,155.625 90.478,155.555 90.46,155.486 C 90.442,155.417 90.421,155.348 90.397,155.28 C 90.372,155.214 90.345,155.147 90.313,155.083 C 89.997,154.428 89.496,154.162 88.837,153.923 C 88.492,153.93 88.172,153.952 87.843,154.063 C 87.326,154.238 86.851,154.591 86.615,155.094 C 86.405,155.542 86.403,156.047 86.568,156.511 C 86.838,157.266 87.396,157.676 88.087,158.025 Z" stroke="none" fill="#ffffff" stroke-width="0.21" fill-rule="evenodd" stroke-linejoin="miter" marker-start="none" marker-end="none" stroke-miterlimit="79.8403193612775"/>
    <path d="M 163.358,166.221 C 164.2,165.996 164.839,165.725 165.275,164.926 C 166.101,163.415 165.512,160.526 165.778,158.724 C 167.672,158.693 169.563,158.577 171.447,158.379 C 173.332,158.181 175.204,157.899 177.064,157.535 C 177.529,157.45 177.993,157.361 178.457,157.268 C 178.921,157.175 179.383,157.078 179.846,156.975 C 180.308,156.873 180.768,156.767 181.228,156.655 C 181.688,156.545 182.147,156.43 182.604,156.31 C 183.062,156.19 183.518,156.067 183.973,155.939 C 184.429,155.81 184.883,155.678 185.335,155.541 C 185.788,155.404 186.239,155.263 186.69,155.118 C 187.14,154.973 187.589,154.823 188.036,154.67 C 188.484,154.515 188.929,154.357 189.374,154.195 C 189.818,154.033 190.26,153.866 190.701,153.696 C 191.142,153.525 191.581,153.351 192.02,153.172 C 192.457,152.993 192.893,152.81 193.328,152.622 C 193.762,152.435 194.194,152.244 194.625,152.048 C 195.056,151.853 195.484,151.653 195.911,151.45 C 196.338,151.246 196.763,151.038 197.186,150.827 C 197.609,150.615 198.03,150.4 198.45,150.18 C 198.868,149.96 199.285,149.736 199.7,149.509 C 200.114,149.282 200.527,149.05 200.937,148.815 C 201.347,148.58 201.755,148.341 202.161,148.098 C 202.567,147.855 202.97,147.608 203.371,147.357 C 203.773,147.107 204.171,146.852 204.567,146.594 C 204.964,146.336 205.357,146.074 205.749,145.808 C 206.141,145.542 206.529,145.272 206.915,145 C 207.301,144.726 207.685,144.45 208.066,144.17 C 208.446,143.89 208.825,143.606 209.2,143.318 C 209.577,143.03 209.949,142.739 210.319,142.445 C 210.69,142.151 211.056,141.852 211.42,141.55 C 211.785,141.249 212.147,140.944 212.506,140.635 C 212.864,140.328 213.219,140.016 213.572,139.701 C 213.925,139.385 214.275,139.067 214.621,138.746 C 214.968,138.424 215.312,138.099 215.652,137.77 C 215.992,137.442 216.331,137.111 216.664,136.776 C 223.821,129.554 229.672,120.627 233.127,111.047 C 230.644,112.088 228.404,113.486 225.832,114.369 C 216.136,117.699 203.888,117.871 194.355,113.956 C 192.541,113.211 190.449,112.253 189.015,110.882 C 183.391,115.396 172.446,117.272 165.286,117.152 C 165.187,112.057 165.256,106.953 165.264,101.858 L 165.272,78.955 C 165.275,74.393 165.375,69.806 165.237,65.248 C 167.457,63.138 168.608,60.122 168.684,57.083 C 168.703,56.335 168.636,55.606 168.547,54.864 C 169.154,54.311 169.427,53.732 169.479,52.906 C 169.537,51.979 169.174,51.12 168.548,50.447 C 167.987,49.842 167.367,49.548 166.65,49.183 C 166.015,47.018 166.9,44.282 167.829,42.303 C 169.266,46.165 171.216,49.677 173.102,53.321 C 174.744,56.495 176.279,59.769 178.366,62.682 C 178.846,63.361 179.368,64.006 179.933,64.617 C 180.497,65.228 181.101,65.8 181.74,66.331 C 179.736,68.891 178.085,71.151 178.513,74.631 C 178.887,77.667 180.876,79.957 182.969,82.024 C 183.035,83.262 183.267,84.046 183.982,85.064 C 183.723,88.797 184.27,92.421 186.811,95.329 C 188.802,97.603 191.675,99.136 194.714,99.307 C 197.611,99.47 200.581,98.364 202.722,96.415 C 205.188,94.173 206.585,90.72 206.706,87.415 C 206.74,86.492 206.644,85.608 206.51,84.697 C 207.112,83.873 207.472,83.145 207.768,82.168 C 210.187,80.373 212.829,77.762 213.303,74.658 C 213.321,74.541 213.338,74.424 213.35,74.307 C 213.362,74.191 213.373,74.073 213.38,73.955 C 213.387,73.838 213.391,73.721 213.392,73.603 C 213.393,73.486 213.392,73.367 213.387,73.25 C 213.382,73.132 213.375,73.015 213.364,72.898 C 213.353,72.78 213.34,72.664 213.323,72.547 C 213.307,72.431 213.288,72.314 213.266,72.199 C 213.244,72.083 213.219,71.969 213.191,71.854 C 213.163,71.74 213.133,71.626 213.099,71.513 C 213.066,71.401 213.03,71.288 212.991,71.178 C 212.952,71.066 212.91,70.957 212.865,70.848 C 212.821,70.738 212.774,70.631 212.724,70.524 C 212.674,70.417 212.621,70.312 212.567,70.209 C 212.512,70.105 212.453,70.002 212.393,69.901 C 212.333,69.8 212.27,69.7 212.206,69.602 C 212.141,69.503 212.073,69.407 212.003,69.313 C 211.128,68.149 209.934,67.315 208.689,66.589 C 210.503,65.221 212.2,63.734 213.678,62.002 C 217.032,58.07 220.814,50.713 223.055,45.923 C 223.355,50.438 222.787,79.108 223.233,80.038 L 223.511,80.112 C 225.733,79.935 228.041,80.055 230.273,80.052 L 241.832,80.048 C 243.942,80.053 246.074,80.123 248.183,80.059 L 248.177,26.793 C 248.176,18.048 248.024,9.274 248.182,0.533 C 249.921,0.539 251.722,0.628 253.455,0.484 C 253.65,0.467 253.692,0.506 253.817,0.358 C 253.664,0.247 253.515,0.189 253.332,0.142 C 252.275,-0.133 250.728,0.073 249.605,0.079 L 243.152,0.083 L 212.691,0.019 L 128.727,0.024 C 110.966,0.05 93.181,0.279 75.422,0.066 C 74.971,0.06 74.354,-0.002 73.957,0.231 L 73.967,0.432 C 74.343,0.698 78.091,0.529 78.756,0.528 C 78.988,1.811 78.904,3.269 78.908,4.572 L 78.86,12.348 L 78.856,35.864 L 78.847,75.687 L 78.942,90.339 C 78.943,92.777 79.041,95.262 78.864,97.693 L 94.451,97.719 C 97.623,97.722 100.813,97.647 103.982,97.786 C 104.036,97.718 104.122,97.668 104.145,97.585 C 104.255,97.205 104.114,89.966 104.114,88.98 L 104.144,66.177 C 104.156,61.833 104.083,57.47 104.247,53.13 C 106.192,57.279 108.861,64.381 112.427,67.303 C 113.746,68.385 115.281,69.027 116.87,69.604 C 119.066,70.4 121.313,71.14 123.59,71.664 C 123.618,72.354 123.663,73.004 123.908,73.66 C 124.746,74.133 125.571,74.428 126.502,74.657 L 126.546,76.526 C 123.832,78.565 122.138,80.81 121.194,84.101 C 120.395,84.089 119.914,84.161 119.314,84.719 C 118.633,85.353 118.291,86.285 118.263,87.202 C 118.24,88.007 118.461,88.974 119.017,89.585 C 119.146,89.725 119.297,89.831 119.436,89.958 C 119.455,89.975 119.472,89.995 119.49,90.013 C 118.544,93.017 118.066,96.413 119.603,99.317 C 120.313,100.657 121.436,101.767 122.913,102.219 C 123.246,102.321 123.594,102.384 123.936,102.449 C 125.098,104.161 126.529,105.119 128.562,105.516 C 131.809,106.15 135.935,105.152 138.649,103.3 C 140.846,101.802 142.169,99.678 142.648,97.072 C 143.074,94.75 142.661,92.559 142.286,90.269 C 143.206,89.402 143.898,88.522 143.969,87.196 C 143.976,87.083 143.977,86.971 143.972,86.857 C 143.967,86.745 143.956,86.633 143.94,86.522 C 143.923,86.41 143.901,86.3 143.872,86.191 C 143.845,86.082 143.81,85.974 143.771,85.869 C 143.732,85.763 143.687,85.66 143.637,85.559 C 143.586,85.459 143.531,85.36 143.471,85.265 C 143.411,85.17 143.345,85.078 143.276,84.99 C 143.205,84.901 143.131,84.817 143.053,84.736 C 142.327,83.982 141.439,83.665 140.468,83.376 C 139.606,80.242 138.273,78.074 135.424,76.398 C 135.436,75.863 135.434,75.325 135.469,74.791 C 136.581,74.422 137.699,74.097 138.733,73.534 L 138.679,71.745 C 143.307,70.659 147.647,68.131 151.743,65.799 C 154.142,67.495 156.741,68.459 159.709,67.97 C 160.365,67.863 161.026,67.682 161.657,67.475 L 161.618,117.114 C 154.691,116.852 148.031,115.94 141.642,113.123 C 140.74,112.725 139.398,112.249 138.721,111.525 C 138.681,111.483 138.647,111.436 138.605,111.396 C 138.553,111.347 138.489,111.307 138.429,111.267 C 136.426,112.34 134.509,113.41 132.378,114.228 C 123.77,117.534 113.647,118.011 104.812,115.342 C 102.67,114.695 100.526,113.986 98.512,113.005 C 97.221,112.375 95.927,111.456 94.582,110.989 C 95.366,114.05 96.898,117.334 98.351,120.147 C 98.541,120.514 98.732,120.878 98.928,121.24 C 99.124,121.603 99.323,121.965 99.525,122.323 C 99.727,122.682 99.932,123.039 100.139,123.395 C 100.348,123.75 100.56,124.104 100.774,124.455 C 100.988,124.808 101.207,125.158 101.428,125.506 C 101.648,125.853 101.872,126.199 102.099,126.543 C 102.325,126.886 102.556,127.228 102.788,127.569 C 103.021,127.909 103.257,128.246 103.496,128.581 C 103.735,128.917 103.977,129.25 104.222,129.582 C 104.467,129.914 104.714,130.242 104.965,130.569 C 105.215,130.897 105.469,131.221 105.725,131.544 C 105.982,131.866 106.241,132.186 106.503,132.504 C 106.765,132.823 107.03,133.138 107.298,133.451 C 107.565,133.764 107.836,134.075 108.108,134.384 C 108.382,134.692 108.657,134.998 108.937,135.301 C 109.215,135.605 109.496,135.906 109.78,136.205 C 110.064,136.504 110.351,136.799 110.639,137.093 C 110.929,137.386 111.221,137.678 111.515,137.965 C 111.809,138.254 112.106,138.54 112.405,138.823 C 112.704,139.106 113.006,139.386 113.31,139.664 C 113.615,139.942 113.921,140.217 114.231,140.489 C 114.539,140.761 114.851,141.031 115.166,141.298 C 115.479,141.565 115.795,141.828 116.115,142.09 C 116.433,142.351 116.754,142.609 117.077,142.865 C 117.4,143.121 117.725,143.373 118.053,143.623 C 118.381,143.872 118.71,144.119 119.043,144.363 C 119.374,144.607 119.709,144.848 120.045,145.086 C 120.382,145.324 120.72,145.559 121.06,145.792 C 121.4,146.023 121.743,146.252 122.087,146.478 C 122.432,146.704 122.778,146.927 123.127,147.147 C 123.476,147.367 123.825,147.583 124.178,147.796 C 124.531,148.011 124.885,148.221 125.24,148.428 C 125.803,148.76 126.369,149.085 126.939,149.402 C 127.51,149.718 128.085,150.028 128.663,150.33 C 129.243,150.632 129.825,150.926 130.411,151.213 C 130.998,151.499 131.588,151.778 132.182,152.048 C 132.776,152.32 133.373,152.583 133.974,152.837 C 134.575,153.093 135.178,153.34 135.786,153.579 C 136.393,153.819 137.003,154.05 137.617,154.273 C 138.23,154.496 138.847,154.712 139.465,154.918 C 140.084,155.125 140.706,155.324 141.33,155.515 C 141.955,155.705 142.581,155.887 143.21,156.062 C 143.84,156.235 144.471,156.401 145.104,156.559 C 145.738,156.716 146.374,156.865 147.011,157.006 C 147.648,157.146 148.287,157.279 148.928,157.402 C 149.569,157.526 150.211,157.642 150.855,157.748 C 151.499,157.856 152.144,157.954 152.79,158.044 C 153.437,158.134 154.084,158.215 154.733,158.288 C 156.763,158.524 158.824,158.624 160.862,158.751 C 160.862,160.165 160.615,163.074 160.994,164.334 C 161.128,164.781 161.37,165.167 161.708,165.488 C 162.173,165.929 162.75,166.085 163.358,166.221 Z" stroke="none" fill="#000000" stroke-width="0.21" fill-rule="evenodd" stroke-linejoin="miter" marker-start="none" marker-end="none" stroke-miterlimit="79.8403193612775"/>
    <path d="M 125.268,29.172 L 125.714,29.077 C 125.794,27.935 126.01,27.479 126.807,26.678 C 126.078,26.816 125.446,27.083 124.788,27.411 C 124.957,27.995 125.117,28.583 125.268,29.172 Z" stroke="none" fill="#ffd6b2" stroke-width="0.21" fill-rule="evenodd" stroke-linejoin="miter" marker-start="none" marker-end="none" stroke-miterlimit="79.8403193612775"/>
    <path d="M 126.35,74.143 C 126.459,74.099 126.397,74.137 126.494,73.976 C 126.478,73.522 126.521,72.892 126.286,72.492 C 126.2,72.347 126.141,72.371 125.991,72.333 L 125.613,72.624 C 125.263,72.937 124.951,73.289 124.631,73.632 C 125.2,73.814 125.773,73.984 126.35,74.143 Z" stroke="none" fill="#ffffff" stroke-width="0.21" fill-rule="evenodd" stroke-linejoin="miter" marker-start="none" marker-end="none" stroke-miterlimit="79.8403193612775"/>
    <path d="M 135.486,74.239 C 136.248,74.053 136.985,73.85 137.723,73.588 L 136.949,72.981 C 136.712,72.778 136.465,72.585 136.22,72.393 C 135.93,72.344 135.938,72.332 135.692,72.487 C 135.42,72.965 135.476,73.699 135.486,74.239 Z" stroke="none" fill="#ffffff" stroke-width="0.21" fill-rule="evenodd" stroke-linejoin="miter" marker-start="none" marker-end="none" stroke-miterlimit="79.8403193612775"/>
    <path d="M 142.712,30.209 C 142.967,30.164 143.298,30.131 143.522,29.993 C 143.817,29.811 144.009,29.559 144.079,29.216 C 144.21,28.574 143.857,27.918 143.53,27.394 C 143.496,27.377 143.463,27.357 143.429,27.342 C 143.15,27.216 142.94,27.19 142.659,27.309 C 142.23,27.97 142.616,29.443 142.712,30.209 Z" stroke="none" fill="#ffffff" stroke-width="0.21" fill-rule="evenodd" stroke-linejoin="miter" marker-start="none" marker-end="none" stroke-miterlimit="79.8403193612775"/>
    <path d="M 127.449,30.255 C 127.773,29.806 127.837,28.674 127.876,28.108 C 127.908,27.636 127.917,27.385 127.604,27.02 C 127.396,26.948 127.27,26.911 127.051,26.943 C 126.679,27.594 126.094,28.377 126.267,29.167 C 126.391,29.732 126.991,30.016 127.449,30.255 Z" stroke="none" fill="#ffffff" stroke-width="0.21" fill-rule="evenodd" stroke-linejoin="miter" marker-start="none" marker-end="none" stroke-miterlimit="79.8403193612775"/>
    <path d="M 179.18,31.865 C 179.449,31.793 179.519,31.797 179.661,31.534 C 179.92,31.05 180.569,28.782 180.441,28.222 L 180.174,28.219 C 179.619,28.516 179.212,28.779 178.863,29.316 C 178.513,29.856 178.33,30.421 178.498,31.057 C 178.611,31.479 178.817,31.644 179.18,31.865 Z" stroke="none" fill="#ffffff" stroke-width="0.21" fill-rule="evenodd" stroke-linejoin="miter" marker-start="none" marker-end="none" stroke-miterlimit="79.8403193612775"/>
    <path d="M 196.372,31.861 C 196.765,31.761 197.13,31.672 197.372,31.311 C 197.622,30.937 197.668,30.462 197.571,30.03 C 197.399,29.268 196.999,28.805 196.364,28.384 C 196.044,28.264 195.755,28.128 195.407,28.153 L 195.483,28.352 L 195.386,28.24 C 195.596,29.43 195.987,30.712 196.372,31.861 Z" stroke="none" fill="#ffffff" stroke-width="0.21" fill-rule="evenodd" stroke-linejoin="miter" marker-start="none" marker-end="none" stroke-miterlimit="79.8403193612775"/>
    <path d="M 118.697,18.784 C 119.685,18.551 120.668,18.299 121.647,18.028 C 121.734,17.54 121.807,17.049 121.869,16.557 C 121.113,16.486 119.746,16.198 119.141,16.724 C 118.612,17.183 118.711,18.155 118.697,18.784 Z" stroke="none" fill="#114446" stroke-width="0.21" fill-rule="evenodd" stroke-linejoin="miter" marker-start="none" marker-end="none" stroke-miterlimit="79.8403193612775"/>
    <path d="M 125.268,29.172 C 125.194,30.527 125.29,31.745 126.257,32.799 C 126.445,33.004 126.702,33.241 126.99,33.27 C 127.128,33.284 127.222,33.184 127.334,33.114 C 127.68,32.632 127.514,31.218 127.537,30.618 C 126.855,30.419 126.288,30.208 125.938,29.547 C 125.857,29.394 125.785,29.235 125.714,29.077 L 125.268,29.172 Z" stroke="none" fill="#ffffff" stroke-width="0.21" fill-rule="evenodd" stroke-linejoin="miter" marker-start="none" marker-end="none" stroke-miterlimit="79.8403193612775"/>
    <path d="M 166.819,54.828 C 167.325,54.798 167.889,54.755 168.299,54.427 C 168.736,54.077 168.958,53.558 168.991,53.007 C 169.051,52.018 168.632,51.225 168.01,50.498 C 167.591,50.158 167.195,49.955 166.7,49.753 C 166.883,51.416 166.876,53.157 166.819,54.828 Z" stroke="none" fill="#ffffff" stroke-width="0.21" fill-rule="evenodd" stroke-linejoin="miter" marker-start="none" marker-end="none" stroke-miterlimit="79.8403193612775"/>
    <path d="M 119.836,89.853 C 120.194,89.84 120.421,89.88 120.728,89.687 C 120.863,89.443 120.93,89.214 120.953,88.934 C 121.018,88.187 120.857,87.412 120.88,86.657 C 120.899,86.037 121.133,85.323 121.022,84.719 C 120.71,84.57 120.387,84.643 120.056,84.676 C 119.898,84.792 119.737,84.913 119.596,85.05 C 118.96,85.672 118.672,86.681 118.716,87.55 C 118.766,88.518 119.131,89.21 119.836,89.853 Z" stroke="none" fill="#f4be24" stroke-width="0.21" fill-rule="evenodd" stroke-linejoin="miter" marker-start="none" marker-end="none" stroke-miterlimit="79.8403193612775"/>
    <path d="M 142.163,89.699 C 142.507,89.46 142.827,89.146 143.039,88.782 C 143.484,88.018 143.583,87.021 143.326,86.176 C 143.014,85.151 142.329,84.61 141.407,84.145 C 141.104,84.033 140.824,83.949 140.506,83.891 L 140.43,84.064 C 140.569,85.763 141.491,88.123 142.163,89.699 Z" stroke="none" fill="#f4be24" stroke-width="0.21" fill-rule="evenodd" stroke-linejoin="miter" marker-start="none" marker-end="none" stroke-miterlimit="79.8403193612775"/>
    <path d="M 185.256,85.125 C 185.557,85.159 185.794,85.2 186.085,85.086 C 186.181,84.579 185.949,83.843 185.921,83.309 C 185.861,82.121 186.109,80.976 186.376,79.826 C 185.973,79.891 185.573,79.993 185.175,80.084 C 184.595,80.4 184.163,80.751 183.839,81.337 C 183.795,81.415 183.755,81.495 183.72,81.576 C 183.685,81.658 183.653,81.742 183.626,81.827 C 183.599,81.912 183.576,81.999 183.558,82.085 C 183.54,82.173 183.526,82.262 183.517,82.35 C 183.508,82.439 183.503,82.527 183.503,82.617 C 183.503,82.706 183.507,82.795 183.515,82.884 C 183.525,82.972 183.538,83.061 183.556,83.148 C 183.573,83.235 183.596,83.322 183.623,83.407 C 183.909,84.298 184.444,84.731 185.256,85.125 Z" stroke="none" fill="#ffffff" stroke-width="0.21" fill-rule="evenodd" stroke-linejoin="miter" marker-start="none" marker-end="none" stroke-miterlimit="79.8403193612775"/>
    <path d="M 147.971,55.445 C 148.292,55.441 148.64,55.49 148.907,55.284 C 149.158,54.137 149.026,51.467 149.099,50.109 C 148.718,50.21 148.347,50.357 147.976,50.491 C 147.524,50.742 147.131,51.029 146.854,51.476 C 146.805,51.554 146.761,51.635 146.72,51.718 C 146.68,51.801 146.644,51.885 146.613,51.972 C 146.58,52.059 146.553,52.147 146.53,52.236 C 146.507,52.326 146.488,52.415 146.474,52.507 C 146.459,52.598 146.45,52.69 146.445,52.782 C 146.44,52.874 146.439,52.966 146.443,53.059 C 146.448,53.15 146.456,53.242 146.469,53.334 C 146.482,53.424 146.5,53.515 146.522,53.605 C 146.73,54.459 147.241,54.998 147.971,55.445 Z" stroke="none" fill="#ffffff" stroke-width="0.21" fill-rule="evenodd" stroke-linejoin="miter" marker-start="none" marker-end="none" stroke-miterlimit="79.8403193612775"/>
    <path d="M 204.372,85.118 C 205.043,85.136 205.474,85.014 206.005,84.583 C 206.082,84.52 206.157,84.453 206.227,84.384 C 206.298,84.313 206.364,84.24 206.427,84.163 C 206.49,84.085 206.549,84.005 206.604,83.923 C 206.658,83.839 206.708,83.753 206.754,83.665 C 206.8,83.577 206.842,83.486 206.878,83.394 C 206.914,83.301 206.947,83.207 206.973,83.112 C 207,83.015 207.022,82.918 207.039,82.82 C 207.055,82.722 207.068,82.624 207.074,82.525 C 207.121,81.726 206.813,81.151 206.292,80.572 C 206.002,80.39 205.727,80.227 205.395,80.13 C 205.002,80.015 204.749,79.993 204.389,80.199 C 204.257,80.929 204.401,81.819 204.41,82.569 C 204.419,83.418 204.372,84.268 204.372,85.118 Z" stroke="none" fill="#ffffff" stroke-width="0.21" fill-rule="evenodd" stroke-linejoin="miter" marker-start="none" marker-end="none" stroke-miterlimit="79.8403193612775"/>
    <path d="M 113.157,42.512 C 113.406,41.901 113.039,35.159 113.004,33.928 L 111.146,34.485 C 110.861,34.565 110.641,34.637 110.383,34.788 C 110.297,35.56 112.64,41.486 113.157,42.512 Z" stroke="none" fill="#ffffff" stroke-width="0.21" fill-rule="evenodd" stroke-linejoin="miter" marker-start="none" marker-end="none" stroke-miterlimit="79.8403193612775"/>
    <path d="M 132.985,21.475 C 134.43,21.082 135.736,21.127 137.214,21.28 C 137.235,20.333 137.411,19.373 137.348,18.426 C 137.316,17.953 137.243,17.851 136.9,17.555 C 136.399,17.331 135.928,17.215 135.377,17.188 C 134.689,17.155 133.62,17.146 133.122,17.702 C 132.67,18.204 132.996,20.718 132.985,21.475 Z" stroke="none" fill="#ffffff" stroke-width="0.21" fill-rule="evenodd" stroke-linejoin="miter" marker-start="none" marker-end="none" stroke-miterlimit="79.8403193612775"/>
    <path d="M 165.912,46.789 C 165.947,46.744 165.992,46.705 166.018,46.654 C 166.259,46.188 167.332,42.068 167.345,41.51 C 167.361,40.852 167.091,40.202 166.867,39.595 C 166.217,39.855 165.553,40.082 164.893,40.317 C 164.352,40.499 163.688,40.407 163.241,40.801 C 162.862,41.133 162.818,42.731 162.751,43.284 C 164.111,44.233 165.224,45.255 165.912,46.789 Z" stroke="none" fill="#0d468f" stroke-width="0.21" fill-rule="evenodd" stroke-linejoin="miter" marker-start="none" marker-end="none" stroke-miterlimit="79.8403193612775"/>
    <path d="M 184.693,22.761 C 186.912,22.079 188.74,22.066 191.004,22.491 C 191.056,21.325 191.221,20.395 190.515,19.395 C 189.676,18.763 188.61,18.577 187.574,18.615 C 186.708,18.647 185.767,18.852 185.173,19.534 C 184.426,20.393 184.638,21.718 184.693,22.761 Z" stroke="none" fill="#ffffff" stroke-width="0.21" fill-rule="evenodd" stroke-linejoin="miter" marker-start="none" marker-end="none" stroke-miterlimit="79.8403193612775"/>
    <path d="M 211.793,39.679 C 212.658,38.89 216.665,30.235 217.418,28.568 C 216.642,27.858 215.831,27.182 215.034,26.495 C 213.959,25.604 212.89,24.706 211.826,23.802 C 211.865,29.094 211.854,34.387 211.793,39.679 Z" stroke="none" fill="#17b3c6" stroke-width="0.21" fill-rule="evenodd" stroke-linejoin="miter" marker-start="none" marker-end="none" stroke-miterlimit="79.8403193612775"/>
    <path d="M 201.814,17.224 C 202.775,17.288 203.747,16.954 204.561,16.462 C 206.465,15.312 207.995,13.154 208.543,11.01 C 207.657,10.019 206.63,9.298 205.448,8.704 C 204.765,8.378 204.094,8.099 203.374,7.861 C 202.139,11.306 201.709,13.652 199.366,16.683 C 200.176,16.997 200.956,17.135 201.814,17.224 Z" stroke="none" fill="#f4be24" stroke-width="0.21" fill-rule="evenodd" stroke-linejoin="miter" marker-start="none" marker-end="none" stroke-miterlimit="79.8403193612775"/>
    <path d="M 148.334,49.857 C 149.31,49.655 149.47,48.055 149.848,47.231 C 150.847,45.044 152.329,43.876 154.407,42.781 C 154.303,42.373 154.18,41.964 154.015,41.575 C 153.58,40.555 152.444,40.646 151.545,40.38 C 151.07,40.241 150.604,40.042 150.147,39.856 C 148.589,39.264 147.618,38.496 146.402,37.385 C 146.571,41.53 146.503,46.104 148.334,49.857 Z" stroke="none" fill="#0d468f" stroke-width="0.21" fill-rule="evenodd" stroke-linejoin="miter" marker-start="none" marker-end="none" stroke-miterlimit="79.8403193612775"/>
    <path d="M 126.971,76.315 C 127.103,76.252 127.237,76.19 127.371,76.131 C 130.099,74.922 132.231,75.155 134.945,76.212 C 134.929,74.68 135.016,73.154 135.424,71.673 C 134.923,71.165 134.352,70.716 133.806,70.256 L 130.998,67.913 C 129.453,69.06 127.939,70.419 126.525,71.724 C 126.982,73.206 126.943,74.779 126.971,76.315 Z" stroke="none" fill="#ffffff" stroke-width="0.21" fill-rule="evenodd" stroke-linejoin="miter" marker-start="none" marker-end="none" stroke-miterlimit="79.8403193612775"/>
    <path d="M 124.584,26.934 C 125.025,26.683 125.602,26.425 126.094,26.304 C 126.849,26.119 127.295,26.28 127.946,26.66 C 128.351,25.583 128.778,24.561 129.534,23.677 C 130.208,22.889 132.381,21.821 132.625,21.059 C 132.351,20.335 130.865,20.023 130.204,19.563 L 130.093,19.484 L 129.363,18.655 C 128.018,18.779 126.704,19.181 125.38,19.439 C 124.406,19.627 123.42,19.707 122.432,19.785 C 123.1,22.182 123.818,24.565 124.584,26.934 Z" stroke="none" fill="#ffffff" stroke-width="0.21" fill-rule="evenodd" stroke-linejoin="miter" marker-start="none" marker-end="none" stroke-miterlimit="79.8403193612775"/>
    <path d="M 147.217,26.964 L 147.284,26.894 C 147.204,26.227 145.839,23.174 145.505,22.242 C 144.765,20.179 144.149,18.062 143.474,15.978 C 142.271,16.992 141.089,17.744 139.647,18.376 C 139.052,18.612 138.426,18.774 137.811,18.953 C 137.703,19.786 137.721,20.64 137.706,21.48 C 138.176,21.687 138.629,21.913 139.072,22.175 C 140.934,23.286 141.954,24.668 142.484,26.773 L 142.966,26.58 C 144.433,25.983 145.777,26.562 147.217,26.964 Z" stroke="none" fill="#f4be24" stroke-width="0.21" fill-rule="evenodd" stroke-linejoin="miter" marker-start="none" marker-end="none" stroke-miterlimit="79.8403193612775"/>
    <path d="M 138.267,73.337 C 138.306,70.984 137.756,68.537 137.397,66.215 C 137.265,65.227 137.095,64.243 136.941,63.257 C 134.866,64.13 132.9,65.67 131.111,67.021 C 129.187,65.609 127.066,64.513 125.125,63.132 C 124.656,65.071 123.772,71.371 124.11,73.157 C 125.455,72.496 129.506,68.492 131.024,67.234 C 131.89,68.187 132.981,68.955 133.958,69.789 C 135.357,70.985 136.694,72.371 138.267,73.337 Z" stroke="none" fill="#ffffff" stroke-width="0.21" fill-rule="evenodd" stroke-linejoin="miter" marker-start="none" marker-end="none" stroke-miterlimit="79.8403193612775"/>
    <path d="M 162.179,42.988 C 162.671,42.835 162.189,40.734 163.657,39.544 L 163.761,39.461 C 163.958,38.774 163.673,37.908 163.353,37.299 C 162.65,35.965 161.382,35.089 159.956,34.676 C 158.181,34.162 156.557,34.392 154.95,35.292 C 154.746,35.428 154.545,35.569 154.35,35.717 C 153.149,36.638 152.654,37.942 152.474,39.391 C 153.984,40.042 154.354,41.146 154.966,42.548 C 157.498,41.831 159.743,42.053 162.179,42.988 Z" stroke="none" fill="#ffffff" stroke-width="0.21" fill-rule="evenodd" stroke-linejoin="miter" marker-start="none" marker-end="none" stroke-miterlimit="79.8403193612775"/>
    <path d="M 213.994,12.688 L 214.125,12.64 C 213.766,8.632 213.776,4.549 213.667,0.526 L 204.668,0.485 L 204.486,1.762 C 204.247,3.65 203.928,5.497 203.496,7.35 C 204.785,7.755 206.153,8.367 207.25,9.166 C 207.721,9.509 208.218,10.257 208.74,10.441 L 208.788,10.124 L 209.012,9.985 C 209.777,9.892 213.117,12.176 213.994,12.688 Z" stroke="none" fill="#ffffff" stroke-width="0.21" fill-rule="evenodd" stroke-linejoin="miter" marker-start="none" marker-end="none" stroke-miterlimit="79.8403193612775"/>
    <path d="M 135.102,40.964 C 136.681,41.015 138.102,40.59 139.39,39.679 C 139.491,39.608 139.59,39.534 139.687,39.458 C 139.784,39.381 139.88,39.303 139.973,39.222 C 140.066,39.141 140.158,39.057 140.247,38.971 C 140.336,38.885 140.423,38.798 140.508,38.707 C 140.592,38.618 140.674,38.525 140.755,38.431 C 140.835,38.336 140.913,38.24 140.988,38.142 C 141.063,38.044 141.136,37.944 141.206,37.842 C 141.276,37.74 141.343,37.637 141.409,37.531 C 141.474,37.426 141.536,37.32 141.596,37.211 C 141.655,37.102 141.712,36.993 141.766,36.881 C 141.82,36.771 141.871,36.658 141.92,36.544 C 141.968,36.431 142.014,36.315 142.056,36.199 C 142.099,36.084 142.139,35.967 142.175,35.848 C 142.212,35.73 142.247,35.611 142.277,35.492 C 142.308,35.372 142.335,35.251 142.36,35.13 C 142.385,35.009 142.407,34.887 142.425,34.765 C 142.487,34.344 142.498,33.822 142.198,33.481 C 141.662,32.874 136.694,32.597 135.637,32.54 C 133.025,32.522 130.568,32.851 127.997,33.278 C 128.012,35.224 128.504,37.072 129.807,38.557 C 131.219,40.166 133.012,40.817 135.102,40.964 Z" stroke="none" fill="#f4be24" stroke-width="0.21" fill-rule="evenodd" stroke-linejoin="miter" marker-start="none" marker-end="none" stroke-miterlimit="79.8403193612775"/>
    <path d="M 113.176,16.208 C 114.614,16.212 116.062,16.246 117.499,16.195 C 118.467,16.161 119.437,16.037 120.405,16.033 C 122.422,16.026 124.432,16.139 126.453,16.111 C 124.307,14.324 122.694,11.555 121.588,9.029 C 121.018,7.549 120.525,6.09 120.185,4.535 C 117.823,4.44 115.457,4.461 113.093,4.464 L 113.176,16.208 Z" stroke="none" fill="#1ba881" stroke-width="0.21" fill-rule="evenodd" stroke-linejoin="miter" marker-start="none" marker-end="none" stroke-miterlimit="79.8403193612775"/>
    <path d="M 183.041,81.42 C 183.609,81.221 184.202,80.028 185.059,79.653 C 185.485,79.466 186.032,79.417 186.49,79.343 C 187.212,77.821 187.91,76.502 189.079,75.266 C 189.508,74.812 190.129,74.395 190.497,73.909 C 190.906,73.37 190.302,70.722 190.205,69.935 C 188.524,69.362 186.774,69.062 185.131,68.379 C 184.113,67.879 183.171,67.28 182.218,66.67 C 182.019,66.83 181.826,66.998 181.641,67.175 C 180.046,68.705 178.895,71.397 178.857,73.604 C 178.801,76.915 180.881,79.205 183.041,81.42 Z" stroke="none" fill="#001940" stroke-width="0.21" fill-rule="evenodd" stroke-linejoin="miter" marker-start="none" marker-end="none" stroke-miterlimit="79.8403193612775"/>
    <path d="M 191.066,73.723 L 191.276,73.62 C 194.207,72.198 196.506,72.431 199.514,73.478 C 199.535,72.124 200.017,70.763 199.988,69.453 C 199.959,68.178 199.477,66.776 199.18,65.538 C 198.383,62.302 197.545,59.077 196.665,55.863 L 195.453,51.708 C 194.309,54.928 193.603,58.389 192.714,61.692 C 192.144,63.81 190.897,67.541 190.724,69.528 C 190.608,70.844 191.027,72.371 191.066,73.723 Z" stroke="none" fill="#ffffff" stroke-width="0.21" fill-rule="evenodd" stroke-linejoin="miter" marker-start="none" marker-end="none" stroke-miterlimit="79.8403193612775"/>
    <path d="M 207.337,81.676 C 207.388,81.659 207.438,81.646 207.488,81.627 C 209.071,81.034 211.586,78.017 212.291,76.5 C 213.069,74.827 213.267,72.981 212.611,71.23 C 211.806,69.08 210.126,67.864 208.114,66.93 C 207.539,67.268 206.962,67.602 206.382,67.931 C 205.635,68.267 200.599,70.018 200.491,70.16 C 199.919,70.909 200.003,72.843 200.051,73.753 C 202.2,75.382 203.728,77.022 204.232,79.734 C 204.856,79.653 205.47,79.528 206.062,79.817 C 206.786,80.168 207.068,80.973 207.337,81.676 Z" stroke="none" fill="#001940" stroke-width="0.21" fill-rule="evenodd" stroke-linejoin="miter" marker-start="none" marker-end="none" stroke-miterlimit="79.8403193612775"/>
    <path d="M 140.463,32.575 C 140.74,32.312 140.723,31.443 141.034,31.056 C 141.253,30.784 141.651,30.507 141.995,30.481 L 142.093,30.745 L 142.173,30.735 C 142.456,29.234 142.136,26.337 141.363,25.03 C 140.433,23.459 138.697,22.207 136.922,21.793 C 134.894,21.32 132.94,21.768 131.202,22.85 C 130.923,23.05 130.645,23.256 130.386,23.482 C 128.189,25.401 128.252,27.784 128.102,30.444 C 128.401,30.527 128.694,30.612 128.95,30.796 C 129.489,31.181 129.561,31.869 129.678,32.471 C 133.36,32.009 136.787,32.123 140.463,32.575 Z" stroke="none" fill="#ffffff" stroke-width="0.21" fill-rule="evenodd" stroke-linejoin="miter" marker-start="none" marker-end="none" stroke-miterlimit="79.8403193612775"/>
    <path d="M 131.543,29.41 C 131.702,29.415 131.882,29.431 132.039,29.403 C 132.303,29.356 132.411,29.234 132.562,29.031 C 132.59,28.671 132.48,28.514 132.296,28.225 C 132.155,28.216 131.97,28.191 131.827,28.217 C 131.557,28.267 131.45,28.414 131.311,28.627 C 131.289,28.994 131.359,29.111 131.543,29.41 Z" stroke="none" fill="#000000" stroke-width="0.21" fill-rule="evenodd" stroke-linejoin="miter" marker-start="none" marker-end="none" stroke-miterlimit="79.8403193612775"/>
    <path d="M 136.877,26.286 C 136.906,26.134 136.912,26.021 136.871,25.867 C 136.808,25.626 136.674,25.464 136.459,25.342 C 135.744,24.937 134.79,25.148 134.051,25.367 L 134.053,25.741 L 134.17,25.839 C 134.584,25.757 135.006,25.679 135.427,25.65 C 136.059,25.605 136.423,25.879 136.877,26.286 Z" stroke="none" fill="#000000" stroke-width="0.21" fill-rule="evenodd" stroke-linejoin="miter" marker-start="none" marker-end="none" stroke-miterlimit="79.8403193612775"/>
    <path d="M 138.74,29.522 C 138.968,29.488 139.238,29.447 139.429,29.307 C 139.665,29.132 139.676,28.997 139.72,28.731 C 139.629,28.405 139.477,28.281 139.234,28.068 C 139.037,28.1 138.799,28.148 138.632,28.261 C 138.392,28.423 138.358,28.556 138.289,28.815 C 138.362,29.172 138.483,29.291 138.74,29.522 Z" stroke="none" fill="#000000" stroke-width="0.21" fill-rule="evenodd" stroke-linejoin="miter" marker-start="none" marker-end="none" stroke-miterlimit="79.8403193612775"/>
    <path d="M 222.858,19.26 C 223.091,18.998 222.949,2.778 222.956,0.476 C 220.076,0.447 217.197,0.447 214.317,0.475 L 214.159,0.594 C 214.104,3.466 214.3,6.387 214.399,9.261 C 214.441,10.502 214.536,11.764 214.461,13.004 C 217.195,15.168 220.108,17.103 222.858,19.26 Z" stroke="none" fill="#ffffff" stroke-width="0.21" fill-rule="evenodd" stroke-linejoin="miter" marker-start="none" marker-end="none" stroke-miterlimit="79.8403193612775"/>
    <path d="M 162.062,117.122 L 164.82,117.14 L 164.823,82.397 L 164.811,72.275 C 164.806,70.081 164.843,67.877 164.714,65.686 C 163.829,66.148 162.997,66.844 162.118,67.35 C 162.023,72.854 162.113,78.375 162.106,83.882 L 162.062,117.122 Z" stroke="none" fill="#bc4431" stroke-width="0.21" fill-rule="evenodd" stroke-linejoin="miter" marker-start="none" marker-end="none" stroke-miterlimit="79.8403193612775"/>
    <path d="M 156.911,67.54 C 157.686,67.598 158.463,67.624 159.237,67.527 C 161.889,67.194 164.412,65.659 166.019,63.535 C 167.87,61.089 168.481,58.16 168.07,55.149 L 166.751,55.295 C 166.299,58.077 165.497,60.075 163.931,62.397 C 163.458,61.769 162.967,61.155 162.457,60.556 C 162.054,60.107 161.624,59.686 161.167,59.293 C 158.656,57.171 154.866,55.902 151.606,55.782 C 150.52,55.741 149.433,55.869 148.353,55.951 C 148.17,58.788 148.901,61.435 150.598,63.735 C 152.167,65.862 154.297,67.156 156.911,67.54 Z" stroke="none" fill="#0d468f" stroke-width="0.21" fill-rule="evenodd" stroke-linejoin="miter" marker-start="none" marker-end="none" stroke-miterlimit="79.8403193612775"/>
    <path d="M 104.249,22.749 C 107.111,22.076 109.954,21.336 112.78,20.528 C 112.607,13.875 112.646,7.198 112.555,0.541 C 111.678,0.412 110.673,0.493 109.784,0.493 L 104.195,0.503 C 104.145,2.993 104.205,5.493 104.203,7.985 C 104.18,12.907 104.195,17.827 104.249,22.749 Z" stroke="none" fill="#ffffff" stroke-width="0.21" fill-rule="evenodd" stroke-linejoin="miter" marker-start="none" marker-end="none" stroke-miterlimit="79.8403193612775"/>
    <path d="M 182.883,38.075 C 185.681,36.704 188.453,35.997 191.489,37.063 C 192.042,37.258 192.547,37.503 193.05,37.803 C 193.678,36.401 194.388,33.546 195.758,32.767 C 195.893,31.095 194.626,27.056 193.778,25.632 C 192.958,24.254 191.738,23.253 190.158,22.871 C 188.18,22.394 185.778,22.607 184.035,23.706 C 181.29,25.436 180.661,29.454 180.018,32.406 C 180.384,32.769 180.714,33.124 181.02,33.542 C 181.973,34.795 182.399,36.595 182.883,38.075 Z" stroke="none" fill="#ffffff" stroke-width="0.21" fill-rule="evenodd" stroke-linejoin="miter" marker-start="none" marker-end="none" stroke-miterlimit="79.8403193612775"/>
    <path d="M 184.349,32.077 C 184.514,32.054 184.737,32.038 184.886,31.963 C 185.133,31.841 185.172,31.686 185.246,31.449 C 185.188,31.086 185.078,30.951 184.825,30.689 C 184.715,30.709 184.542,30.729 184.437,30.777 C 184.169,30.899 184.134,30.98 184.01,31.23 C 184.027,31.593 184.158,31.783 184.349,32.077 Z" stroke="none" fill="#000000" stroke-width="0.21" fill-rule="evenodd" stroke-linejoin="miter" marker-start="none" marker-end="none" stroke-miterlimit="79.8403193612775"/>
    <path d="M 190.307,32.041 C 190.466,32.023 190.649,32.012 190.802,31.961 C 191.058,31.874 191.143,31.724 191.261,31.498 C 191.261,31.151 191.16,30.999 190.973,30.724 C 190.819,30.733 190.59,30.726 190.449,30.785 C 190.172,30.901 190.134,31.013 190.021,31.267 C 190.034,31.614 190.12,31.765 190.307,32.041 Z" stroke="none" fill="#000000" stroke-width="0.21" fill-rule="evenodd" stroke-linejoin="miter" marker-start="none" marker-end="none" stroke-miterlimit="79.8403193612775"/>
    <path d="M 186.239,28.214 C 186.403,28.179 186.571,28.148 186.735,28.108 C 186.887,28.072 187.041,28.044 187.196,28.026 C 187.352,28.008 187.508,27.999 187.664,27.999 C 187.821,27.999 187.978,28.008 188.133,28.026 C 188.288,28.044 188.443,28.072 188.594,28.108 C 188.816,28.16 188.827,28.111 189.027,28.018 L 189.068,27.814 C 188.667,27.568 188.31,27.45 187.836,27.424 C 187.41,27.401 186.727,27.4 186.402,27.734 C 186.218,27.922 186.233,27.968 186.239,28.214 Z" stroke="none" fill="#000000" stroke-width="0.21" fill-rule="evenodd" stroke-linejoin="miter" marker-start="none" marker-end="none" stroke-miterlimit="79.8403193612775"/>
    <path d="M 194.332,98.806 C 194.761,98.867 195.24,98.864 195.671,98.833 C 195.857,98.822 196.042,98.806 196.227,98.785 C 196.412,98.764 196.595,98.738 196.778,98.707 C 196.961,98.678 197.144,98.644 197.326,98.605 C 197.507,98.565 197.688,98.521 197.868,98.473 C 198.047,98.424 198.225,98.372 198.402,98.315 C 198.578,98.258 198.754,98.197 198.928,98.131 C 199.102,98.065 199.274,97.995 199.444,97.92 C 199.614,97.846 199.783,97.767 199.949,97.684 C 200.115,97.601 200.279,97.514 200.441,97.424 C 200.603,97.332 200.763,97.237 200.921,97.138 C 201.078,97.04 201.232,96.937 201.385,96.83 C 201.536,96.724 201.686,96.613 201.832,96.499 C 201.979,96.384 202.123,96.267 202.263,96.145 C 202.404,96.024 202.541,95.899 202.677,95.772 C 202.811,95.643 202.942,95.512 203.07,95.377 C 203.198,95.242 203.323,95.105 203.444,94.964 C 205.721,92.274 206.514,88.442 206.213,85 C 205.715,85.323 205.194,85.468 204.632,85.636 C 204.53,86.305 204.07,86.182 203.516,86.204 C 199.841,86.347 196.51,87.392 193.81,89.988 C 192.983,90.862 192.453,91.83 191.938,92.908 C 191.083,92.171 190.32,91.382 189.747,90.401 C 188.764,88.718 188.337,87.053 186.864,85.67 C 185.94,85.68 185.265,85.603 184.406,85.246 C 184.007,88.369 184.763,91.828 186.637,94.38 C 188.533,96.964 191.208,98.337 194.332,98.806 Z" stroke="none" fill="#0d468f" stroke-width="0.21" fill-rule="evenodd" stroke-linejoin="miter" marker-start="none" marker-end="none" stroke-miterlimit="79.8403193612775"/>
    <path d="M 129.745,105.18 C 131.374,105.348 133.242,105.038 134.8,104.568 C 137.477,103.758 139.977,102.321 141.302,99.77 C 143.464,95.608 142.026,91.167 140.698,87.022 C 140.364,90 139.679,91.559 138.556,94.272 C 136.065,94.219 133.654,94.195 131.174,94.488 C 128.374,95.05 126.921,95.734 125.183,98.083 C 124.776,97.167 124.456,96.213 124.034,95.303 C 123.595,94.358 121.84,91.057 121.12,90.39 C 120.68,90.637 120.469,90.508 120.002,90.389 L 119.825,90.502 C 119.506,91.149 119.402,91.88 119.296,92.587 C 118.934,95.012 118.982,97.859 120.546,99.887 C 121.462,101.077 122.61,101.745 124.09,101.945 C 124.353,102.307 124.612,102.677 124.897,103.02 C 126.135,104.508 127.895,105.018 129.745,105.18 Z" stroke="none" fill="#0d468f" stroke-width="0.21" fill-rule="evenodd" stroke-linejoin="miter" marker-start="none" marker-end="none" stroke-miterlimit="79.8403193612775"/>
    <path d="M 163.881,61.419 C 164.587,60.663 165.094,59.616 165.443,58.649 C 166.636,55.344 166.932,49.989 165.389,46.765 C 164.537,44.984 162.852,43.706 161.011,43.076 C 158.143,42.095 156.006,42.618 153.374,43.898 C 153.11,44.058 152.858,44.234 152.618,44.426 C 152.377,44.618 152.149,44.826 151.935,45.048 C 149.24,47.801 149.435,51.762 149.449,55.341 C 150.441,55.25 151.432,55.248 152.424,55.334 C 156.976,55.74 160.969,57.951 163.881,61.419 Z" stroke="none" fill="#ffffff" stroke-width="0.21" fill-rule="evenodd" stroke-linejoin="miter" marker-start="none" marker-end="none" stroke-miterlimit="79.8403193612775"/>
    <path d="M 156.352,48.778 C 158.24,47.985 158.539,48.825 159.41,48.644 L 159.466,48.415 C 159.24,48.262 159.028,48.145 158.761,48.076 C 158.203,47.93 157.101,47.812 156.619,48.185 C 156.354,48.391 156.376,48.465 156.352,48.778 Z" stroke="none" fill="#000000" stroke-width="0.21" fill-rule="evenodd" stroke-linejoin="miter" marker-start="none" marker-end="none" stroke-miterlimit="79.8403193612775"/>
    <path d="M 161.175,53.893 C 161.372,53.892 161.602,53.906 161.794,53.862 C 162.049,53.804 162.147,53.641 162.262,53.43 C 162.269,53.092 162.179,52.926 162.016,52.644 C 161.82,52.623 161.563,52.594 161.374,52.665 C 161.122,52.76 161.068,52.901 160.961,53.122 C 160.957,53.462 161.01,53.596 161.175,53.893 Z" stroke="none" fill="#000000" stroke-width="0.21" fill-rule="evenodd" stroke-linejoin="miter" marker-start="none" marker-end="none" stroke-miterlimit="79.8403193612775"/>
    <path d="M 153.906,54.011 C 154.08,53.986 154.324,53.972 154.483,53.899 C 154.756,53.773 154.786,53.674 154.887,53.416 C 154.832,53.046 154.701,52.881 154.463,52.599 C 154.261,52.598 154.012,52.594 153.835,52.709 C 153.616,52.849 153.497,53.027 153.488,53.286 C 153.475,53.596 153.709,53.807 153.906,54.011 Z" stroke="none" fill="#000000" stroke-width="0.21" fill-rule="evenodd" stroke-linejoin="miter" marker-start="none" marker-end="none" stroke-miterlimit="79.8403193612775"/>
    <path d="M 191.629,91.969 C 192.23,91.436 192.597,90.52 193.153,89.905 C 195.874,86.89 199.908,85.943 203.782,85.714 C 203.704,83.207 204.209,80.17 203.137,77.827 C 202.152,75.674 200.219,74.317 198.05,73.547 C 196.363,72.988 194.552,72.913 192.849,73.446 C 190.44,74.2 188.715,75.921 187.571,78.138 C 186.508,80.195 186.023,82.728 186.747,84.967 C 189.125,87.027 189.377,90.014 191.629,91.969 Z" stroke="none" fill="#ffffff" stroke-width="0.21" fill-rule="evenodd" stroke-linejoin="miter" marker-start="none" marker-end="none" stroke-miterlimit="79.8403193612775"/>
    <path d="M 194.716,78.833 C 195.173,78.865 195.941,79 196.33,78.733 C 196.469,78.638 196.442,78.526 196.469,78.373 C 196.141,78.331 195.811,78.287 195.482,78.262 C 195.156,78.238 194.985,78.295 194.741,78.504 L 194.716,78.833 Z" stroke="none" fill="#000000" stroke-width="0.21" fill-rule="evenodd" stroke-linejoin="miter" marker-start="none" marker-end="none" stroke-miterlimit="79.8403193612775"/>
    <path d="M 190.386,85.66 C 190.728,85.687 191.07,85.71 191.412,85.671 C 191.741,85.633 191.937,85.558 192.139,85.296 L 192.074,85.082 L 191.885,85.112 C 191.328,85.197 190.615,84.962 190.128,85.136 C 190.112,85.428 190.208,85.442 190.386,85.66 Z" stroke="none" fill="#000000" stroke-width="0.21" fill-rule="evenodd" stroke-linejoin="miter" marker-start="none" marker-end="none" stroke-miterlimit="79.8403193612775"/>
    <path d="M 198.515,85.879 C 198.825,85.891 199.124,85.874 199.433,85.828 C 199.772,85.779 200.089,85.715 200.298,85.423 C 200.261,85.156 200.198,85.111 200.023,84.9 C 199.455,85.279 199.052,85.257 198.397,85.367 L 198.328,85.541 L 198.515,85.879 Z" stroke="none" fill="#000000" stroke-width="0.21" fill-rule="evenodd" stroke-linejoin="miter" marker-start="none" marker-end="none" stroke-miterlimit="79.8403193612775"/>
    <path d="M 199.177,83.923 C 199.495,83.666 199.59,83.292 199.643,82.901 C 199.717,82.364 199.692,81.958 199.37,81.513 C 199.342,81.524 199.312,81.534 199.284,81.546 C 199.036,81.658 198.902,81.787 198.818,82.043 C 198.614,82.653 198.915,83.377 199.177,83.923 Z" stroke="none" fill="#000000" stroke-width="0.21" fill-rule="evenodd" stroke-linejoin="miter" marker-start="none" marker-end="none" stroke-miterlimit="79.8403193612775"/>
    <path d="M 191.06,83.94 L 191.311,83.861 C 191.475,83.678 191.549,83.485 191.61,83.25 C 191.774,82.623 191.641,82.009 191.326,81.459 C 191.246,81.484 191.137,81.515 191.066,81.554 C 190.827,81.682 190.721,81.839 190.652,82.097 C 190.496,82.68 190.792,83.429 191.06,83.94 Z" stroke="none" fill="#000000" stroke-width="0.21" fill-rule="evenodd" stroke-linejoin="miter" marker-start="none" marker-end="none" stroke-miterlimit="79.8403193612775"/>
    <path d="M 125.197,97.079 C 125.336,96.904 125.48,96.733 125.637,96.572 C 128.701,93.424 134.108,93.751 138.157,93.789 C 138.261,93.64 138.359,93.488 138.451,93.331 C 140.089,90.538 140.721,85.87 139.859,82.735 C 139.819,82.583 139.774,82.431 139.726,82.282 C 139.678,82.131 139.626,81.982 139.571,81.835 C 139.516,81.687 139.457,81.541 139.394,81.396 C 139.331,81.253 139.265,81.11 139.194,80.969 C 139.125,80.827 139.052,80.687 138.974,80.55 C 138.897,80.412 138.817,80.277 138.733,80.143 C 138.65,80.01 138.563,79.878 138.473,79.749 C 138.383,79.62 138.289,79.493 138.193,79.369 C 138.097,79.244 137.997,79.122 137.894,79.003 C 137.792,78.883 137.686,78.765 137.577,78.651 C 137.469,78.537 137.357,78.425 137.244,78.317 C 137.13,78.208 137.012,78.102 136.893,77.999 C 136.774,77.896 136.652,77.796 136.528,77.7 C 136.403,77.603 136.277,77.51 136.148,77.419 C 136.019,77.329 135.888,77.241 135.755,77.157 C 135.621,77.073 135.486,76.993 135.349,76.916 C 133.961,76.217 132.539,75.685 130.963,75.718 C 128.567,75.768 126.216,76.979 124.576,78.689 C 121.552,81.843 121.351,85.492 121.438,89.626 C 121.763,90.072 121.96,90.631 122.232,91.116 C 123.331,93.068 124.525,94.923 125.197,97.079 Z" stroke="none" fill="#ffffff" stroke-width="0.21" fill-rule="evenodd" stroke-linejoin="miter" marker-start="none" marker-end="none" stroke-miterlimit="79.8403193612775"/>
    <path d="M 132.774,83.7 C 132.886,83.552 132.881,83.467 132.903,83.286 C 132.852,83.096 132.81,83.009 132.668,82.864 C 132.135,82.323 131.262,82.3 130.56,82.334 L 130.456,82.564 L 130.581,82.682 C 130.783,82.694 130.987,82.709 131.187,82.74 C 132.01,82.871 132.281,83.044 132.774,83.7 Z" stroke="none" fill="#000000" stroke-width="0.21" fill-rule="evenodd" stroke-linejoin="miter" marker-start="none" marker-end="none" stroke-miterlimit="79.8403193612775"/>
    <path d="M 135.452,91.688 C 135.7,91.73 135.955,91.773 136.207,91.736 C 136.56,91.685 137.159,91.516 137.367,91.209 L 137.284,91.025 C 136.757,91.025 135.623,90.906 135.217,91.262 C 135.229,91.528 135.275,91.505 135.452,91.688 Z" stroke="none" fill="#000000" stroke-width="0.21" fill-rule="evenodd" stroke-linejoin="miter" marker-start="none" marker-end="none" stroke-miterlimit="79.8403193612775"/>
    <path d="M 135.542,89.074 C 135.688,89.012 135.865,88.948 135.991,88.85 C 136.192,88.695 136.294,88.432 136.277,88.181 C 136.252,87.828 135.991,87.563 135.766,87.318 C 135.581,87.377 135.346,87.462 135.209,87.604 C 135.031,87.785 134.957,88.024 134.991,88.272 C 135.039,88.626 135.294,88.848 135.542,89.074 Z" stroke="none" fill="#000000" stroke-width="0.21" fill-rule="evenodd" stroke-linejoin="miter" marker-start="none" marker-end="none" stroke-miterlimit="79.8403193612775"/>
    <path d="M 126.292,88.963 C 126.511,88.955 126.697,88.924 126.912,88.887 C 127.052,88.778 127.203,88.705 127.274,88.536 C 127.446,88.13 127.277,87.756 127.113,87.381 C 127.026,87.362 126.891,87.329 126.805,87.326 C 126.536,87.32 126.458,87.401 126.262,87.561 C 126.024,88.061 126.118,88.462 126.292,88.963 Z" stroke="none" fill="#000000" stroke-width="0.21" fill-rule="evenodd" stroke-linejoin="miter" marker-start="none" marker-end="none" stroke-miterlimit="79.8403193612775"/>
    <path d="M 137.951,18.404 C 139.941,17.834 141.613,16.956 143.144,15.551 C 147.126,11.897 149.14,5.771 149.365,0.491 L 143.778,0.496 C 143.74,2.211 144.004,7.438 143.627,8.65 L 143.495,8.69 C 143.048,7.847 143.276,1.914 143.277,0.519 L 129.526,0.529 L 126.621,0.527 C 126.551,2.277 126.87,7.387 126.524,8.597 C 126.457,8.832 126.518,8.759 126.329,8.859 C 125.892,8.106 126.084,1.777 126.075,0.523 C 124.077,0.53 122.079,0.524 120.08,0.505 C 120.206,1.722 120.332,2.919 120.59,4.117 C 121.577,8.706 123.959,14.027 128.05,16.646 C 128.928,17.208 131.476,18.483 132.483,18.267 C 132.511,17.988 132.543,17.767 132.696,17.521 C 132.955,17.101 133.604,16.873 134.055,16.766 C 135.018,16.538 136.152,16.55 137.01,17.098 C 137.548,17.443 137.827,17.78 137.951,18.404 Z" stroke="none" fill="#f55656" stroke-width="0.21" fill-rule="evenodd" stroke-linejoin="miter" marker-start="none" marker-end="none" stroke-miterlimit="79.8403193612775"/>
    <path d="M 183.97,21.114 L 184.041,21.042 C 184.213,20.38 184.369,19.623 184.795,19.071 C 185.256,18.473 186.158,18.317 186.86,18.219 C 188.064,18.05 189.635,18.074 190.623,18.868 C 191.081,19.236 191.421,19.802 191.482,20.389 C 191.5,20.569 191.514,20.67 191.611,20.831 C 191.679,20.84 191.745,20.855 191.813,20.859 C 193.343,20.95 195.437,19.498 196.563,18.593 C 197.747,17.64 198.934,16.503 199.794,15.243 C 202.419,11.4 203.721,5.098 204.196,0.498 L 198.192,0.51 C 198.195,1.684 198.418,7.957 198.189,8.616 C 198.115,8.825 198.1,8.819 197.889,8.908 L 197.756,8.78 C 197.515,7.903 197.683,1.855 197.679,0.511 L 194.847,0.511 L 178.354,0.531 C 178.376,1.594 178.575,8.493 178.242,8.942 L 178.057,8.966 C 177.685,8.332 177.912,1.776 177.914,0.528 L 171.835,0.532 C 172.517,5.259 173.133,10.097 175.598,14.307 C 177.408,17.399 180.447,20.182 183.97,21.114 Z" stroke="none" fill="#17b3c6" stroke-width="0.21" fill-rule="evenodd" stroke-linejoin="miter" marker-start="none" marker-end="none" stroke-miterlimit="79.8403193612775"/>
    <path d="M 167.28,39.353 C 168.958,44.676 171.58,49.414 174.158,54.332 C 175.571,57.029 176.818,59.792 178.624,62.261 C 181.466,66.149 185.419,68.752 190.215,69.49 C 190.622,68.179 190.916,66.811 191.26,65.479 L 193.262,57.797 C 193.778,55.836 194.872,52.675 195.074,50.826 C 195.209,49.583 195.103,48.286 195.08,47.037 C 195.037,45.091 195.019,43.146 195.026,41.199 C 194.589,41.305 194.117,41.772 193.731,42.029 C 193.845,41.499 194.673,41.195 194.94,40.636 C 195.101,40.3 195.231,40.074 195.531,39.849 C 195.589,39.855 195.658,39.839 195.704,39.876 C 196.851,38.557 197.16,36.257 197.053,34.578 C 197.027,34.093 196.97,33.611 196.882,33.133 C 196.498,33.06 196.038,33.044 195.758,32.767 C 194.388,33.546 193.678,36.401 193.05,37.803 C 192.547,37.503 192.042,37.258 191.489,37.063 C 188.453,35.997 185.681,36.704 182.883,38.075 C 182.399,36.595 181.973,34.795 181.02,33.542 C 180.51,33.313 180.003,33.01 179.441,33.21 L 179.337,33.185 C 179.366,32.892 179.382,32.627 179.357,32.331 C 179.096,32.189 178.742,32.119 178.508,31.959 C 178.229,31.77 178.023,31.238 177.971,30.913 C 177.865,30.23 178.147,29.512 178.553,28.972 C 179.138,28.2 179.786,27.845 180.733,27.714 C 181.467,25.517 182.254,24.177 184.237,22.908 L 184.163,21.645 C 182.303,21.247 180.795,20.305 179.231,19.269 C 178.629,20.758 178.328,22.432 177.845,23.974 C 176.545,28.134 174.697,32.943 171.552,36.04 C 170.261,37.312 168.762,38.322 167.28,39.353 Z" stroke="none" fill="#ffffff" stroke-width="0.21" fill-rule="evenodd" stroke-linejoin="miter" marker-start="none" marker-end="none" stroke-miterlimit="79.8403193612775"/>
    <path d="M 180.21,39.861 C 180.191,41.31 180.069,42.761 180.034,44.211 C 179.985,46.297 180.016,48.387 180.008,50.474 C 180.003,51.503 179.823,52.937 180.069,53.91 L 180.232,53.996 L 180.434,53.909 C 180.597,52.957 180.511,51.904 180.509,50.935 C 180.498,48.734 180.502,46.534 180.522,44.333 C 180.535,43.307 180.479,42.177 180.637,41.162 C 180.67,40.957 180.651,40.853 180.827,40.726 L 181.255,40.925 C 181.178,40.132 180.052,38.719 179.673,37.89 C 179.597,37.725 179.63,37.786 179.471,37.645 L 179.349,37.756 L 179.28,37.784 C 178.664,37.455 177.765,35.47 177.086,34.868 L 176.93,34.907 L 176.894,35.062 C 177.765,36.836 179.079,38.173 180.159,39.785 L 180.21,39.861 Z" stroke="none" fill="#000000" stroke-width="0.21" fill-rule="evenodd" stroke-linejoin="miter" marker-start="none" marker-end="none" stroke-miterlimit="79.8403193612775"/>
    <path d="M 181.255,40.925 C 181.31,41.142 181.262,41.056 181.419,41.231 C 182.855,42.834 185.359,43.74 187.462,43.85 C 189.594,43.961 192.1,43.51 193.731,42.029 C 193.845,41.499 194.673,41.195 194.94,40.636 C 195.101,40.3 195.231,40.074 195.531,39.849 C 195.589,39.855 195.658,39.839 195.704,39.876 C 196.851,38.557 197.16,36.257 197.053,34.578 C 197.027,34.093 196.97,33.611 196.882,33.133 C 196.498,33.06 196.038,33.044 195.758,32.767 C 194.388,33.546 193.678,36.401 193.05,37.803 C 192.547,37.503 192.042,37.258 191.489,37.063 C 188.453,35.997 185.681,36.704 182.883,38.075 C 182.399,36.595 181.973,34.795 181.02,33.542 C 180.51,33.313 180.003,33.01 179.441,33.21 L 179.337,33.185 C 178.928,34 179.108,36.838 179.349,37.756 L 179.471,37.645 C 179.63,37.786 179.597,37.725 179.673,37.89 C 180.052,38.719 181.178,40.132 181.255,40.925 Z" stroke="none" fill="#001940" stroke-width="0.21" fill-rule="evenodd" stroke-linejoin="miter" marker-start="none" marker-end="none" stroke-miterlimit="79.8403193612775"/>
    <path d="M 152.118,40.058 L 152.25,39.962 C 152.142,39.41 152.039,38.926 152.133,38.363 C 152.352,37.034 153.374,35.827 154.462,35.079 C 155.94,34.062 157.669,33.711 159.427,34.047 C 161.101,34.366 162.615,35.291 163.56,36.726 C 164.138,37.604 164.567,38.715 164.344,39.77 C 164.336,39.808 164.328,39.844 164.32,39.88 L 164.389,39.922 C 165.188,39.76 166.05,39.4 166.782,39.037 C 167.539,38.661 168.235,38.091 168.924,37.599 C 170.206,36.682 171.401,35.68 172.396,34.449 C 174.662,31.643 176.388,27.196 177.432,23.739 C 177.921,22.119 178.283,20.464 178.81,18.856 C 176.756,17.186 175.362,15.013 174.178,12.677 L 174.162,12.83 C 174.042,13.931 173.884,15.026 173.691,16.116 C 173.497,17.206 173.267,18.289 173.001,19.363 C 172.734,20.438 172.432,21.503 172.094,22.557 C 171.756,23.61 171.383,24.653 170.974,25.682 C 170.695,26.401 170.337,27.605 169.722,28.1 L 169.573,28.062 C 169.537,27.696 170.984,24.287 171.229,23.537 C 172.123,20.795 172.902,18.049 173.365,15.199 C 173.517,14.131 173.625,13.032 173.894,11.986 C 172.535,8.241 171.695,4.489 171.361,0.518 L 149.877,0.491 C 149.473,6.127 147.637,11.46 143.822,15.712 C 144.647,17.777 145.172,19.955 145.935,22.045 C 146.242,22.884 147.952,26.86 147.933,27.445 C 146.85,27.819 144.971,26.506 143.646,26.753 C 143.577,27.002 144.378,28.075 144.51,28.454 C 144.657,28.882 144.747,29.455 144.478,29.858 C 144.075,30.464 143.294,30.653 142.627,30.724 C 142.62,31.914 142.625,33.018 142.83,34.196 C 144.765,34.721 146.61,37.312 148.349,38.466 C 149.514,39.24 150.798,39.636 152.118,40.058 Z" stroke="none" fill="#f4be24" stroke-width="0.21" fill-rule="evenodd" stroke-linejoin="miter" marker-start="none" marker-end="none" stroke-miterlimit="79.8403193612775"/>
    <path d="M 159.443,158.188 L 159.618,158.191 C 159.109,157.644 157.069,156.754 156.341,156.292 C 154.885,155.37 153.534,154.258 152.28,153.076 C 141.373,142.799 138.57,126.297 138.104,111.992 C 136.417,112.864 134.799,113.725 133.03,114.429 C 132.694,114.561 132.358,114.687 132.018,114.81 C 131.68,114.933 131.34,115.052 130.999,115.167 C 130.657,115.281 130.314,115.392 129.97,115.498 C 129.626,115.604 129.28,115.706 128.934,115.804 C 128.587,115.902 128.239,115.996 127.889,116.085 C 127.541,116.175 127.191,116.26 126.84,116.341 C 126.489,116.422 126.137,116.498 125.785,116.57 C 125.431,116.643 125.077,116.711 124.723,116.775 C 124.369,116.839 124.013,116.898 123.657,116.953 C 123.301,117.009 122.945,117.059 122.588,117.106 C 122.23,117.153 121.872,117.194 121.515,117.232 C 121.156,117.27 120.797,117.303 120.438,117.333 C 120.08,117.361 119.719,117.386 119.36,117.407 C 119.001,117.427 118.641,117.443 118.281,117.455 C 117.92,117.466 117.56,117.473 117.2,117.476 C 116.84,117.478 116.48,117.477 116.119,117.472 C 115.759,117.465 115.399,117.456 115.04,117.44 C 114.68,117.426 114.319,117.407 113.96,117.383 C 113.601,117.36 113.242,117.333 112.883,117.3 C 112.524,117.268 112.166,117.232 111.808,117.191 C 111.45,117.15 111.093,117.105 110.736,117.055 C 110.379,117.006 110.023,116.951 109.667,116.893 C 109.312,116.835 108.957,116.772 108.603,116.706 C 108.249,116.639 107.896,116.568 107.543,116.493 C 107.192,116.418 106.84,116.338 106.49,116.254 C 106.14,116.17 105.79,116.081 105.442,115.989 C 105.094,115.897 104.747,115.8 104.401,115.699 C 104.055,115.598 103.711,115.494 103.368,115.385 C 103.024,115.275 102.682,115.162 102.342,115.045 C 102.001,114.927 101.662,114.806 101.325,114.68 C 100.987,114.554 100.651,114.423 100.317,114.29 C 99.982,114.156 99.65,114.018 99.318,113.876 C 97.948,113.264 96.656,112.474 95.273,111.898 C 98.086,119.529 102.033,126.647 107.357,132.822 C 107.692,133.212 108.03,133.598 108.374,133.981 C 108.717,134.365 109.064,134.744 109.415,135.119 C 109.766,135.495 110.122,135.866 110.48,136.234 C 110.839,136.602 111.202,136.967 111.569,137.327 C 111.936,137.687 112.307,138.044 112.68,138.396 C 113.055,138.749 113.433,139.098 113.814,139.442 C 114.196,139.786 114.581,140.128 114.97,140.464 C 115.359,140.8 115.752,141.132 116.148,141.461 C 116.543,141.788 116.943,142.112 117.346,142.432 C 117.748,142.752 118.155,143.067 118.564,143.378 C 118.973,143.689 119.386,143.996 119.801,144.298 C 120.218,144.6 120.637,144.899 121.059,145.192 C 121.481,145.486 121.906,145.774 122.334,146.059 C 122.763,146.343 123.195,146.623 123.628,146.899 C 124.063,147.174 124.5,147.445 124.939,147.711 C 125.38,147.977 125.823,148.239 126.268,148.496 C 126.714,148.752 127.161,149.004 127.612,149.251 C 128.063,149.499 128.516,149.741 128.973,149.979 C 129.428,150.217 129.887,150.449 130.348,150.678 C 130.808,150.906 131.272,151.129 131.737,151.347 C 132.203,151.565 132.671,151.779 133.141,151.986 C 133.611,152.195 134.083,152.398 134.558,152.596 C 135.032,152.794 135.509,152.988 135.987,153.176 C 136.465,153.364 136.946,153.547 137.428,153.725 C 137.911,153.903 138.395,154.077 138.881,154.245 C 139.367,154.412 139.855,154.575 140.344,154.732 C 140.833,154.89 141.324,155.042 141.817,155.189 C 142.309,155.337 142.804,155.479 143.3,155.615 C 143.796,155.752 144.292,155.884 144.791,156.009 C 145.289,156.135 145.789,156.256 146.291,156.372 C 146.792,156.488 147.294,156.597 147.797,156.703 C 148.3,156.808 148.804,156.907 149.31,157.001 C 152.675,157.636 156.035,157.936 159.443,158.188 Z" stroke="none" fill="#1ba881" stroke-width="0.21" fill-rule="evenodd" stroke-linejoin="miter" marker-start="none" marker-end="none" stroke-miterlimit="79.8403193612775"/>
    <path d="M 166.836,158.253 C 168.187,158.299 169.577,158.101 170.92,157.964 C 171.822,157.872 172.724,157.765 173.622,157.64 C 174.522,157.516 175.418,157.376 176.311,157.22 C 177.205,157.064 178.096,156.892 178.984,156.704 C 179.872,156.516 180.757,156.312 181.637,156.093 C 182.517,155.874 183.393,155.639 184.265,155.388 C 185.138,155.137 186.005,154.871 186.867,154.589 C 187.73,154.307 188.587,154.01 189.439,153.698 C 190.291,153.385 191.137,153.058 191.978,152.715 C 192.453,152.519 192.927,152.318 193.398,152.112 C 193.869,151.906 194.338,151.696 194.805,151.479 C 195.272,151.264 195.736,151.044 196.199,150.818 C 196.661,150.592 197.12,150.363 197.578,150.127 C 198.035,149.893 198.491,149.653 198.943,149.408 C 199.396,149.164 199.846,148.914 200.293,148.661 C 200.74,148.407 201.185,148.148 201.627,147.885 C 202.068,147.622 202.507,147.354 202.944,147.082 C 203.38,146.809 203.814,146.533 204.244,146.251 C 204.674,145.97 205.102,145.684 205.527,145.394 C 205.951,145.104 206.373,144.809 206.791,144.51 C 207.21,144.211 207.625,143.908 208.037,143.6 C 208.449,143.292 208.858,142.981 209.263,142.664 C 209.669,142.348 210.071,142.027 210.469,141.703 C 210.869,141.378 211.264,141.049 211.657,140.716 C 212.048,140.383 212.437,140.047 212.822,139.705 C 213.207,139.364 213.588,139.019 213.967,138.671 C 214.344,138.322 214.718,137.968 215.088,137.612 C 215.459,137.255 215.826,136.894 216.189,136.53 C 216.552,136.165 216.911,135.798 217.265,135.426 C 217.621,135.053 217.972,134.678 218.32,134.299 C 218.667,133.92 219.01,133.537 219.35,133.151 C 219.69,132.765 220.025,132.375 220.357,131.981 C 220.687,131.588 221.015,131.19 221.338,130.79 C 221.661,130.39 221.979,129.987 222.294,129.58 C 222.608,129.173 222.919,128.763 223.225,128.35 C 223.532,127.936 223.833,127.52 224.13,127.101 C 224.427,126.68 224.721,126.258 225.01,125.832 C 225.297,125.406 225.581,124.978 225.861,124.546 C 226.141,124.114 226.416,123.68 226.687,123.242 C 226.957,122.805 227.223,122.365 227.484,121.922 C 227.745,121.48 228.003,121.034 228.254,120.585 C 229.82,117.767 231.095,114.85 232.316,111.874 C 231.088,112.65 229.756,113.234 228.438,113.84 C 226.326,114.751 224.077,115.456 221.838,115.98 C 213.477,117.94 203.399,117.881 195.312,114.843 C 193.135,114.024 191.147,112.94 189.181,111.712 C 188.872,119.185 188.216,126.564 185.993,133.744 C 183.491,141.826 179.002,150.06 172.08,155.171 C 170.411,156.403 168.656,157.292 166.836,158.253 Z" stroke="none" fill="#1ba881" stroke-width="0.21" fill-rule="evenodd" stroke-linejoin="miter" marker-start="none" marker-end="none" stroke-miterlimit="79.8403193612775"/>
    <path d="M 200.585,69.413 C 207.367,67.966 212.113,63.94 215.813,58.237 C 218.205,54.551 220.177,50.59 222.134,46.66 C 223.942,43.025 225.735,39.408 227.374,35.691 C 228.189,33.841 229.252,31.849 229.72,29.878 C 229.899,29.122 229.839,28.296 229.681,27.539 C 229.518,26.755 229.184,26.11 228.712,25.473 C 226.05,21.889 217.525,15.581 213.615,13.074 C 212.204,12.17 210.776,11.26 209.308,10.452 C 208.482,13.103 207.029,15.661 204.494,17.009 C 204.022,17.259 203.504,17.426 202.991,17.57 C 209.439,21.439 214.527,24.945 219.881,30.312 C 220.566,30.998 221.734,31.95 222.099,32.846 L 222.036,32.944 L 222.138,32.855 L 221.944,32.934 L 222.008,32.803 L 221.847,32.897 C 221.098,32.395 218.683,29.753 217.813,28.899 C 216.546,31.587 215.236,34.254 213.882,36.898 C 213.238,38.167 212.626,39.6 211.801,40.749 C 211.803,42.503 212.033,53.043 211.645,53.852 C 211.133,52.624 211.413,50.215 211.394,48.828 C 211.354,42.957 211.345,37.085 211.367,31.215 C 211.361,28.678 211.52,26.028 211.319,23.506 C 208.896,21.795 204.87,18.773 202.178,17.842 C 201.133,17.48 199.977,17.479 198.896,17.131 C 196.747,19.161 194.614,21.223 191.497,21.382 L 191.491,22.743 C 193.378,23.954 194.471,25.409 195.13,27.557 C 196.196,27.772 197.108,28.07 197.73,29.043 C 198.089,29.602 198.222,30.261 198.058,30.908 C 197.625,32.62 196.488,31.593 196.882,33.133 C 196.97,33.611 197.027,34.093 197.053,34.578 C 197.16,36.257 196.851,38.557 195.704,39.876 C 195.358,40.543 195.459,41.381 195.456,42.113 C 195.496,44.828 195.32,47.78 195.7,50.46 C 196.001,52.581 196.851,54.736 197.396,56.814 L 200.585,69.413 Z" stroke="none" fill="#ffffff" stroke-width="0.21" fill-rule="evenodd" stroke-linejoin="miter" marker-start="none" marker-end="none" stroke-miterlimit="79.8403193612775"/>
    <path d="M 162.458,158.411 C 163.506,158.447 164.603,158.394 165.622,158.131 C 168.553,157.374 171.93,154.866 174.152,152.811 C 181.748,145.785 185.795,135.328 187.478,125.314 C 188.228,120.853 188.529,116.299 188.698,111.782 C 181.95,116.306 173.209,117.261 165.298,117.646 C 155.931,117.772 146.9,116.555 138.592,112.026 C 138.688,124.365 141.561,139.734 149.61,149.49 C 152.403,152.876 158.025,157.988 162.458,158.411 Z" stroke="none" fill="#ffffff" stroke-width="0.21" fill-rule="evenodd" stroke-linejoin="miter" marker-start="none" marker-end="none" stroke-miterlimit="79.8403193612775"/>
    <path d="M 138.611,71.292 C 142.616,70.426 147.839,67.589 151.33,65.455 C 148.68,62.514 147.693,59.812 147.79,55.883 C 147.374,55.64 146.997,55.387 146.702,55 C 146.634,54.909 146.569,54.815 146.51,54.717 C 146.451,54.619 146.395,54.519 146.346,54.416 C 146.296,54.313 146.253,54.208 146.213,54.101 C 146.174,53.993 146.14,53.885 146.111,53.773 C 146.084,53.663 146.061,53.551 146.044,53.438 C 146.027,53.325 146.015,53.211 146.01,53.097 C 146.004,52.983 146.003,52.869 146.009,52.755 C 146.014,52.64 146.025,52.527 146.042,52.413 C 146.197,51.355 146.777,50.639 147.623,50.033 C 146.44,46.965 146.257,44.655 146.07,41.446 C 145.984,39.976 145.886,38.508 145.875,37.036 C 144.956,36.154 143.931,35.234 142.804,34.629 C 142.634,36.102 142.171,37.454 141.248,38.627 C 140.009,40.2 138.216,41.24 136.217,41.446 C 136.084,41.459 135.953,41.469 135.82,41.474 C 135.688,41.481 135.555,41.484 135.423,41.484 C 135.291,41.484 135.158,41.48 135.026,41.473 C 134.893,41.467 134.762,41.457 134.629,41.444 C 134.498,41.43 134.366,41.414 134.236,41.395 C 134.104,41.375 133.974,41.352 133.844,41.327 C 133.713,41.301 133.585,41.271 133.456,41.24 C 133.328,41.207 133.2,41.172 133.073,41.133 C 132.946,41.095 132.821,41.054 132.696,41.009 C 132.571,40.964 132.448,40.917 132.325,40.866 C 132.203,40.816 132.082,40.762 131.962,40.705 C 131.842,40.649 131.724,40.59 131.607,40.527 C 131.49,40.465 131.375,40.399 131.261,40.332 C 131.147,40.264 131.035,40.194 130.925,40.12 C 130.815,40.047 130.706,39.971 130.599,39.892 C 130.494,39.813 130.389,39.731 130.286,39.648 C 128.351,38.04 127.669,36.072 127.431,33.64 C 126.992,33.54 126.515,33.472 126.131,33.222 C 125.138,32.578 124.993,31.424 124.783,30.357 C 123.454,30.565 122.099,31.111 120.819,31.519 C 118.401,32.289 115.987,33.074 113.578,33.87 C 113.548,36.197 113.385,42.593 113.96,44.476 C 114.47,46.14 115.195,47.788 115.816,49.417 C 116.023,49.958 116.363,50.624 116.45,51.193 C 116.483,51.418 116.481,51.455 116.348,51.643 C 116.29,51.621 116.224,51.614 116.173,51.577 C 116.007,51.457 111.996,41.046 111.719,40.286 C 111.112,38.628 110.667,36.757 109.891,35.181 C 109.876,35.151 109.86,35.119 109.845,35.089 C 109.225,35.271 108.591,35.491 107.954,35.601 C 107.677,35.649 107.36,35.709 107.127,35.542 C 107.289,35.282 107.559,35.16 107.838,35.057 C 108.518,34.801 109.279,34.694 109.975,34.473 L 116.352,32.436 C 117.937,31.899 119.527,31.377 121.122,30.872 C 122.244,30.525 123.737,30.292 124.721,29.672 C 124.79,28.348 122.14,20.689 121.668,18.435 C 120.056,19.116 118.206,19.515 116.517,19.987 C 113.036,20.95 109.545,21.88 106.046,22.776 C 103.902,23.337 101.373,23.733 99.492,24.945 C 97.893,25.976 96.791,27.525 96.397,29.393 C 96.191,30.374 96.143,31.586 96.381,32.564 C 96.81,34.316 97.71,36.061 98.417,37.721 L 101.181,44.329 C 104.063,51.037 106.399,58.103 110.393,64.267 C 111.161,65.453 112.063,66.508 113.216,67.335 C 115.419,68.916 120.889,70.635 123.592,71.21 C 123.897,68.496 124.16,64.819 124.835,62.236 C 126.903,63.744 129.054,65.072 131.225,66.423 C 132.606,65.313 134.057,64.302 135.575,63.389 C 136.012,63.131 136.771,62.632 137.274,62.763 C 137.67,63.752 137.716,65.166 137.866,66.225 L 138.611,71.292 Z" stroke="none" fill="#1ba881" stroke-width="0.21" fill-rule="evenodd" stroke-linejoin="miter" marker-start="none" marker-end="none" stroke-miterlimit="79.8403193612775"/>
    <path d="M 223.511,80.112 C 225.733,79.935 228.041,80.055 230.273,80.052 L 241.832,80.048 C 243.942,80.053 246.074,80.123 248.183,80.059 L 248.177,26.793 C 248.176,18.048 248.024,9.274 248.182,0.533 C 245.643,0.468 243.086,0.523 240.545,0.522 L 223.423,0.489 C 223.476,6.941 223.498,13.394 223.487,19.847 C 225.486,21.482 228.721,23.978 229.79,26.321 C 229.845,26.445 229.896,26.571 229.943,26.699 C 229.989,26.826 230.032,26.954 230.069,27.085 C 230.107,27.215 230.14,27.347 230.168,27.479 C 230.196,27.612 230.22,27.745 230.239,27.879 C 230.258,28.014 230.272,28.148 230.282,28.283 C 230.291,28.419 230.296,28.555 230.296,28.69 C 230.296,28.826 230.291,28.961 230.282,29.096 C 230.272,29.232 230.258,29.367 230.239,29.501 C 230.018,31.104 229.28,32.623 228.633,34.089 C 227.713,36.178 226.803,38.276 225.8,40.327 C 225.024,41.911 224.059,43.532 223.454,45.184 C 223.441,45.218 223.43,45.252 223.417,45.286 C 223.838,47.996 223.613,51.143 223.616,53.909 L 223.594,70.373 L 223.59,76.673 C 223.591,77.72 223.758,79.099 223.511,80.112 Z" stroke="none" fill="#b2b2b2" stroke-width="0.21" fill-rule="evenodd" stroke-linejoin="miter" marker-start="none" marker-end="none" stroke-miterlimit="79.8403193612775"/>
    <path d="M 235.393,54.168 C 236.043,54.217 236.721,54.111 237.305,53.814 C 237.397,53.767 237.487,53.717 237.573,53.662 C 237.66,53.605 237.744,53.546 237.825,53.483 C 237.906,53.419 237.983,53.351 238.057,53.28 C 238.132,53.208 238.202,53.134 238.269,53.056 C 238.336,52.977 238.399,52.896 238.457,52.811 C 238.516,52.726 238.57,52.638 238.62,52.549 C 238.669,52.458 238.715,52.366 238.756,52.271 C 238.797,52.177 238.832,52.081 238.864,51.983 C 238.894,51.881 238.92,51.779 238.94,51.675 C 238.96,51.571 238.974,51.466 238.984,51.36 C 238.992,51.256 238.996,51.15 238.994,51.044 C 238.992,50.938 238.985,50.833 238.972,50.728 C 238.959,50.623 238.941,50.519 238.917,50.416 C 238.893,50.312 238.864,50.211 238.829,50.111 C 238.795,50.011 238.756,49.913 238.711,49.818 C 238.666,49.721 238.617,49.628 238.562,49.538 C 238.069,48.698 237.318,48.287 236.408,48.032 C 235.707,47.994 235.018,48.082 234.399,48.433 C 234.309,48.484 234.222,48.54 234.137,48.6 C 234.053,48.659 233.972,48.724 233.894,48.791 C 233.817,48.859 233.743,48.932 233.671,49.007 C 233.601,49.082 233.534,49.161 233.471,49.243 C 233.408,49.326 233.35,49.411 233.296,49.499 C 233.242,49.587 233.192,49.678 233.147,49.77 C 233.101,49.863 233.061,49.959 233.025,50.056 C 232.99,50.152 232.959,50.251 232.934,50.351 C 232.907,50.45 232.885,50.551 232.869,50.652 C 232.853,50.753 232.841,50.855 232.835,50.958 C 232.828,51.06 232.827,51.163 232.831,51.265 C 232.835,51.368 232.844,51.47 232.858,51.572 C 232.872,51.674 232.892,51.775 232.916,51.874 C 232.939,51.974 232.969,52.072 233.002,52.169 C 233.037,52.267 233.075,52.361 233.119,52.454 C 233.162,52.548 233.21,52.638 233.263,52.727 C 233.75,53.54 234.494,53.956 235.393,54.168 Z" stroke="none" fill="#000000" stroke-width="0.21" fill-rule="evenodd" stroke-linejoin="miter" marker-start="none" marker-end="none" stroke-miterlimit="79.8403193612775"/>
    <path d="M 235.219,53.651 C 235.719,53.686 236.195,53.717 236.677,53.553 C 236.764,53.524 236.851,53.491 236.935,53.453 C 237.02,53.416 237.102,53.374 237.183,53.328 C 237.263,53.282 237.341,53.232 237.416,53.179 C 237.491,53.125 237.564,53.068 237.633,53.007 C 237.703,52.947 237.77,52.882 237.833,52.816 C 237.896,52.748 237.956,52.677 238.013,52.604 C 238.069,52.531 238.121,52.454 238.17,52.376 C 238.219,52.298 238.264,52.217 238.304,52.134 C 238.342,52.057 238.376,51.978 238.405,51.897 C 238.435,51.816 238.46,51.734 238.481,51.65 C 238.501,51.567 238.518,51.482 238.529,51.398 C 238.541,51.312 238.548,51.226 238.551,51.14 C 238.553,51.055 238.552,50.969 238.545,50.883 C 238.539,50.797 238.527,50.712 238.512,50.628 C 238.497,50.543 238.477,50.459 238.453,50.377 C 238.428,50.294 238.4,50.213 238.367,50.133 C 238.03,49.323 237.387,48.894 236.61,48.563 C 236.07,48.464 235.625,48.445 235.093,48.626 C 235.008,48.654 234.925,48.688 234.843,48.725 C 234.762,48.762 234.683,48.804 234.606,48.85 C 234.529,48.895 234.455,48.945 234.383,48.998 C 234.311,49.052 234.242,49.109 234.176,49.17 C 234.11,49.23 234.048,49.294 233.988,49.36 C 233.929,49.428 233.873,49.498 233.821,49.571 C 233.768,49.643 233.721,49.719 233.676,49.797 C 233.632,49.875 233.592,49.955 233.556,50.037 C 233.52,50.118 233.487,50.201 233.459,50.286 C 233.431,50.369 233.407,50.455 233.388,50.543 C 233.368,50.63 233.353,50.717 233.343,50.806 C 233.332,50.894 233.326,50.983 233.324,51.072 C 233.324,51.161 233.326,51.25 233.334,51.339 C 233.342,51.427 233.354,51.516 233.37,51.603 C 233.386,51.69 233.407,51.777 233.433,51.863 C 233.459,51.947 233.488,52.032 233.522,52.114 C 233.855,52.914 234.448,53.321 235.219,53.651 Z" stroke="none" fill="#ffffff" stroke-width="0.21" fill-rule="evenodd" stroke-linejoin="miter" marker-start="none" marker-end="none" stroke-miterlimit="79.8403193612775"/>
    <path d="M 78.864,97.693 L 94.451,97.719 C 97.623,97.722 100.813,97.647 103.982,97.786 C 103.9,97.629 103.86,97.505 103.852,97.327 C 103.788,96.02 103.847,94.683 103.849,93.373 L 103.851,85.989 L 103.883,64.106 C 103.916,61.463 103.928,58.82 103.92,56.177 C 103.913,55.02 103.994,53.758 103.84,52.612 C 103.653,51.219 102.805,49.677 102.267,48.36 L 98.677,39.588 C 97.731,37.31 96.084,34.365 95.796,31.972 C 95.76,31.684 95.74,31.396 95.735,31.106 C 95.73,30.815 95.742,30.527 95.769,30.238 C 95.796,29.949 95.838,29.662 95.896,29.378 C 95.954,29.094 96.029,28.814 96.117,28.539 C 96.156,28.418 96.198,28.299 96.243,28.181 C 96.289,28.062 96.336,27.945 96.387,27.829 C 96.438,27.713 96.492,27.598 96.549,27.485 C 96.605,27.372 96.665,27.259 96.727,27.15 C 96.789,27.039 96.854,26.93 96.922,26.823 C 96.989,26.716 97.06,26.61 97.133,26.506 C 97.206,26.403 97.281,26.301 97.359,26.201 C 97.437,26.101 97.517,26.004 97.6,25.908 C 97.683,25.813 97.769,25.718 97.856,25.627 C 97.943,25.535 98.034,25.446 98.125,25.359 C 98.217,25.272 98.312,25.188 98.408,25.105 C 98.504,25.023 98.602,24.943 98.703,24.865 C 98.803,24.787 98.905,24.713 99.009,24.641 C 99.113,24.568 99.219,24.499 99.326,24.431 C 99.433,24.364 99.543,24.299 99.653,24.237 C 99.764,24.177 99.876,24.117 99.99,24.061 C 101.231,23.435 102.621,23.142 103.961,22.805 L 103.942,0.502 L 78.756,0.528 C 78.988,1.811 78.904,3.269 78.908,4.572 L 78.86,12.348 L 78.856,35.864 L 78.847,75.687 L 78.942,90.339 C 78.943,92.777 79.041,95.262 78.864,97.693 Z" stroke="none" fill="#cccccc" stroke-width="0.21" fill-rule="evenodd" stroke-linejoin="miter" marker-start="none" marker-end="none" stroke-miterlimit="79.8403193612775"/>
    <path d="M 92.813,90.024 C 93.611,90.079 94.291,90.035 95.022,89.66 C 95.133,89.603 95.241,89.54 95.345,89.471 C 95.449,89.403 95.55,89.33 95.649,89.252 C 95.746,89.174 95.839,89.091 95.929,89.003 C 96.018,88.917 96.103,88.825 96.183,88.729 C 96.264,88.634 96.339,88.534 96.41,88.432 C 96.48,88.329 96.546,88.222 96.606,88.112 C 96.667,88.004 96.721,87.891 96.771,87.776 C 96.821,87.662 96.863,87.544 96.902,87.425 C 97.203,86.466 97.072,85.44 96.579,84.567 C 95.987,83.515 95.097,83.015 93.973,82.705 C 93.142,82.638 92.373,82.687 91.612,83.054 C 91.507,83.107 91.404,83.164 91.304,83.227 C 91.204,83.289 91.107,83.356 91.014,83.428 C 90.92,83.499 90.831,83.576 90.745,83.657 C 90.659,83.738 90.577,83.822 90.5,83.911 C 90.422,84 90.35,84.092 90.281,84.188 C 90.212,84.284 90.148,84.383 90.089,84.485 C 90.03,84.587 89.977,84.691 89.928,84.799 C 89.88,84.907 89.837,85.016 89.799,85.128 C 89.778,85.186 89.759,85.245 89.742,85.305 C 89.723,85.364 89.708,85.424 89.693,85.484 C 89.679,85.544 89.666,85.605 89.655,85.666 C 89.643,85.727 89.634,85.788 89.625,85.85 C 89.618,85.911 89.611,85.973 89.606,86.035 C 89.601,86.097 89.599,86.159 89.598,86.221 C 89.596,86.283 89.596,86.345 89.598,86.407 C 89.6,86.469 89.603,86.531 89.608,86.592 C 89.613,86.654 89.62,86.716 89.628,86.777 C 89.637,86.839 89.646,86.9 89.658,86.961 C 89.669,87.022 89.682,87.082 89.698,87.142 C 89.712,87.203 89.728,87.262 89.746,87.322 C 89.764,87.381 89.783,87.441 89.805,87.499 C 89.826,87.557 89.848,87.615 89.872,87.672 C 89.897,87.729 89.923,87.786 89.949,87.842 C 89.976,87.897 90.005,87.952 90.035,88.007 C 90.643,89.123 91.634,89.686 92.813,90.024 Z" stroke="none" fill="#000000" stroke-width="0.21" fill-rule="evenodd" stroke-linejoin="miter" marker-start="none" marker-end="none" stroke-miterlimit="79.8403193612775"/>
    <path d="M 93.155,89.605 C 93.755,89.6 94.361,89.474 94.891,89.186 C 94.989,89.134 95.083,89.078 95.175,89.016 C 95.267,88.954 95.355,88.888 95.44,88.817 C 95.525,88.746 95.606,88.671 95.683,88.592 C 95.76,88.513 95.833,88.43 95.902,88.343 C 95.971,88.255 96.034,88.166 96.094,88.072 C 96.153,87.979 96.207,87.883 96.256,87.784 C 96.305,87.685 96.35,87.583 96.388,87.48 C 96.427,87.377 96.46,87.271 96.488,87.164 C 96.515,87.062 96.537,86.96 96.553,86.856 C 96.57,86.753 96.58,86.649 96.587,86.544 C 96.593,86.438 96.594,86.333 96.59,86.228 C 96.585,86.124 96.576,86.019 96.561,85.915 C 96.547,85.811 96.527,85.708 96.502,85.606 C 96.478,85.504 96.448,85.403 96.414,85.304 C 96.378,85.205 96.339,85.108 96.296,85.013 C 96.251,84.917 96.202,84.825 96.149,84.734 C 95.572,83.765 94.715,83.399 93.673,83.153 C 92.954,83.138 92.329,83.214 91.692,83.575 C 91.644,83.602 91.596,83.631 91.548,83.66 C 91.502,83.691 91.456,83.721 91.41,83.754 C 91.365,83.786 91.321,83.82 91.277,83.855 C 91.234,83.889 91.191,83.925 91.149,83.963 C 91.107,83.999 91.067,84.037 91.027,84.076 C 90.987,84.115 90.949,84.155 90.912,84.196 C 90.874,84.237 90.837,84.279 90.802,84.323 C 90.767,84.366 90.733,84.409 90.699,84.454 C 90.666,84.499 90.634,84.545 90.604,84.59 C 90.572,84.637 90.544,84.685 90.515,84.732 C 90.487,84.781 90.46,84.83 90.434,84.879 C 90.409,84.928 90.385,84.978 90.362,85.029 C 90.339,85.079 90.317,85.131 90.296,85.183 C 90.276,85.235 90.257,85.287 90.24,85.339 C 90.222,85.393 90.206,85.446 90.191,85.5 C 90.176,85.553 90.163,85.607 90.151,85.662 C 90.127,85.766 90.11,85.871 90.098,85.978 C 90.086,86.084 90.079,86.19 90.078,86.297 C 90.076,86.404 90.081,86.511 90.091,86.617 C 90.101,86.724 90.116,86.829 90.137,86.935 C 90.158,87.039 90.185,87.142 90.217,87.244 C 90.249,87.346 90.286,87.446 90.328,87.545 C 90.37,87.644 90.417,87.739 90.47,87.832 C 90.522,87.926 90.579,88.016 90.641,88.103 C 91.265,89.001 92.115,89.399 93.155,89.605 Z" stroke="none" fill="#ffffff" stroke-width="0.21" fill-rule="evenodd" stroke-linejoin="miter" marker-start="none" marker-end="none" stroke-miterlimit="79.8403193612775"/>
   </g>
   <g id="Layer_1"/>
  </g>
 </g>
</svg>
