<?xml version="1.0" standalone="no"?>
<!DOCTYPE svg PUBLIC "-//W3C//DTD SVG 1.1//EN" "http://www.w3.org/Graphics/SVG/1.1/DTD/svg11.dtd">
<!--Generator: Xara Designer (www.xara.com), SVG filter version: 6.2.0.0-->
<svg stroke-width="0.501" stroke-linejoin="bevel" fill-rule="evenodd" xmlns:xlink="http://www.w3.org/1999/xlink" xmlns="http://www.w3.org/2000/svg" version="1.1" overflow="visible" width="328.101pt" height="172.101pt" viewBox="0 0 328.101 172.101">
 <defs>
	</defs>
 <g id="Document" fill="none" stroke="black" font-family="Times New Roman" font-size="16" transform="scale(1 -1)">
  <g id="Spread" transform="translate(0 -172.101)">
   <g id="Layer 1">
    <path d="M -0.399,172.5 L 328.101,172.5 L 328.101,0 L -0.399,0 L -0.399,172.5 Z" fill-rule="evenodd" stroke-linejoin="miter" stroke="none" stroke-width="0.163" fill="#f9dfa9" marker-start="none" marker-end="none" stroke-miterlimit="79.8403193612775"/>
    <path d="M 102.354,75.632 C 102.678,75.651 103.019,75.645 103.331,75.547 C 103.842,75.385 104.294,75.023 104.523,74.534 C 104.55,74.479 104.574,74.421 104.595,74.364 C 104.616,74.306 104.633,74.247 104.649,74.187 C 104.664,74.127 104.676,74.067 104.684,74.006 C 104.693,73.945 104.699,73.884 104.701,73.822 C 104.703,73.76 104.703,73.698 104.699,73.638 C 104.695,73.576 104.688,73.515 104.678,73.454 C 104.668,73.393 104.655,73.333 104.639,73.273 C 104.623,73.214 104.604,73.155 104.581,73.098 C 104.335,72.459 103.838,72.122 103.235,71.858 C 102.856,71.816 102.503,71.812 102.14,71.946 C 102.075,71.97 102.011,71.998 101.949,72.028 C 101.887,72.058 101.826,72.091 101.767,72.128 C 101.709,72.165 101.652,72.205 101.598,72.247 C 101.543,72.29 101.491,72.336 101.441,72.384 C 101.391,72.432 101.345,72.483 101.3,72.536 C 101.255,72.589 101.214,72.644 101.175,72.701 C 101.136,72.759 101.102,72.819 101.069,72.88 C 101.036,72.941 101.007,73.004 100.981,73.068 C 100.958,73.126 100.937,73.184 100.92,73.244 C 100.902,73.303 100.888,73.363 100.876,73.425 C 100.865,73.486 100.856,73.548 100.851,73.609 C 100.846,73.672 100.844,73.733 100.844,73.796 C 100.845,73.857 100.85,73.92 100.857,73.982 C 100.864,74.043 100.874,74.105 100.888,74.165 C 100.901,74.226 100.917,74.286 100.937,74.345 C 100.956,74.404 100.978,74.462 101.003,74.52 C 101.276,75.124 101.751,75.415 102.354,75.632 Z" fill-rule="evenodd" stroke-linejoin="miter" stroke="none" stroke-width="0.163" fill="#000000" marker-start="none" marker-end="none" stroke-miterlimit="79.8403193612775"/>
    <path d="M 102.422,75.304 C 102.69,75.308 102.952,75.309 103.21,75.223 C 103.623,75.086 103.985,74.789 104.167,74.388 C 104.341,74.002 104.338,73.565 104.178,73.175 C 103.958,72.635 103.572,72.403 103.06,72.174 C 102.824,72.159 102.6,72.152 102.37,72.222 C 101.942,72.354 101.561,72.651 101.364,73.056 C 101.34,73.104 101.319,73.154 101.301,73.204 C 101.282,73.255 101.267,73.306 101.254,73.358 C 101.24,73.411 101.23,73.464 101.223,73.516 C 101.215,73.57 101.211,73.623 101.209,73.678 C 101.207,73.731 101.208,73.785 101.212,73.839 C 101.216,73.892 101.223,73.946 101.232,73.999 C 101.241,74.051 101.253,74.104 101.268,74.155 C 101.283,74.207 101.301,74.258 101.321,74.308 C 101.533,74.827 101.93,75.083 102.422,75.304 Z" fill-rule="evenodd" stroke-linejoin="miter" stroke="none" stroke-width="0.163" fill="#ffffff" marker-start="none" marker-end="none" stroke-miterlimit="79.8403193612775"/>
    <path d="M 221.32,55.071 C 221.433,55.074 221.545,55.07 221.658,55.059 C 221.77,55.049 221.881,55.03 221.991,55.005 C 222.101,54.979 222.209,54.948 222.315,54.908 C 222.421,54.87 222.523,54.824 222.624,54.771 C 222.696,54.736 222.766,54.696 222.833,54.654 C 222.901,54.611 222.967,54.565 223.03,54.516 C 223.093,54.466 223.154,54.414 223.211,54.358 C 223.269,54.303 223.325,54.245 223.377,54.184 C 223.429,54.123 223.478,54.06 223.524,53.993 C 223.57,53.927 223.612,53.86 223.651,53.789 C 223.69,53.719 223.725,53.647 223.757,53.574 C 223.789,53.5 223.816,53.425 223.841,53.348 C 223.866,53.267 223.888,53.183 223.904,53.099 C 223.921,53.015 223.934,52.929 223.941,52.844 C 223.949,52.758 223.952,52.672 223.952,52.587 C 223.95,52.501 223.945,52.415 223.935,52.33 C 223.925,52.244 223.91,52.16 223.891,52.076 C 223.873,51.992 223.849,51.909 223.822,51.828 C 223.794,51.746 223.763,51.667 223.726,51.588 C 223.691,51.51 223.651,51.434 223.607,51.36 C 223.173,50.628 222.538,50.314 221.75,50.101 C 221.215,50.091 220.756,50.145 220.28,50.407 C 220.209,50.447 220.14,50.489 220.073,50.535 C 220.007,50.581 219.943,50.63 219.881,50.683 C 219.82,50.736 219.761,50.791 219.705,50.85 C 219.649,50.908 219.596,50.97 219.547,51.034 C 219.497,51.098 219.451,51.164 219.408,51.233 C 219.365,51.301 219.326,51.372 219.29,51.445 C 219.254,51.517 219.222,51.592 219.194,51.668 C 219.166,51.743 219.142,51.821 219.122,51.899 C 219.099,51.985 219.081,52.071 219.067,52.158 C 219.054,52.245 219.045,52.333 219.041,52.42 C 219.036,52.509 219.036,52.597 219.041,52.685 C 219.045,52.773 219.054,52.86 219.068,52.948 C 219.081,53.035 219.099,53.121 219.122,53.206 C 219.145,53.291 219.171,53.375 219.203,53.458 C 219.234,53.54 219.269,53.621 219.308,53.7 C 219.347,53.779 219.391,53.855 219.438,53.93 C 219.891,54.63 220.533,54.907 221.32,55.071 Z" fill-rule="evenodd" stroke-linejoin="miter" stroke="none" stroke-width="0.163" fill="#000000" marker-start="none" marker-end="none" stroke-miterlimit="79.8403193612775"/>
    <path d="M 220.926,54.592 C 221.245,54.614 221.584,54.653 221.898,54.572 C 222.495,54.418 223.023,54.038 223.313,53.488 C 223.344,53.429 223.373,53.368 223.399,53.305 C 223.424,53.242 223.446,53.178 223.465,53.114 C 223.483,53.048 223.499,52.982 223.511,52.916 C 223.523,52.849 223.531,52.782 223.536,52.715 C 223.541,52.647 223.542,52.579 223.54,52.512 C 223.538,52.444 223.532,52.377 223.522,52.31 C 223.513,52.243 223.501,52.177 223.484,52.111 C 223.468,52.045 223.448,51.98 223.425,51.917 C 223.162,51.203 222.603,50.847 221.939,50.563 C 221.58,50.488 221.23,50.498 220.882,50.612 C 220.346,50.788 219.942,51.14 219.695,51.648 C 219.664,51.713 219.637,51.779 219.612,51.847 C 219.587,51.914 219.566,51.982 219.548,52.052 C 219.53,52.121 219.516,52.191 219.505,52.262 C 219.495,52.333 219.487,52.405 219.483,52.476 C 219.48,52.548 219.48,52.619 219.483,52.691 C 219.486,52.763 219.493,52.834 219.504,52.905 C 219.514,52.976 219.528,53.047 219.545,53.116 C 219.562,53.186 219.583,53.254 219.608,53.322 C 219.849,53.986 220.299,54.317 220.926,54.592 Z" fill-rule="evenodd" stroke-linejoin="miter" stroke="none" stroke-width="0.163" fill="#ffffff" marker-start="none" marker-end="none" stroke-miterlimit="79.8403193612775"/>
    <path d="M 98.172,111.014 C 99.06,111.072 99.914,110.973 100.688,110.496 C 101.524,109.98 102.085,109.115 102.292,108.163 C 102.507,107.172 102.346,106.13 101.765,105.289 C 101.128,104.369 100.246,103.94 99.179,103.731 C 98.297,103.689 97.453,103.765 96.67,104.222 C 95.838,104.708 95.291,105.525 95.058,106.452 C 94.808,107.445 94.925,108.493 95.485,109.361 C 96.112,110.333 97.078,110.784 98.172,111.014 Z" fill-rule="evenodd" stroke-linejoin="miter" stroke="none" stroke-width="0.163" fill="#000000" marker-start="none" marker-end="none" stroke-miterlimit="79.8403193612775"/>
    <path d="M 98.27,110.61 C 99.121,110.645 99.922,110.534 100.637,110.031 C 101.347,109.532 101.791,108.736 101.917,107.883 C 102.047,107.008 101.876,106.094 101.337,105.38 C 100.73,104.575 99.907,104.258 98.942,104.13 C 98.175,104.088 97.391,104.241 96.747,104.678 C 96.02,105.172 95.563,105.948 95.409,106.807 C 95.256,107.656 95.405,108.549 95.909,109.259 C 96.486,110.072 97.311,110.457 98.27,110.61 Z" fill-rule="evenodd" stroke-linejoin="miter" stroke="none" stroke-width="0.163" fill="#fdcd17" marker-start="none" marker-end="none" stroke-miterlimit="79.8403193612775"/>
    <path d="M 111.832,90.323 C 111.969,92.007 112.836,94.244 113.355,95.868 C 116.642,106.149 122.428,115.293 130.673,122.307 C 131.009,122.595 131.348,122.879 131.691,123.159 C 132.033,123.438 132.379,123.713 132.729,123.984 C 133.078,124.256 133.431,124.522 133.787,124.784 C 134.143,125.046 134.502,125.303 134.864,125.557 C 135.227,125.81 135.592,126.059 135.961,126.303 C 136.33,126.547 136.702,126.786 137.076,127.021 C 137.451,127.256 137.828,127.486 138.209,127.712 C 138.589,127.937 138.972,128.157 139.358,128.374 C 139.744,128.589 140.133,128.8 140.524,129.007 C 140.915,129.213 141.308,129.414 141.704,129.61 C 142.101,129.806 142.499,129.998 142.9,130.185 C 143.301,130.371 143.705,130.552 144.11,130.729 C 144.515,130.905 144.923,131.076 145.333,131.243 C 145.742,131.408 146.154,131.57 146.568,131.726 C 146.982,131.882 147.397,132.033 147.815,132.178 C 148.232,132.324 148.651,132.464 149.073,132.6 C 149.493,132.735 149.916,132.864 150.34,132.989 C 150.765,133.114 151.19,133.233 151.617,133.347 C 152.044,133.461 152.473,133.569 152.903,133.673 C 153.333,133.776 153.764,133.874 154.196,133.967 C 154.629,134.059 155.062,134.147 155.497,134.228 C 155.931,134.31 156.367,134.386 156.803,134.457 C 157.24,134.528 157.677,134.593 158.115,134.654 C 158.553,134.714 158.992,134.768 159.431,134.817 C 159.87,134.866 160.31,134.91 160.751,134.948 C 161.192,134.986 161.632,135.018 162.074,135.046 C 162.515,135.073 162.956,135.095 163.399,135.111 C 163.841,135.127 164.282,135.137 164.725,135.142 C 165.167,135.148 165.608,135.147 166.051,135.141 C 166.493,135.135 166.935,135.124 167.377,135.107 C 167.818,135.09 168.261,135.067 168.701,135.04 C 169.143,135.012 169.584,134.978 170.024,134.94 C 183.991,133.81 197.695,126.648 206.753,115.981 C 207.024,115.654 207.292,115.324 207.555,114.992 C 207.819,114.659 208.079,114.324 208.334,113.985 C 208.59,113.646 208.841,113.304 209.088,112.959 C 209.335,112.614 209.578,112.266 209.817,111.915 C 210.056,111.564 210.29,111.21 210.52,110.854 C 210.751,110.497 210.977,110.138 211.198,109.776 C 211.419,109.413 211.636,109.049 211.848,108.681 C 212.061,108.314 212.269,107.944 212.472,107.572 C 212.676,107.2 212.875,106.824 213.069,106.447 C 213.264,106.07 213.454,105.69 213.639,105.308 C 213.824,104.927 214.005,104.542 214.181,104.156 C 214.356,103.77 214.528,103.382 214.694,102.991 C 214.861,102.601 215.022,102.208 215.179,101.814 C 215.336,101.42 215.488,101.023 215.635,100.626 C 215.782,100.227 215.925,99.827 216.062,99.426 C 216.2,99.024 216.333,98.621 216.461,98.216 C 216.588,97.811 216.711,97.406 216.829,96.998 C 216.947,96.59 217.06,96.181 217.168,95.77 C 217.276,95.36 217.378,94.948 217.476,94.535 C 217.574,94.123 217.667,93.708 217.755,93.294 C 217.843,92.878 217.926,92.462 218.004,92.044 C 218.081,91.628 218.154,91.209 218.222,90.79 C 218.289,90.371 218.352,89.951 218.41,89.531 C 218.467,89.11 218.519,88.689 218.566,88.267 C 218.613,87.845 218.656,87.423 218.692,87 C 218.729,86.578 218.761,86.155 218.788,85.731 C 218.814,85.308 218.835,84.883 218.853,84.459 C 218.869,84.035 218.88,83.611 218.886,83.187 C 218.892,82.763 218.893,82.338 218.888,81.913 C 218.884,81.489 218.875,81.065 218.86,80.64 C 218.845,80.217 218.826,79.792 218.801,79.369 C 218.776,78.945 218.746,78.522 218.711,78.099 C 217.99,69.441 215.319,61.65 210.666,54.33 C 209.063,51.808 207.212,49.289 205.101,47.167 C 205.365,46.746 205.504,46.265 205.786,45.849 C 206.688,44.519 207.241,45.318 208.468,45.079 C 208.491,45.075 208.515,45.069 208.539,45.063 C 208.717,45.286 208.903,45.507 209.109,45.705 C 209.399,45.982 209.856,46.245 210.271,46.207 C 210.585,46.178 210.827,45.985 211.003,45.735 C 211.689,44.759 211.719,42.982 211.529,41.843 C 211.425,41.212 211.189,40.407 210.627,40.034 C 209.689,39.413 209.264,40.678 208.528,40.837 L 208.444,40.729 C 208.473,39.58 209.117,38.208 209.458,37.105 L 211.531,30.43 C 213.356,30.438 215.209,30.233 216.926,29.586 C 219.8,28.503 222.226,26.422 223.897,23.861 C 224.173,23.438 224.529,22.964 224.71,22.496 C 224.793,22.282 224.797,22.184 224.71,21.977 C 224.426,21.816 224.076,21.854 223.759,21.851 C 224.408,19.083 224.459,16.308 223.205,13.693 C 221.813,10.792 219.366,8.928 216.378,7.881 C 219.375,7.781 222.405,7.869 225.406,7.863 C 226.341,7.861 227.307,7.936 228.238,7.877 C 228.47,7.862 228.594,7.85 228.78,7.717 L 228.783,7.547 C 228.738,7.517 228.698,7.476 228.647,7.456 C 228.389,7.359 222.028,7.45 221.268,7.45 L 190.487,7.443 L 190.448,0.45 C 191.295,0.465 192.385,0.607 193.207,0.415 C 193.393,0.371 193.405,0.379 193.507,0.209 C 193.324,0.066 193.045,0.075 192.816,0.069 C 188.032,-0.067 183.211,0.041 178.423,0.031 L 149.412,0.009 L 115.502,0.023 C 110.172,0.028 104.836,-0.041 99.507,0.04 C 99.419,2.502 99.484,4.989 99.485,7.454 L 92.03,7.458 C 90.867,7.458 89.626,7.351 88.472,7.462 C 88.272,7.481 88.093,7.484 87.961,7.64 C 88.159,7.799 88.422,7.818 88.668,7.834 C 89.83,7.909 91.044,7.84 92.21,7.84 L 99.485,7.842 L 99.496,18.68 C 97.773,18.718 93.987,18.292 92.692,19.274 C 92.196,19.649 91.838,20.235 91.787,20.861 C 91.731,21.547 91.988,22.268 92.449,22.775 C 92.971,23.349 93.523,23.427 94.254,23.453 L 94.273,31.711 C 94.266,33.566 94.037,35.727 94.452,37.543 C 94.996,39.914 96.701,41.493 98.669,42.748 L 98.648,53.392 C 98.645,54.947 98.46,57.276 98.776,58.747 C 98.95,59.559 99.425,60.372 99.999,60.968 C 100.582,61.574 101.353,62.072 102.174,62.273 C 103.506,62.598 105.087,62.438 106.459,62.436 C 108.422,62.424 110.384,62.429 112.347,62.452 C 111.63,64.095 111.124,65.843 110.693,67.58 C 109.588,72.034 109.262,75.737 109.163,80.302 C 108.616,82.894 110.901,87.83 111.832,90.323 Z" fill-rule="evenodd" stroke-linejoin="miter" stroke="none" stroke-width="0.163" fill="#000000" marker-start="none" marker-end="none" stroke-miterlimit="79.8403193612775"/>
    <path d="M 200.657,48.946 C 200.679,48.938 200.702,48.932 200.724,48.922 C 201.029,48.793 201.342,48.471 201.454,48.159 C 201.599,47.754 201.508,47.549 201.34,47.17 L 201.287,47.069 C 201.043,47.284 200.856,48.538 200.657,48.946 Z" fill-rule="evenodd" stroke-linejoin="miter" stroke="none" stroke-width="0.163" fill="#ffffff" marker-start="none" marker-end="none" stroke-miterlimit="79.8403193612775"/>
    <path d="M 206.274,43.185 L 206.647,43.153 C 206.948,42.995 207.127,42.694 207.26,42.389 C 207.37,42.139 207.472,41.804 207.365,41.542 L 207.098,41.458 C 206.956,41.417 206.823,41.381 206.676,41.361 C 206.52,41.339 206.482,41.365 206.361,41.472 C 206.017,41.773 205.898,42.333 205.943,42.775 C 205.968,43.026 206.083,43.051 206.274,43.185 Z" fill-rule="evenodd" stroke-linejoin="miter" stroke="none" stroke-width="0.163" fill="#ffffff" marker-start="none" marker-end="none" stroke-miterlimit="79.8403193612775"/>
    <path d="M 201.217,45.548 C 201.564,45.536 203.868,45.542 203.892,45.535 C 204.183,45.443 205.88,43.922 206.271,43.59 C 206.174,43.467 205.933,43.485 205.777,43.465 C 204.527,44.156 202.139,44.786 201.217,45.548 Z" fill-rule="evenodd" stroke-linejoin="miter" stroke="none" stroke-width="0.163" fill="#ffffff" marker-start="none" marker-end="none" stroke-miterlimit="79.8403193612775"/>
    <path d="M 175.188,43.067 C 176.08,43.113 176.958,42.584 177.741,42.209 C 176.134,42.23 174.525,42.241 172.917,42.24 C 171.948,42.235 170.965,42.181 169.999,42.282 C 171.672,42.696 173.472,42.913 175.188,43.067 Z" fill-rule="evenodd" stroke-linejoin="miter" stroke="none" stroke-width="0.163" fill="#0dbbac" marker-start="none" marker-end="none" stroke-miterlimit="79.8403193612775"/>
    <path d="M 205.159,45.925 C 205.722,45.689 205.959,44.891 206.637,44.685 C 206.792,44.637 206.943,44.579 207.096,44.522 C 207.139,44.34 207.171,44.157 207.28,44.001 C 207.472,43.723 208.024,43.85 208.317,43.786 C 208.279,43.549 208.235,43.297 208.241,43.055 C 208.25,42.631 208.541,41.927 208.313,41.565 L 208.032,41.503 C 207.791,42.012 207.626,42.576 207.316,43.05 C 206.598,44.144 205.239,44.666 204.475,45.734 L 204.615,45.838 C 204.802,45.792 204.915,45.838 205.09,45.9 L 205.159,45.925 Z" fill-rule="evenodd" stroke-linejoin="miter" stroke="none" stroke-width="0.163" fill="#ffffff" marker-start="none" marker-end="none" stroke-miterlimit="79.8403193612775"/>
    <path d="M 210.235,45.573 C 210.358,45.565 210.483,45.561 210.597,45.506 C 210.908,45.357 211.046,44.887 211.124,44.581 C 211.37,43.607 211.463,41.72 210.882,40.859 C 210.708,40.602 210.54,40.576 210.257,40.524 C 210.056,40.637 209.89,40.756 209.75,40.944 C 209.16,41.736 208.953,42.912 209.135,43.872 C 209.269,44.579 209.629,45.178 210.235,45.573 Z" fill-rule="evenodd" stroke-linejoin="miter" stroke="none" stroke-width="0.163" fill="#ffffff" marker-start="none" marker-end="none" stroke-miterlimit="79.8403193612775"/>
    <path d="M 157.588,120.402 C 157.661,120.408 157.736,120.415 157.81,120.418 C 158.472,120.446 159.107,120.287 159.591,119.813 C 160.223,119.192 160.31,118.383 160.33,117.548 L 158.585,117.577 C 157.82,117.585 156.775,117.418 156.044,117.588 C 155.819,117.64 155.784,117.713 155.652,117.884 C 155.584,118.227 155.663,118.48 155.807,118.79 C 156.196,119.625 156.741,120.088 157.588,120.402 Z" fill-rule="evenodd" stroke-linejoin="miter" stroke="none" stroke-width="0.163" fill="#f1505f" marker-start="none" marker-end="none" stroke-miterlimit="79.8403193612775"/>
    <path d="M 207.797,40.858 C 208.121,40.523 210.777,31.679 211.145,30.466 C 210.783,30.447 210.439,30.396 210.084,30.332 C 209.738,30.531 207.006,39.609 206.707,40.704 C 207.065,40.788 207.432,40.817 207.797,40.858 Z" fill-rule="evenodd" stroke-linejoin="miter" stroke="none" stroke-width="0.163" fill="#ffffff" marker-start="none" marker-end="none" stroke-miterlimit="79.8403193612775"/>
    <path d="M 211.234,29.932 C 211.426,29.767 211.506,29.359 211.582,29.114 C 212.261,26.913 212.804,24.673 213.453,22.464 C 213.841,21.141 214.421,19.755 214.691,18.414 C 214.744,18.151 214.77,17.934 214.588,17.711 C 214.366,17.44 214.044,17.417 213.721,17.387 C 213.636,17.433 213.54,17.481 213.464,17.541 C 213.314,17.657 213.195,17.782 213.146,17.97 C 213.045,18.369 213.078,18.797 212.97,19.202 C 212.055,22.609 210.763,26.233 210.095,29.668 C 210.479,29.808 210.832,29.877 211.234,29.932 Z" fill-rule="evenodd" stroke-linejoin="miter" stroke="none" stroke-width="0.163" fill="#ffffff" marker-start="none" marker-end="none" stroke-miterlimit="79.8403193612775"/>
    <path d="M 189.413,15.205 C 189.627,15.21 189.826,15.195 190.038,15.173 C 190.222,14.733 190.051,8.831 190.045,7.829 C 187.361,7.856 184.677,7.861 181.992,7.846 L 181.571,7.881 C 181.895,8.184 183.442,8.53 183.998,8.813 C 184.157,8.896 184.313,8.982 184.468,9.072 C 184.623,9.162 184.776,9.256 184.926,9.354 C 185.076,9.451 185.223,9.552 185.369,9.657 C 185.513,9.761 185.656,9.87 185.797,9.981 C 185.936,10.093 186.073,10.208 186.207,10.326 C 186.342,10.444 186.474,10.566 186.602,10.691 C 186.731,10.816 186.855,10.944 186.978,11.074 C 187.1,11.205 187.22,11.339 187.335,11.476 C 187.451,11.612 187.563,11.751 187.672,11.893 C 187.781,12.035 187.886,12.18 187.988,12.327 C 188.09,12.474 188.189,12.624 188.283,12.776 C 188.378,12.928 188.469,13.082 188.556,13.238 C 188.643,13.395 188.727,13.553 188.806,13.714 C 188.886,13.874 188.961,14.036 189.032,14.201 C 189.104,14.365 189.172,14.531 189.235,14.698 C 189.298,14.865 189.357,15.034 189.413,15.205 Z" fill-rule="evenodd" stroke-linejoin="miter" stroke="none" stroke-width="0.163" fill="#ffffff" marker-start="none" marker-end="none" stroke-miterlimit="79.8403193612775"/>
    <path d="M 186.936,36.807 C 188.866,36.888 192.625,36.482 194.533,36.07 C 194.983,35.972 195.515,35.872 195.769,35.448 C 195.936,35.172 196.006,34.804 195.887,34.496 C 195.723,34.069 195.265,33.855 194.881,33.672 C 193.081,33.224 189.521,33.461 187.803,34.126 C 187.149,34.38 186.387,34.955 186.113,35.622 C 186.019,35.851 185.981,36.106 186.104,36.334 C 186.271,36.645 186.626,36.718 186.936,36.807 Z" fill-rule="evenodd" stroke-linejoin="miter" stroke="none" stroke-width="0.163" fill="#f1505f" marker-start="none" marker-end="none" stroke-miterlimit="79.8403193612775"/>
    <path d="M 94.658,35.766 C 96.212,35.778 98.325,36.078 99.629,35.072 C 100.4,34.476 100.762,33.585 100.857,32.637 C 100.957,31.643 100.842,30.742 100.188,29.95 C 99.952,29.751 99.721,29.554 99.427,29.446 C 98.206,28.993 96.02,29.229 94.68,29.241 L 94.658,35.766 Z" fill-rule="evenodd" stroke-linejoin="miter" stroke="none" stroke-width="0.163" fill="#f1505f" marker-start="none" marker-end="none" stroke-miterlimit="79.8403193612775"/>
    <path d="M 196.533,35.13 C 198.005,33.524 198.926,31.944 199.674,29.907 C 198.55,28.543 197.395,27.264 196.09,26.071 C 195.651,26.693 195.192,27.3 194.713,27.892 C 193.164,29.771 191.466,31.33 189.656,32.944 C 191.347,32.831 194.329,32.374 195.767,33.493 C 196.346,33.943 196.455,34.442 196.533,35.13 Z" fill-rule="evenodd" stroke-linejoin="miter" stroke="none" stroke-width="0.163" fill="#ffffff" marker-start="none" marker-end="none" stroke-miterlimit="79.8403193612775"/>
    <path d="M 178.81,24.07 C 178.824,24.071 178.839,24.073 178.854,24.074 C 180.989,24.229 182.486,23.653 184.113,22.301 C 183.289,22.253 182.463,22.215 181.638,22.188 C 179.977,22.151 178.357,22.328 177.027,21.108 C 176.98,21.064 176.934,21.021 176.888,20.975 C 176.844,20.93 176.8,20.883 176.757,20.836 C 176.715,20.788 176.673,20.74 176.633,20.69 C 176.593,20.64 176.553,20.59 176.516,20.538 C 176.478,20.486 176.442,20.434 176.407,20.381 C 176.372,20.327 176.339,20.273 176.306,20.218 C 176.274,20.162 176.243,20.107 176.214,20.05 C 176.184,19.993 176.157,19.936 176.13,19.878 C 176.104,19.819 176.079,19.76 176.055,19.701 C 176.032,19.641 176.009,19.582 175.989,19.521 C 175.969,19.461 175.95,19.4 175.933,19.338 C 175.915,19.277 175.899,19.215 175.885,19.153 C 175.871,19.09 175.859,19.028 175.847,18.965 C 175.836,18.901 175.827,18.838 175.819,18.775 C 175.812,18.712 175.806,18.648 175.801,18.584 C 175.796,18.521 175.793,18.457 175.792,18.393 C 175.775,17.435 176.078,16.451 176.764,15.762 C 178.206,14.316 179.882,14.951 181.611,15.204 C 182.149,15.283 182.713,15.271 183.256,15.273 C 183.451,15.277 183.649,15.265 183.845,15.259 L 183.891,15.173 C 183.819,14.944 183.699,14.771 183.558,14.58 C 182.708,13.417 181.47,12.697 180.05,12.484 C 179.957,12.471 179.864,12.459 179.77,12.449 C 179.677,12.44 179.582,12.433 179.489,12.428 C 179.394,12.423 179.3,12.421 179.205,12.42 C 179.111,12.42 179.017,12.422 178.923,12.427 C 178.829,12.431 178.735,12.438 178.641,12.447 C 178.547,12.456 178.453,12.468 178.361,12.481 C 178.267,12.495 178.174,12.511 178.082,12.529 C 177.989,12.547 177.897,12.567 177.805,12.59 C 177.714,12.613 177.623,12.638 177.533,12.665 C 177.443,12.692 177.353,12.721 177.264,12.753 C 177.175,12.784 177.088,12.818 177.001,12.854 C 176.913,12.89 176.827,12.928 176.741,12.968 C 176.657,13.008 176.572,13.05 176.489,13.094 C 176.405,13.139 176.324,13.185 176.242,13.233 C 176.161,13.281 176.081,13.331 176.003,13.383 C 175.925,13.435 175.847,13.49 175.772,13.545 C 175.698,13.6 175.625,13.656 175.555,13.714 C 175.483,13.772 175.414,13.832 175.346,13.893 C 175.278,13.955 175.212,14.018 175.147,14.082 C 175.082,14.147 175.019,14.213 174.957,14.282 C 174.896,14.349 174.836,14.418 174.778,14.49 C 174.72,14.56 174.664,14.632 174.609,14.706 C 174.554,14.779 174.502,14.855 174.451,14.931 C 174.4,15.007 174.351,15.084 174.304,15.163 C 174.257,15.242 174.212,15.321 174.169,15.402 C 174.126,15.483 174.086,15.565 174.046,15.648 C 174.008,15.731 173.97,15.815 173.935,15.899 C 173.901,15.984 173.868,16.069 173.837,16.156 C 173.807,16.243 173.778,16.33 173.752,16.417 C 173.726,16.505 173.701,16.593 173.68,16.683 C 173.658,16.771 173.638,16.861 173.62,16.951 C 173.603,17.041 173.588,17.131 173.575,17.221 C 173.35,18.81 173.722,20.409 174.69,21.695 C 175.741,23.092 177.094,23.829 178.81,24.07 Z" fill-rule="evenodd" stroke-linejoin="miter" stroke="none" stroke-width="0.163" fill="#ffffff" marker-start="none" marker-end="none" stroke-miterlimit="79.8403193612775"/>
    <path d="M 103.945,23.075 L 105.374,23.089 C 104.976,21.779 104.761,20.431 104.643,19.069 C 102.244,19.161 99.826,19.06 97.425,19.046 C 96.199,19.039 94.939,18.976 93.726,19.164 C 93.463,19.276 93.223,19.398 92.998,19.578 C 92.561,19.928 92.225,20.415 92.193,20.986 C 92.162,21.543 92.43,22.139 92.81,22.536 C 93.03,22.765 93.287,22.93 93.601,22.987 C 94.672,23.179 95.938,23.046 97.03,23.043 C 99.335,23.024 101.64,23.035 103.945,23.075 Z" fill-rule="evenodd" stroke-linejoin="miter" stroke="none" stroke-width="0.163" fill="#0dbbac" marker-start="none" marker-end="none" stroke-miterlimit="79.8403193612775"/>
    <path d="M 158.138,82.829 L 158.9,83.252 L 158.942,45.706 L 158.913,45.631 L 158.816,45.608 C 158.347,45.917 157.937,46.33 157.522,46.708 C 157.351,53.207 157.462,59.743 157.449,66.245 C 157.438,71.902 157.284,77.589 157.417,83.243 L 158.138,82.829 Z" fill-rule="evenodd" stroke-linejoin="miter" stroke="none" stroke-width="0.163" fill="#ffffff" marker-start="none" marker-end="none" stroke-miterlimit="79.8403193612775"/>
    <path d="M 209.585,29.491 C 209.799,29.334 211.429,23.203 211.616,22.446 C 211.528,22.409 211.442,22.372 211.355,22.334 C 210.442,21.94 209.604,21.357 208.764,20.828 C 206.997,19.737 205.271,18.585 203.586,17.371 C 203.186,17.088 202.805,16.766 202.418,16.465 C 202.36,18.215 202.511,19.943 202.978,21.636 C 204.038,25.477 206.213,27.592 209.585,29.491 Z" fill-rule="evenodd" stroke-linejoin="miter" stroke="none" stroke-width="0.163" fill="#fb8386" marker-start="none" marker-end="none" stroke-miterlimit="79.8403193612775"/>
    <path d="M 211.753,29.987 C 213.428,30.019 215.023,29.848 216.61,29.292 C 219.913,28.136 222.835,25.386 224.337,22.245 C 220.794,22.126 217.324,22.485 213.794,22.637 L 211.753,29.987 Z" fill-rule="evenodd" stroke-linejoin="miter" stroke="none" stroke-width="0.163" fill="#fb8386" marker-start="none" marker-end="none" stroke-miterlimit="79.8403193612775"/>
    <path d="M 213.925,22.19 C 215.275,22.163 216.649,22.154 217.987,21.971 C 218.918,20.693 219.389,19.141 219.211,17.558 C 219.2,17.464 219.188,17.369 219.174,17.275 C 219.159,17.18 219.141,17.087 219.122,16.994 C 219.101,16.9 219.08,16.807 219.055,16.715 C 219.031,16.623 219.004,16.532 218.976,16.441 C 218.946,16.35 218.915,16.26 218.882,16.171 C 218.848,16.081 218.812,15.994 218.775,15.906 C 218.737,15.818 218.697,15.732 218.654,15.647 C 218.612,15.561 218.567,15.477 218.52,15.394 C 218.474,15.311 218.425,15.229 218.375,15.148 C 218.323,15.067 218.271,14.988 218.216,14.91 C 218.161,14.832 218.105,14.756 218.046,14.681 C 217.988,14.605 217.927,14.531 217.865,14.459 C 217.803,14.387 217.738,14.317 217.673,14.248 C 217.606,14.179 217.539,14.112 217.47,14.046 C 217.4,13.981 217.329,13.918 217.256,13.856 C 217.184,13.793 217.11,13.734 217.034,13.676 C 215.865,12.762 214.382,12.25 212.895,12.448 C 212.799,12.462 212.704,12.477 212.608,12.496 C 212.513,12.514 212.418,12.535 212.324,12.557 C 212.229,12.58 212.136,12.605 212.043,12.633 C 211.95,12.66 211.858,12.689 211.767,12.721 C 211.674,12.753 211.584,12.787 211.494,12.824 C 211.404,12.86 211.315,12.899 211.227,12.94 C 211.139,12.98 211.052,13.024 210.966,13.069 C 210.881,13.114 210.796,13.161 210.712,13.21 C 210.629,13.26 210.546,13.311 210.465,13.364 C 210.384,13.417 210.305,13.472 210.227,13.53 C 210.149,13.587 210.072,13.646 209.997,13.707 C 209.921,13.768 209.847,13.831 209.775,13.896 C 209.703,13.961 209.632,14.027 209.563,14.095 C 209.494,14.163 209.427,14.233 209.361,14.305 C 209.296,14.376 209.232,14.449 209.17,14.524 C 209.108,14.598 209.048,14.675 208.99,14.752 C 207.854,16.263 207.78,18.015 208.046,19.818 C 209.074,20.754 210.41,21.533 211.723,21.986 C 211.856,21.573 211.96,21.146 212.075,20.727 C 211.402,20.432 210.912,19.992 210.589,19.323 C 210.15,18.419 210.196,17.567 210.52,16.647 C 210.705,16.298 210.887,15.963 211.164,15.675 C 211.205,15.632 211.247,15.589 211.29,15.549 C 211.334,15.507 211.378,15.467 211.423,15.428 C 211.469,15.39 211.515,15.352 211.562,15.315 C 211.61,15.279 211.658,15.243 211.707,15.209 C 211.756,15.176 211.806,15.143 211.856,15.111 C 211.908,15.08 211.959,15.049 212.011,15.02 C 212.064,14.992 212.117,14.965 212.171,14.938 C 212.224,14.912 212.279,14.887 212.334,14.864 C 212.388,14.84 212.444,14.819 212.5,14.798 C 212.556,14.778 212.613,14.759 212.67,14.741 C 212.727,14.724 212.785,14.707 212.843,14.693 C 212.9,14.678 212.958,14.665 213.017,14.653 C 213.076,14.642 213.135,14.632 213.194,14.623 C 213.253,14.615 213.312,14.607 213.372,14.602 C 213.431,14.596 213.49,14.592 213.551,14.589 C 213.61,14.587 213.67,14.586 213.73,14.586 C 214.621,14.6 215.425,15.002 216.031,15.646 C 216.075,15.693 216.117,15.74 216.159,15.789 C 216.2,15.838 216.24,15.887 216.279,15.938 C 216.318,15.989 216.355,16.041 216.391,16.093 C 216.428,16.146 216.462,16.2 216.496,16.254 C 216.529,16.309 216.561,16.364 216.592,16.42 C 216.623,16.476 216.652,16.533 216.679,16.59 C 216.707,16.648 216.733,16.706 216.757,16.766 C 216.782,16.824 216.805,16.884 216.827,16.944 C 216.848,17.004 216.869,17.064 216.886,17.126 C 216.905,17.187 216.922,17.249 216.938,17.311 C 216.952,17.373 216.967,17.435 216.979,17.498 C 216.99,17.561 217.001,17.624 217.01,17.687 C 217.019,17.75 217.026,17.814 217.031,17.877 C 217.037,17.941 217.041,18.005 217.043,18.069 C 217.045,18.133 217.046,18.196 217.045,18.26 C 217.044,18.324 217.042,18.388 217.037,18.452 C 216.967,19.508 216.505,20.292 215.729,20.972 C 216.366,19.798 216.91,18.6 216.498,17.233 C 216.248,16.402 215.667,15.68 214.882,15.3 C 214.162,14.951 213.332,14.931 212.584,15.202 C 212.538,15.218 212.493,15.236 212.447,15.254 C 212.402,15.273 212.357,15.292 212.313,15.313 C 212.27,15.335 212.226,15.356 212.183,15.379 C 212.14,15.403 212.098,15.427 212.056,15.452 C 212.015,15.478 211.974,15.504 211.934,15.532 C 211.894,15.56 211.854,15.588 211.816,15.618 C 211.777,15.647 211.739,15.678 211.702,15.71 C 211.665,15.742 211.629,15.774 211.593,15.808 C 211.558,15.841 211.524,15.876 211.491,15.911 C 211.457,15.947 211.424,15.983 211.393,16.02 C 211.362,16.057 211.33,16.095 211.301,16.134 C 211.272,16.173 211.243,16.212 211.215,16.252 C 211.188,16.292 211.162,16.333 211.136,16.375 C 211.111,16.417 211.087,16.459 211.064,16.502 C 211.041,16.545 211.019,16.588 210.998,16.633 C 210.977,16.677 210.957,16.721 210.939,16.766 C 210.632,17.5 210.603,18.32 210.937,19.05 C 211.133,19.479 211.474,19.986 211.928,20.162 C 212.871,19.939 212.432,17.871 213.121,17.27 C 213.363,17.059 213.772,16.982 214.08,17.03 C 214.425,17.082 214.747,17.278 214.939,17.571 C 214.974,17.626 215.004,17.681 215.029,17.74 C 215.055,17.799 215.075,17.86 215.09,17.922 C 215.104,17.984 215.113,18.048 215.117,18.111 C 215.122,18.175 215.119,18.239 215.112,18.303 C 215.025,19.116 214.169,21.164 213.925,22.19 Z" fill-rule="evenodd" stroke-linejoin="miter" stroke="none" stroke-width="0.163" fill="#ffffff" marker-start="none" marker-end="none" stroke-miterlimit="79.8403193612775"/>
    <path d="M 121.891,56.44 C 124.662,56.58 127.478,56.489 130.253,56.489 L 142.999,56.486 C 143.691,56.48 144.61,56.518 145.238,56.198 C 146.647,55.482 149.76,52.658 151.104,51.535 L 157.939,45.751 C 159.287,44.591 160.677,43.46 161.924,42.191 L 160.317,42.216 C 159.861,42.223 158.793,42.088 158.415,42.216 C 157.95,42.373 156.431,43.931 155.954,44.351 C 153.757,46.29 151.487,48.155 149.264,50.067 C 148.071,51.094 146.925,52.228 145.695,53.204 C 145.343,53.484 144.924,53.796 144.496,53.941 C 143.123,54.404 141.31,54.282 139.861,54.33 L 133.783,54.494 C 131.373,54.551 128.963,54.594 126.553,54.623 C 125.136,54.644 123.715,54.708 122.299,54.663 C 121.649,55.237 121.034,55.465 120.202,55.648 C 120.753,56.019 121.219,56.33 121.891,56.44 Z" fill-rule="evenodd" stroke-linejoin="miter" stroke="none" stroke-width="0.163" fill="#fdcd17" marker-start="none" marker-end="none" stroke-miterlimit="79.8403193612775"/>
    <path d="M 118.521,28.31 C 121.154,28.663 123.824,27.85 125.932,26.277 C 128.405,24.431 129.495,21.954 129.922,18.969 C 128.508,19.015 127.095,19.016 125.68,18.97 C 125.489,19.822 125.268,20.624 124.846,21.394 C 123.932,23.059 122.525,24.003 120.736,24.538 C 119.09,24.838 117.452,24.732 116.023,23.78 C 114.323,22.647 113.452,20.963 113.053,19.012 C 111.779,19.051 110.499,19.043 109.225,19.055 C 109.377,20.959 110.232,22.921 111.394,24.42 C 113.085,26.6 115.815,27.955 118.521,28.31 Z" fill-rule="evenodd" stroke-linejoin="miter" stroke="none" stroke-width="0.163" fill="#013566" marker-start="none" marker-end="none" stroke-miterlimit="79.8403193612775"/>
    <path d="M 109.243,18.636 C 110.518,18.634 111.805,18.564 113.079,18.49 C 113.073,16.827 113.655,15.269 114.794,14.048 C 115.949,12.807 117.482,12.144 119.172,12.107 C 120.899,12.069 122.518,12.684 123.765,13.888 C 125.085,15.162 125.62,16.755 125.663,18.559 C 126.97,18.585 128.281,18.555 129.588,18.55 C 129.54,17.322 129.348,16.231 128.925,15.076 C 128.302,13.654 127.479,12.38 126.403,11.255 C 124.574,9.343 122.1,8.145 119.433,8.107 C 116.791,8.069 114.299,9.148 112.424,10.999 C 110.333,13.062 109.249,15.717 109.243,18.636 Z" fill-rule="evenodd" stroke-linejoin="miter" stroke="none" stroke-width="0.163" fill="#015ea4" marker-start="none" marker-end="none" stroke-miterlimit="79.8403193612775"/>
    <path d="M 156.72,92.245 L 157.777,92.282 L 157.814,83.503 C 157.256,83.787 156.683,84.038 156.096,84.257 C 151.161,86.105 146.044,86.338 141.187,84.116 C 140.443,83.781 139.762,83.338 139.083,82.89 C 139.13,84.226 139.195,85.563 139.279,86.897 C 140.452,87.781 141.87,88.475 143.213,89.071 C 147.583,91.011 151.957,91.959 156.72,92.245 Z" fill-rule="evenodd" stroke-linejoin="miter" stroke="none" stroke-width="0.163" fill="#f1505f" marker-start="none" marker-end="none" stroke-miterlimit="79.8403193612775"/>
    <path d="M 158.244,92.281 C 159.35,92.336 160.49,92.226 161.591,92.113 C 167.086,91.544 172.142,89.642 177.001,87.084 C 177.048,85.58 177.032,84.07 177.017,82.565 C 176.567,82.934 176.099,83.256 175.612,83.574 C 174.311,84.304 173.021,84.867 171.565,85.214 C 167.342,86.22 162.01,85.673 158.271,83.393 C 158.208,86.351 158.227,89.323 158.244,92.281 Z" fill-rule="evenodd" stroke-linejoin="miter" stroke="none" stroke-width="0.163" fill="#f1505f" marker-start="none" marker-end="none" stroke-miterlimit="79.8403193612775"/>
    <path d="M 118.821,24.312 C 118.985,24.325 119.15,24.33 119.314,24.329 C 119.479,24.328 119.643,24.32 119.807,24.306 C 119.971,24.291 120.134,24.27 120.296,24.242 C 120.458,24.214 120.619,24.179 120.778,24.139 C 120.938,24.098 121.096,24.051 121.251,23.997 C 121.407,23.943 121.56,23.883 121.71,23.817 C 121.861,23.751 122.009,23.679 122.154,23.601 C 122.299,23.523 122.44,23.439 122.578,23.349 C 122.658,23.295 122.737,23.24 122.815,23.183 C 122.892,23.126 122.969,23.067 123.044,23.006 C 123.118,22.945 123.192,22.883 123.264,22.818 C 123.335,22.754 123.406,22.687 123.474,22.62 C 123.543,22.552 123.609,22.482 123.675,22.412 C 123.74,22.34 123.803,22.268 123.865,22.194 C 123.927,22.12 123.986,22.044 124.044,21.967 C 124.103,21.89 124.159,21.811 124.213,21.732 C 124.267,21.652 124.319,21.571 124.37,21.489 C 124.419,21.406 124.468,21.323 124.514,21.238 C 124.561,21.154 124.604,21.068 124.647,20.981 C 124.688,20.894 124.729,20.807 124.766,20.718 C 124.804,20.629 124.839,20.54 124.873,20.449 C 124.906,20.359 124.937,20.267 124.966,20.176 C 124.995,20.084 125.022,19.991 125.047,19.898 C 125.071,19.804 125.093,19.711 125.113,19.616 C 125.429,18.089 125.144,16.432 124.265,15.136 C 123.242,13.627 121.8,12.849 120.045,12.52 C 118.468,12.414 117.018,12.712 115.76,13.715 C 115.681,13.778 115.604,13.842 115.528,13.909 C 115.453,13.976 115.379,14.045 115.307,14.114 C 115.234,14.185 115.164,14.257 115.095,14.331 C 115.027,14.404 114.96,14.479 114.895,14.557 C 114.83,14.633 114.768,14.712 114.707,14.792 C 114.645,14.872 114.586,14.953 114.529,15.036 C 114.472,15.119 114.417,15.204 114.364,15.289 C 114.311,15.375 114.26,15.462 114.211,15.55 C 114.163,15.638 114.116,15.727 114.072,15.818 C 114.027,15.907 113.985,15.999 113.945,16.092 C 113.906,16.184 113.868,16.278 113.832,16.372 C 113.797,16.466 113.764,16.561 113.733,16.657 C 113.703,16.752 113.674,16.849 113.648,16.946 C 113.622,17.044 113.599,17.142 113.577,17.24 C 113.556,17.339 113.538,17.438 113.521,17.537 C 113.505,17.636 113.491,17.735 113.479,17.836 C 113.295,19.474 113.79,20.959 114.824,22.231 C 115.856,23.502 117.211,24.142 118.821,24.312 Z" fill-rule="evenodd" stroke-linejoin="miter" stroke="none" stroke-width="0.163" fill="#ffffff" marker-start="none" marker-end="none" stroke-miterlimit="79.8403193612775"/>
    <path d="M 119.136,22.029 C 120.025,22.012 120.855,21.831 121.568,21.272 C 122.328,20.676 122.814,19.762 122.926,18.806 C 123.037,17.853 122.779,16.833 122.179,16.078 C 121.499,15.222 120.575,14.863 119.519,14.756 C 118.667,14.762 117.863,14.928 117.154,15.423 C 116.37,15.97 115.878,16.819 115.743,17.76 C 115.601,18.758 115.841,19.818 116.473,20.613 C 117.148,21.463 118.082,21.896 119.136,22.029 Z" fill-rule="evenodd" stroke-linejoin="miter" stroke="none" stroke-width="0.163" fill="#000000" marker-start="none" marker-end="none" stroke-miterlimit="79.8403193612775"/>
    <path d="M 118.973,21.64 C 119.667,21.692 120.434,21.51 121.024,21.139 C 121.069,21.11 121.113,21.079 121.157,21.048 C 121.201,21.017 121.244,20.984 121.287,20.951 C 121.329,20.917 121.371,20.883 121.411,20.848 C 121.452,20.813 121.491,20.775 121.53,20.738 C 121.568,20.7 121.606,20.662 121.643,20.623 C 121.68,20.584 121.715,20.544 121.75,20.502 C 121.785,20.461 121.819,20.419 121.851,20.376 C 121.884,20.333 121.915,20.29 121.946,20.246 C 121.977,20.201 122.006,20.156 122.034,20.11 C 122.062,20.064 122.09,20.017 122.116,19.971 C 122.142,19.923 122.166,19.876 122.19,19.827 C 122.213,19.779 122.236,19.73 122.257,19.68 C 122.278,19.63 122.298,19.581 122.317,19.53 C 122.335,19.479 122.353,19.428 122.369,19.377 C 122.385,19.326 122.4,19.274 122.413,19.222 C 122.427,19.17 122.439,19.117 122.45,19.064 C 122.63,18.21 122.496,17.247 122,16.517 C 121.417,15.66 120.561,15.346 119.586,15.168 C 118.945,15.138 118.319,15.252 117.747,15.549 C 116.984,15.945 116.402,16.633 116.178,17.466 C 115.953,18.305 116.101,19.221 116.544,19.964 C 117.096,20.893 117.955,21.377 118.973,21.64 Z" fill-rule="evenodd" stroke-linejoin="miter" stroke="none" stroke-width="0.163" fill="#b0dfe2" marker-start="none" marker-end="none" stroke-miterlimit="79.8403193612775"/>
    <path d="M 218.919,21.759 C 220.357,21.698 221.79,21.738 223.229,21.628 C 223.906,19.807 223.871,17.431 223.385,15.566 C 222.703,12.949 220.817,10.696 218.494,9.348 C 216.284,8.066 213.224,7.785 210.776,8.448 C 208.189,9.148 206.364,10.849 205.065,13.135 C 204.465,14.402 204.093,15.553 203.875,16.94 C 205.017,17.793 206.209,18.577 207.392,19.371 C 207.287,17.967 207.338,16.722 207.929,15.416 C 208.62,13.886 209.89,12.808 211.457,12.237 C 212.999,11.677 214.5,11.691 215.987,12.408 C 217.605,13.189 218.861,14.459 219.457,16.17 C 220.133,18.114 219.796,19.948 218.919,21.759 Z" fill-rule="evenodd" stroke-linejoin="miter" stroke="none" stroke-width="0.163" fill="#013566" marker-start="none" marker-end="none" stroke-miterlimit="79.8403193612775"/>
    <path d="M 133.667,22.997 C 144.145,22.853 154.641,22.92 165.12,22.926 C 164.75,21.837 164.502,20.748 164.294,19.618 L 164.278,19.422 C 164.14,19.316 164.048,19.312 163.88,19.307 C 162.994,19.278 162.099,19.332 161.211,19.332 L 155.522,19.308 L 134.107,19.277 C 134.033,19.902 133.329,22.618 133.474,22.968 L 133.667,22.997 Z" fill-rule="evenodd" stroke-linejoin="miter" stroke="none" stroke-width="0.163" fill="#0dbbac" marker-start="none" marker-end="none" stroke-miterlimit="79.8403193612775"/>
    <path d="M 99.89,18.695 C 102.879,18.707 105.867,18.702 108.856,18.681 C 108.885,16.865 109.174,15.216 110.007,13.586 C 111.396,10.868 113.841,8.936 116.717,7.998 L 116.775,7.869 C 114.6,7.77 112.399,7.827 110.221,7.822 C 106.774,7.814 103.326,7.786 99.88,7.819 L 99.89,18.695 Z" fill-rule="evenodd" stroke-linejoin="miter" stroke="none" stroke-width="0.163" fill="#ffffff" marker-start="none" marker-end="none" stroke-miterlimit="79.8403193612775"/>
    <path d="M 200.119,19.179 C 200.426,19.127 200.726,19.046 201.027,18.968 C 201.287,18.599 201.522,18.206 201.766,17.825 C 201.851,17.38 201.923,16.944 201.963,16.492 C 201.976,16.423 201.989,16.332 202.013,16.268 C 202.091,16.061 202.124,16.037 202.316,15.965 C 202.699,16.043 203.024,16.369 203.328,16.606 C 203.506,15.422 203.913,14.278 204.452,13.212 C 205.828,10.49 207.859,8.827 210.738,7.885 C 203.992,7.751 197.221,7.855 190.471,7.846 C 190.456,10.304 190.465,12.763 190.497,15.222 C 192.212,15.241 196.045,15.015 197.502,15.315 C 198.073,15.433 198.604,15.686 199.032,16.086 C 199.914,16.908 200.107,18.035 200.119,19.179 Z" fill-rule="evenodd" stroke-linejoin="miter" stroke="none" stroke-width="0.163" fill="#f9dfa9" marker-start="none" marker-end="none" stroke-miterlimit="79.8403193612775"/>
    <path d="M 178.066,32.709 C 180.059,32.96 182.624,32.484 184.501,31.8 C 188.454,30.357 191.142,27.669 192.912,23.89 C 191.906,23.326 190.91,22.832 189.789,22.545 C 188.767,24.359 187.509,25.738 185.753,26.868 C 183.014,28.632 179.818,29.25 176.629,28.552 C 176.443,28.509 176.259,28.461 176.076,28.408 C 175.893,28.354 175.711,28.295 175.532,28.231 C 175.352,28.167 175.174,28.098 174.998,28.023 C 174.823,27.949 174.65,27.87 174.478,27.786 C 174.307,27.701 174.139,27.612 173.973,27.517 C 173.807,27.424 173.644,27.325 173.484,27.221 C 173.324,27.117 173.167,27.009 173.013,26.896 C 172.859,26.783 172.709,26.667 172.562,26.545 C 170.196,24.608 168.992,22.255 168.695,19.229 C 167.359,19.23 166.022,19.216 164.686,19.266 C 164.706,19.457 164.73,19.647 164.758,19.836 C 164.785,20.026 164.816,20.215 164.851,20.403 C 164.885,20.592 164.923,20.779 164.964,20.966 C 165.004,21.154 165.049,21.339 165.097,21.525 C 165.146,21.71 165.197,21.895 165.252,22.078 C 165.307,22.262 165.365,22.444 165.426,22.626 C 165.487,22.807 165.553,22.987 165.62,23.166 C 165.689,23.345 165.76,23.523 165.835,23.699 C 165.909,23.876 165.987,24.05 166.068,24.224 C 166.149,24.397 166.233,24.569 166.321,24.74 C 166.409,24.91 166.499,25.079 166.592,25.246 C 166.686,25.413 166.783,25.578 166.883,25.741 C 166.982,25.905 167.085,26.067 167.191,26.227 C 167.296,26.386 167.405,26.544 167.516,26.7 C 167.627,26.855 167.742,27.009 167.859,27.161 C 167.976,27.312 168.096,27.462 168.218,27.609 C 170.769,30.655 174.126,32.353 178.066,32.709 Z" fill-rule="evenodd" stroke-linejoin="miter" stroke="none" stroke-width="0.163" fill="#ffffff" marker-start="none" marker-end="none" stroke-miterlimit="79.8403193612775"/>
    <path d="M 118.641,32.871 C 121.972,33.172 125.725,31.651 128.296,29.617 C 131.828,26.82 133.163,23.282 133.686,18.938 C 132.557,18.927 131.427,18.924 130.299,18.929 C 130.01,21.362 129.229,23.594 127.61,25.467 C 125.698,27.679 122.945,28.972 120.047,29.189 C 117.489,29.39 114.957,28.547 112.87,27.09 C 110.092,25.153 108.746,22.302 108.176,19.045 C 107.118,19.044 106.061,19.054 105.003,19.075 C 105.38,22.363 106.316,25.38 108.483,27.942 C 111.095,31.03 114.673,32.526 118.641,32.871 Z" fill-rule="evenodd" stroke-linejoin="miter" stroke="none" stroke-width="0.163" fill="#ffffff" marker-start="none" marker-end="none" stroke-miterlimit="79.8403193612775"/>
    <path d="M 123.488,91.023 C 128.789,91.281 134.397,89.607 138.874,86.821 C 138.814,85.464 138.695,84.105 138.613,82.749 C 134.476,85.941 128.612,86.505 123.555,86.018 C 118.744,85.618 113.542,83.904 109.554,81.166 C 109.681,83.15 110.186,85.375 111.014,87.193 C 115.166,89.325 118.768,90.708 123.488,91.023 Z" fill-rule="evenodd" stroke-linejoin="miter" stroke="none" stroke-width="0.163" fill="#f1505f" marker-start="none" marker-end="none" stroke-miterlimit="79.8403193612775"/>
    <path d="M 192.125,21.856 C 193.927,21.856 197.313,22.276 198.681,21.061 C 199.322,20.491 199.631,19.615 199.647,18.771 C 199.662,17.936 199.316,17.001 198.714,16.414 C 198.313,16.024 197.828,15.855 197.284,15.77 C 195.772,15.534 194.037,15.691 192.502,15.692 C 189.448,15.7 186.394,15.693 183.34,15.668 C 182.726,15.65 182.097,15.653 181.487,15.572 C 180.825,15.484 180.168,15.312 179.503,15.254 C 178.683,15.183 177.823,15.367 177.192,15.919 C 176.559,16.475 176.193,17.35 176.165,18.185 C 176.134,19.108 176.516,20.053 177.17,20.704 C 177.714,21.244 178.405,21.475 179.144,21.603 C 180.89,21.906 182.87,21.741 184.645,21.742 C 187.139,21.759 189.632,21.796 192.125,21.856 Z" fill-rule="evenodd" stroke-linejoin="miter" stroke="none" stroke-width="0.163" fill="#fb8386" marker-start="none" marker-end="none" stroke-miterlimit="79.8403193612775"/>
    <path d="M 180.114,19.925 L 180.188,19.991 C 180.73,19.792 181.204,19.401 181.734,19.216 L 181.773,19.345 C 180.954,20.317 180.126,19.652 179.824,20.662 L 179.906,20.738 C 180.477,20.669 181.166,20.309 181.518,19.847 C 181.706,19.6 181.846,19.34 181.902,19.034 L 181.83,18.937 C 181.476,19.021 181.28,19.291 180.912,19.356 C 180.671,19.572 180.382,19.744 180.114,19.925 Z" fill-rule="evenodd" stroke-linejoin="miter" stroke="none" stroke-width="0.163" fill="#f6c4d4" marker-start="none" marker-end="none" stroke-miterlimit="79.8403193612775"/>
    <path d="M 180.912,19.356 C 181.141,19.017 181.267,18.678 181.318,18.27 C 181.36,17.926 181.306,17.621 181.084,17.347 C 180.793,16.989 180.277,16.778 179.823,16.758 C 179.332,16.737 178.844,16.937 178.486,17.269 C 178.219,17.518 178.042,17.85 178.04,18.22 C 178.037,18.675 178.295,19.222 178.611,19.542 C 179.016,19.951 179.582,19.928 180.114,19.925 C 180.382,19.744 180.671,19.572 180.912,19.356 Z" fill-rule="evenodd" stroke-linejoin="miter" stroke="none" stroke-width="0.163" fill="#000000" marker-start="none" marker-end="none" stroke-miterlimit="79.8403193612775"/>
    <path d="M 179.465,19.598 C 179.687,19.588 179.922,19.56 180.131,19.477 C 180.431,19.357 180.689,19.077 180.813,18.781 C 180.938,18.482 180.933,18.158 180.796,17.862 C 180.608,17.454 180.27,17.306 179.867,17.168 C 179.65,17.166 179.39,17.196 179.191,17.286 C 178.9,17.417 178.688,17.664 178.577,17.96 C 178.463,18.262 178.484,18.595 178.618,18.887 C 178.8,19.284 179.075,19.441 179.465,19.598 Z" fill-rule="evenodd" stroke-linejoin="miter" stroke="none" stroke-width="0.163" fill="#ffffff" marker-start="none" marker-end="none" stroke-miterlimit="79.8403193612775"/>
    <path d="M 206.323,40.637 C 206.876,38.753 207.446,36.874 208.035,35 C 208.579,33.322 209.198,31.655 209.626,29.942 C 206.116,28.002 203.758,25.797 202.628,21.809 C 202.135,20.067 202.009,18.291 201.963,16.492 C 201.923,16.944 201.851,17.38 201.766,17.825 C 201.791,18.218 201.75,18.726 201.476,19.035 C 201.095,19.465 200.657,19.475 200.124,19.51 C 199.745,20.573 199.286,21.42 198.216,21.928 C 196.713,22.643 192.588,22.324 190.77,22.298 L 190.831,22.336 C 192.164,23.151 193.597,23.768 194.917,24.628 C 197.482,26.301 200.813,29.715 201.561,32.741 C 202.248,35.518 201.605,38.123 204.475,39.882 C 205.048,40.232 205.676,40.466 206.323,40.637 Z" fill-rule="evenodd" stroke-linejoin="miter" stroke="none" stroke-width="0.163" fill="#fb8386" marker-start="none" marker-end="none" stroke-miterlimit="79.8403193612775"/>
    <path d="M 190.243,90.852 C 194.56,90.989 197.175,90.721 201.333,89.31 C 202.628,88.871 203.909,88.412 205.106,87.74 C 206.204,85.618 206.661,83.063 207.148,80.744 C 203.972,83.472 199.782,84.834 195.721,85.528 C 189.551,86.331 182.776,86.318 177.481,82.619 C 177.412,84.12 177.435,85.629 177.426,87.132 C 178.314,87.566 179.158,88.082 180.061,88.498 C 180.459,88.681 180.862,88.854 181.269,89.016 C 181.677,89.179 182.088,89.331 182.503,89.473 C 182.918,89.614 183.336,89.745 183.758,89.866 C 184.18,89.986 184.604,90.095 185.031,90.194 C 185.459,90.293 185.889,90.381 186.32,90.458 C 186.752,90.534 187.185,90.601 187.621,90.656 C 188.056,90.711 188.492,90.754 188.929,90.787 C 189.366,90.82 189.805,90.841 190.243,90.852 Z" fill-rule="evenodd" stroke-linejoin="miter" stroke="none" stroke-width="0.163" fill="#f1505f" marker-start="none" marker-end="none" stroke-miterlimit="79.8403193612775"/>
    <path d="M 177.997,28.223 C 179.039,28.356 180.244,28.255 181.279,28.075 C 184.732,27.477 187.454,25.155 189.419,22.374 C 187.888,22.401 186.349,22.317 184.816,22.291 C 184.681,22.496 184.528,22.688 184.357,22.866 C 183.193,24.09 181.218,24.719 179.564,24.749 C 177.708,24.781 176.105,24.094 174.784,22.8 C 173.525,21.565 172.866,20.032 172.853,18.265 C 172.852,18.157 172.854,18.048 172.859,17.94 C 172.865,17.832 172.872,17.724 172.883,17.617 C 172.892,17.508 172.906,17.401 172.92,17.294 C 172.936,17.186 172.955,17.08 172.975,16.974 C 172.995,16.868 173.019,16.762 173.045,16.657 C 173.071,16.552 173.1,16.447 173.13,16.343 C 173.161,16.24 173.195,16.136 173.231,16.035 C 173.267,15.933 173.305,15.832 173.346,15.731 C 173.387,15.631 173.431,15.531 173.476,15.433 C 173.522,15.335 173.571,15.239 173.621,15.143 C 173.672,15.047 173.724,14.953 173.779,14.86 C 173.834,14.766 173.892,14.675 173.952,14.584 C 174.011,14.494 174.074,14.405 174.138,14.318 C 174.201,14.23 174.268,14.145 174.336,14.061 C 174.404,13.977 174.474,13.894 174.546,13.813 C 174.618,13.733 174.693,13.654 174.769,13.577 C 175.936,12.418 177.6,11.815 179.234,11.833 C 180.938,11.852 182.454,12.509 183.645,13.715 C 184.035,14.185 184.391,14.675 184.745,15.173 C 186.116,15.198 187.487,15.203 188.859,15.188 C 188.55,14.1 187.87,13.032 187.179,12.146 C 185.545,10.048 183.075,8.582 180.423,8.263 C 177.765,7.943 174.975,8.843 172.892,10.493 C 172.765,10.594 172.641,10.697 172.519,10.803 C 172.397,10.91 172.278,11.02 172.162,11.132 C 172.046,11.244 171.933,11.359 171.822,11.477 C 171.712,11.595 171.604,11.716 171.5,11.839 C 171.396,11.963 171.295,12.089 171.196,12.217 C 171.098,12.346 171.004,12.477 170.913,12.61 C 170.821,12.743 170.734,12.879 170.649,13.017 C 170.564,13.154 170.483,13.294 170.406,13.436 C 170.328,13.578 170.254,13.721 170.184,13.867 C 170.114,14.013 170.047,14.16 169.984,14.309 C 169.921,14.458 169.862,14.608 169.807,14.76 C 169.751,14.912 169.7,15.065 169.652,15.219 C 169.605,15.374 169.561,15.529 169.521,15.686 C 169.481,15.843 169.446,16 169.414,16.159 C 169.382,16.318 169.354,16.477 169.33,16.636 C 169.306,16.796 169.287,16.957 169.271,17.117 C 168.984,19.847 169.617,22.586 171.383,24.73 C 173.063,26.771 175.38,27.967 177.997,28.223 Z" fill-rule="evenodd" stroke-linejoin="miter" stroke="none" stroke-width="0.163" fill="#013566" marker-start="none" marker-end="none" stroke-miterlimit="79.8403193612775"/>
    <path d="M 122.394,54.24 C 124.849,54.294 127.32,54.201 129.776,54.165 L 129.808,41.718 L 117.998,41.77 C 116.503,41.785 112.636,41.461 111.444,42.152 C 110.804,42.524 110.566,42.997 110.369,43.685 C 110.507,44.457 110.8,45.08 111.295,45.684 C 112.475,47.121 114.283,48.199 115.78,49.295 C 117.155,50.302 118.51,51.334 119.892,52.332 C 120.727,52.935 121.66,53.516 122.394,54.24 Z" fill-rule="evenodd" stroke-linejoin="miter" stroke="none" stroke-width="0.163" fill="#fdcd17" marker-start="none" marker-end="none" stroke-miterlimit="79.8403193612775"/>
    <path d="M 131.167,54.153 L 139.485,53.915 C 140.973,53.867 142.697,53.966 144.137,53.609 C 144.601,53.493 145.122,53.105 145.495,52.813 C 146.108,52.332 146.676,51.787 147.268,51.283 C 148.962,49.846 150.644,48.395 152.311,46.928 C 154.076,45.4 155.971,43.957 157.64,42.329 C 157.817,42.157 158.039,41.98 158.068,41.733 L 131.196,41.719 L 131.168,49.641 C 131.158,51.133 131.076,52.666 131.167,54.153 Z" fill-rule="evenodd" stroke-linejoin="miter" stroke="none" stroke-width="0.163" fill="#fdcd17" marker-start="none" marker-end="none" stroke-miterlimit="79.8403193612775"/>
    <path d="M 179.446,41.925 C 179.463,41.928 179.48,41.935 179.497,41.935 C 180.156,41.928 181.028,41.548 181.685,41.394 C 186.083,40.364 190.785,39.208 194.607,36.695 C 192.632,36.907 187.388,37.92 185.885,37.036 C 185.609,36.873 185.393,36.63 185.319,36.313 C 185.166,35.668 185.649,34.924 186.079,34.487 C 186.789,33.763 187.724,33.548 188.539,33.002 C 191.416,31.072 193.785,28.595 195.672,25.695 C 194.902,25.173 194.141,24.621 193.322,24.177 C 191.009,28.605 188.535,30.959 183.708,32.535 C 180.475,33.365 177.033,33.422 173.898,32.177 C 169.803,30.55 167.031,27.419 165.319,23.433 L 158.877,23.437 C 158.755,29.544 158.849,35.674 158.85,41.782 C 163.548,41.831 168.249,41.785 172.946,41.779 C 174.498,41.776 178.165,41.58 179.446,41.925 Z" fill-rule="evenodd" stroke-linejoin="miter" stroke="none" stroke-width="0.163" fill="#ffffff" marker-start="none" marker-end="none" stroke-miterlimit="79.8403193612775"/>
    <path d="M 167.544,38.329 L 181.23,38.322 C 180.603,37.724 179.94,37.205 179.205,36.746 C 178.335,36.725 177.459,36.739 176.589,36.735 L 162.788,36.7 C 163.35,37.338 163.895,37.834 164.612,38.291 C 165.575,38.368 166.576,38.325 167.544,38.329 Z" fill-rule="evenodd" stroke-linejoin="miter" stroke="none" stroke-width="0.163" fill="#fdcd17" marker-start="none" marker-end="none" stroke-miterlimit="79.8403193612775"/>
    <path d="M 120.068,55.429 C 120.455,55.426 120.83,55.247 121.172,55.075 C 121.5,54.913 121.767,54.791 121.891,54.428 C 121.368,53.675 119.544,52.579 118.705,51.962 C 116.531,50.363 114.249,48.816 112.179,47.089 C 111.217,46.285 110.111,45.195 110.024,43.865 C 109.981,43.211 110.256,42.615 110.701,42.146 C 111.073,41.754 111.543,41.534 112.069,41.437 C 113.596,41.154 116.28,41.323 117.913,41.322 L 129.741,41.304 C 129.752,37.194 129.727,33.085 129.664,28.975 C 129.578,29.059 129.491,29.143 129.403,29.225 C 129.315,29.307 129.226,29.388 129.135,29.469 C 129.045,29.549 128.954,29.629 128.862,29.707 C 128.77,29.784 128.677,29.861 128.583,29.937 C 128.489,30.013 128.394,30.087 128.299,30.161 C 128.203,30.234 128.107,30.306 128.009,30.378 C 127.912,30.449 127.813,30.519 127.714,30.587 C 127.615,30.656 127.515,30.724 127.414,30.79 C 127.314,30.856 127.212,30.921 127.109,30.985 C 127.008,31.049 126.904,31.112 126.8,31.173 C 126.696,31.234 126.592,31.294 126.487,31.353 C 126.381,31.413 126.276,31.47 126.169,31.526 C 126.062,31.583 125.955,31.638 125.846,31.691 C 125.738,31.745 125.63,31.798 125.521,31.849 C 125.411,31.899 125.301,31.949 125.191,31.997 C 125.081,32.046 124.969,32.093 124.858,32.139 C 124.746,32.185 124.634,32.229 124.521,32.272 C 124.408,32.315 124.295,32.357 124.182,32.397 C 124.068,32.437 123.954,32.477 123.839,32.514 C 123.725,32.552 123.609,32.587 123.494,32.622 C 123.378,32.657 123.262,32.691 123.146,32.723 C 123.03,32.755 122.913,32.785 122.796,32.814 C 122.679,32.844 122.562,32.871 122.444,32.897 C 122.326,32.924 122.208,32.949 122.09,32.972 C 121.971,32.995 121.853,33.018 121.734,33.039 C 121.615,33.059 121.496,33.078 121.377,33.096 C 121.257,33.114 121.138,33.13 121.018,33.145 C 120.898,33.16 120.778,33.173 120.658,33.185 C 120.538,33.197 120.418,33.207 120.298,33.216 C 120.177,33.226 120.057,33.233 119.936,33.239 C 119.816,33.245 119.696,33.25 119.575,33.253 C 119.454,33.256 119.334,33.258 119.213,33.258 C 115.208,33.231 111.447,31.557 108.647,28.729 C 107.216,27.148 106.291,25.475 105.531,23.503 C 101.905,23.467 98.278,23.454 94.651,23.464 L 94.688,28.831 C 96.315,28.875 99.17,28.407 100.41,29.591 C 101.105,30.254 101.309,31.264 101.306,32.19 C 101.303,33.32 100.925,34.417 100.091,35.205 C 98.706,36.512 96.419,36.185 94.663,36.169 C 94.706,36.573 94.741,36.986 94.824,37.384 C 95.165,39.032 96.246,40.486 97.542,41.525 C 99.398,43.012 102.285,43.719 104.439,45.039 C 106.128,46.074 107.763,47.231 109.411,48.332 C 112.946,50.722 116.499,53.088 120.068,55.429 Z" fill-rule="evenodd" stroke-linejoin="miter" stroke="none" stroke-width="0.163" fill="#ffffff" marker-start="none" marker-end="none" stroke-miterlimit="79.8403193612775"/>
    <path d="M 134.395,18.844 C 135.58,18.936 136.832,18.866 138.022,18.863 L 145.584,18.829 C 153.269,18.841 160.965,18.931 168.649,18.814 C 168.648,16.903 168.993,14.977 169.914,13.286 C 171.494,10.383 173.856,8.807 176.957,7.901 C 175.288,7.793 173.596,7.836 171.924,7.835 L 163.993,7.832 L 138.65,7.795 C 132.919,7.791 127.17,7.707 121.441,7.855 C 123.091,8.441 124.606,9.093 125.956,10.238 C 128.61,12.488 129.709,15.15 129.98,18.546 C 130.857,18.54 133.652,18.376 134.304,18.626 L 134.395,18.844 Z" fill-rule="evenodd" stroke-linejoin="miter" stroke="none" stroke-width="0.163" fill="#ffffff" marker-start="none" marker-end="none" stroke-miterlimit="79.8403193612775"/>
    <path d="M 130.139,41.305 L 158.41,41.302 C 158.495,35.351 158.442,29.394 158.45,23.442 L 133.163,23.456 C 132.515,25.357 131.432,27.049 130.145,28.579 C 130.031,32.81 130.137,37.071 130.139,41.305 Z" fill-rule="evenodd" stroke-linejoin="miter" stroke="none" stroke-width="0.163" fill="#ffffff" marker-start="none" marker-end="none" stroke-miterlimit="79.8403193612775"/>
    <path d="M 138.028,38.085 C 138.194,38.091 138.11,38.111 138.271,38.002 C 138.295,37.596 138.363,37.088 138.132,36.729 C 137.244,36.472 133.196,36.623 132.036,36.66 C 131.832,36.791 131.616,37.021 131.522,37.247 C 131.463,37.388 131.5,37.516 131.594,37.633 C 132.145,38.317 137.028,38.082 138.028,38.085 Z" fill-rule="evenodd" stroke-linejoin="miter" stroke="none" stroke-width="0.163" fill="#000000" marker-start="none" marker-end="none" stroke-miterlimit="79.8403193612775"/>
    <path d="M 155.047,117.038 C 155.222,117.062 155.352,117.066 155.527,117.034 C 155.159,116.704 153.672,116.235 153.137,115.96 C 151.885,115.313 150.652,114.419 149.593,113.494 C 142.511,107.315 139.441,96.508 138.852,87.428 C 137.793,87.951 136.769,88.521 135.683,88.993 C 128.71,92.03 121.9,92.253 114.788,89.466 C 113.587,89.004 112.431,88.429 111.277,87.859 C 113.09,92.047 115.72,96.205 118.752,99.617 C 125.263,106.945 133.358,112.277 142.785,115.052 C 144.333,115.507 145.895,115.946 147.482,116.243 C 149.976,116.71 152.518,116.889 155.047,117.038 Z" fill-rule="evenodd" stroke-linejoin="miter" stroke="none" stroke-width="0.163" fill="#ffffff" marker-start="none" marker-end="none" stroke-miterlimit="79.8403193612775"/>
    <path d="M 103.243,61.987 C 103.592,61.999 103.939,62.006 104.287,62.009 L 138.334,62.017 L 148.258,62.013 C 150.158,62.014 152.18,62.152 154.062,61.895 C 154.979,61.768 155.844,61.372 156.486,60.695 C 156.827,60.337 156.964,59.702 157.03,59.229 C 157.201,57.982 157.068,56.57 157.068,55.306 L 157.063,47.055 C 155.78,48.236 154.403,49.321 153.06,50.432 L 147.242,55.266 C 146.673,55.746 146.064,56.304 145.374,56.596 C 144.079,57.145 137.518,56.883 135.773,56.882 L 126.181,56.885 C 124.847,56.885 122.669,57.063 121.455,56.775 C 120.642,56.582 116.17,53.348 115.227,52.704 C 113.143,51.283 111.021,49.918 108.928,48.509 C 107.388,47.472 105.859,46.35 104.267,45.397 C 102.649,44.428 100.858,43.739 99.119,43.017 C 98.911,45.951 99.05,48.98 99.039,51.925 C 99.032,53.7 98.848,56.58 99.109,58.264 C 99.235,59.078 99.494,59.799 100.028,60.443 C 100.879,61.472 101.951,61.887 103.243,61.987 Z" fill-rule="evenodd" stroke-linejoin="miter" stroke="none" stroke-width="0.163" fill="#b0dfe2" marker-start="none" marker-end="none" stroke-miterlimit="79.8403193612775"/>
    <path d="M 160.083,117.129 C 161.079,117.149 162.115,117.039 163.107,116.962 C 163.729,116.916 164.349,116.859 164.969,116.791 C 165.588,116.722 166.205,116.642 166.822,116.551 C 167.438,116.459 168.052,116.356 168.665,116.242 C 169.277,116.128 169.887,116.002 170.495,115.865 C 171.103,115.729 171.708,115.581 172.31,115.422 C 172.913,115.263 173.512,115.093 174.108,114.911 C 174.704,114.731 175.297,114.538 175.885,114.335 C 176.475,114.132 177.059,113.919 177.64,113.693 C 190.211,108.884 199.421,100.639 204.921,88.32 C 204.036,88.773 203.108,89.119 202.177,89.46 C 201.117,89.829 200.056,90.199 198.975,90.503 C 196.909,91.084 194.754,91.262 192.614,91.298 C 186.933,91.392 182.371,90.377 177.373,87.584 C 176.868,92.952 175.884,98.263 173.712,103.231 C 171.619,108.018 168.222,112.832 163.66,115.523 C 162.521,116.195 161.31,116.649 160.083,117.129 Z" fill-rule="evenodd" stroke-linejoin="miter" stroke="none" stroke-width="0.163" fill="#ffffff" marker-start="none" marker-end="none" stroke-miterlimit="79.8403193612775"/>
    <path d="M 99.898,7.432 C 103.528,7.599 107.262,7.456 110.902,7.454 L 132.57,7.443 L 171.99,7.457 C 178.019,7.452 184.053,7.507 190.08,7.436 L 190.068,0.452 L 99.883,0.439 C 99.877,2.767 99.826,5.106 99.898,7.432 Z" fill-rule="evenodd" stroke-linejoin="miter" stroke="none" stroke-width="0.163" fill="#ffffff" marker-start="none" marker-end="none" stroke-miterlimit="79.8403193612775"/>
    <path d="M 157.266,117.053 C 157.814,117.098 158.382,117.133 158.927,117.051 C 161.245,116.703 164.11,114.939 165.874,113.456 C 173.371,107.148 176.158,96.971 176.969,87.579 C 170.598,90.688 166.259,92.334 159.115,92.683 C 152.187,93.033 145.221,90.89 139.271,87.459 C 139.306,89.113 139.579,90.817 139.851,92.448 C 140.818,98.24 142.54,104.152 146.059,108.941 C 148.129,111.758 150.485,114.071 153.603,115.716 C 154.749,116.321 155.977,116.854 157.266,117.053 Z" fill-rule="evenodd" stroke-linejoin="miter" stroke="none" stroke-width="0.163" fill="#ffffff" marker-start="none" marker-end="none" stroke-miterlimit="79.8403193612775"/>
    <path d="M 109.163,80.302 C 110.276,81.25 111.595,81.944 112.905,82.581 C 113.219,82.735 113.535,82.884 113.854,83.026 C 114.172,83.17 114.493,83.307 114.817,83.44 C 115.14,83.572 115.466,83.698 115.793,83.819 C 116.121,83.941 116.451,84.056 116.782,84.166 C 117.114,84.276 117.447,84.381 117.782,84.479 C 118.117,84.578 118.454,84.671 118.793,84.759 C 119.131,84.846 119.471,84.927 119.812,85.003 C 120.153,85.079 120.494,85.149 120.839,85.213 C 121.182,85.278 121.526,85.336 121.871,85.389 C 122.217,85.441 122.563,85.488 122.91,85.529 C 123.257,85.57 123.604,85.605 123.953,85.634 C 124.301,85.663 124.649,85.687 124.998,85.704 C 125.347,85.721 125.696,85.733 126.045,85.738 C 126.395,85.743 126.745,85.743 127.094,85.736 C 127.443,85.73 127.792,85.718 128.141,85.7 C 128.49,85.682 128.839,85.658 129.186,85.628 C 131.935,85.408 134.502,84.688 136.914,83.347 C 137.429,83.061 138.114,82.693 138.491,82.234 C 138.583,82.122 138.661,81.999 138.739,81.879 C 140.625,84.053 144.485,85.061 147.245,85.253 C 150.607,85.486 154.008,84.693 157.102,83.416 C 156.88,75.827 157.342,68.21 157.096,60.625 C 155.921,61.894 154.806,62.358 153.092,62.416 C 150.996,62.487 148.882,62.432 146.784,62.433 L 134.994,62.452 L 119.947,62.459 C 117.417,62.457 114.875,62.525 112.347,62.452 C 111.63,64.095 111.124,65.843 110.693,67.58 C 109.588,72.034 109.262,75.737 109.163,80.302 Z" fill-rule="evenodd" stroke-linejoin="miter" stroke="none" stroke-width="0.163" fill="#0dbbac" marker-start="none" marker-end="none" stroke-miterlimit="79.8403193612775"/>
    <path d="M 111.832,90.323 C 111.969,92.007 112.836,94.244 113.355,95.868 C 116.642,106.149 122.428,115.293 130.673,122.307 C 131.009,122.595 131.348,122.879 131.691,123.159 C 132.033,123.438 132.379,123.713 132.729,123.984 C 133.078,124.256 133.431,124.522 133.787,124.784 C 134.143,125.046 134.502,125.303 134.864,125.557 C 135.227,125.81 135.592,126.059 135.961,126.303 C 136.33,126.547 136.702,126.786 137.076,127.021 C 137.451,127.256 137.828,127.486 138.209,127.712 C 138.589,127.937 138.972,128.157 139.358,128.374 C 139.744,128.589 140.133,128.8 140.524,129.007 C 140.915,129.213 141.308,129.414 141.704,129.61 C 142.101,129.806 142.499,129.998 142.9,130.185 C 143.301,130.371 143.705,130.552 144.11,130.729 C 144.515,130.905 144.923,131.076 145.333,131.243 C 145.742,131.408 146.154,131.57 146.568,131.726 C 146.982,131.882 147.397,132.033 147.815,132.178 C 148.232,132.324 148.651,132.464 149.073,132.6 C 149.493,132.735 149.916,132.864 150.34,132.989 C 150.765,133.114 151.19,133.233 151.617,133.347 C 152.044,133.461 152.473,133.569 152.903,133.673 C 153.333,133.776 153.764,133.874 154.196,133.967 C 154.629,134.059 155.062,134.147 155.497,134.228 C 155.931,134.31 156.367,134.386 156.803,134.457 C 157.24,134.528 157.677,134.593 158.115,134.654 C 158.553,134.714 158.992,134.768 159.431,134.817 C 159.87,134.866 160.31,134.91 160.751,134.948 C 161.192,134.986 161.632,135.018 162.074,135.046 C 162.515,135.073 162.956,135.095 163.399,135.111 C 163.841,135.127 164.282,135.137 164.725,135.142 C 165.167,135.148 165.608,135.147 166.051,135.141 C 166.493,135.135 166.935,135.124 167.377,135.107 C 167.818,135.09 168.261,135.067 168.701,135.04 C 169.143,135.012 169.584,134.978 170.024,134.94 C 183.991,133.81 197.695,126.648 206.753,115.981 C 207.024,115.654 207.292,115.324 207.555,114.992 C 207.819,114.659 208.079,114.324 208.334,113.985 C 208.59,113.646 208.841,113.304 209.088,112.959 C 209.335,112.614 209.578,112.266 209.817,111.915 C 210.056,111.564 210.29,111.21 210.52,110.854 C 210.751,110.497 210.977,110.138 211.198,109.776 C 211.419,109.413 211.636,109.049 211.848,108.681 C 212.061,108.314 212.269,107.944 212.472,107.572 C 212.676,107.2 212.875,106.824 213.069,106.447 C 213.264,106.07 213.454,105.69 213.639,105.308 C 213.824,104.927 214.005,104.542 214.181,104.156 C 214.356,103.77 214.528,103.382 214.694,102.991 C 214.861,102.601 215.022,102.208 215.179,101.814 C 215.336,101.42 215.488,101.023 215.635,100.626 C 215.782,100.227 215.925,99.827 216.062,99.426 C 216.2,99.024 216.333,98.621 216.461,98.216 C 216.588,97.811 216.711,97.406 216.829,96.998 C 216.947,96.59 217.06,96.181 217.168,95.77 C 217.276,95.36 217.378,94.948 217.476,94.535 C 217.574,94.123 217.667,93.708 217.755,93.294 C 217.843,92.878 217.926,92.462 218.004,92.044 C 218.081,91.628 218.154,91.209 218.222,90.79 C 218.289,90.371 218.352,89.951 218.41,89.531 C 218.467,89.11 218.519,88.689 218.566,88.267 C 218.613,87.845 218.656,87.423 218.692,87 C 218.729,86.578 218.761,86.155 218.788,85.731 C 218.814,85.308 218.835,84.883 218.853,84.459 C 218.869,84.035 218.88,83.611 218.886,83.187 C 218.892,82.763 218.893,82.338 218.888,81.913 C 218.884,81.489 218.875,81.065 218.86,80.64 C 218.845,80.217 218.826,79.792 218.801,79.369 C 218.776,78.945 218.746,78.522 218.711,78.099 C 217.99,69.441 215.319,61.65 210.666,54.33 C 209.063,51.808 207.212,49.289 205.101,47.167 C 204.918,47.384 204.718,47.585 204.488,47.755 C 203.593,48.417 201.774,49.573 200.649,49.368 C 200.472,49.337 200.538,49.373 200.429,49.226 L 200.579,49.03 L 200.533,48.984 C 200.413,49.039 200.298,49.083 200.17,49.12 C 199.81,49.223 195.694,48.945 195.451,48.785 C 195.381,48.739 195.385,48.722 195.375,48.634 C 195.322,48.149 195.823,47.484 196.123,47.13 C 197.64,47.231 199.232,47.393 200.544,48.2 L 200.938,47.356 C 200.945,47.148 200.967,46.994 200.889,46.796 C 200.709,46.49 200.494,46.239 200.459,45.876 C 200.555,45.714 200.588,45.686 200.779,45.622 C 200.903,45.58 201.086,45.548 201.217,45.548 C 202.139,44.786 204.527,44.156 205.777,43.465 C 205.756,43.431 205.734,43.399 205.716,43.363 C 205.42,42.789 205.945,41.73 206.155,41.16 C 203.668,40.283 202.047,38.642 201.648,35.987 C 201.472,34.81 201.456,33.603 201.111,32.457 C 200.873,31.668 200.503,31.002 200.053,30.317 C 199.26,32.323 198.205,34.051 196.671,35.584 C 193.461,38.788 187.719,40.357 183.442,41.423 C 181.898,41.808 180.309,42.297 178.708,42.295 C 178.112,42.876 175.867,45.498 175.24,45.522 L 175.196,45.412 C 175.21,44.885 176.89,43.431 177.315,42.942 C 175.017,44.028 173.197,43.199 170.828,42.974 C 171.315,44.703 174.463,48.825 174.169,50.272 C 174.07,50.758 173.707,51.381 173.271,51.633 C 173.045,51.765 172.792,51.784 172.544,51.713 C 172.067,51.577 171.678,51.195 171.395,50.803 C 170.699,49.842 170.178,48.601 169.62,47.545 C 168.67,45.769 167.683,44.014 166.661,42.279 C 165.3,42.262 163.939,42.27 162.577,42.3 C 161.464,43.172 160.414,44.179 159.332,45.097 C 159.262,54.339 159.243,63.581 159.277,72.824 C 159.279,76.367 159.234,79.913 159.284,83.455 C 161.841,84.847 165.29,85.355 168.171,85.24 C 171.475,85.108 174.91,84.189 177.202,81.686 L 177.262,81.755 C 179.494,84.29 184.376,85.243 187.596,85.45 C 194.315,85.879 202.057,84.713 207.265,80.138 L 207.416,80.156 L 207.432,80.125 L 207.351,80.062 L 207.414,80.011 L 207.455,80.081 L 207.488,79.97 C 207.61,80.066 207.612,80.079 207.621,80.232 C 207.661,80.921 207.211,82.407 207.036,83.136 C 205.476,89.628 202.006,95.781 197.595,100.769 C 190.421,108.883 179.848,114.49 169.272,116.604 C 166.476,117.163 163.63,117.387 160.788,117.56 C 160.77,118.428 160.694,119.232 160.123,119.937 C 160.067,120.006 160.007,120.071 159.944,120.134 C 159.881,120.197 159.815,120.256 159.745,120.311 C 159.676,120.367 159.604,120.419 159.529,120.467 C 159.454,120.516 159.378,120.56 159.298,120.6 C 159.219,120.64 159.138,120.677 159.055,120.709 C 158.972,120.741 158.887,120.768 158.802,120.791 C 158.716,120.815 158.629,120.834 158.541,120.848 C 158.453,120.862 158.365,120.872 158.277,120.877 C 158.186,120.883 158.095,120.885 158.004,120.883 C 157.913,120.88 157.822,120.873 157.733,120.861 C 157.643,120.85 157.553,120.834 157.464,120.814 C 157.376,120.794 157.288,120.769 157.202,120.741 C 157.116,120.712 157.032,120.679 156.949,120.642 C 156.865,120.606 156.784,120.564 156.706,120.519 C 156.627,120.474 156.55,120.426 156.476,120.373 C 156.402,120.321 156.33,120.265 156.261,120.206 C 155.458,119.501 155.296,118.593 155.24,117.584 C 154.33,117.45 153.39,117.424 152.472,117.343 C 150.827,117.204 149.192,116.988 147.567,116.693 C 136.237,114.56 125.229,108.299 117.941,99.312 C 116.442,97.464 115.05,95.539 113.765,93.537 C 113.115,92.508 112.572,91.394 111.882,90.394 L 111.832,90.323 Z" fill-rule="evenodd" stroke-linejoin="miter" stroke="none" stroke-width="0.163" fill="#0dbbac" marker-start="none" marker-end="none" stroke-miterlimit="79.8403193612775"/>
    <path d="M 200.889,46.796 C 200.787,46.761 200.706,46.722 200.617,46.662 C 200.354,46.485 200.116,46.329 199.802,46.256 C 199.452,46.175 199.029,46.103 198.713,46.304 C 198.72,46.332 198.72,46.363 198.736,46.388 C 199.006,46.826 200.444,47.179 200.938,47.356 C 200.945,47.148 200.967,46.994 200.889,46.796 Z" fill-rule="evenodd" stroke-linejoin="miter" stroke="none" stroke-width="0.163" fill="#ffffff" marker-start="none" marker-end="none" stroke-miterlimit="79.8403193612775"/>
    <path d="M 204.1,73.093 C 204.783,73.132 205.401,73.088 206.037,72.802 C 206.086,72.779 206.135,72.756 206.183,72.73 C 206.231,72.705 206.279,72.679 206.326,72.651 C 206.372,72.624 206.419,72.595 206.464,72.565 C 206.51,72.536 206.555,72.504 206.598,72.473 C 206.642,72.441 206.686,72.408 206.728,72.374 C 206.771,72.339 206.812,72.304 206.853,72.269 C 206.893,72.232 206.934,72.195 206.972,72.157 C 207.011,72.119 207.049,72.081 207.086,72.041 C 207.123,72.001 207.159,71.96 207.194,71.918 C 207.229,71.876 207.263,71.834 207.296,71.791 C 207.329,71.748 207.361,71.703 207.391,71.659 C 207.422,71.614 207.451,71.568 207.48,71.522 C 207.509,71.476 207.536,71.429 207.562,71.382 C 207.589,71.333 207.613,71.286 207.638,71.237 C 207.662,71.188 207.684,71.138 207.706,71.088 C 207.727,71.038 207.747,70.988 207.767,70.937 C 207.786,70.887 207.804,70.836 207.821,70.786 C 207.837,70.734 207.853,70.683 207.867,70.632 C 207.881,70.58 207.894,70.528 207.905,70.476 C 207.916,70.423 207.926,70.37 207.935,70.317 C 207.943,70.265 207.951,70.212 207.957,70.158 C 207.963,70.105 207.968,70.052 207.972,69.999 C 207.975,69.945 207.977,69.891 207.978,69.837 C 207.978,69.784 207.978,69.73 207.975,69.677 C 207.973,69.623 207.969,69.57 207.965,69.516 C 207.96,69.463 207.954,69.41 207.946,69.357 C 207.939,69.304 207.93,69.251 207.92,69.198 C 207.91,69.146 207.898,69.094 207.885,69.042 C 207.873,68.99 207.859,68.938 207.843,68.886 C 207.827,68.835 207.81,68.784 207.793,68.734 C 207.775,68.683 207.755,68.634 207.735,68.584 C 207.714,68.535 207.692,68.486 207.669,68.437 C 207.169,67.4 206.318,66.906 205.269,66.56 C 204.484,66.447 203.758,66.537 203.057,66.928 C 203.006,66.956 202.956,66.986 202.907,67.017 C 202.858,67.048 202.809,67.08 202.762,67.113 C 202.714,67.147 202.668,67.181 202.623,67.217 C 202.577,67.252 202.532,67.289 202.488,67.327 C 202.445,67.365 202.402,67.405 202.361,67.445 C 202.319,67.486 202.278,67.526 202.239,67.569 C 202.199,67.611 202.161,67.655 202.124,67.7 C 202.086,67.743 202.05,67.789 202.015,67.836 C 201.98,67.882 201.947,67.928 201.914,67.977 C 201.881,68.025 201.85,68.073 201.82,68.123 C 201.791,68.173 201.762,68.223 201.735,68.275 C 201.707,68.326 201.681,68.377 201.657,68.43 C 201.632,68.483 201.609,68.536 201.588,68.589 C 201.565,68.643 201.545,68.698 201.526,68.752 C 201.508,68.807 201.49,68.862 201.473,68.917 C 201.457,68.973 201.443,69.03 201.43,69.086 C 201.417,69.14 201.406,69.193 201.396,69.247 C 201.386,69.302 201.378,69.356 201.371,69.41 C 201.363,69.465 201.358,69.52 201.354,69.574 C 201.349,69.629 201.346,69.684 201.345,69.739 C 201.343,69.794 201.343,69.849 201.343,69.904 C 201.345,69.959 201.347,70.014 201.351,70.069 C 201.354,70.124 201.36,70.178 201.366,70.233 C 201.372,70.288 201.38,70.343 201.389,70.397 C 201.398,70.451 201.409,70.505 201.421,70.559 C 201.432,70.612 201.446,70.666 201.46,70.719 C 201.475,70.772 201.49,70.824 201.508,70.877 C 201.525,70.929 201.542,70.981 201.563,71.032 C 201.582,71.084 201.603,71.135 201.625,71.185 C 201.647,71.235 201.67,71.286 201.695,71.335 C 201.719,71.384 201.745,71.432 201.772,71.48 C 201.8,71.528 201.827,71.575 201.857,71.622 C 202.39,72.468 203.158,72.869 204.1,73.093 Z" fill-rule="evenodd" stroke-linejoin="miter" stroke="none" stroke-width="0.163" fill="#000000" marker-start="none" marker-end="none" stroke-miterlimit="79.8403193612775"/>
    <path d="M 203.996,72.692 C 204.641,72.758 205.231,72.73 205.829,72.458 C 205.917,72.417 206.002,72.371 206.086,72.322 C 206.17,72.273 206.251,72.22 206.329,72.163 C 206.407,72.105 206.482,72.044 206.555,71.979 C 206.627,71.914 206.695,71.845 206.76,71.774 C 206.826,71.702 206.887,71.628 206.945,71.549 C 207.003,71.471 207.057,71.391 207.107,71.308 C 207.156,71.225 207.202,71.139 207.243,71.052 C 207.284,70.963 207.321,70.874 207.353,70.783 C 207.62,70.05 207.603,69.248 207.249,68.547 C 206.817,67.688 206.098,67.287 205.231,66.983 C 204.652,66.849 204.036,66.925 203.49,67.157 C 203.446,67.176 203.403,67.197 203.361,67.218 C 203.318,67.239 203.275,67.261 203.234,67.285 C 203.192,67.308 203.151,67.332 203.111,67.359 C 203.07,67.384 203.031,67.411 202.991,67.438 C 202.953,67.466 202.914,67.494 202.876,67.523 C 202.839,67.552 202.802,67.583 202.766,67.614 C 202.73,67.646 202.695,67.678 202.66,67.711 C 202.626,67.744 202.592,67.778 202.56,67.813 C 202.527,67.848 202.495,67.884 202.465,67.92 C 202.433,67.957 202.404,67.994 202.375,68.032 C 202.346,68.07 202.317,68.108 202.291,68.148 C 202.263,68.187 202.237,68.227 202.213,68.268 C 202.187,68.308 202.164,68.35 202.141,68.391 C 202.118,68.434 202.096,68.476 202.075,68.519 C 202.054,68.562 202.035,68.605 202.017,68.65 C 201.998,68.694 201.98,68.738 201.965,68.783 C 201.946,68.831 201.929,68.879 201.913,68.927 C 201.898,68.976 201.884,69.025 201.87,69.074 C 201.858,69.123 201.846,69.173 201.835,69.223 C 201.824,69.273 201.815,69.323 201.807,69.373 C 201.799,69.424 201.792,69.474 201.787,69.525 C 201.782,69.576 201.778,69.626 201.775,69.678 C 201.772,69.728 201.771,69.779 201.771,69.83 C 201.771,69.881 201.772,69.933 201.775,69.983 C 201.777,70.034 201.781,70.085 201.786,70.135 C 201.791,70.187 201.798,70.237 201.806,70.288 C 201.814,70.338 201.823,70.388 201.833,70.438 C 201.843,70.488 201.855,70.537 201.869,70.586 C 201.881,70.636 201.895,70.685 201.911,70.734 C 201.927,70.782 201.944,70.83 201.962,70.878 C 201.979,70.925 201.999,70.973 202.02,71.02 C 202.04,71.066 202.061,71.113 202.084,71.158 C 202.5,71.99 203.147,72.405 203.996,72.692 Z" fill-rule="evenodd" stroke-linejoin="miter" stroke="none" stroke-width="0.163" fill="#0dbbac" marker-start="none" marker-end="none" stroke-miterlimit="79.8403193612775"/>
   </g>
   <g id="Layer_1"/>
  </g>
 </g>
</svg>
